<svg width="400" height="400" viewBox="0 0 400 400" fill="none" xmlns="http://www.w3.org/2000/svg">
<rect width="400" height="400" rx="40" fill="#F6F8F5"/>
<path d="M143.859 161.376C144.027 161.376 144.111 161.626 144.111 162.127C144.111 162.628 144.027 162.878 143.859 162.878C140.847 162.878 138.085 164.005 135.575 166.258C133.064 168.512 130.972 171.767 129.299 176.024L104.947 239.499C104.863 239.833 104.403 240 103.566 240C102.729 240 102.269 239.833 102.185 239.499L85.9925 204.945L72.8124 239.499C72.7287 239.833 72.2684 240 71.4316 240C70.5948 240 70.1345 239.833 70.0508 239.499L38.293 171.767C36.5357 168.095 35.0294 165.716 33.7741 164.631C32.6026 163.462 30.8034 162.878 28.3766 162.878C28.1255 162.878 28 162.628 28 162.127C28 161.626 28.1255 161.376 28.3766 161.376L31.6402 161.501C33.4813 161.668 35.5733 161.751 37.9165 161.751C42.6027 161.751 46.8706 161.668 50.72 161.501C51.8916 161.417 53.356 161.376 55.1134 161.376C55.3644 161.376 55.49 161.626 55.49 162.127C55.49 162.628 55.3644 162.878 55.1134 162.878C52.8539 162.878 51.2221 163.128 50.2179 163.629C49.2974 164.046 48.8371 164.881 48.8371 166.133C48.8371 167.552 49.5903 169.889 51.0966 173.144L75.0718 224.1L84.1096 200.813L70.4274 171.767C68.9211 168.679 67.4985 166.425 66.1596 165.006C64.9043 163.587 63.398 162.878 61.6407 162.878C61.3896 162.878 61.2641 162.628 61.2641 162.127C61.2641 161.626 61.3896 161.376 61.6407 161.376L64.6533 161.501C66.4943 161.668 68.3353 161.751 70.1764 161.751C74.1095 161.751 77.5823 161.668 80.5949 161.501C81.4318 161.417 82.5196 161.376 83.8586 161.376C84.1096 161.376 84.2352 161.626 84.2352 162.127C84.2352 162.628 84.1096 162.878 83.8586 162.878C82.5196 162.878 81.5573 163.045 80.9715 163.379C80.4694 163.629 80.2184 164.13 80.2184 164.881C80.2184 166.217 81.2226 168.971 83.231 173.144L90.0093 187.417L94.5282 175.523C96.0345 171.6 96.7877 168.637 96.7877 166.634C96.7877 164.13 95.5324 162.878 93.0219 162.878C92.7709 162.878 92.6453 162.628 92.6453 162.127C92.6453 161.626 92.7709 161.376 93.0219 161.376C93.775 161.376 94.6537 161.459 95.6579 161.626C96.6621 161.709 98.5032 161.751 101.181 161.751C102.687 161.751 104.445 161.668 106.453 161.501L111.349 161.376C111.516 161.376 111.6 161.626 111.6 162.127C111.6 162.628 111.516 162.878 111.349 162.878C108.503 162.878 105.993 163.921 103.817 166.008C101.641 168.095 99.6747 171.433 97.9174 176.024L91.8922 191.548L107.332 224.1L125.658 176.399C126.495 174.229 126.914 172.184 126.914 170.265C126.914 167.928 126.202 166.133 124.78 164.881C123.441 163.546 121.516 162.878 119.006 162.878C118.755 162.878 118.629 162.628 118.629 162.127C118.629 161.626 118.755 161.376 119.006 161.376L124.529 161.501C127.541 161.668 130.261 161.751 132.688 161.751C134.361 161.751 136.286 161.668 138.462 161.501L143.859 161.376Z" fill="#4D2407"/>
<path d="M169.337 228.983C169.337 231.653 169.63 233.615 170.216 234.867C170.885 236.035 172.099 236.87 173.856 237.371C175.697 237.872 178.542 238.122 182.392 238.122C182.643 238.122 182.768 238.372 182.768 238.873C182.768 239.374 182.643 239.624 182.392 239.624C178.961 239.624 176.283 239.583 174.358 239.499L163.437 239.374L154.4 239.499C152.81 239.583 150.634 239.624 147.872 239.624C147.621 239.624 147.496 239.374 147.496 238.873C147.496 238.372 147.621 238.122 147.872 238.122C150.718 238.122 152.768 237.913 154.023 237.496C155.278 237.079 156.115 236.286 156.534 235.117C157.036 233.949 157.287 232.071 157.287 229.483V171.517C157.287 169.013 157.036 167.176 156.534 166.008C156.115 164.839 155.236 164.046 153.898 163.629C152.642 163.128 150.634 162.878 147.872 162.878C147.621 162.878 147.496 162.628 147.496 162.127C147.496 161.626 147.621 161.376 147.872 161.376L154.4 161.501C158.082 161.668 161.052 161.751 163.312 161.751C165.237 161.751 167.58 161.626 170.341 161.376C171.346 161.292 172.684 161.209 174.358 161.125C176.115 161.042 178.166 161 180.509 161C188.793 161 195.321 162.753 200.091 166.258C204.944 169.764 207.371 175.147 207.371 182.409C207.371 187.667 205.99 192.133 203.229 195.805C200.551 199.478 197.078 202.232 192.81 204.068C188.626 205.904 184.316 206.822 179.881 206.822C177.538 206.822 175.572 206.614 173.982 206.197C173.73 206.197 173.605 205.988 173.605 205.571C173.605 205.32 173.647 205.07 173.73 204.819C173.898 204.569 174.065 204.485 174.233 204.569C175.572 204.903 177.036 205.07 178.626 205.07C182.977 205.07 186.66 203.275 189.672 199.686C192.685 196.097 194.191 190.964 194.191 184.287C194.191 177.693 192.643 172.602 189.547 169.013C186.45 165.34 182.182 163.504 176.743 163.504C174.735 163.504 173.187 163.713 172.099 164.13C171.094 164.547 170.383 165.34 169.965 166.509C169.546 167.594 169.337 169.347 169.337 171.767V228.983Z" fill="#4D2407"/>
<path d="M303.75 238.122C304.001 238.122 304.126 238.372 304.126 238.873C304.126 239.374 304.001 239.624 303.75 239.624C300.905 239.624 298.603 239.583 296.846 239.499L287.683 239.374L277.013 239.499C275.507 239.583 273.498 239.624 270.988 239.624C270.737 239.624 270.611 239.374 270.611 238.873C270.611 238.372 270.737 238.122 270.988 238.122C274.168 238.122 276.469 237.913 277.892 237.496C279.314 237.079 280.277 236.286 280.779 235.117C281.281 233.949 281.532 232.071 281.532 229.483V200.563H238.477V229.483C238.477 231.987 238.728 233.865 239.23 235.117C239.732 236.286 240.694 237.079 242.117 237.496C243.623 237.913 245.966 238.122 249.146 238.122C249.314 238.122 249.397 238.372 249.397 238.873C249.397 239.374 249.314 239.624 249.146 239.624C246.301 239.624 244.084 239.583 242.494 239.499L232.075 239.374L222.912 239.499C221.322 239.583 219.104 239.624 216.259 239.624C216.092 239.624 216.008 239.374 216.008 238.873C216.008 238.372 216.092 238.122 216.259 238.122C219.271 238.122 221.489 237.913 222.912 237.496C224.334 237.079 225.297 236.286 225.799 235.117C226.301 233.865 226.552 231.987 226.552 229.483V171.517C226.552 169.013 226.301 167.176 225.799 166.008C225.297 164.839 224.334 164.046 222.912 163.629C221.489 163.128 219.313 162.878 216.384 162.878C216.217 162.878 216.133 162.628 216.133 162.127C216.133 161.626 216.217 161.376 216.384 161.376L223.037 161.501C226.887 161.668 229.899 161.751 232.075 161.751C235.004 161.751 238.477 161.668 242.494 161.501L249.146 161.376C249.314 161.376 249.397 161.626 249.397 162.127C249.397 162.628 249.314 162.878 249.146 162.878C246.05 162.878 243.749 163.128 242.243 163.629C240.82 164.13 239.816 165.006 239.23 166.258C238.728 167.427 238.477 169.263 238.477 171.767V197.307H281.532V171.767C281.532 169.263 281.281 167.427 280.779 166.258C280.277 165.006 279.272 164.13 277.766 163.629C276.343 163.128 274.084 162.878 270.988 162.878C270.737 162.878 270.611 162.628 270.611 162.127C270.611 161.626 270.737 161.376 270.988 161.376L277.013 161.501C281.03 161.668 284.586 161.751 287.683 161.751C289.942 161.751 292.996 161.668 296.846 161.501L303.75 161.376C304.001 161.376 304.126 161.626 304.126 162.127C304.126 162.628 304.001 162.878 303.75 162.878C300.737 162.878 298.52 163.128 297.097 163.629C295.758 164.046 294.837 164.839 294.335 166.008C293.833 167.176 293.582 169.013 293.582 171.517V229.483C293.582 231.987 293.833 233.865 294.335 235.117C294.837 236.286 295.758 237.079 297.097 237.496C298.52 237.913 300.737 238.122 303.75 238.122Z" fill="#4D2407"/>
<path d="M333.966 228.983C333.966 231.653 334.259 233.615 334.845 234.867C335.514 236.035 336.728 236.87 338.485 237.371C340.326 237.872 343.171 238.122 347.021 238.122C347.272 238.122 347.397 238.372 347.397 238.873C347.397 239.374 347.272 239.624 347.021 239.624C343.59 239.624 340.912 239.583 338.987 239.499L328.066 239.374L319.028 239.499C317.438 239.583 315.263 239.624 312.501 239.624C312.25 239.624 312.125 239.374 312.125 238.873C312.125 238.372 312.25 238.122 312.501 238.122C315.346 238.122 317.397 237.913 318.652 237.496C319.907 237.079 320.744 236.286 321.162 235.117C321.665 233.949 321.916 232.071 321.916 229.483V171.517C321.916 169.013 321.665 167.176 321.162 166.008C320.744 164.839 319.865 164.046 318.526 163.629C317.271 163.128 315.263 162.878 312.501 162.878C312.25 162.878 312.125 162.628 312.125 162.127C312.125 161.626 312.25 161.376 312.501 161.376L319.028 161.501C322.711 161.668 325.681 161.751 327.941 161.751C329.865 161.751 332.209 161.626 334.97 161.376C335.974 161.292 337.313 161.209 338.987 161.125C340.744 161.042 342.795 161 345.138 161C353.422 161 359.95 162.753 364.72 166.258C369.573 169.764 372 175.147 372 182.409C372 187.667 370.619 192.133 367.858 195.805C365.18 199.478 361.707 202.232 357.439 204.068C353.255 205.904 348.945 206.822 344.51 206.822C342.167 206.822 340.2 206.614 338.61 206.197C338.359 206.197 338.234 205.988 338.234 205.571C338.234 205.32 338.276 205.07 338.359 204.819C338.527 204.569 338.694 204.485 338.861 204.569C340.2 204.903 341.665 205.07 343.255 205.07C347.606 205.07 351.288 203.275 354.301 199.686C357.314 196.097 358.82 190.964 358.82 184.287C358.82 177.693 357.272 172.602 354.175 169.013C351.079 165.34 346.811 163.504 341.372 163.504C339.364 163.504 337.815 163.713 336.727 164.13C335.723 164.547 335.012 165.34 334.594 166.509C334.175 167.594 333.966 169.347 333.966 171.767V228.983Z" fill="#4D2407"/>
</svg>
