<svg width="220" height="52" viewBox="0 0 220 52" fill="none" xmlns="http://www.w3.org/2000/svg">
<path d="M73.84 1C73.9467 1 74 1.16 74 1.48C74 1.8 73.9467 1.96 73.84 1.96C71.92 1.96 70.16 2.68 68.56 4.12C66.96 5.56 65.6267 7.64 64.56 10.36L49.04 50.92C48.9867 51.1333 48.6933 51.24 48.16 51.24C47.6267 51.24 47.3333 51.1333 47.28 50.92L36.96 28.84L28.56 50.92C28.5067 51.1333 28.2133 51.24 27.68 51.24C27.1467 51.24 26.8533 51.1333 26.8 50.92L6.56 7.64C5.44 5.29333 4.48 3.77333 3.68 3.08C2.93333 2.33333 1.78667 1.96 0.24 1.96C0.08 1.96 0 1.8 0 1.48C0 1.16 0.08 1 0.24 1L2.32 1.08C3.49333 1.18666 4.82667 1.24 6.32 1.24C9.30667 1.24 12.0267 1.18666 14.48 1.08C15.2267 1.02667 16.16 1 17.28 1C17.44 1 17.52 1.16 17.52 1.48C17.52 1.8 17.44 1.96 17.28 1.96C15.84 1.96 14.8 2.12 14.16 2.44C13.5733 2.70666 13.28 3.24 13.28 4.04C13.28 4.94666 13.76 6.44 14.72 8.52L30 41.08L35.76 26.2L27.04 7.64C26.08 5.66666 25.1733 4.22666 24.32 3.32C23.52 2.41333 22.56 1.96 21.44 1.96C21.28 1.96 21.2 1.8 21.2 1.48C21.2 1.16 21.28 1 21.44 1L23.36 1.08C24.5333 1.18666 25.7067 1.24 26.88 1.24C29.3867 1.24 31.6 1.18666 33.52 1.08C34.0533 1.02667 34.7467 1 35.6 1C35.76 1 35.84 1.16 35.84 1.48C35.84 1.8 35.76 1.96 35.6 1.96C34.7467 1.96 34.1333 2.06666 33.76 2.28C33.44 2.44 33.28 2.76 33.28 3.24C33.28 4.09333 33.92 5.85333 35.2 8.52L39.52 17.64L42.4 10.04C43.36 7.53333 43.84 5.64 43.84 4.36C43.84 2.76 43.04 1.96 41.44 1.96C41.28 1.96 41.2 1.8 41.2 1.48C41.2 1.16 41.28 1 41.44 1C41.92 1 42.48 1.05333 43.12 1.16C43.76 1.21333 44.9333 1.24 46.64 1.24C47.6 1.24 48.72 1.18666 50 1.08L53.12 1C53.2267 1 53.28 1.16 53.28 1.48C53.28 1.8 53.2267 1.96 53.12 1.96C51.3067 1.96 49.7067 2.62666 48.32 3.96C46.9333 5.29333 45.68 7.42666 44.56 10.36L40.72 20.28L50.56 41.08L62.24 10.6C62.7733 9.21333 63.04 7.90667 63.04 6.68C63.04 5.18667 62.5867 4.04 61.68 3.24C60.8267 2.38666 59.6 1.96 58 1.96C57.84 1.96 57.76 1.8 57.76 1.48C57.76 1.16 57.84 1 58 1L61.52 1.08C63.44 1.18666 65.1733 1.24 66.72 1.24C67.7867 1.24 69.0133 1.18666 70.4 1.08L73.84 1ZM90.0775 44.2C90.0775 45.9067 90.2642 47.16 90.6375 47.96C91.0642 48.7067 91.8375 49.24 92.9575 49.56C94.1308 49.88 95.9442 50.04 98.3975 50.04C98.5575 50.04 98.6375 50.2 98.6375 50.52C98.6375 50.84 98.5575 51 98.3975 51C96.2108 51 94.5042 50.9733 93.2775 50.92L86.3175 50.84L80.5575 50.92C79.5442 50.9733 78.1575 51 76.3975 51C76.2375 51 76.1575 50.84 76.1575 50.52C76.1575 50.2 76.2375 50.04 76.3975 50.04C78.2108 50.04 79.5175 49.9067 80.3175 49.64C81.1175 49.3733 81.6508 48.8667 81.9175 48.12C82.2375 47.3733 82.3975 46.1733 82.3975 44.52V7.48C82.3975 5.88 82.2375 4.70667 81.9175 3.96C81.6508 3.21333 81.0908 2.70666 80.2375 2.44C79.4375 2.12 78.1575 1.96 76.3975 1.96C76.2375 1.96 76.1575 1.8 76.1575 1.48C76.1575 1.16 76.2375 1 76.3975 1L80.5575 1.08C82.9042 1.18666 84.7975 1.24 86.2375 1.24C87.4642 1.24 88.9575 1.16 90.7175 1C91.3575 0.946664 92.2108 0.89333 93.2775 0.839997C94.3975 0.786665 95.7042 0.759998 97.1975 0.759998C102.478 0.759998 106.638 1.88 109.678 4.12C112.771 6.36 114.318 9.8 114.318 14.44C114.318 17.8 113.438 20.6533 111.678 23C109.971 25.3467 107.758 27.1067 105.038 28.28C102.371 29.4533 99.6242 30.04 96.7975 30.04C95.3042 30.04 94.0508 29.9067 93.0375 29.64C92.8775 29.64 92.7975 29.5067 92.7975 29.24C92.7975 29.08 92.8242 28.92 92.8775 28.76C92.9842 28.6 93.0908 28.5467 93.1975 28.6C94.0508 28.8133 94.9842 28.92 95.9975 28.92C98.7708 28.92 101.118 27.7733 103.038 25.48C104.958 23.1867 105.918 19.9067 105.918 15.64C105.918 11.4267 104.931 8.17333 102.958 5.88C100.984 3.53333 98.2642 2.36 94.7975 2.36C93.5175 2.36 92.5308 2.49333 91.8375 2.76C91.1975 3.02666 90.7442 3.53333 90.4775 4.28C90.2108 4.97333 90.0775 6.09333 90.0775 7.64V44.2ZM175.742 50.04C175.902 50.04 175.982 50.2 175.982 50.52C175.982 50.84 175.902 51 175.742 51C173.929 51 172.462 50.9733 171.342 50.92L165.502 50.84L158.702 50.92C157.742 50.9733 156.462 51 154.862 51C154.702 51 154.622 50.84 154.622 50.52C154.622 50.2 154.702 50.04 154.862 50.04C156.889 50.04 158.355 49.9067 159.262 49.64C160.169 49.3733 160.782 48.8667 161.102 48.12C161.422 47.3733 161.582 46.1733 161.582 44.52V26.04H134.142V44.52C134.142 46.12 134.302 47.32 134.622 48.12C134.942 48.8667 135.555 49.3733 136.462 49.64C137.422 49.9067 138.915 50.04 140.942 50.04C141.049 50.04 141.102 50.2 141.102 50.52C141.102 50.84 141.049 51 140.942 51C139.129 51 137.715 50.9733 136.702 50.92L130.062 50.84L124.222 50.92C123.209 50.9733 121.795 51 119.982 51C119.875 51 119.822 50.84 119.822 50.52C119.822 50.2 119.875 50.04 119.982 50.04C121.902 50.04 123.315 49.9067 124.222 49.64C125.129 49.3733 125.742 48.8667 126.062 48.12C126.382 47.32 126.542 46.12 126.542 44.52V7.48C126.542 5.88 126.382 4.70667 126.062 3.96C125.742 3.21333 125.129 2.70666 124.222 2.44C123.315 2.12 121.929 1.96 120.062 1.96C119.955 1.96 119.902 1.8 119.902 1.48C119.902 1.16 119.955 1 120.062 1L124.302 1.08C126.755 1.18666 128.675 1.24 130.062 1.24C131.929 1.24 134.142 1.18666 136.702 1.08L140.942 1C141.049 1 141.102 1.16 141.102 1.48C141.102 1.8 141.049 1.96 140.942 1.96C138.969 1.96 137.502 2.12 136.542 2.44C135.635 2.76 134.995 3.32 134.622 4.12C134.302 4.86666 134.142 6.04 134.142 7.64V23.96H161.582V7.64C161.582 6.04 161.422 4.86666 161.102 4.12C160.782 3.32 160.142 2.76 159.182 2.44C158.275 2.12 156.835 1.96 154.862 1.96C154.702 1.96 154.622 1.8 154.622 1.48C154.622 1.16 154.702 1 154.862 1L158.702 1.08C161.262 1.18666 163.529 1.24 165.502 1.24C166.942 1.24 168.889 1.18666 171.342 1.08L175.742 1C175.902 1 175.982 1.16 175.982 1.48C175.982 1.8 175.902 1.96 175.742 1.96C173.822 1.96 172.409 2.12 171.502 2.44C170.649 2.70666 170.062 3.21333 169.742 3.96C169.422 4.70667 169.262 5.88 169.262 7.48V44.52C169.262 46.12 169.422 47.32 169.742 48.12C170.062 48.8667 170.649 49.3733 171.502 49.64C172.409 49.9067 173.822 50.04 175.742 50.04ZM194.999 44.2C194.999 45.9067 195.186 47.16 195.559 47.96C195.986 48.7067 196.759 49.24 197.879 49.56C199.053 49.88 200.866 50.04 203.319 50.04C203.479 50.04 203.559 50.2 203.559 50.52C203.559 50.84 203.479 51 203.319 51C201.133 51 199.426 50.9733 198.199 50.92L191.239 50.84L185.479 50.92C184.466 50.9733 183.079 51 181.319 51C181.159 51 181.079 50.84 181.079 50.52C181.079 50.2 181.159 50.04 181.319 50.04C183.133 50.04 184.439 49.9067 185.239 49.64C186.039 49.3733 186.573 48.8667 186.839 48.12C187.159 47.3733 187.319 46.1733 187.319 44.52V7.48C187.319 5.88 187.159 4.70667 186.839 3.96C186.573 3.21333 186.013 2.70666 185.159 2.44C184.359 2.12 183.079 1.96 181.319 1.96C181.159 1.96 181.079 1.8 181.079 1.48C181.079 1.16 181.159 1 181.319 1L185.479 1.08C187.826 1.18666 189.719 1.24 191.159 1.24C192.386 1.24 193.879 1.16 195.639 1C196.279 0.946664 197.133 0.89333 198.199 0.839997C199.319 0.786665 200.626 0.759998 202.119 0.759998C207.399 0.759998 211.559 1.88 214.599 4.12C217.693 6.36 219.239 9.8 219.239 14.44C219.239 17.8 218.359 20.6533 216.599 23C214.893 25.3467 212.679 27.1067 209.959 28.28C207.293 29.4533 204.546 30.04 201.719 30.04C200.226 30.04 198.973 29.9067 197.959 29.64C197.799 29.64 197.719 29.5067 197.719 29.24C197.719 29.08 197.746 28.92 197.799 28.76C197.906 28.6 198.013 28.5467 198.119 28.6C198.973 28.8133 199.906 28.92 200.919 28.92C203.693 28.92 206.039 27.7733 207.959 25.48C209.879 23.1867 210.839 19.9067 210.839 15.64C210.839 11.4267 209.853 8.17333 207.879 5.88C205.906 3.53333 203.186 2.36 199.719 2.36C198.439 2.36 197.453 2.49333 196.759 2.76C196.119 3.02666 195.666 3.53333 195.399 4.28C195.133 4.97333 194.999 6.09333 194.999 7.64V44.2Z" fill="#F5F5F5"/>
</svg>
