<svg width="466" height="244" viewBox="0 0 466 244" fill="none" xmlns="http://www.w3.org/2000/svg">
<path d="M97.76 67.04C97.9733 67.04 98.08 67.2 98.08 67.52C98.08 67.84 97.9733 68 97.76 68C96.4267 68 95.3867 67.9733 94.64 67.92L90 67.84L85.36 67.92C84.56 67.9733 83.4933 68 82.16 68C82.0533 68 82 67.84 82 67.52C82 67.2 82.0533 67.04 82.16 67.04C83.9733 67.04 85.1733 66.6667 85.76 65.92C86.4 65.1733 86.72 63.7067 86.72 61.52V49.6C86.72 46.6133 86.16 44.4 85.04 42.96C83.92 41.52 82.2133 40.8 79.92 40.8C78.5333 40.8 77.0933 41.12 75.6 41.76C74.16 42.4 72.8533 43.3067 71.68 44.48V61.52C71.68 63.7067 71.9733 65.1733 72.56 65.92C73.2 66.6667 74.4267 67.04 76.24 67.04C76.4533 67.04 76.56 67.2 76.56 67.52C76.56 67.84 76.4533 68 76.24 68C74.9067 68 73.8667 67.9733 73.12 67.92L68.48 67.84L63.84 67.92C63.04 67.9733 61.9733 68 60.64 68C60.5333 68 60.48 67.84 60.48 67.52C60.48 67.2 60.5333 67.04 60.64 67.04C62.4533 67.04 63.6533 66.6667 64.24 65.92C64.88 65.1733 65.2 63.7067 65.2 61.52V20.96C65.2 20.48 65.0933 20.16 64.88 20C64.6667 19.7867 64.2933 19.68 63.76 19.68H50.8C49.3067 19.68 48.1867 19.8133 47.44 20.08C46.7467 20.3467 46.2667 20.8267 46 21.52C45.7867 22.16 45.68 23.2 45.68 24.64V61.52C45.68 63.1733 45.84 64.3733 46.16 65.12C46.48 65.8667 47.12 66.3733 48.08 66.64C49.04 66.9067 50.56 67.04 52.64 67.04C52.8 67.04 52.88 67.2 52.88 67.52C52.88 67.84 52.8 68 52.64 68C50.7733 68 49.3067 67.9733 48.24 67.92L41.68 67.84L35.44 67.92C34.32 67.9733 32.7733 68 30.8 68C30.6933 68 30.64 67.84 30.64 67.52C30.64 67.2 30.6933 67.04 30.8 67.04C32.88 67.04 34.4 66.9067 35.36 66.64C36.3733 66.3733 37.04 65.8667 37.36 65.12C37.7333 64.32 37.92 63.12 37.92 61.52V24.48C37.92 23.0933 37.7867 22.08 37.52 21.44C37.2533 20.7467 36.7733 20.2933 36.08 20.08C35.3867 19.8133 34.32 19.68 32.88 19.68C29.6267 19.68 26.9333 20.6933 24.8 22.72C22.72 24.6933 21.12 27.7067 20 31.76C20 31.8667 19.84 31.92 19.52 31.92C19.2533 31.92 19.12 31.84 19.12 31.68C19.3333 29.6 19.5733 26.9333 19.84 23.68C20.1067 20.3733 20.24 17.8933 20.24 16.24C20.24 15.9733 20.3733 15.84 20.64 15.84C20.96 15.84 21.12 15.9733 21.12 16.24C21.12 17.4133 22.6133 18 25.6 18C30.1867 18.16 35.5467 18.24 41.68 18.24C49.68 18.24 54.8533 18.16 57.2 18C60.4533 17.8933 63.2 17.12 65.44 15.68C67.7333 14.1867 69.3867 12.2933 70.4 10C70.4 9.84 70.56 9.76 70.88 9.76C71.0933 9.76 71.28 9.81333 71.44 9.92C71.6 9.97333 71.68 10.0533 71.68 10.16V42.8C75.4133 38.4267 79.4933 36.24 83.92 36.24C86.8 36.24 89.0667 37.12 90.72 38.88C92.4267 40.64 93.28 43.04 93.28 46.08V61.52C93.28 63.7067 93.5733 65.1733 94.16 65.92C94.7467 66.6667 95.9467 67.04 97.76 67.04ZM129.601 62.96C129.708 62.96 129.815 63.0667 129.921 63.28C130.081 63.4933 130.108 63.6533 130.001 63.76C128.028 65.5733 126.055 66.9067 124.081 67.76C122.108 68.56 119.975 68.96 117.681 68.96C114.428 68.96 111.601 68.24 109.201 66.8C106.855 65.36 105.041 63.4667 103.761 61.12C102.535 58.7733 101.921 56.24 101.921 53.52C101.921 50.3733 102.695 47.4933 104.241 44.88C105.788 42.2667 107.895 40.2133 110.561 38.72C113.281 37.1733 116.295 36.4 119.601 36.4C122.801 36.4 125.281 37.1733 127.041 38.72C128.801 40.2667 129.681 42.56 129.681 45.6C129.681 47.1467 129.361 47.92 128.721 47.92L109.201 48C109.148 48.48 109.121 49.2 109.121 50.16C109.121 54.8533 110.188 58.5867 112.321 61.36C114.508 64.08 117.601 65.44 121.601 65.44C123.095 65.44 124.348 65.28 125.361 64.96C126.375 64.5867 127.735 63.9467 129.441 63.04L129.601 62.96ZM116.721 38C114.748 38 113.121 38.7733 111.841 40.32C110.615 41.8133 109.788 43.8933 109.361 46.56L122.161 46.32C122.055 40.7733 120.241 38 116.721 38ZM225.074 18C225.181 18 225.234 18.16 225.234 18.48C225.234 18.8 225.181 18.96 225.074 18.96C223.154 18.96 221.394 19.68 219.794 21.12C218.194 22.56 216.861 24.64 215.794 27.36L200.274 67.92C200.221 68.1333 199.928 68.24 199.394 68.24C198.861 68.24 198.568 68.1333 198.514 67.92L188.194 45.84L179.794 67.92C179.741 68.1333 179.448 68.24 178.914 68.24C178.381 68.24 178.088 68.1333 178.034 67.92L157.794 24.64C156.674 22.2933 155.714 20.7733 154.914 20.08C154.168 19.3333 153.021 18.96 151.474 18.96C151.314 18.96 151.234 18.8 151.234 18.48C151.234 18.16 151.314 18 151.474 18L153.554 18.08C154.728 18.1867 156.061 18.24 157.554 18.24C160.541 18.24 163.261 18.1867 165.714 18.08C166.461 18.0267 167.394 18 168.514 18C168.674 18 168.754 18.16 168.754 18.48C168.754 18.8 168.674 18.96 168.514 18.96C167.074 18.96 166.034 19.12 165.394 19.44C164.808 19.7067 164.514 20.24 164.514 21.04C164.514 21.9467 164.994 23.44 165.954 25.52L181.234 58.08L186.994 43.2L178.274 24.64C177.314 22.6667 176.408 21.2267 175.554 20.32C174.754 19.4133 173.794 18.96 172.674 18.96C172.514 18.96 172.434 18.8 172.434 18.48C172.434 18.16 172.514 18 172.674 18L174.594 18.08C175.768 18.1867 176.941 18.24 178.114 18.24C180.621 18.24 182.834 18.1867 184.754 18.08C185.288 18.0267 185.981 18 186.834 18C186.994 18 187.074 18.16 187.074 18.48C187.074 18.8 186.994 18.96 186.834 18.96C185.981 18.96 185.368 19.0667 184.994 19.28C184.674 19.44 184.514 19.76 184.514 20.24C184.514 21.0933 185.154 22.8533 186.434 25.52L190.754 34.64L193.634 27.04C194.594 24.5333 195.074 22.64 195.074 21.36C195.074 19.76 194.274 18.96 192.674 18.96C192.514 18.96 192.434 18.8 192.434 18.48C192.434 18.16 192.514 18 192.674 18C193.154 18 193.714 18.0533 194.354 18.16C194.994 18.2133 196.168 18.24 197.874 18.24C198.834 18.24 199.954 18.1867 201.234 18.08L204.354 18C204.461 18 204.514 18.16 204.514 18.48C204.514 18.8 204.461 18.96 204.354 18.96C202.541 18.96 200.941 19.6267 199.554 20.96C198.168 22.2933 196.914 24.4267 195.794 27.36L191.954 37.28L201.794 58.08L213.474 27.6C214.008 26.2133 214.274 24.9067 214.274 23.68C214.274 22.1867 213.821 21.04 212.914 20.24C212.061 19.3867 210.834 18.96 209.234 18.96C209.074 18.96 208.994 18.8 208.994 18.48C208.994 18.16 209.074 18 209.234 18L212.754 18.08C214.674 18.1867 216.408 18.24 217.954 18.24C219.021 18.24 220.248 18.1867 221.634 18.08L225.074 18ZM237.534 69.04C234.334 69.04 231.508 68.2933 229.054 66.8C226.601 65.2533 224.708 63.2 223.374 60.64C222.041 58.0267 221.374 55.2 221.374 52.16C221.374 48.6933 222.228 45.76 223.934 43.36C225.694 40.9067 227.908 39.0933 230.574 37.92C233.294 36.6933 236.068 36.08 238.894 36.08C242.148 36.08 244.974 36.8533 247.374 38.4C249.828 39.9467 251.694 42 252.974 44.56C254.254 47.0667 254.894 49.76 254.894 52.64C254.894 55.84 254.094 58.6933 252.494 61.2C250.948 63.7067 248.841 65.6533 246.174 67.04C243.508 68.3733 240.628 69.04 237.534 69.04ZM239.934 67.44C242.281 67.44 244.068 66.4 245.294 64.32C246.574 62.24 247.214 59.2 247.214 55.2C247.214 51.6267 246.708 48.5067 245.694 45.84C244.734 43.1733 243.401 41.1467 241.694 39.76C240.041 38.3733 238.228 37.68 236.254 37.68C233.854 37.68 232.041 38.6667 230.814 40.64C229.588 42.6133 228.974 45.52 228.974 49.36C228.974 52.8267 229.428 55.9467 230.334 58.72C231.294 61.44 232.601 63.5733 234.254 65.12C235.961 66.6667 237.854 67.44 239.934 67.44ZM317.881 67.04C318.094 67.04 318.201 67.2 318.201 67.52C318.201 67.84 318.094 68 317.881 68C316.547 68 315.481 67.9733 314.681 67.92L310.121 67.84L305.561 67.92C304.761 67.9733 303.694 68 302.361 68C302.201 68 302.121 67.84 302.121 67.52C302.121 67.2 302.201 67.04 302.361 67.04C304.121 67.04 305.321 66.6667 305.961 65.92C306.601 65.12 306.921 63.6533 306.921 61.52V49.6C306.921 46.6133 306.387 44.4 305.321 42.96C304.307 41.52 302.734 40.8 300.601 40.8C299.161 40.8 297.721 41.1467 296.281 41.84C294.841 42.5333 293.587 43.4667 292.521 44.64V45.44V61.52C292.521 63.7067 292.814 65.1733 293.401 65.92C294.041 66.6667 295.267 67.04 297.081 67.04C297.241 67.04 297.321 67.2 297.321 67.52C297.321 67.84 297.241 68 297.081 68C295.747 68 294.681 67.9733 293.881 67.92L289.241 67.84L284.681 67.92C283.881 67.9733 282.814 68 281.481 68C281.321 68 281.241 67.84 281.241 67.52C281.241 67.2 281.321 67.04 281.481 67.04C283.294 67.04 284.494 66.6667 285.081 65.92C285.721 65.1733 286.041 63.7067 286.041 61.52V49.6C286.041 46.6133 285.507 44.4 284.441 42.96C283.427 41.52 281.854 40.8 279.721 40.8C278.387 40.8 277.027 41.12 275.641 41.76C274.254 42.4 273.027 43.2533 271.961 44.32V61.52C271.961 63.7067 272.254 65.1733 272.841 65.92C273.427 66.6667 274.627 67.04 276.441 67.04C276.601 67.04 276.681 67.2 276.681 67.52C276.681 67.84 276.601 68 276.441 68C275.107 68 274.067 67.9733 273.321 67.92L268.681 67.84L264.041 67.92C263.294 67.9733 262.254 68 260.921 68C260.761 68 260.681 67.84 260.681 67.52C260.681 67.2 260.761 67.04 260.921 67.04C262.734 67.04 263.934 66.6667 264.521 65.92C265.107 65.1733 265.401 63.7067 265.401 61.52V46.24C265.401 44.5333 265.187 43.28 264.761 42.48C264.387 41.68 263.747 41.28 262.841 41.28C262.041 41.28 260.707 41.68 258.841 42.48H258.761C258.547 42.48 258.387 42.3467 258.281 42.08C258.174 41.8133 258.201 41.6533 258.361 41.6L268.841 36.48C269.161 36.3733 269.347 36.32 269.401 36.32C269.934 36.32 270.467 36.9333 271.001 38.16C271.587 39.3333 271.907 40.88 271.961 42.8C275.534 38.4267 279.427 36.24 283.641 36.24C286.094 36.24 288.067 36.8533 289.561 38.08C291.054 39.2533 291.987 40.9867 292.361 43.28C296.147 38.5867 300.201 36.24 304.521 36.24C307.347 36.24 309.507 37.0667 311.001 38.72C312.547 40.32 313.321 42.7733 313.321 46.08V61.52C313.321 63.7067 313.614 65.1733 314.201 65.92C314.841 66.6667 316.067 67.04 317.881 67.04ZM349.758 62.96C349.864 62.96 349.971 63.0667 350.078 63.28C350.238 63.4933 350.264 63.6533 350.158 63.76C348.184 65.5733 346.211 66.9067 344.238 67.76C342.264 68.56 340.131 68.96 337.838 68.96C334.584 68.96 331.758 68.24 329.358 66.8C327.011 65.36 325.198 63.4667 323.918 61.12C322.691 58.7733 322.077 56.24 322.077 53.52C322.077 50.3733 322.851 47.4933 324.398 44.88C325.944 42.2667 328.051 40.2133 330.718 38.72C333.438 37.1733 336.451 36.4 339.758 36.4C342.958 36.4 345.438 37.1733 347.198 38.72C348.958 40.2667 349.838 42.56 349.838 45.6C349.838 47.1467 349.518 47.92 348.878 47.92L329.358 48C329.304 48.48 329.278 49.2 329.278 50.16C329.278 54.8533 330.344 58.5867 332.478 61.36C334.664 64.08 337.758 65.44 341.758 65.44C343.251 65.44 344.504 65.28 345.518 64.96C346.531 64.5867 347.891 63.9467 349.598 63.04L349.758 62.96ZM336.878 38C334.904 38 333.278 38.7733 331.998 40.32C330.771 41.8133 329.944 43.8933 329.518 46.56L342.318 46.32C342.211 40.7733 340.398 38 336.878 38ZM392.961 67.04C393.121 67.04 393.201 67.2 393.201 67.52C393.201 67.84 393.121 68 392.961 68C391.627 68 390.587 67.9733 389.841 67.92L385.201 67.84L380.641 67.92C379.841 67.9733 378.774 68 377.441 68C377.281 68 377.201 67.84 377.201 67.52C377.201 67.2 377.281 67.04 377.441 67.04C379.254 67.04 380.454 66.6667 381.041 65.92C381.627 65.1733 381.921 63.7067 381.921 61.52V49.52C381.921 46.5333 381.361 44.3467 380.241 42.96C379.174 41.52 377.467 40.8 375.121 40.8C373.734 40.8 372.321 41.12 370.881 41.76C369.441 42.4 368.134 43.2533 366.961 44.32V61.52C366.961 63.7067 367.254 65.1733 367.841 65.92C368.427 66.6667 369.627 67.04 371.441 67.04C371.601 67.04 371.681 67.2 371.681 67.52C371.681 67.84 371.601 68 371.441 68C370.107 68 369.067 67.9733 368.321 67.92L363.681 67.84L359.041 67.92C358.294 67.9733 357.254 68 355.921 68C355.761 68 355.681 67.84 355.681 67.52C355.681 67.2 355.761 67.04 355.921 67.04C357.734 67.04 358.934 66.6667 359.521 65.92C360.107 65.1733 360.401 63.7067 360.401 61.52V46.24C360.401 44.5333 360.187 43.28 359.761 42.48C359.387 41.68 358.747 41.28 357.841 41.28C357.041 41.28 355.707 41.68 353.841 42.48H353.761C353.547 42.48 353.387 42.3467 353.281 42.08C353.174 41.8133 353.201 41.6533 353.361 41.6L363.841 36.48C364.161 36.3733 364.347 36.32 364.401 36.32C364.934 36.32 365.467 36.9333 366.001 38.16C366.587 39.3333 366.907 40.88 366.961 42.8C370.694 38.3733 374.747 36.16 379.121 36.16C382.054 36.16 384.347 37.0667 386.001 38.88C387.654 40.64 388.481 43.04 388.481 46.08V61.52C388.481 63.7067 388.774 65.1733 389.361 65.92C389.947 66.6667 391.147 67.04 392.961 67.04ZM398.172 17.84C399.932 17.84 401.319 18.5333 402.332 19.92C403.345 21.2533 403.852 23.1733 403.852 25.68C403.852 28.0267 403.319 30.1867 402.252 32.16C401.239 34.1333 399.719 36.1067 397.692 38.08C397.639 38.1333 397.559 38.16 397.452 38.16C397.292 38.16 397.159 38.08 397.052 37.92C396.945 37.76 396.945 37.6267 397.052 37.52C399.665 34.8533 400.972 31.7067 400.972 28.08C400.972 26.5867 400.705 25.4933 400.172 24.8C399.692 25.6 398.759 26 397.372 26C396.199 26 395.265 25.6533 394.572 24.96C393.879 24.2133 393.532 23.2267 393.532 22C393.532 20.6667 393.932 19.6533 394.732 18.96C395.585 18.2133 396.732 17.84 398.172 17.84ZM412.304 41.28C412.304 42.9333 412.864 44.32 413.984 45.44C415.157 46.56 416.837 47.7333 419.024 48.96C420.944 50.0267 422.41 50.9067 423.424 51.6C424.49 52.2933 425.397 53.2267 426.144 54.4C426.944 55.5733 427.344 56.9867 427.344 58.64C427.344 60.4533 426.89 62.1333 425.984 63.68C425.077 65.2267 423.717 66.48 421.904 67.44C420.144 68.4 418.037 68.88 415.584 68.88C412.65 68.88 409.957 68.1333 407.504 66.64C407.184 66.32 407.024 66 407.024 65.68L406.864 58.32C406.864 58.16 406.997 58.08 407.264 58.08C407.584 58.0267 407.77 58.0533 407.824 58.16C408.73 60.8267 410.09 63.0133 411.904 64.72C413.77 66.4267 415.744 67.28 417.824 67.28C419.157 67.28 420.197 66.9333 420.944 66.24C421.69 65.5467 422.064 64.5067 422.064 63.12C422.064 61.0933 421.477 59.4933 420.304 58.32C419.13 57.0933 417.424 55.8933 415.184 54.72C413.37 53.76 411.957 52.96 410.944 52.32C409.93 51.6267 409.05 50.72 408.304 49.6C407.61 48.4267 407.264 46.9867 407.264 45.28C407.264 42.24 408.357 39.9733 410.544 38.48C412.784 36.9867 415.477 36.24 418.624 36.24C420.704 36.24 422.837 36.64 425.024 37.44C425.504 37.6533 425.744 37.9467 425.744 38.32C425.744 39.5467 425.717 40.5067 425.664 41.2L425.584 45.04C425.584 45.2 425.424 45.28 425.104 45.28C424.784 45.28 424.624 45.2 424.624 45.04C424.624 43.9733 424.197 42.88 423.344 41.76C422.49 40.5867 421.397 39.6267 420.064 38.88C418.73 38.1333 417.37 37.76 415.984 37.76C413.53 37.76 412.304 38.9333 412.304 41.28ZM32.64 131.2C32.64 132.907 32.8267 134.16 33.2 134.96C33.6267 135.707 34.4 136.24 35.52 136.56C36.6933 136.88 38.5067 137.04 40.96 137.04C41.12 137.04 41.2 137.2 41.2 137.52C41.2 137.84 41.12 138 40.96 138C38.7733 138 37.0667 137.973 35.84 137.92L28.88 137.84L23.12 137.92C22.1067 137.973 20.72 138 18.96 138C18.8 138 18.72 137.84 18.72 137.52C18.72 137.2 18.8 137.04 18.96 137.04C20.7733 137.04 22.08 136.907 22.88 136.64C23.68 136.373 24.2133 135.867 24.48 135.12C24.8 134.373 24.96 133.173 24.96 131.52V94.48C24.96 92.88 24.8 91.7067 24.48 90.96C24.2133 90.2133 23.6533 89.7067 22.8 89.44C22 89.12 20.72 88.96 18.96 88.96C18.8 88.96 18.72 88.8 18.72 88.48C18.72 88.16 18.8 88 18.96 88L23.12 88.08C25.4667 88.1867 27.36 88.24 28.8 88.24C30.0267 88.24 31.52 88.16 33.28 88C33.92 87.9467 34.7733 87.8933 35.84 87.84C36.96 87.7867 38.2667 87.76 39.76 87.76C45.04 87.76 49.2 88.88 52.24 91.12C55.3333 93.36 56.88 96.8 56.88 101.44C56.88 104.8 56 107.653 54.24 110C52.5333 112.347 50.32 114.107 47.6 115.28C44.9333 116.453 42.1867 117.04 39.36 117.04C37.8667 117.04 36.6133 116.907 35.6 116.64C35.44 116.64 35.36 116.507 35.36 116.24C35.36 116.08 35.3867 115.92 35.44 115.76C35.5467 115.6 35.6533 115.547 35.76 115.6C36.6133 115.813 37.5467 115.92 38.56 115.92C41.3333 115.92 43.68 114.773 45.6 112.48C47.52 110.187 48.48 106.907 48.48 102.64C48.48 98.4267 47.4933 95.1733 45.52 92.88C43.5467 90.5333 40.8267 89.36 37.36 89.36C36.08 89.36 35.0933 89.4933 34.4 89.76C33.76 90.0267 33.3067 90.5333 33.04 91.28C32.7733 91.9733 32.64 93.0933 32.64 94.64V131.2ZM82.5613 106.32C83.7879 106.32 84.9613 106.72 86.0813 107.52C87.2013 108.32 87.7613 109.28 87.7613 110.4C87.7613 111.413 87.4413 112.24 86.8013 112.88C86.2146 113.52 85.3879 113.84 84.3213 113.84C83.6279 113.84 83.0413 113.707 82.5613 113.44C82.1346 113.12 81.6813 112.693 81.2013 112.16C80.7213 111.68 80.2946 111.333 79.9213 111.12C79.5479 110.853 79.0946 110.72 78.5613 110.72C77.9746 110.72 77.3346 110.96 76.6413 111.44C76.0013 111.867 74.9879 112.8 73.6013 114.24V131.52C73.6013 133.013 73.8146 134.16 74.2413 134.96C74.6679 135.707 75.3879 136.24 76.4013 136.56C77.4146 136.88 78.9079 137.04 80.8813 137.04C81.0946 137.04 81.2013 137.2 81.2013 137.52C81.2013 137.84 81.0946 138 80.8813 138C79.1213 138 77.7079 137.973 76.6413 137.92L70.3213 137.84L65.6813 137.92C64.9346 137.973 63.8946 138 62.5613 138C62.4013 138 62.3213 137.84 62.3213 137.52C62.3213 137.2 62.4013 137.04 62.5613 137.04C64.3746 137.04 65.5746 136.667 66.1613 135.92C66.7479 135.173 67.0413 133.707 67.0413 131.52V116.24C67.0413 114.533 66.8279 113.28 66.4013 112.48C66.0279 111.68 65.3879 111.28 64.4813 111.28C63.6813 111.28 62.3479 111.68 60.4813 112.48H60.4013C60.1879 112.48 60.0279 112.347 59.9213 112.08C59.8146 111.813 59.8413 111.653 60.0013 111.6L70.4813 106.48C70.8013 106.373 70.9879 106.32 71.0412 106.32C71.5746 106.32 72.1079 106.907 72.6413 108.08C73.1746 109.2 73.4946 110.693 73.6013 112.56C75.6813 110.213 77.4146 108.587 78.8013 107.68C80.1879 106.773 81.4413 106.32 82.5613 106.32ZM100.083 97.92C98.6965 97.92 97.6031 97.5467 96.8031 96.8C96.0565 96.0533 95.6831 94.9867 95.6831 93.6C95.6831 92.2667 96.0565 91.2533 96.8031 90.56C97.6031 89.8133 98.6965 89.44 100.083 89.44C101.416 89.44 102.456 89.8133 103.203 90.56C103.95 91.2533 104.323 92.2667 104.323 93.6C104.323 94.9867 103.95 96.0533 103.203 96.8C102.51 97.5467 101.47 97.92 100.083 97.92ZM92.7231 138C92.5631 138 92.4831 137.84 92.4831 137.52C92.4831 137.2 92.5631 137.04 92.7231 137.04C94.5365 137.04 95.7365 136.667 96.3231 135.92C96.9098 135.173 97.2031 133.707 97.2031 131.52V116.96C97.2031 115.147 97.0165 113.84 96.6431 113.04C96.2698 112.187 95.6298 111.76 94.7231 111.76C93.9231 111.76 92.8831 112.08 91.6031 112.72H91.5231C91.3098 112.72 91.1498 112.587 91.0431 112.32C90.9365 112.053 90.9631 111.867 91.1231 111.76L102.643 106.4L102.883 106.32C103.096 106.32 103.31 106.453 103.523 106.72C103.79 106.933 103.923 107.12 103.923 107.28V108.96C103.816 111.2 103.763 113.84 103.763 116.88V131.52C103.763 133.707 104.056 135.173 104.643 135.92C105.283 136.667 106.51 137.04 108.323 137.04C108.483 137.04 108.563 137.2 108.563 137.52C108.563 137.84 108.483 138 108.323 138C106.99 138 105.923 137.973 105.123 137.92L100.483 137.84L95.8431 137.92C95.0965 137.973 94.0565 138 92.7231 138ZM150.773 137.04C150.933 137.04 151.013 137.2 151.013 137.52C151.013 137.84 150.933 138 150.773 138C149.44 138 148.4 137.973 147.653 137.92L143.013 137.84L138.453 137.92C137.653 137.973 136.586 138 135.253 138C135.093 138 135.013 137.84 135.013 137.52C135.013 137.2 135.093 137.04 135.253 137.04C137.066 137.04 138.266 136.667 138.853 135.92C139.44 135.173 139.733 133.707 139.733 131.52V119.52C139.733 116.533 139.173 114.347 138.053 112.96C136.986 111.52 135.28 110.8 132.933 110.8C131.546 110.8 130.133 111.12 128.693 111.76C127.253 112.4 125.946 113.253 124.773 114.32V131.52C124.773 133.707 125.066 135.173 125.653 135.92C126.24 136.667 127.44 137.04 129.253 137.04C129.413 137.04 129.493 137.2 129.493 137.52C129.493 137.84 129.413 138 129.253 138C127.92 138 126.88 137.973 126.133 137.92L121.493 137.84L116.853 137.92C116.106 137.973 115.066 138 113.733 138C113.573 138 113.493 137.84 113.493 137.52C113.493 137.2 113.573 137.04 113.733 137.04C115.546 137.04 116.746 136.667 117.333 135.92C117.92 135.173 118.213 133.707 118.213 131.52V116.24C118.213 114.533 118 113.28 117.573 112.48C117.2 111.68 116.56 111.28 115.653 111.28C114.853 111.28 113.52 111.68 111.653 112.48H111.573C111.36 112.48 111.2 112.347 111.093 112.08C110.986 111.813 111.013 111.653 111.173 111.6L121.653 106.48C121.973 106.373 122.16 106.32 122.213 106.32C122.746 106.32 123.28 106.933 123.813 108.16C124.4 109.333 124.72 110.88 124.773 112.8C128.506 108.373 132.56 106.16 136.933 106.16C139.866 106.16 142.16 107.067 143.813 108.88C145.466 110.64 146.293 113.04 146.293 116.08V131.52C146.293 133.707 146.586 135.173 147.173 135.92C147.76 136.667 148.96 137.04 150.773 137.04ZM177.928 132.88C178.088 132.88 178.221 132.987 178.328 133.2C178.488 133.413 178.488 133.573 178.328 133.68C176.355 135.547 174.488 136.907 172.728 137.76C170.968 138.56 169.101 138.96 167.128 138.96C164.835 138.96 162.888 138.427 161.288 137.36C159.741 136.24 158.968 134.4 158.968 131.84V113.76C158.968 112 158.675 110.827 158.088 110.24C157.555 109.653 156.488 109.36 154.888 109.36C154.835 109.36 154.755 109.307 154.648 109.2C154.595 109.04 154.568 108.88 154.568 108.72C154.568 108.56 154.595 108.427 154.648 108.32C154.755 108.16 154.835 108.08 154.888 108.08C159.901 107.867 163.048 105.707 164.328 101.6C164.435 101.387 164.648 101.28 164.968 101.28C165.341 101.28 165.528 101.387 165.528 101.6V107.92C168.035 107.867 171.581 107.6 176.168 107.12C176.275 107.12 176.381 107.333 176.488 107.76C176.648 108.133 176.728 108.56 176.728 109.04C176.728 109.52 176.621 110 176.408 110.48C176.248 110.96 176.061 111.173 175.848 111.12C172.861 110.427 169.421 110 165.528 109.84V129.2C165.528 131.28 166.035 132.827 167.048 133.84C168.115 134.8 169.581 135.28 171.448 135.28C173.688 135.28 175.795 134.507 177.768 132.96L177.928 132.88ZM256.351 137.04C256.511 137.04 256.591 137.2 256.591 137.52C256.591 137.84 256.511 138 256.351 138C254.538 138 253.071 137.973 251.951 137.92L246.111 137.84L239.311 137.92C238.351 137.973 237.071 138 235.471 138C235.311 138 235.231 137.84 235.231 137.52C235.231 137.2 235.311 137.04 235.471 137.04C237.498 137.04 238.965 136.907 239.871 136.64C240.778 136.373 241.391 135.867 241.711 135.12C242.031 134.373 242.191 133.173 242.191 131.52V113.04H214.751V131.52C214.751 133.12 214.911 134.32 215.231 135.12C215.551 135.867 216.165 136.373 217.071 136.64C218.031 136.907 219.525 137.04 221.551 137.04C221.658 137.04 221.711 137.2 221.711 137.52C221.711 137.84 221.658 138 221.551 138C219.738 138 218.325 137.973 217.311 137.92L210.671 137.84L204.831 137.92C203.818 137.973 202.405 138 200.591 138C200.485 138 200.431 137.84 200.431 137.52C200.431 137.2 200.485 137.04 200.591 137.04C202.511 137.04 203.925 136.907 204.831 136.64C205.738 136.373 206.351 135.867 206.671 135.12C206.991 134.32 207.151 133.12 207.151 131.52V94.48C207.151 92.88 206.991 91.7067 206.671 90.96C206.351 90.2133 205.738 89.7067 204.831 89.44C203.925 89.12 202.538 88.96 200.671 88.96C200.565 88.96 200.511 88.8 200.511 88.48C200.511 88.16 200.565 88 200.671 88L204.911 88.08C207.365 88.1867 209.285 88.24 210.671 88.24C212.538 88.24 214.751 88.1867 217.311 88.08L221.551 88C221.658 88 221.711 88.16 221.711 88.48C221.711 88.8 221.658 88.96 221.551 88.96C219.578 88.96 218.111 89.12 217.151 89.44C216.245 89.76 215.605 90.32 215.231 91.12C214.911 91.8667 214.751 93.04 214.751 94.64V110.96H242.191V94.64C242.191 93.04 242.031 91.8667 241.711 91.12C241.391 90.32 240.751 89.76 239.791 89.44C238.885 89.12 237.445 88.96 235.471 88.96C235.311 88.96 235.231 88.8 235.231 88.48C235.231 88.16 235.311 88 235.471 88L239.311 88.08C241.871 88.1867 244.138 88.24 246.111 88.24C247.551 88.24 249.498 88.1867 251.951 88.08L256.351 88C256.511 88 256.591 88.16 256.591 88.48C256.591 88.8 256.511 88.96 256.351 88.96C254.431 88.96 253.018 89.12 252.111 89.44C251.258 89.7067 250.671 90.2133 250.351 90.96C250.031 91.7067 249.871 92.88 249.871 94.48V131.52C249.871 133.12 250.031 134.32 250.351 135.12C250.671 135.867 251.258 136.373 252.111 136.64C253.018 136.907 254.431 137.04 256.351 137.04ZM269.849 97.92C268.462 97.92 267.369 97.5467 266.569 96.8C265.822 96.0533 265.449 94.9867 265.449 93.6C265.449 92.2667 265.822 91.2533 266.569 90.56C267.369 89.8133 268.462 89.44 269.849 89.44C271.182 89.44 272.222 89.8133 272.969 90.56C273.715 91.2533 274.089 92.2667 274.089 93.6C274.089 94.9867 273.715 96.0533 272.969 96.8C272.275 97.5467 271.235 97.92 269.849 97.92ZM262.489 138C262.329 138 262.249 137.84 262.249 137.52C262.249 137.2 262.329 137.04 262.489 137.04C264.302 137.04 265.502 136.667 266.089 135.92C266.675 135.173 266.969 133.707 266.969 131.52V116.96C266.969 115.147 266.782 113.84 266.409 113.04C266.035 112.187 265.395 111.76 264.489 111.76C263.689 111.76 262.649 112.08 261.369 112.72H261.289C261.075 112.72 260.915 112.587 260.809 112.32C260.702 112.053 260.729 111.867 260.889 111.76L272.409 106.4L272.649 106.32C272.862 106.32 273.075 106.453 273.289 106.72C273.555 106.933 273.689 107.12 273.689 107.28V108.96C273.582 111.2 273.529 113.84 273.529 116.88V131.52C273.529 133.707 273.822 135.173 274.409 135.92C275.049 136.667 276.275 137.04 278.089 137.04C278.249 137.04 278.329 137.2 278.329 137.52C278.329 137.84 278.249 138 278.089 138C276.755 138 275.689 137.973 274.889 137.92L270.249 137.84L265.609 137.92C264.862 137.973 263.822 138 262.489 138ZM289.179 111.28C289.179 112.933 289.739 114.32 290.859 115.44C292.032 116.56 293.712 117.733 295.899 118.96C297.819 120.027 299.285 120.907 300.299 121.6C301.365 122.293 302.272 123.227 303.019 124.4C303.819 125.573 304.219 126.987 304.219 128.64C304.219 130.453 303.765 132.133 302.859 133.68C301.952 135.227 300.592 136.48 298.779 137.44C297.019 138.4 294.912 138.88 292.459 138.88C289.525 138.88 286.832 138.133 284.379 136.64C284.059 136.32 283.899 136 283.899 135.68L283.739 128.32C283.739 128.16 283.872 128.08 284.139 128.08C284.459 128.027 284.645 128.053 284.699 128.16C285.605 130.827 286.965 133.013 288.779 134.72C290.645 136.427 292.619 137.28 294.699 137.28C296.032 137.28 297.072 136.933 297.819 136.24C298.565 135.547 298.939 134.507 298.939 133.12C298.939 131.093 298.352 129.493 297.179 128.32C296.005 127.093 294.299 125.893 292.059 124.72C290.245 123.76 288.832 122.96 287.819 122.32C286.805 121.627 285.925 120.72 285.179 119.6C284.485 118.427 284.139 116.987 284.139 115.28C284.139 112.24 285.232 109.973 287.419 108.48C289.659 106.987 292.352 106.24 295.499 106.24C297.579 106.24 299.712 106.64 301.899 107.44C302.379 107.653 302.619 107.947 302.619 108.32C302.619 109.547 302.592 110.507 302.539 111.2L302.459 115.04C302.459 115.2 302.299 115.28 301.979 115.28C301.659 115.28 301.499 115.2 301.499 115.04C301.499 113.973 301.072 112.88 300.219 111.76C299.365 110.587 298.272 109.627 296.939 108.88C295.605 108.133 294.245 107.76 292.859 107.76C290.405 107.76 289.179 108.933 289.179 111.28ZM332.772 132.88C332.932 132.88 333.065 132.987 333.172 133.2C333.332 133.413 333.332 133.573 333.172 133.68C331.199 135.547 329.332 136.907 327.572 137.76C325.812 138.56 323.945 138.96 321.972 138.96C319.679 138.96 317.732 138.427 316.132 137.36C314.585 136.24 313.812 134.4 313.812 131.84V113.76C313.812 112 313.519 110.827 312.932 110.24C312.399 109.653 311.332 109.36 309.732 109.36C309.679 109.36 309.599 109.307 309.492 109.2C309.439 109.04 309.412 108.88 309.412 108.72C309.412 108.56 309.439 108.427 309.492 108.32C309.599 108.16 309.679 108.08 309.732 108.08C314.745 107.867 317.892 105.707 319.172 101.6C319.279 101.387 319.492 101.28 319.812 101.28C320.185 101.28 320.372 101.387 320.372 101.6V107.92C322.879 107.867 326.425 107.6 331.012 107.12C331.119 107.12 331.225 107.333 331.332 107.76C331.492 108.133 331.572 108.56 331.572 109.04C331.572 109.52 331.465 110 331.252 110.48C331.092 110.96 330.905 111.173 330.692 111.12C327.705 110.427 324.265 110 320.372 109.84V129.2C320.372 131.28 320.879 132.827 321.892 133.84C322.959 134.8 324.425 135.28 326.292 135.28C328.532 135.28 330.639 134.507 332.612 132.96L332.772 132.88ZM352.925 139.04C349.725 139.04 346.898 138.293 344.445 136.8C341.992 135.253 340.098 133.2 338.765 130.64C337.432 128.027 336.765 125.2 336.765 122.16C336.765 118.693 337.618 115.76 339.325 113.36C341.085 110.907 343.298 109.093 345.965 107.92C348.685 106.693 351.458 106.08 354.285 106.08C357.538 106.08 360.365 106.853 362.765 108.4C365.218 109.947 367.085 112 368.365 114.56C369.645 117.067 370.285 119.76 370.285 122.64C370.285 125.84 369.485 128.693 367.885 131.2C366.338 133.707 364.232 135.653 361.565 137.04C358.898 138.373 356.018 139.04 352.925 139.04ZM355.325 137.44C357.672 137.44 359.458 136.4 360.685 134.32C361.965 132.24 362.605 129.2 362.605 125.2C362.605 121.627 362.098 118.507 361.085 115.84C360.125 113.173 358.792 111.147 357.085 109.76C355.432 108.373 353.618 107.68 351.645 107.68C349.245 107.68 347.432 108.667 346.205 110.64C344.978 112.613 344.365 115.52 344.365 119.36C344.365 122.827 344.818 125.947 345.725 128.72C346.685 131.44 347.992 133.573 349.645 135.12C351.352 136.667 353.245 137.44 355.325 137.44ZM396.311 106.32C397.538 106.32 398.711 106.72 399.831 107.52C400.951 108.32 401.511 109.28 401.511 110.4C401.511 111.413 401.191 112.24 400.551 112.88C399.965 113.52 399.138 113.84 398.071 113.84C397.378 113.84 396.791 113.707 396.311 113.44C395.885 113.12 395.431 112.693 394.951 112.16C394.471 111.68 394.045 111.333 393.671 111.12C393.298 110.853 392.845 110.72 392.311 110.72C391.725 110.72 391.085 110.96 390.391 111.44C389.751 111.867 388.738 112.8 387.351 114.24V131.52C387.351 133.013 387.565 134.16 387.991 134.96C388.418 135.707 389.138 136.24 390.151 136.56C391.165 136.88 392.658 137.04 394.631 137.04C394.845 137.04 394.951 137.2 394.951 137.52C394.951 137.84 394.845 138 394.631 138C392.871 138 391.458 137.973 390.391 137.92L384.071 137.84L379.431 137.92C378.685 137.973 377.645 138 376.311 138C376.151 138 376.071 137.84 376.071 137.52C376.071 137.2 376.151 137.04 376.311 137.04C378.125 137.04 379.325 136.667 379.911 135.92C380.498 135.173 380.791 133.707 380.791 131.52V116.24C380.791 114.533 380.578 113.28 380.151 112.48C379.778 111.68 379.138 111.28 378.231 111.28C377.431 111.28 376.098 111.68 374.231 112.48H374.151C373.938 112.48 373.778 112.347 373.671 112.08C373.565 111.813 373.591 111.653 373.751 111.6L384.231 106.48C384.551 106.373 384.738 106.32 384.791 106.32C385.325 106.32 385.858 106.907 386.391 108.08C386.925 109.2 387.245 110.693 387.351 112.56C389.431 110.213 391.165 108.587 392.551 107.68C393.938 106.773 395.191 106.32 396.311 106.32ZM437.993 107.12C438.1 107.12 438.153 107.28 438.153 107.6C438.153 107.92 438.1 108.08 437.993 108.08C436.393 108.08 435.006 108.72 433.833 110C432.713 111.28 431.673 113.227 430.713 115.84L421.513 140.24C419.593 145.36 417.753 149.387 415.993 152.32C414.233 155.253 412.446 157.333 410.633 158.56C408.82 159.84 406.82 160.48 404.633 160.48C403.14 160.48 401.993 160.16 401.193 159.52C400.34 158.933 399.913 158.027 399.913 156.8C399.913 155.733 400.26 154.907 400.953 154.32C401.593 153.787 402.393 153.52 403.353 153.52C403.993 153.52 404.526 153.6 404.953 153.76C405.433 153.973 405.913 154.24 406.393 154.56C406.926 154.88 407.38 155.12 407.753 155.28C408.18 155.44 408.686 155.52 409.273 155.52C410.5 155.52 411.62 155.013 412.633 154C413.7 153.04 414.793 151.413 415.913 149.12C417.086 146.827 418.473 143.573 420.073 139.36L407.433 113.76C406.26 111.467 405.326 109.947 404.633 109.2C403.993 108.453 403.193 108.08 402.233 108.08C402.073 108.08 401.993 107.92 401.993 107.6C401.993 107.28 402.073 107.12 402.233 107.12C403.62 107.12 404.686 107.147 405.433 107.2L408.553 107.28L413.993 107.2C414.793 107.147 415.886 107.12 417.273 107.12C417.433 107.12 417.513 107.28 417.513 107.6C417.513 107.92 417.433 108.08 417.273 108.08C415.833 108.08 414.766 108.213 414.073 108.48C413.433 108.693 413.113 109.12 413.113 109.76C413.113 110.24 413.246 110.72 413.513 111.2L423.273 131.36L428.633 115.84C429.113 114.453 429.353 113.28 429.353 112.32C429.353 109.493 427.566 108.08 423.993 108.08C423.886 108.08 423.833 107.92 423.833 107.6C423.833 107.28 423.886 107.12 423.993 107.12C425.433 107.12 426.526 107.147 427.273 107.2L432.073 107.28L435.193 107.2C435.78 107.147 436.713 107.12 437.993 107.12ZM32.64 201.2C32.64 202.907 32.8267 204.16 33.2 204.96C33.6267 205.707 34.4 206.24 35.52 206.56C36.6933 206.88 38.5067 207.04 40.96 207.04C41.12 207.04 41.2 207.2 41.2 207.52C41.2 207.84 41.12 208 40.96 208C38.7733 208 37.0667 207.973 35.84 207.92L28.88 207.84L23.12 207.92C22.1067 207.973 20.72 208 18.96 208C18.8 208 18.72 207.84 18.72 207.52C18.72 207.2 18.8 207.04 18.96 207.04C20.7733 207.04 22.08 206.907 22.88 206.64C23.68 206.373 24.2133 205.867 24.48 205.12C24.8 204.373 24.96 203.173 24.96 201.52V164.48C24.96 162.88 24.8 161.707 24.48 160.96C24.2133 160.213 23.6533 159.707 22.8 159.44C22 159.12 20.72 158.96 18.96 158.96C18.8 158.96 18.72 158.8 18.72 158.48C18.72 158.16 18.8 158 18.96 158L23.12 158.08C25.4667 158.187 27.36 158.24 28.8 158.24C30.0267 158.24 31.52 158.16 33.28 158C33.92 157.947 34.7733 157.893 35.84 157.84C36.96 157.787 38.2667 157.76 39.76 157.76C45.04 157.76 49.2 158.88 52.24 161.12C55.3333 163.36 56.88 166.8 56.88 171.44C56.88 174.8 56 177.653 54.24 180C52.5333 182.347 50.32 184.107 47.6 185.28C44.9333 186.453 42.1867 187.04 39.36 187.04C37.8667 187.04 36.6133 186.907 35.6 186.64C35.44 186.64 35.36 186.507 35.36 186.24C35.36 186.08 35.3867 185.92 35.44 185.76C35.5467 185.6 35.6533 185.547 35.76 185.6C36.6133 185.813 37.5467 185.92 38.56 185.92C41.3333 185.92 43.68 184.773 45.6 182.48C47.52 180.187 48.48 176.907 48.48 172.64C48.48 168.427 47.4933 165.173 45.52 162.88C43.5467 160.533 40.8267 159.36 37.36 159.36C36.08 159.36 35.0933 159.493 34.4 159.76C33.76 160.027 33.3067 160.533 33.04 161.28C32.7733 161.973 32.64 163.093 32.64 164.64V201.2ZM82.5613 176.32C83.7879 176.32 84.9613 176.72 86.0813 177.52C87.2013 178.32 87.7613 179.28 87.7613 180.4C87.7613 181.413 87.4413 182.24 86.8013 182.88C86.2146 183.52 85.3879 183.84 84.3213 183.84C83.6279 183.84 83.0413 183.707 82.5613 183.44C82.1346 183.12 81.6813 182.693 81.2013 182.16C80.7213 181.68 80.2946 181.333 79.9213 181.12C79.5479 180.853 79.0946 180.72 78.5613 180.72C77.9746 180.72 77.3346 180.96 76.6413 181.44C76.0013 181.867 74.9879 182.8 73.6013 184.24V201.52C73.6013 203.013 73.8146 204.16 74.2413 204.96C74.6679 205.707 75.3879 206.24 76.4013 206.56C77.4146 206.88 78.9079 207.04 80.8813 207.04C81.0946 207.04 81.2013 207.2 81.2013 207.52C81.2013 207.84 81.0946 208 80.8813 208C79.1213 208 77.7079 207.973 76.6413 207.92L70.3213 207.84L65.6813 207.92C64.9346 207.973 63.8946 208 62.5613 208C62.4013 208 62.3213 207.84 62.3213 207.52C62.3213 207.2 62.4013 207.04 62.5613 207.04C64.3746 207.04 65.5746 206.667 66.1613 205.92C66.7479 205.173 67.0413 203.707 67.0413 201.52V186.24C67.0413 184.533 66.8279 183.28 66.4013 182.48C66.0279 181.68 65.3879 181.28 64.4813 181.28C63.6813 181.28 62.3479 181.68 60.4813 182.48H60.4013C60.1879 182.48 60.0279 182.347 59.9213 182.08C59.8146 181.813 59.8413 181.653 60.0013 181.6L70.4813 176.48C70.8013 176.373 70.9879 176.32 71.0412 176.32C71.5746 176.32 72.1079 176.907 72.6413 178.08C73.1746 179.2 73.4946 180.693 73.6013 182.56C75.6813 180.213 77.4146 178.587 78.8013 177.68C80.1879 176.773 81.4413 176.32 82.5613 176.32ZM107.066 209.04C103.866 209.04 101.039 208.293 98.5856 206.8C96.1323 205.253 94.239 203.2 92.9056 200.64C91.5723 198.027 90.9056 195.2 90.9056 192.16C90.9056 188.693 91.759 185.76 93.4656 183.36C95.2256 180.907 97.439 179.093 100.106 177.92C102.826 176.693 105.599 176.08 108.426 176.08C111.679 176.08 114.506 176.853 116.906 178.4C119.359 179.947 121.226 182 122.506 184.56C123.786 187.067 124.426 189.76 124.426 192.64C124.426 195.84 123.626 198.693 122.026 201.2C120.479 203.707 118.372 205.653 115.706 207.04C113.039 208.373 110.159 209.04 107.066 209.04ZM109.466 207.44C111.812 207.44 113.599 206.4 114.826 204.32C116.106 202.24 116.746 199.2 116.746 195.2C116.746 191.627 116.239 188.507 115.226 185.84C114.266 183.173 112.932 181.147 111.226 179.76C109.572 178.373 107.759 177.68 105.786 177.68C103.386 177.68 101.572 178.667 100.346 180.64C99.119 182.613 98.5056 185.52 98.5056 189.36C98.5056 192.827 98.959 195.947 99.8656 198.72C100.826 201.44 102.132 203.573 103.786 205.12C105.492 206.667 107.386 207.44 109.466 207.44ZM137.652 167.92C136.265 167.92 135.172 167.547 134.372 166.8C133.625 166.053 133.252 164.987 133.252 163.6C133.252 162.267 133.625 161.253 134.372 160.56C135.172 159.813 136.265 159.44 137.652 159.44C138.985 159.44 140.025 159.813 140.772 160.56C141.519 161.253 141.892 162.267 141.892 163.6C141.892 164.987 141.519 166.053 140.772 166.8C140.079 167.547 139.039 167.92 137.652 167.92ZM141.652 178.96C141.545 181.2 141.492 183.84 141.492 186.88V211.84C141.492 215.467 141.065 218.427 140.212 220.72C139.412 223.067 138.052 225.013 136.132 226.56C134.265 228.107 131.625 229.44 128.212 230.56C128.105 230.613 127.972 230.48 127.812 230.16C127.705 229.893 127.732 229.733 127.892 229.68C130.452 228.56 132.265 226.773 133.332 224.32C134.399 221.867 134.932 218.32 134.932 213.68V186.96C134.932 185.093 134.745 183.76 134.372 182.96C134.052 182.16 133.465 181.76 132.612 181.76C131.759 181.76 130.692 182.08 129.412 182.72H129.332C129.119 182.72 128.932 182.587 128.772 182.32C128.665 182.053 128.692 181.867 128.852 181.76L140.372 176.4L140.612 176.32C140.825 176.32 141.039 176.453 141.252 176.72C141.519 176.933 141.652 177.12 141.652 177.28V178.96ZM178.351 202.96C178.458 202.96 178.565 203.067 178.671 203.28C178.831 203.493 178.858 203.653 178.751 203.76C176.778 205.573 174.805 206.907 172.831 207.76C170.858 208.56 168.725 208.96 166.431 208.96C163.178 208.96 160.351 208.24 157.951 206.8C155.605 205.36 153.791 203.467 152.511 201.12C151.285 198.773 150.671 196.24 150.671 193.52C150.671 190.373 151.445 187.493 152.991 184.88C154.538 182.267 156.645 180.213 159.311 178.72C162.031 177.173 165.045 176.4 168.351 176.4C171.551 176.4 174.031 177.173 175.791 178.72C177.551 180.267 178.431 182.56 178.431 185.6C178.431 187.147 178.111 187.92 177.471 187.92L157.951 188C157.898 188.48 157.871 189.2 157.871 190.16C157.871 194.853 158.938 198.587 161.071 201.36C163.258 204.08 166.351 205.44 170.351 205.44C171.845 205.44 173.098 205.28 174.111 204.96C175.125 204.587 176.485 203.947 178.191 203.04L178.351 202.96ZM165.471 178C163.498 178 161.871 178.773 160.591 180.32C159.365 181.813 158.538 183.893 158.111 186.56L170.911 186.32C170.805 180.773 168.991 178 165.471 178ZM199.406 208.96C195.939 208.96 192.979 208.213 190.526 206.72C188.126 205.173 186.339 203.2 185.166 200.8C183.992 198.347 183.406 195.787 183.406 193.12C183.406 189.76 184.312 186.827 186.126 184.32C187.939 181.76 190.259 179.813 193.086 178.48C195.966 177.093 198.872 176.4 201.806 176.4C204.312 176.4 206.579 176.907 208.606 177.92C210.632 178.933 211.646 180.293 211.646 182C211.646 182.907 211.299 183.707 210.606 184.4C209.912 185.04 208.952 185.36 207.726 185.36C205.699 185.36 204.232 184.16 203.326 181.76C202.792 180.427 202.232 179.493 201.646 178.96C201.059 178.373 200.126 178.08 198.846 178.08C196.339 178.08 194.339 179.227 192.846 181.52C191.406 183.76 190.686 186.773 190.686 190.56C190.686 194.987 191.699 198.587 193.726 201.36C195.806 204.08 199.032 205.44 203.406 205.44C204.899 205.44 206.232 205.253 207.406 204.88C208.579 204.507 209.859 203.92 211.246 203.12H211.326C211.486 203.12 211.619 203.2 211.726 203.36C211.886 203.52 211.912 203.653 211.806 203.76C209.832 205.52 207.886 206.827 205.966 207.68C204.046 208.533 201.859 208.96 199.406 208.96ZM239.959 202.88C240.119 202.88 240.253 202.987 240.359 203.2C240.519 203.413 240.519 203.573 240.359 203.68C238.386 205.547 236.519 206.907 234.759 207.76C232.999 208.56 231.133 208.96 229.159 208.96C226.866 208.96 224.919 208.427 223.319 207.36C221.773 206.24 220.999 204.4 220.999 201.84V183.76C220.999 182 220.706 180.827 220.119 180.24C219.586 179.653 218.519 179.36 216.919 179.36C216.866 179.36 216.786 179.307 216.679 179.2C216.626 179.04 216.599 178.88 216.599 178.72C216.599 178.56 216.626 178.427 216.679 178.32C216.786 178.16 216.866 178.08 216.919 178.08C221.933 177.867 225.079 175.707 226.359 171.6C226.466 171.387 226.679 171.28 226.999 171.28C227.373 171.28 227.559 171.387 227.559 171.6V177.92C230.066 177.867 233.613 177.6 238.199 177.12C238.306 177.12 238.413 177.333 238.519 177.76C238.679 178.133 238.759 178.56 238.759 179.04C238.759 179.52 238.653 180 238.439 180.48C238.279 180.96 238.093 181.173 237.879 181.12C234.893 180.427 231.453 180 227.559 179.84V199.2C227.559 201.28 228.066 202.827 229.079 203.84C230.146 204.8 231.613 205.28 233.479 205.28C235.719 205.28 237.826 204.507 239.799 202.96L239.959 202.88Z" fill="#F5F5F5"/>
</svg>
