<svg width="674" height="199" viewBox="0 0 674 199" fill="none" xmlns="http://www.w3.org/2000/svg">
<path d="M85.76 86.54C85.9733 86.54 86.08 86.7 86.08 87.02C86.08 87.34 85.9733 87.5 85.76 87.5C84.4267 87.5 83.3867 87.4733 82.64 87.42L78 87.34L73.36 87.42C72.56 87.4733 71.4933 87.5 70.16 87.5C70.0533 87.5 70 87.34 70 87.02C70 86.7 70.0533 86.54 70.16 86.54C71.9733 86.54 73.1733 86.1667 73.76 85.42C74.4 84.6733 74.72 83.2067 74.72 81.02V69.1C74.72 66.1133 74.16 63.9 73.04 62.46C71.92 61.02 70.2133 60.3 67.92 60.3C66.5333 60.3 65.0933 60.62 63.6 61.26C62.16 61.9 60.8533 62.8067 59.68 63.98V81.02C59.68 83.2067 59.9733 84.6733 60.56 85.42C61.2 86.1667 62.4267 86.54 64.24 86.54C64.4533 86.54 64.56 86.7 64.56 87.02C64.56 87.34 64.4533 87.5 64.24 87.5C62.9067 87.5 61.8667 87.4733 61.12 87.42L56.48 87.34L51.84 87.42C51.04 87.4733 49.9733 87.5 48.64 87.5C48.5333 87.5 48.48 87.34 48.48 87.02C48.48 86.7 48.5333 86.54 48.64 86.54C50.4533 86.54 51.6533 86.1667 52.24 85.42C52.88 84.6733 53.2 83.2067 53.2 81.02V40.46C53.2 39.98 53.0933 39.66 52.88 39.5C52.6667 39.2867 52.2933 39.18 51.76 39.18H38.8C37.3067 39.18 36.1867 39.3133 35.44 39.58C34.7467 39.8467 34.2667 40.3267 34 41.02C33.7867 41.66 33.68 42.7 33.68 44.14V81.02C33.68 82.6733 33.84 83.8733 34.16 84.62C34.48 85.3667 35.12 85.8733 36.08 86.14C37.04 86.4067 38.56 86.54 40.64 86.54C40.8 86.54 40.88 86.7 40.88 87.02C40.88 87.34 40.8 87.5 40.64 87.5C38.7733 87.5 37.3067 87.4733 36.24 87.42L29.68 87.34L23.44 87.42C22.32 87.4733 20.7733 87.5 18.8 87.5C18.6933 87.5 18.64 87.34 18.64 87.02C18.64 86.7 18.6933 86.54 18.8 86.54C20.88 86.54 22.4 86.4067 23.36 86.14C24.3733 85.8733 25.04 85.3667 25.36 84.62C25.7333 83.82 25.92 82.62 25.92 81.02V43.98C25.92 42.5933 25.7867 41.58 25.52 40.94C25.2533 40.2467 24.7733 39.7933 24.08 39.58C23.3867 39.3133 22.32 39.18 20.88 39.18C17.6267 39.18 14.9333 40.1933 12.8 42.22C10.72 44.1933 9.12 47.2067 8 51.26C8 51.3667 7.84 51.42 7.52 51.42C7.25333 51.42 7.12 51.34 7.12 51.18C7.33333 49.1 7.57333 46.4333 7.84 43.18C8.10667 39.8733 8.24 37.3933 8.24 35.74C8.24 35.4733 8.37333 35.34 8.64 35.34C8.96 35.34 9.12 35.4733 9.12 35.74C9.12 36.9133 10.6133 37.5 13.6 37.5C18.1867 37.66 23.5467 37.74 29.68 37.74C37.68 37.74 42.8533 37.66 45.2 37.5C48.4533 37.3933 51.2 36.62 53.44 35.18C55.7333 33.6867 57.3867 31.7933 58.4 29.5C58.4 29.34 58.56 29.26 58.88 29.26C59.0933 29.26 59.28 29.3133 59.44 29.42C59.6 29.4733 59.68 29.5533 59.68 29.66V62.3C63.4133 57.9267 67.4933 55.74 71.92 55.74C74.8 55.74 77.0667 56.62 78.72 58.38C80.4267 60.14 81.28 62.54 81.28 65.58V81.02C81.28 83.2067 81.5733 84.6733 82.16 85.42C82.7467 86.1667 83.9467 86.54 85.76 86.54ZM117.601 82.46C117.708 82.46 117.815 82.5667 117.921 82.78C118.081 82.9933 118.108 83.1533 118.001 83.26C116.028 85.0733 114.055 86.4067 112.081 87.26C110.108 88.06 107.975 88.46 105.681 88.46C102.428 88.46 99.6013 87.74 97.2013 86.3C94.8546 84.86 93.0413 82.9667 91.7613 80.62C90.5346 78.2733 89.9212 75.74 89.9212 73.02C89.9212 69.8733 90.6946 66.9933 92.2413 64.38C93.7879 61.7667 95.8946 59.7133 98.5613 58.22C101.281 56.6733 104.295 55.9 107.601 55.9C110.801 55.9 113.281 56.6733 115.041 58.22C116.801 59.7667 117.681 62.06 117.681 65.1C117.681 66.6467 117.361 67.42 116.721 67.42L97.2013 67.5C97.1479 67.98 97.1213 68.7 97.1213 69.66C97.1213 74.3533 98.1879 78.0867 100.321 80.86C102.508 83.58 105.601 84.94 109.601 84.94C111.095 84.94 112.348 84.78 113.361 84.46C114.375 84.0867 115.735 83.4467 117.441 82.54L117.601 82.46ZM104.721 57.5C102.748 57.5 101.121 58.2733 99.8413 59.82C98.6146 61.3133 97.7879 63.3933 97.3613 66.06L110.161 65.82C110.055 60.2733 108.241 57.5 104.721 57.5ZM213.074 37.5C213.181 37.5 213.234 37.66 213.234 37.98C213.234 38.3 213.181 38.46 213.074 38.46C211.154 38.46 209.394 39.18 207.794 40.62C206.194 42.06 204.861 44.14 203.794 46.86L188.274 87.42C188.221 87.6333 187.928 87.74 187.394 87.74C186.861 87.74 186.568 87.6333 186.514 87.42L176.194 65.34L167.794 87.42C167.741 87.6333 167.448 87.74 166.914 87.74C166.381 87.74 166.088 87.6333 166.034 87.42L145.794 44.14C144.674 41.7933 143.714 40.2733 142.914 39.58C142.168 38.8333 141.021 38.46 139.474 38.46C139.314 38.46 139.234 38.3 139.234 37.98C139.234 37.66 139.314 37.5 139.474 37.5L141.554 37.58C142.728 37.6867 144.061 37.74 145.554 37.74C148.541 37.74 151.261 37.6867 153.714 37.58C154.461 37.5267 155.394 37.5 156.514 37.5C156.674 37.5 156.754 37.66 156.754 37.98C156.754 38.3 156.674 38.46 156.514 38.46C155.074 38.46 154.034 38.62 153.394 38.94C152.808 39.2067 152.514 39.74 152.514 40.54C152.514 41.4467 152.994 42.94 153.954 45.02L169.234 77.58L174.994 62.7L166.274 44.14C165.314 42.1667 164.408 40.7267 163.554 39.82C162.754 38.9133 161.794 38.46 160.674 38.46C160.514 38.46 160.434 38.3 160.434 37.98C160.434 37.66 160.514 37.5 160.674 37.5L162.594 37.58C163.768 37.6867 164.941 37.74 166.114 37.74C168.621 37.74 170.834 37.6867 172.754 37.58C173.288 37.5267 173.981 37.5 174.834 37.5C174.994 37.5 175.074 37.66 175.074 37.98C175.074 38.3 174.994 38.46 174.834 38.46C173.981 38.46 173.368 38.5667 172.994 38.78C172.674 38.94 172.514 39.26 172.514 39.74C172.514 40.5933 173.154 42.3533 174.434 45.02L178.754 54.14L181.634 46.54C182.594 44.0333 183.074 42.14 183.074 40.86C183.074 39.26 182.274 38.46 180.674 38.46C180.514 38.46 180.434 38.3 180.434 37.98C180.434 37.66 180.514 37.5 180.674 37.5C181.154 37.5 181.714 37.5533 182.354 37.66C182.994 37.7133 184.168 37.74 185.874 37.74C186.834 37.74 187.954 37.6867 189.234 37.58L192.354 37.5C192.461 37.5 192.514 37.66 192.514 37.98C192.514 38.3 192.461 38.46 192.354 38.46C190.541 38.46 188.941 39.1267 187.554 40.46C186.168 41.7933 184.914 43.9267 183.794 46.86L179.954 56.78L189.794 77.58L201.474 47.1C202.008 45.7133 202.274 44.4067 202.274 43.18C202.274 41.6867 201.821 40.54 200.914 39.74C200.061 38.8867 198.834 38.46 197.234 38.46C197.074 38.46 196.994 38.3 196.994 37.98C196.994 37.66 197.074 37.5 197.234 37.5L200.754 37.58C202.674 37.6867 204.408 37.74 205.954 37.74C207.021 37.74 208.248 37.6867 209.634 37.58L213.074 37.5ZM225.534 88.54C222.334 88.54 219.508 87.7933 217.054 86.3C214.601 84.7533 212.708 82.7 211.374 80.14C210.041 77.5267 209.374 74.7 209.374 71.66C209.374 68.1933 210.228 65.26 211.934 62.86C213.694 60.4067 215.908 58.5933 218.574 57.42C221.294 56.1933 224.068 55.58 226.894 55.58C230.148 55.58 232.974 56.3533 235.374 57.9C237.828 59.4467 239.694 61.5 240.974 64.06C242.254 66.5667 242.894 69.26 242.894 72.14C242.894 75.34 242.094 78.1933 240.494 80.7C238.948 83.2067 236.841 85.1533 234.174 86.54C231.508 87.8733 228.628 88.54 225.534 88.54ZM227.934 86.94C230.281 86.94 232.068 85.9 233.294 83.82C234.574 81.74 235.214 78.7 235.214 74.7C235.214 71.1267 234.708 68.0067 233.694 65.34C232.734 62.6733 231.401 60.6467 229.694 59.26C228.041 57.8733 226.228 57.18 224.254 57.18C221.854 57.18 220.041 58.1667 218.814 60.14C217.588 62.1133 216.974 65.02 216.974 68.86C216.974 72.3267 217.428 75.4467 218.334 78.22C219.294 80.94 220.601 83.0733 222.254 84.62C223.961 86.1667 225.854 86.94 227.934 86.94ZM305.881 86.54C306.094 86.54 306.201 86.7 306.201 87.02C306.201 87.34 306.094 87.5 305.881 87.5C304.547 87.5 303.481 87.4733 302.681 87.42L298.121 87.34L293.561 87.42C292.761 87.4733 291.694 87.5 290.361 87.5C290.201 87.5 290.121 87.34 290.121 87.02C290.121 86.7 290.201 86.54 290.361 86.54C292.121 86.54 293.321 86.1667 293.961 85.42C294.601 84.62 294.921 83.1533 294.921 81.02V69.1C294.921 66.1133 294.387 63.9 293.321 62.46C292.307 61.02 290.734 60.3 288.601 60.3C287.161 60.3 285.721 60.6467 284.281 61.34C282.841 62.0333 281.587 62.9667 280.521 64.14V64.94V81.02C280.521 83.2067 280.814 84.6733 281.401 85.42C282.041 86.1667 283.267 86.54 285.081 86.54C285.241 86.54 285.321 86.7 285.321 87.02C285.321 87.34 285.241 87.5 285.081 87.5C283.747 87.5 282.681 87.4733 281.881 87.42L277.241 87.34L272.681 87.42C271.881 87.4733 270.814 87.5 269.481 87.5C269.321 87.5 269.241 87.34 269.241 87.02C269.241 86.7 269.321 86.54 269.481 86.54C271.294 86.54 272.494 86.1667 273.081 85.42C273.721 84.6733 274.041 83.2067 274.041 81.02V69.1C274.041 66.1133 273.507 63.9 272.441 62.46C271.427 61.02 269.854 60.3 267.721 60.3C266.387 60.3 265.027 60.62 263.641 61.26C262.254 61.9 261.027 62.7533 259.961 63.82V81.02C259.961 83.2067 260.254 84.6733 260.841 85.42C261.427 86.1667 262.627 86.54 264.441 86.54C264.601 86.54 264.681 86.7 264.681 87.02C264.681 87.34 264.601 87.5 264.441 87.5C263.107 87.5 262.067 87.4733 261.321 87.42L256.681 87.34L252.041 87.42C251.294 87.4733 250.254 87.5 248.921 87.5C248.761 87.5 248.681 87.34 248.681 87.02C248.681 86.7 248.761 86.54 248.921 86.54C250.734 86.54 251.934 86.1667 252.521 85.42C253.107 84.6733 253.401 83.2067 253.401 81.02V65.74C253.401 64.0333 253.187 62.78 252.761 61.98C252.387 61.18 251.747 60.78 250.841 60.78C250.041 60.78 248.707 61.18 246.841 61.98H246.761C246.547 61.98 246.387 61.8467 246.281 61.58C246.174 61.3133 246.201 61.1533 246.361 61.1L256.841 55.98C257.161 55.8733 257.347 55.82 257.401 55.82C257.934 55.82 258.467 56.4333 259.001 57.66C259.587 58.8333 259.907 60.38 259.961 62.3C263.534 57.9267 267.427 55.74 271.641 55.74C274.094 55.74 276.067 56.3533 277.561 57.58C279.054 58.7533 279.987 60.4867 280.361 62.78C284.147 58.0867 288.201 55.74 292.521 55.74C295.347 55.74 297.507 56.5667 299.001 58.22C300.547 59.82 301.321 62.2733 301.321 65.58V81.02C301.321 83.2067 301.614 84.6733 302.201 85.42C302.841 86.1667 304.067 86.54 305.881 86.54ZM337.758 82.46C337.864 82.46 337.971 82.5667 338.078 82.78C338.238 82.9933 338.264 83.1533 338.158 83.26C336.184 85.0733 334.211 86.4067 332.238 87.26C330.264 88.06 328.131 88.46 325.838 88.46C322.584 88.46 319.758 87.74 317.358 86.3C315.011 84.86 313.198 82.9667 311.918 80.62C310.691 78.2733 310.077 75.74 310.077 73.02C310.077 69.8733 310.851 66.9933 312.398 64.38C313.944 61.7667 316.051 59.7133 318.718 58.22C321.438 56.6733 324.451 55.9 327.758 55.9C330.958 55.9 333.438 56.6733 335.198 58.22C336.958 59.7667 337.838 62.06 337.838 65.1C337.838 66.6467 337.518 67.42 336.878 67.42L317.358 67.5C317.304 67.98 317.278 68.7 317.278 69.66C317.278 74.3533 318.344 78.0867 320.478 80.86C322.664 83.58 325.758 84.94 329.758 84.94C331.251 84.94 332.504 84.78 333.518 84.46C334.531 84.0867 335.891 83.4467 337.598 82.54L337.758 82.46ZM324.878 57.5C322.904 57.5 321.278 58.2733 319.998 59.82C318.771 61.3133 317.944 63.3933 317.518 66.06L330.318 65.82C330.211 60.2733 328.398 57.5 324.878 57.5ZM380.961 86.54C381.121 86.54 381.201 86.7 381.201 87.02C381.201 87.34 381.121 87.5 380.961 87.5C379.627 87.5 378.587 87.4733 377.841 87.42L373.201 87.34L368.641 87.42C367.841 87.4733 366.774 87.5 365.441 87.5C365.281 87.5 365.201 87.34 365.201 87.02C365.201 86.7 365.281 86.54 365.441 86.54C367.254 86.54 368.454 86.1667 369.041 85.42C369.627 84.6733 369.921 83.2067 369.921 81.02V69.02C369.921 66.0333 369.361 63.8467 368.241 62.46C367.174 61.02 365.467 60.3 363.121 60.3C361.734 60.3 360.321 60.62 358.881 61.26C357.441 61.9 356.134 62.7533 354.961 63.82V81.02C354.961 83.2067 355.254 84.6733 355.841 85.42C356.427 86.1667 357.627 86.54 359.441 86.54C359.601 86.54 359.681 86.7 359.681 87.02C359.681 87.34 359.601 87.5 359.441 87.5C358.107 87.5 357.067 87.4733 356.321 87.42L351.681 87.34L347.041 87.42C346.294 87.4733 345.254 87.5 343.921 87.5C343.761 87.5 343.681 87.34 343.681 87.02C343.681 86.7 343.761 86.54 343.921 86.54C345.734 86.54 346.934 86.1667 347.521 85.42C348.107 84.6733 348.401 83.2067 348.401 81.02V65.74C348.401 64.0333 348.187 62.78 347.761 61.98C347.387 61.18 346.747 60.78 345.841 60.78C345.041 60.78 343.707 61.18 341.841 61.98H341.761C341.547 61.98 341.387 61.8467 341.281 61.58C341.174 61.3133 341.201 61.1533 341.361 61.1L351.841 55.98C352.161 55.8733 352.347 55.82 352.401 55.82C352.934 55.82 353.467 56.4333 354.001 57.66C354.587 58.8333 354.907 60.38 354.961 62.3C358.694 57.8733 362.747 55.66 367.121 55.66C370.054 55.66 372.347 56.5667 374.001 58.38C375.654 60.14 376.481 62.54 376.481 65.58V81.02C376.481 83.2067 376.774 84.6733 377.361 85.42C377.947 86.1667 379.147 86.54 380.961 86.54ZM386.172 37.34C387.932 37.34 389.319 38.0333 390.332 39.42C391.345 40.7533 391.852 42.6733 391.852 45.18C391.852 47.5267 391.319 49.6867 390.252 51.66C389.239 53.6333 387.719 55.6067 385.692 57.58C385.639 57.6333 385.559 57.66 385.452 57.66C385.292 57.66 385.159 57.58 385.052 57.42C384.945 57.26 384.945 57.1267 385.052 57.02C387.665 54.3533 388.972 51.2067 388.972 47.58C388.972 46.0867 388.705 44.9933 388.172 44.3C387.692 45.1 386.759 45.5 385.372 45.5C384.199 45.5 383.265 45.1533 382.572 44.46C381.879 43.7133 381.532 42.7267 381.532 41.5C381.532 40.1667 381.932 39.1533 382.732 38.46C383.585 37.7133 384.732 37.34 386.172 37.34ZM400.304 60.78C400.304 62.4333 400.864 63.82 401.984 64.94C403.157 66.06 404.837 67.2333 407.024 68.46C408.944 69.5267 410.41 70.4067 411.424 71.1C412.49 71.7933 413.397 72.7267 414.144 73.9C414.944 75.0733 415.344 76.4867 415.344 78.14C415.344 79.9533 414.89 81.6333 413.984 83.18C413.077 84.7267 411.717 85.98 409.904 86.94C408.144 87.9 406.037 88.38 403.584 88.38C400.65 88.38 397.957 87.6333 395.504 86.14C395.184 85.82 395.024 85.5 395.024 85.18L394.864 77.82C394.864 77.66 394.997 77.58 395.264 77.58C395.584 77.5267 395.77 77.5533 395.824 77.66C396.73 80.3267 398.09 82.5133 399.904 84.22C401.77 85.9267 403.744 86.78 405.824 86.78C407.157 86.78 408.197 86.4333 408.944 85.74C409.69 85.0467 410.064 84.0067 410.064 82.62C410.064 80.5933 409.477 78.9933 408.304 77.82C407.13 76.5933 405.424 75.3933 403.184 74.22C401.37 73.26 399.957 72.46 398.944 71.82C397.93 71.1267 397.05 70.22 396.304 69.1C395.61 67.9267 395.264 66.4867 395.264 64.78C395.264 61.74 396.357 59.4733 398.544 57.98C400.784 56.4867 403.477 55.74 406.624 55.74C408.704 55.74 410.837 56.14 413.024 56.94C413.504 57.1533 413.744 57.4467 413.744 57.82C413.744 59.0467 413.717 60.0067 413.664 60.7L413.584 64.54C413.584 64.7 413.424 64.78 413.104 64.78C412.784 64.78 412.624 64.7 412.624 64.54C412.624 63.4733 412.197 62.38 411.344 61.26C410.49 60.0867 409.397 59.1267 408.064 58.38C406.73 57.6333 405.37 57.26 403.984 57.26C401.53 57.26 400.304 58.4333 400.304 60.78ZM20.64 155.7C20.64 157.407 20.8267 158.66 21.2 159.46C21.6267 160.207 22.4 160.74 23.52 161.06C24.6933 161.38 26.5067 161.54 28.96 161.54C29.12 161.54 29.2 161.7 29.2 162.02C29.2 162.34 29.12 162.5 28.96 162.5C26.7733 162.5 25.0667 162.473 23.84 162.42L16.88 162.34L11.12 162.42C10.1067 162.473 8.72 162.5 6.96 162.5C6.8 162.5 6.72 162.34 6.72 162.02C6.72 161.7 6.8 161.54 6.96 161.54C8.77333 161.54 10.08 161.407 10.88 161.14C11.68 160.873 12.2133 160.367 12.48 159.62C12.8 158.873 12.96 157.673 12.96 156.02V118.98C12.96 117.38 12.8 116.207 12.48 115.46C12.2133 114.713 11.6533 114.207 10.8 113.94C10 113.62 8.72 113.46 6.96 113.46C6.8 113.46 6.72 113.3 6.72 112.98C6.72 112.66 6.8 112.5 6.96 112.5L11.12 112.58C13.4667 112.687 15.36 112.74 16.8 112.74C18.0267 112.74 19.52 112.66 21.28 112.5C21.92 112.447 22.7733 112.393 23.84 112.34C24.96 112.287 26.2667 112.26 27.76 112.26C33.04 112.26 37.2 113.38 40.24 115.62C43.3333 117.86 44.88 121.3 44.88 125.94C44.88 129.3 44 132.153 42.24 134.5C40.5333 136.847 38.32 138.607 35.6 139.78C32.9333 140.953 30.1867 141.54 27.36 141.54C25.8667 141.54 24.6133 141.407 23.6 141.14C23.44 141.14 23.36 141.007 23.36 140.74C23.36 140.58 23.3867 140.42 23.44 140.26C23.5467 140.1 23.6533 140.047 23.76 140.1C24.6133 140.313 25.5467 140.42 26.56 140.42C29.3333 140.42 31.68 139.273 33.6 136.98C35.52 134.687 36.48 131.407 36.48 127.14C36.48 122.927 35.4933 119.673 33.52 117.38C31.5467 115.033 28.8267 113.86 25.36 113.86C24.08 113.86 23.0933 113.993 22.4 114.26C21.76 114.527 21.3067 115.033 21.04 115.78C20.7733 116.473 20.64 117.593 20.64 119.14V155.7ZM70.5613 130.82C71.7879 130.82 72.9613 131.22 74.0813 132.02C75.2013 132.82 75.7613 133.78 75.7613 134.9C75.7613 135.913 75.4413 136.74 74.8013 137.38C74.2146 138.02 73.3879 138.34 72.3213 138.34C71.6279 138.34 71.0413 138.207 70.5613 137.94C70.1346 137.62 69.6813 137.193 69.2013 136.66C68.7213 136.18 68.2946 135.833 67.9213 135.62C67.5479 135.353 67.0946 135.22 66.5613 135.22C65.9746 135.22 65.3346 135.46 64.6413 135.94C64.0013 136.367 62.9879 137.3 61.6013 138.74V156.02C61.6013 157.513 61.8146 158.66 62.2413 159.46C62.6679 160.207 63.3879 160.74 64.4013 161.06C65.4146 161.38 66.9079 161.54 68.8813 161.54C69.0946 161.54 69.2013 161.7 69.2013 162.02C69.2013 162.34 69.0946 162.5 68.8813 162.5C67.1213 162.5 65.7079 162.473 64.6413 162.42L58.3213 162.34L53.6813 162.42C52.9346 162.473 51.8946 162.5 50.5613 162.5C50.4013 162.5 50.3213 162.34 50.3213 162.02C50.3213 161.7 50.4013 161.54 50.5613 161.54C52.3746 161.54 53.5746 161.167 54.1613 160.42C54.7479 159.673 55.0413 158.207 55.0413 156.02V140.74C55.0413 139.033 54.8279 137.78 54.4013 136.98C54.0279 136.18 53.3879 135.78 52.4813 135.78C51.6813 135.78 50.3479 136.18 48.4813 136.98H48.4013C48.1879 136.98 48.0279 136.847 47.9213 136.58C47.8146 136.313 47.8413 136.153 48.0013 136.1L58.4813 130.98C58.8013 130.873 58.9879 130.82 59.0412 130.82C59.5746 130.82 60.1079 131.407 60.6413 132.58C61.1746 133.7 61.4946 135.193 61.6013 137.06C63.6813 134.713 65.4146 133.087 66.8013 132.18C68.1879 131.273 69.4413 130.82 70.5613 130.82ZM88.0831 122.42C86.6965 122.42 85.6031 122.047 84.8031 121.3C84.0565 120.553 83.6831 119.487 83.6831 118.1C83.6831 116.767 84.0565 115.753 84.8031 115.06C85.6031 114.313 86.6965 113.94 88.0831 113.94C89.4165 113.94 90.4565 114.313 91.2031 115.06C91.9498 115.753 92.3231 116.767 92.3231 118.1C92.3231 119.487 91.9498 120.553 91.2031 121.3C90.5098 122.047 89.4698 122.42 88.0831 122.42ZM80.7231 162.5C80.5631 162.5 80.4831 162.34 80.4831 162.02C80.4831 161.7 80.5631 161.54 80.7231 161.54C82.5365 161.54 83.7365 161.167 84.3231 160.42C84.9098 159.673 85.2031 158.207 85.2031 156.02V141.46C85.2031 139.647 85.0165 138.34 84.6431 137.54C84.2698 136.687 83.6298 136.26 82.7231 136.26C81.9231 136.26 80.8831 136.58 79.6031 137.22H79.5231C79.3098 137.22 79.1498 137.087 79.0431 136.82C78.9365 136.553 78.9631 136.367 79.1231 136.26L90.6431 130.9L90.8831 130.82C91.0965 130.82 91.3098 130.953 91.5231 131.22C91.7898 131.433 91.9231 131.62 91.9231 131.78V133.46C91.8165 135.7 91.7631 138.34 91.7631 141.38V156.02C91.7631 158.207 92.0565 159.673 92.6431 160.42C93.2831 161.167 94.5098 161.54 96.3231 161.54C96.4831 161.54 96.5631 161.7 96.5631 162.02C96.5631 162.34 96.4831 162.5 96.3231 162.5C94.9898 162.5 93.9231 162.473 93.1231 162.42L88.4831 162.34L83.8431 162.42C83.0965 162.473 82.0565 162.5 80.7231 162.5ZM138.773 161.54C138.933 161.54 139.013 161.7 139.013 162.02C139.013 162.34 138.933 162.5 138.773 162.5C137.44 162.5 136.4 162.473 135.653 162.42L131.013 162.34L126.453 162.42C125.653 162.473 124.586 162.5 123.253 162.5C123.093 162.5 123.013 162.34 123.013 162.02C123.013 161.7 123.093 161.54 123.253 161.54C125.066 161.54 126.266 161.167 126.853 160.42C127.44 159.673 127.733 158.207 127.733 156.02V144.02C127.733 141.033 127.173 138.847 126.053 137.46C124.986 136.02 123.28 135.3 120.933 135.3C119.546 135.3 118.133 135.62 116.693 136.26C115.253 136.9 113.946 137.753 112.773 138.82V156.02C112.773 158.207 113.066 159.673 113.653 160.42C114.24 161.167 115.44 161.54 117.253 161.54C117.413 161.54 117.493 161.7 117.493 162.02C117.493 162.34 117.413 162.5 117.253 162.5C115.92 162.5 114.88 162.473 114.133 162.42L109.493 162.34L104.853 162.42C104.106 162.473 103.066 162.5 101.733 162.5C101.573 162.5 101.493 162.34 101.493 162.02C101.493 161.7 101.573 161.54 101.733 161.54C103.546 161.54 104.746 161.167 105.333 160.42C105.92 159.673 106.213 158.207 106.213 156.02V140.74C106.213 139.033 106 137.78 105.573 136.98C105.2 136.18 104.56 135.78 103.653 135.78C102.853 135.78 101.52 136.18 99.6531 136.98H99.5731C99.3598 136.98 99.1998 136.847 99.0931 136.58C98.9865 136.313 99.0131 136.153 99.1731 136.1L109.653 130.98C109.973 130.873 110.16 130.82 110.213 130.82C110.746 130.82 111.28 131.433 111.813 132.66C112.4 133.833 112.72 135.38 112.773 137.3C116.506 132.873 120.56 130.66 124.933 130.66C127.866 130.66 130.16 131.567 131.813 133.38C133.466 135.14 134.293 137.54 134.293 140.58V156.02C134.293 158.207 134.586 159.673 135.173 160.42C135.76 161.167 136.96 161.54 138.773 161.54ZM165.928 157.38C166.088 157.38 166.221 157.487 166.328 157.7C166.488 157.913 166.488 158.073 166.328 158.18C164.355 160.047 162.488 161.407 160.728 162.26C158.968 163.06 157.101 163.46 155.128 163.46C152.835 163.46 150.888 162.927 149.288 161.86C147.741 160.74 146.968 158.9 146.968 156.34V138.26C146.968 136.5 146.675 135.327 146.088 134.74C145.555 134.153 144.488 133.86 142.888 133.86C142.835 133.86 142.755 133.807 142.648 133.7C142.595 133.54 142.568 133.38 142.568 133.22C142.568 133.06 142.595 132.927 142.648 132.82C142.755 132.66 142.835 132.58 142.888 132.58C147.901 132.367 151.048 130.207 152.328 126.1C152.435 125.887 152.648 125.78 152.968 125.78C153.341 125.78 153.528 125.887 153.528 126.1V132.42C156.035 132.367 159.581 132.1 164.168 131.62C164.275 131.62 164.381 131.833 164.488 132.26C164.648 132.633 164.728 133.06 164.728 133.54C164.728 134.02 164.621 134.5 164.408 134.98C164.248 135.46 164.061 135.673 163.848 135.62C160.861 134.927 157.421 134.5 153.528 134.34V153.7C153.528 155.78 154.035 157.327 155.048 158.34C156.115 159.3 157.581 159.78 159.448 159.78C161.688 159.78 163.795 159.007 165.768 157.46L165.928 157.38ZM244.351 161.54C244.511 161.54 244.591 161.7 244.591 162.02C244.591 162.34 244.511 162.5 244.351 162.5C242.538 162.5 241.071 162.473 239.951 162.42L234.111 162.34L227.311 162.42C226.351 162.473 225.071 162.5 223.471 162.5C223.311 162.5 223.231 162.34 223.231 162.02C223.231 161.7 223.311 161.54 223.471 161.54C225.498 161.54 226.965 161.407 227.871 161.14C228.778 160.873 229.391 160.367 229.711 159.62C230.031 158.873 230.191 157.673 230.191 156.02V137.54H202.751V156.02C202.751 157.62 202.911 158.82 203.231 159.62C203.551 160.367 204.165 160.873 205.071 161.14C206.031 161.407 207.525 161.54 209.551 161.54C209.658 161.54 209.711 161.7 209.711 162.02C209.711 162.34 209.658 162.5 209.551 162.5C207.738 162.5 206.325 162.473 205.311 162.42L198.671 162.34L192.831 162.42C191.818 162.473 190.405 162.5 188.591 162.5C188.485 162.5 188.431 162.34 188.431 162.02C188.431 161.7 188.485 161.54 188.591 161.54C190.511 161.54 191.925 161.407 192.831 161.14C193.738 160.873 194.351 160.367 194.671 159.62C194.991 158.82 195.151 157.62 195.151 156.02V118.98C195.151 117.38 194.991 116.207 194.671 115.46C194.351 114.713 193.738 114.207 192.831 113.94C191.925 113.62 190.538 113.46 188.671 113.46C188.565 113.46 188.511 113.3 188.511 112.98C188.511 112.66 188.565 112.5 188.671 112.5L192.911 112.58C195.365 112.687 197.285 112.74 198.671 112.74C200.538 112.74 202.751 112.687 205.311 112.58L209.551 112.5C209.658 112.5 209.711 112.66 209.711 112.98C209.711 113.3 209.658 113.46 209.551 113.46C207.578 113.46 206.111 113.62 205.151 113.94C204.245 114.26 203.605 114.82 203.231 115.62C202.911 116.367 202.751 117.54 202.751 119.14V135.46H230.191V119.14C230.191 117.54 230.031 116.367 229.711 115.62C229.391 114.82 228.751 114.26 227.791 113.94C226.885 113.62 225.445 113.46 223.471 113.46C223.311 113.46 223.231 113.3 223.231 112.98C223.231 112.66 223.311 112.5 223.471 112.5L227.311 112.58C229.871 112.687 232.138 112.74 234.111 112.74C235.551 112.74 237.498 112.687 239.951 112.58L244.351 112.5C244.511 112.5 244.591 112.66 244.591 112.98C244.591 113.3 244.511 113.46 244.351 113.46C242.431 113.46 241.018 113.62 240.111 113.94C239.258 114.207 238.671 114.713 238.351 115.46C238.031 116.207 237.871 117.38 237.871 118.98V156.02C237.871 157.62 238.031 158.82 238.351 159.62C238.671 160.367 239.258 160.873 240.111 161.14C241.018 161.407 242.431 161.54 244.351 161.54ZM257.849 122.42C256.462 122.42 255.369 122.047 254.569 121.3C253.822 120.553 253.449 119.487 253.449 118.1C253.449 116.767 253.822 115.753 254.569 115.06C255.369 114.313 256.462 113.94 257.849 113.94C259.182 113.94 260.222 114.313 260.969 115.06C261.715 115.753 262.089 116.767 262.089 118.1C262.089 119.487 261.715 120.553 260.969 121.3C260.275 122.047 259.235 122.42 257.849 122.42ZM250.489 162.5C250.329 162.5 250.249 162.34 250.249 162.02C250.249 161.7 250.329 161.54 250.489 161.54C252.302 161.54 253.502 161.167 254.089 160.42C254.675 159.673 254.969 158.207 254.969 156.02V141.46C254.969 139.647 254.782 138.34 254.409 137.54C254.035 136.687 253.395 136.26 252.489 136.26C251.689 136.26 250.649 136.58 249.369 137.22H249.289C249.075 137.22 248.915 137.087 248.809 136.82C248.702 136.553 248.729 136.367 248.889 136.26L260.409 130.9L260.649 130.82C260.862 130.82 261.075 130.953 261.289 131.22C261.555 131.433 261.689 131.62 261.689 131.78V133.46C261.582 135.7 261.529 138.34 261.529 141.38V156.02C261.529 158.207 261.822 159.673 262.409 160.42C263.049 161.167 264.275 161.54 266.089 161.54C266.249 161.54 266.329 161.7 266.329 162.02C266.329 162.34 266.249 162.5 266.089 162.5C264.755 162.5 263.689 162.473 262.889 162.42L258.249 162.34L253.609 162.42C252.862 162.473 251.822 162.5 250.489 162.5ZM277.179 135.78C277.179 137.433 277.739 138.82 278.859 139.94C280.032 141.06 281.712 142.233 283.899 143.46C285.819 144.527 287.285 145.407 288.299 146.1C289.365 146.793 290.272 147.727 291.019 148.9C291.819 150.073 292.219 151.487 292.219 153.14C292.219 154.953 291.765 156.633 290.859 158.18C289.952 159.727 288.592 160.98 286.779 161.94C285.019 162.9 282.912 163.38 280.459 163.38C277.525 163.38 274.832 162.633 272.379 161.14C272.059 160.82 271.899 160.5 271.899 160.18L271.739 152.82C271.739 152.66 271.872 152.58 272.139 152.58C272.459 152.527 272.645 152.553 272.699 152.66C273.605 155.327 274.965 157.513 276.779 159.22C278.645 160.927 280.619 161.78 282.699 161.78C284.032 161.78 285.072 161.433 285.819 160.74C286.565 160.047 286.939 159.007 286.939 157.62C286.939 155.593 286.352 153.993 285.179 152.82C284.005 151.593 282.299 150.393 280.059 149.22C278.245 148.26 276.832 147.46 275.819 146.82C274.805 146.127 273.925 145.22 273.179 144.1C272.485 142.927 272.139 141.487 272.139 139.78C272.139 136.74 273.232 134.473 275.419 132.98C277.659 131.487 280.352 130.74 283.499 130.74C285.579 130.74 287.712 131.14 289.899 131.94C290.379 132.153 290.619 132.447 290.619 132.82C290.619 134.047 290.592 135.007 290.539 135.7L290.459 139.54C290.459 139.7 290.299 139.78 289.979 139.78C289.659 139.78 289.499 139.7 289.499 139.54C289.499 138.473 289.072 137.38 288.219 136.26C287.365 135.087 286.272 134.127 284.939 133.38C283.605 132.633 282.245 132.26 280.859 132.26C278.405 132.26 277.179 133.433 277.179 135.78ZM320.772 157.38C320.932 157.38 321.065 157.487 321.172 157.7C321.332 157.913 321.332 158.073 321.172 158.18C319.199 160.047 317.332 161.407 315.572 162.26C313.812 163.06 311.945 163.46 309.972 163.46C307.679 163.46 305.732 162.927 304.132 161.86C302.585 160.74 301.812 158.9 301.812 156.34V138.26C301.812 136.5 301.519 135.327 300.932 134.74C300.399 134.153 299.332 133.86 297.732 133.86C297.679 133.86 297.599 133.807 297.492 133.7C297.439 133.54 297.412 133.38 297.412 133.22C297.412 133.06 297.439 132.927 297.492 132.82C297.599 132.66 297.679 132.58 297.732 132.58C302.745 132.367 305.892 130.207 307.172 126.1C307.279 125.887 307.492 125.78 307.812 125.78C308.185 125.78 308.372 125.887 308.372 126.1V132.42C310.879 132.367 314.425 132.1 319.012 131.62C319.119 131.62 319.225 131.833 319.332 132.26C319.492 132.633 319.572 133.06 319.572 133.54C319.572 134.02 319.465 134.5 319.252 134.98C319.092 135.46 318.905 135.673 318.692 135.62C315.705 134.927 312.265 134.5 308.372 134.34V153.7C308.372 155.78 308.879 157.327 309.892 158.34C310.959 159.3 312.425 159.78 314.292 159.78C316.532 159.78 318.639 159.007 320.612 157.46L320.772 157.38ZM340.925 163.54C337.725 163.54 334.898 162.793 332.445 161.3C329.992 159.753 328.098 157.7 326.765 155.14C325.432 152.527 324.765 149.7 324.765 146.66C324.765 143.193 325.618 140.26 327.325 137.86C329.085 135.407 331.298 133.593 333.965 132.42C336.685 131.193 339.458 130.58 342.285 130.58C345.538 130.58 348.365 131.353 350.765 132.9C353.218 134.447 355.085 136.5 356.365 139.06C357.645 141.567 358.285 144.26 358.285 147.14C358.285 150.34 357.485 153.193 355.885 155.7C354.338 158.207 352.232 160.153 349.565 161.54C346.898 162.873 344.018 163.54 340.925 163.54ZM343.325 161.94C345.672 161.94 347.458 160.9 348.685 158.82C349.965 156.74 350.605 153.7 350.605 149.7C350.605 146.127 350.098 143.007 349.085 140.34C348.125 137.673 346.792 135.647 345.085 134.26C343.432 132.873 341.618 132.18 339.645 132.18C337.245 132.18 335.432 133.167 334.205 135.14C332.978 137.113 332.365 140.02 332.365 143.86C332.365 147.327 332.818 150.447 333.725 153.22C334.685 155.94 335.992 158.073 337.645 159.62C339.352 161.167 341.245 161.94 343.325 161.94ZM384.311 130.82C385.538 130.82 386.711 131.22 387.831 132.02C388.951 132.82 389.511 133.78 389.511 134.9C389.511 135.913 389.191 136.74 388.551 137.38C387.965 138.02 387.138 138.34 386.071 138.34C385.378 138.34 384.791 138.207 384.311 137.94C383.885 137.62 383.431 137.193 382.951 136.66C382.471 136.18 382.045 135.833 381.671 135.62C381.298 135.353 380.845 135.22 380.311 135.22C379.725 135.22 379.085 135.46 378.391 135.94C377.751 136.367 376.738 137.3 375.351 138.74V156.02C375.351 157.513 375.565 158.66 375.991 159.46C376.418 160.207 377.138 160.74 378.151 161.06C379.165 161.38 380.658 161.54 382.631 161.54C382.845 161.54 382.951 161.7 382.951 162.02C382.951 162.34 382.845 162.5 382.631 162.5C380.871 162.5 379.458 162.473 378.391 162.42L372.071 162.34L367.431 162.42C366.685 162.473 365.645 162.5 364.311 162.5C364.151 162.5 364.071 162.34 364.071 162.02C364.071 161.7 364.151 161.54 364.311 161.54C366.125 161.54 367.325 161.167 367.911 160.42C368.498 159.673 368.791 158.207 368.791 156.02V140.74C368.791 139.033 368.578 137.78 368.151 136.98C367.778 136.18 367.138 135.78 366.231 135.78C365.431 135.78 364.098 136.18 362.231 136.98H362.151C361.938 136.98 361.778 136.847 361.671 136.58C361.565 136.313 361.591 136.153 361.751 136.1L372.231 130.98C372.551 130.873 372.738 130.82 372.791 130.82C373.325 130.82 373.858 131.407 374.391 132.58C374.925 133.7 375.245 135.193 375.351 137.06C377.431 134.713 379.165 133.087 380.551 132.18C381.938 131.273 383.191 130.82 384.311 130.82ZM425.993 131.62C426.1 131.62 426.153 131.78 426.153 132.1C426.153 132.42 426.1 132.58 425.993 132.58C424.393 132.58 423.006 133.22 421.833 134.5C420.713 135.78 419.673 137.727 418.713 140.34L409.513 164.74C407.593 169.86 405.753 173.887 403.993 176.82C402.233 179.753 400.446 181.833 398.633 183.06C396.82 184.34 394.82 184.98 392.633 184.98C391.14 184.98 389.993 184.66 389.193 184.02C388.34 183.433 387.913 182.527 387.913 181.3C387.913 180.233 388.26 179.407 388.953 178.82C389.593 178.287 390.393 178.02 391.353 178.02C391.993 178.02 392.526 178.1 392.953 178.26C393.433 178.473 393.913 178.74 394.393 179.06C394.926 179.38 395.38 179.62 395.753 179.78C396.18 179.94 396.686 180.02 397.273 180.02C398.5 180.02 399.62 179.513 400.633 178.5C401.7 177.54 402.793 175.913 403.913 173.62C405.086 171.327 406.473 168.073 408.073 163.86L395.433 138.26C394.26 135.967 393.326 134.447 392.633 133.7C391.993 132.953 391.193 132.58 390.233 132.58C390.073 132.58 389.993 132.42 389.993 132.1C389.993 131.78 390.073 131.62 390.233 131.62C391.62 131.62 392.686 131.647 393.433 131.7L396.553 131.78L401.993 131.7C402.793 131.647 403.886 131.62 405.273 131.62C405.433 131.62 405.513 131.78 405.513 132.1C405.513 132.42 405.433 132.58 405.273 132.58C403.833 132.58 402.766 132.713 402.073 132.98C401.433 133.193 401.113 133.62 401.113 134.26C401.113 134.74 401.246 135.22 401.513 135.7L411.273 155.86L416.633 140.34C417.113 138.953 417.353 137.78 417.353 136.82C417.353 133.993 415.566 132.58 411.993 132.58C411.886 132.58 411.833 132.42 411.833 132.1C411.833 131.78 411.886 131.62 411.993 131.62C413.433 131.62 414.526 131.647 415.273 131.7L420.073 131.78L423.193 131.7C423.78 131.647 424.713 131.62 425.993 131.62ZM460.718 155.7C460.718 157.407 460.905 158.66 461.278 159.46C461.705 160.207 462.478 160.74 463.598 161.06C464.771 161.38 466.585 161.54 469.038 161.54C469.198 161.54 469.278 161.7 469.278 162.02C469.278 162.34 469.198 162.5 469.038 162.5C466.851 162.5 465.145 162.473 463.918 162.42L456.958 162.34L451.198 162.42C450.185 162.473 448.798 162.5 447.038 162.5C446.878 162.5 446.798 162.34 446.798 162.02C446.798 161.7 446.878 161.54 447.038 161.54C448.851 161.54 450.158 161.407 450.958 161.14C451.758 160.873 452.291 160.367 452.558 159.62C452.878 158.873 453.038 157.673 453.038 156.02V118.98C453.038 117.38 452.878 116.207 452.558 115.46C452.291 114.713 451.731 114.207 450.878 113.94C450.078 113.62 448.798 113.46 447.038 113.46C446.878 113.46 446.798 113.3 446.798 112.98C446.798 112.66 446.878 112.5 447.038 112.5L451.198 112.58C453.545 112.687 455.438 112.74 456.878 112.74C458.105 112.74 459.598 112.66 461.358 112.5C461.998 112.447 462.851 112.393 463.918 112.34C465.038 112.287 466.345 112.26 467.838 112.26C473.118 112.26 477.278 113.38 480.318 115.62C483.411 117.86 484.958 121.3 484.958 125.94C484.958 129.3 484.078 132.153 482.318 134.5C480.611 136.847 478.398 138.607 475.678 139.78C473.011 140.953 470.265 141.54 467.438 141.54C465.945 141.54 464.691 141.407 463.678 141.14C463.518 141.14 463.438 141.007 463.438 140.74C463.438 140.58 463.465 140.42 463.518 140.26C463.625 140.1 463.731 140.047 463.838 140.1C464.691 140.313 465.625 140.42 466.638 140.42C469.411 140.42 471.758 139.273 473.678 136.98C475.598 134.687 476.558 131.407 476.558 127.14C476.558 122.927 475.571 119.673 473.598 117.38C471.625 115.033 468.905 113.86 465.438 113.86C464.158 113.86 463.171 113.993 462.478 114.26C461.838 114.527 461.385 115.033 461.118 115.78C460.851 116.473 460.718 117.593 460.718 119.14V155.7ZM510.639 130.82C511.866 130.82 513.039 131.22 514.159 132.02C515.279 132.82 515.839 133.78 515.839 134.9C515.839 135.913 515.519 136.74 514.879 137.38C514.293 138.02 513.466 138.34 512.399 138.34C511.706 138.34 511.119 138.207 510.639 137.94C510.213 137.62 509.759 137.193 509.279 136.66C508.799 136.18 508.373 135.833 507.999 135.62C507.626 135.353 507.173 135.22 506.639 135.22C506.053 135.22 505.413 135.46 504.719 135.94C504.079 136.367 503.066 137.3 501.679 138.74V156.02C501.679 157.513 501.893 158.66 502.319 159.46C502.746 160.207 503.466 160.74 504.479 161.06C505.493 161.38 506.986 161.54 508.959 161.54C509.173 161.54 509.279 161.7 509.279 162.02C509.279 162.34 509.173 162.5 508.959 162.5C507.199 162.5 505.786 162.473 504.719 162.42L498.399 162.34L493.759 162.42C493.013 162.473 491.973 162.5 490.639 162.5C490.479 162.5 490.399 162.34 490.399 162.02C490.399 161.7 490.479 161.54 490.639 161.54C492.453 161.54 493.653 161.167 494.239 160.42C494.826 159.673 495.119 158.207 495.119 156.02V140.74C495.119 139.033 494.906 137.78 494.479 136.98C494.106 136.18 493.466 135.78 492.559 135.78C491.759 135.78 490.426 136.18 488.559 136.98H488.479C488.266 136.98 488.106 136.847 487.999 136.58C487.893 136.313 487.919 136.153 488.079 136.1L498.559 130.98C498.879 130.873 499.066 130.82 499.119 130.82C499.653 130.82 500.186 131.407 500.719 132.58C501.253 133.7 501.573 135.193 501.679 137.06C503.759 134.713 505.493 133.087 506.879 132.18C508.266 131.273 509.519 130.82 510.639 130.82ZM535.144 163.54C531.944 163.54 529.117 162.793 526.664 161.3C524.21 159.753 522.317 157.7 520.984 155.14C519.65 152.527 518.984 149.7 518.984 146.66C518.984 143.193 519.837 140.26 521.544 137.86C523.304 135.407 525.517 133.593 528.184 132.42C530.904 131.193 533.677 130.58 536.504 130.58C539.757 130.58 542.584 131.353 544.984 132.9C547.437 134.447 549.304 136.5 550.584 139.06C551.864 141.567 552.504 144.26 552.504 147.14C552.504 150.34 551.704 153.193 550.104 155.7C548.557 158.207 546.45 160.153 543.784 161.54C541.117 162.873 538.237 163.54 535.144 163.54ZM537.544 161.94C539.89 161.94 541.677 160.9 542.904 158.82C544.184 156.74 544.824 153.7 544.824 149.7C544.824 146.127 544.317 143.007 543.304 140.34C542.344 137.673 541.01 135.647 539.304 134.26C537.65 132.873 535.837 132.18 533.864 132.18C531.464 132.18 529.65 133.167 528.424 135.14C527.197 137.113 526.584 140.02 526.584 143.86C526.584 147.327 527.037 150.447 527.944 153.22C528.904 155.94 530.21 158.073 531.864 159.62C533.57 161.167 535.464 161.94 537.544 161.94ZM565.73 122.42C564.343 122.42 563.25 122.047 562.45 121.3C561.703 120.553 561.33 119.487 561.33 118.1C561.33 116.767 561.703 115.753 562.45 115.06C563.25 114.313 564.343 113.94 565.73 113.94C567.063 113.94 568.103 114.313 568.85 115.06C569.597 115.753 569.97 116.767 569.97 118.1C569.97 119.487 569.597 120.553 568.85 121.3C568.157 122.047 567.117 122.42 565.73 122.42ZM569.73 133.46C569.623 135.7 569.57 138.34 569.57 141.38V166.34C569.57 169.967 569.143 172.927 568.29 175.22C567.49 177.567 566.13 179.513 564.21 181.06C562.343 182.607 559.703 183.94 556.29 185.06C556.183 185.113 556.05 184.98 555.89 184.66C555.783 184.393 555.81 184.233 555.97 184.18C558.53 183.06 560.343 181.273 561.41 178.82C562.477 176.367 563.01 172.82 563.01 168.18V141.46C563.01 139.593 562.823 138.26 562.45 137.46C562.13 136.66 561.543 136.26 560.69 136.26C559.837 136.26 558.77 136.58 557.49 137.22H557.41C557.197 137.22 557.01 137.087 556.85 136.82C556.743 136.553 556.77 136.367 556.93 136.26L568.45 130.9L568.69 130.82C568.903 130.82 569.117 130.953 569.33 131.22C569.597 131.433 569.73 131.62 569.73 131.78V133.46ZM606.429 157.46C606.536 157.46 606.643 157.567 606.749 157.78C606.909 157.993 606.936 158.153 606.829 158.26C604.856 160.073 602.883 161.407 600.909 162.26C598.936 163.06 596.803 163.46 594.509 163.46C591.256 163.46 588.429 162.74 586.029 161.3C583.683 159.86 581.869 157.967 580.589 155.62C579.363 153.273 578.749 150.74 578.749 148.02C578.749 144.873 579.523 141.993 581.069 139.38C582.616 136.767 584.723 134.713 587.389 133.22C590.109 131.673 593.123 130.9 596.429 130.9C599.629 130.9 602.109 131.673 603.869 133.22C605.629 134.767 606.509 137.06 606.509 140.1C606.509 141.647 606.189 142.42 605.549 142.42L586.029 142.5C585.976 142.98 585.949 143.7 585.949 144.66C585.949 149.353 587.016 153.087 589.149 155.86C591.336 158.58 594.429 159.94 598.429 159.94C599.923 159.94 601.176 159.78 602.189 159.46C603.203 159.087 604.563 158.447 606.269 157.54L606.429 157.46ZM593.549 132.5C591.576 132.5 589.949 133.273 588.669 134.82C587.443 136.313 586.616 138.393 586.189 141.06L598.989 140.82C598.883 135.273 597.069 132.5 593.549 132.5ZM627.484 163.46C624.017 163.46 621.057 162.713 618.604 161.22C616.204 159.673 614.417 157.7 613.244 155.3C612.07 152.847 611.484 150.287 611.484 147.62C611.484 144.26 612.39 141.327 614.204 138.82C616.017 136.26 618.337 134.313 621.164 132.98C624.044 131.593 626.95 130.9 629.884 130.9C632.39 130.9 634.657 131.407 636.684 132.42C638.71 133.433 639.724 134.793 639.724 136.5C639.724 137.407 639.377 138.207 638.684 138.9C637.99 139.54 637.03 139.86 635.804 139.86C633.777 139.86 632.31 138.66 631.404 136.26C630.87 134.927 630.31 133.993 629.724 133.46C629.137 132.873 628.204 132.58 626.924 132.58C624.417 132.58 622.417 133.727 620.924 136.02C619.484 138.26 618.764 141.273 618.764 145.06C618.764 149.487 619.777 153.087 621.804 155.86C623.884 158.58 627.11 159.94 631.484 159.94C632.977 159.94 634.31 159.753 635.484 159.38C636.657 159.007 637.937 158.42 639.324 157.62H639.404C639.564 157.62 639.697 157.7 639.804 157.86C639.964 158.02 639.99 158.153 639.884 158.26C637.91 160.02 635.964 161.327 634.044 162.18C632.124 163.033 629.937 163.46 627.484 163.46ZM668.038 157.38C668.198 157.38 668.331 157.487 668.438 157.7C668.598 157.913 668.598 158.073 668.438 158.18C666.464 160.047 664.598 161.407 662.838 162.26C661.078 163.06 659.211 163.46 657.238 163.46C654.944 163.46 652.998 162.927 651.398 161.86C649.851 160.74 649.078 158.9 649.078 156.34V138.26C649.078 136.5 648.784 135.327 648.198 134.74C647.664 134.153 646.598 133.86 644.998 133.86C644.944 133.86 644.864 133.807 644.758 133.7C644.704 133.54 644.678 133.38 644.678 133.22C644.678 133.06 644.704 132.927 644.758 132.82C644.864 132.66 644.944 132.58 644.998 132.58C650.011 132.367 653.158 130.207 654.438 126.1C654.544 125.887 654.758 125.78 655.078 125.78C655.451 125.78 655.638 125.887 655.638 126.1V132.42C658.144 132.367 661.691 132.1 666.278 131.62C666.384 131.62 666.491 131.833 666.598 132.26C666.758 132.633 666.838 133.06 666.838 133.54C666.838 134.02 666.731 134.5 666.518 134.98C666.358 135.46 666.171 135.673 665.957 135.62C662.971 134.927 659.531 134.5 655.638 134.34V153.7C655.638 155.78 656.144 157.327 657.158 158.34C658.224 159.3 659.691 159.78 661.558 159.78C663.798 159.78 665.904 159.007 667.878 157.46L668.038 157.38Z" fill="#F5F5F5"/>
</svg>
