<svg width="675" height="27" viewBox="0 0 675 27" fill="none" xmlns="http://www.w3.org/2000/svg">
<path d="M28.0203 24.3856C28.0203 24.3856 27.837 20.0495 27.837 19.6136C27.837 19.1817 28.2162 19.0351 28.6669 19.1292C29.1162 19.2248 33.3336 20.0495 33.3336 20.0495C33.3336 20.0495 33.0103 19.1696 32.7863 18.5197C32.5609 17.8741 32.8564 17.7529 33.0103 17.6157C33.1657 17.4825 37.7232 13.6952 37.7232 13.6952L36.9784 13.3467C36.5277 13.1435 36.5992 12.779 36.6691 12.5315C36.7391 12.292 37.4893 9.76138 37.4893 9.76138C37.4893 9.76138 35.5242 10.1851 35.0636 10.2511C34.6983 10.3061 34.571 10.1461 34.459 9.90128C34.347 9.65642 33.8683 8.55057 33.8683 8.55057C33.8683 8.55057 31.4593 11.1123 31.4076 11.1607C30.9442 11.5615 30.4935 11.2548 30.5789 10.7812C30.6558 10.348 31.8163 5.22612 31.8163 5.22612C31.8163 5.22612 30.5355 5.95665 30.1141 6.19882C29.6927 6.44368 29.4675 6.40065 29.2421 6.00644C29.0182 5.61493 27.4393 2.57837 27.4393 2.57837C27.4393 2.57837 25.8632 5.61493 25.6393 6.00644C25.4141 6.40065 25.1887 6.44368 24.7673 6.19882C24.3461 5.95665 23.0667 5.22612 23.0667 5.22612C23.0667 5.22612 24.2271 10.348 24.304 10.7812C24.388 11.2548 23.9374 11.5615 23.474 11.1607C23.4222 11.1123 21.0146 8.55057 21.0146 8.55057C21.0146 8.55057 20.5359 9.65642 20.4226 9.90128C20.3106 10.1461 20.1845 10.3063 19.8178 10.2511C19.3586 10.1851 17.3122 9.76138 17.3122 9.76138C17.3122 9.76138 18.1423 12.292 18.2137 12.5315C18.2822 12.779 18.3537 13.1435 17.903 13.3467L17.1582 13.6952C17.1582 13.6952 21.7157 17.4824 21.8711 17.6157C22.025 17.7529 22.3219 17.8741 22.0951 18.5197C21.8711 19.1696 21.5478 20.0495 21.5478 20.0495C21.5478 20.0495 25.7652 19.2248 26.2159 19.1292C26.6652 19.0351 27.0458 19.1817 27.0458 19.6136C27.0458 20.0495 26.8625 24.3856 26.8625 24.3856H28.0203Z" fill="#F10909"/>
<path d="M54.3095 0.357086H40.918V26.7688H54.3095V0.357086Z" fill="#F10909"/>
<path d="M13.3915 0.33725H0V26.7473H13.3915V0.33725Z" fill="#F10909"/>
<path d="M77.8754 7.28823H79.1702C79.2023 7.84258 79.3381 8.29181 79.5775 8.63893C80.0353 9.2861 80.8401 9.60893 81.9934 9.60893C82.5098 9.60893 82.9801 9.53772 83.4057 9.39647C84.226 9.12326 84.6361 8.6283 84.6361 7.91919C84.6361 7.38779 84.4639 7.00708 84.1168 6.78365C83.7668 6.56039 83.218 6.36936 82.4706 6.20381L81.0933 5.90394C80.1933 5.70886 79.5565 5.49353 79.1827 5.25946C78.5375 4.8504 78.2155 4.24374 78.2155 3.43102C78.2155 2.55113 78.5304 1.83393 79.1632 1.26894C79.7944 0.70648 80.6901 0.422638 81.8479 0.422638C82.913 0.422638 83.8186 0.671551 84.5634 1.16532C85.308 1.66045 85.6818 2.4514 85.6818 3.53581H84.387C84.3183 3.01116 84.17 2.61424 83.9447 2.33293C83.5247 1.82312 82.8123 1.56476 81.8059 1.56476C80.9941 1.56476 80.4103 1.73301 80.0547 2.05989C79.7006 2.38812 79.5229 2.76899 79.5229 3.20218C79.5229 3.68381 79.7301 4.03228 80.1457 4.25555C80.4173 4.39544 81.0332 4.57449 81.9934 4.78695L83.4183 5.09645C84.1057 5.25254 84.6361 5.45691 85.0099 5.71932C85.6551 6.17681 85.9785 6.83866 85.9785 7.7064C85.9785 8.78811 85.5698 9.56438 84.7509 10.0285C83.9321 10.494 82.9803 10.7254 81.8954 10.7254C80.6315 10.7254 79.6432 10.4173 78.9279 9.79574C78.2127 9.1781 77.8613 8.34159 77.8754 7.28823Z" fill="#FAFAFA"/>
<path d="M88.0642 4.19821C87.4328 4.90731 87.1152 5.86111 87.1152 7.05977C87.1152 8.17642 87.4161 9.0671 88.0166 9.72895C88.6156 10.3908 89.4247 10.7246 90.4451 10.7246C91.6671 10.7246 92.5684 10.3491 93.1508 9.59986C93.7316 8.85177 94.0229 7.90067 94.0229 6.75163C94.0229 5.5636 93.6924 4.66498 93.0332 4.05274C92.3725 3.4378 91.5663 3.1337 90.6103 3.1337C89.5451 3.1337 88.6955 3.48775 88.0642 4.19821ZM88.9152 8.9353C88.5695 8.42802 88.3972 7.7984 88.3972 7.03834C88.3972 6.24722 88.5695 5.57457 88.9152 5.01751C89.2609 4.45792 89.8153 4.17931 90.5768 4.17931C91.4334 4.17931 92.038 4.5077 92.3893 5.16281C92.6104 5.57997 92.721 6.12065 92.721 6.78672C92.721 7.51996 92.5684 8.19261 92.2605 8.79135C91.9539 9.39262 91.3884 9.69267 90.5627 9.69267C89.8095 9.69267 89.2609 9.43971 88.9152 8.9353Z" fill="#FAFAFA"/>
<path d="M98.3966 3.1337C99.2309 3.1337 99.9111 3.33013 100.434 3.71894C100.958 4.11045 101.273 4.78041 101.379 5.73437H100.167C100.094 5.29308 99.9265 4.9311 99.6634 4.64186C99.4002 4.34991 98.9776 4.20597 98.3966 4.20597C97.603 4.20597 97.0361 4.57605 96.6946 5.32261C96.4734 5.80306 96.3628 6.40162 96.3628 7.10921C96.3628 7.82641 96.5182 8.42498 96.8332 8.91471C97.1467 9.40308 97.6394 9.64525 98.3141 9.64525C98.8305 9.64525 99.2392 9.49202 99.5415 9.19062C99.8438 8.88518 100.052 8.47089 100.167 7.94201H101.379C101.241 8.88788 100.895 9.57673 100.341 10.0126C99.788 10.4512 99.0796 10.6692 98.2161 10.6692C97.2475 10.6692 96.4748 10.3275 95.8982 9.65081C95.3215 8.97006 95.0332 8.11836 95.0332 7.09858C95.0332 5.84727 95.3494 4.87339 95.9822 4.17914C96.6135 3.48353 97.4183 3.1337 98.3966 3.1337Z" fill="#FAFAFA"/>
<path d="M102.953 2.03064V0.67453H104.22V2.03064H102.953ZM102.953 10.4447V3.35721H104.22V10.4447H102.953Z" fill="#FAFAFA"/>
<path d="M106.238 7.04534C105.81 7.40731 105.594 7.91982 105.594 8.58184C105.594 9.18176 105.813 9.68634 106.249 10.0873C106.685 10.4867 107.246 10.6899 107.935 10.6899C108.506 10.6899 109.029 10.5716 109.505 10.3349C109.98 10.1008 110.344 9.82488 110.598 9.50475C110.64 9.7886 110.712 10.0092 110.812 10.1612C111.006 10.4559 111.318 10.6025 111.746 10.6025C111.922 10.6025 112.06 10.5971 112.162 10.5824C112.263 10.5689 112.411 10.5367 112.606 10.4815V9.59639C112.676 9.59099 112.526 9.61242 112.606 9.59639C112.537 9.60381 112.253 9.63824 112.197 9.63824C112.026 9.63824 111.914 9.60196 111.861 9.52399C111.808 9.44991 111.781 9.35035 111.781 9.22665V5.12187C111.781 4.44922 111.511 3.95275 110.972 3.63245C110.428 3.31098 109.719 3.15353 108.847 3.15353C108.096 3.15353 107.435 3.32448 106.864 3.66874C106.294 4.01316 105.999 4.6227 105.975 5.50242H107.138C107.184 5.13521 107.284 4.85406 107.436 4.66978C107.708 4.33328 108.17 4.16521 108.819 4.16521C109.382 4.16521 109.815 4.25667 110.117 4.43825C110.419 4.62523 110.57 4.92257 110.57 5.32893C110.57 5.52671 110.542 5.68146 110.488 5.78643C110.391 5.98151 110.2 6.09981 109.913 6.13086L107.926 6.37302C107.231 6.45638 106.668 6.67931 106.238 7.04534ZM107.47 7.55531C107.697 7.43144 108.035 7.34133 108.488 7.28344L109.242 7.18928C109.471 7.1638 109.708 7.11807 109.947 7.05613C110.188 6.99555 110.384 6.91623 110.537 6.82207V7.78802C110.537 8.52396 110.19 9.05266 109.498 9.37819C109.087 9.57327 108.662 9.67283 108.224 9.67283C107.865 9.67283 107.554 9.57327 107.291 9.37009C107.028 9.17366 106.896 8.90061 106.896 8.55349C106.896 8.09869 107.088 7.76237 107.47 7.55531Z" fill="#FAFAFA"/>
<path d="M114.759 0.67453H113.514V10.4449H114.759V0.67453Z" fill="#FAFAFA"/>
<path d="M120.114 7.30205H121.409C121.44 7.85641 121.577 8.30563 121.818 8.65276C122.274 9.29993 123.077 9.62275 124.232 9.62275C124.748 9.62275 125.219 9.55154 125.643 9.4103C126.464 9.13708 126.875 8.64212 126.875 7.93302C126.875 7.40161 126.702 7.02091 126.355 6.79748C126.005 6.57422 125.457 6.38319 124.709 6.21764L123.332 5.91776C122.432 5.72268 121.795 5.50735 121.421 5.27329C120.776 4.86423 120.453 4.25756 120.453 3.44484C120.453 2.56496 120.769 1.84775 121.402 1.28276C122.033 0.720304 122.928 0.436462 124.086 0.436462C125.152 0.436462 126.057 0.685375 126.803 1.17915C127.546 1.67427 127.92 2.46522 127.92 3.54964H126.625C126.557 3.02498 126.408 2.62807 126.183 2.34676C125.763 1.83695 125.051 1.57859 124.044 1.57859C123.232 1.57859 122.649 1.74684 122.293 2.07371C121.938 2.40194 121.76 2.78282 121.76 3.21601C121.76 3.69763 121.969 4.04611 122.384 4.26937C122.656 4.40927 123.272 4.58832 124.232 4.80078L125.657 5.11027C126.344 5.26637 126.875 5.47073 127.248 5.73315C127.894 6.19064 128.217 6.85249 128.217 7.72022C128.217 8.80194 127.808 9.57821 126.989 10.0423C126.17 10.5079 125.219 10.7392 124.134 10.7392C122.87 10.7392 121.88 10.4311 121.166 9.80957C120.45 9.19193 120.1 8.35541 120.114 7.30205Z" fill="#FAFAFA"/>
<path d="M132.715 3.1337C133.551 3.1337 134.23 3.33013 134.753 3.71894C135.277 4.11045 135.593 4.78041 135.698 5.73437H134.487C134.413 5.29308 134.245 4.9311 133.982 4.64186C133.719 4.34991 133.296 4.20597 132.715 4.20597C131.922 4.20597 131.356 4.57605 131.013 5.32261C130.792 5.80306 130.68 6.40162 130.68 7.10921C130.68 7.82641 130.838 8.42498 131.152 8.91471C131.465 9.40308 131.959 9.64525 132.633 9.64525C133.149 9.64525 133.559 9.49202 133.862 9.19062C134.163 8.88518 134.371 8.47089 134.487 7.94201H135.698C135.56 8.88788 135.212 9.57673 134.661 10.0126C134.105 10.4512 133.398 10.6692 132.536 10.6692C131.568 10.6692 130.795 10.3275 130.218 9.65081C129.642 8.97006 129.352 8.11836 129.352 7.09858C129.352 5.84727 129.668 4.87339 130.301 4.17914C130.932 3.48353 131.738 3.1337 132.715 3.1337Z" fill="#FAFAFA"/>
<path d="M138.537 10.4447V3.35721H137.271V10.4447H138.537ZM138.537 2.03064V0.67453H137.271V2.03064H138.537Z" fill="#FAFAFA"/>
<path d="M140.877 4.24294C140.232 4.95727 139.91 5.88559 139.91 7.03059C139.91 8.19161 140.229 9.0958 140.87 9.7428C141.512 10.3859 142.294 10.7074 143.218 10.7074C143.596 10.7074 143.934 10.6725 144.235 10.6038C144.792 10.4787 145.26 10.2366 145.639 9.88134C145.865 9.68221 146.069 9.41711 146.251 9.09563C146.433 8.7728 146.541 8.48086 146.573 8.22115H145.348C145.256 8.53587 145.099 8.81178 144.878 9.05395C144.49 9.46689 143.971 9.66872 143.321 9.66872C142.624 9.66872 142.111 9.45086 141.778 9.01497C141.447 8.58026 141.269 8.00041 141.244 7.27545H146.676C146.676 6.55824 146.64 6.03494 146.567 5.70671C146.483 5.22762 146.318 4.81062 146.068 4.45C145.81 4.07469 145.434 3.76655 144.941 3.53113C144.445 3.29167 143.937 3.17337 143.411 3.17337C142.368 3.17337 141.523 3.53113 140.877 4.24294ZM141.895 4.81063C142.283 4.41659 142.763 4.21611 143.335 4.21611C144.132 4.21611 144.703 4.50535 145.044 5.08384C145.229 5.39333 145.347 5.80627 145.397 6.32418H141.279C141.302 5.71211 141.507 5.20754 141.895 4.81063Z" fill="#FAFAFA"/>
<path d="M147.83 10.4546V3.33352H149.011V4.3452C149.362 3.92686 149.733 3.62817 150.127 3.44659C150.519 3.26231 150.955 3.17337 151.434 3.17337C152.487 3.17337 153.198 3.5259 153.566 4.2323C153.769 4.61571 153.869 5.1672 153.869 5.88576V10.4546H152.604V5.96372C152.604 5.53306 152.537 5.1834 152.403 4.91559C152.181 4.4743 151.781 4.24833 151.199 4.24833C150.903 4.24833 150.661 4.27669 150.471 4.3371C150.131 4.43396 149.831 4.62905 149.572 4.92099C149.364 5.15775 149.231 5.39856 149.168 5.65152C149.106 5.90044 149.074 6.26106 149.074 6.72649V10.4546H147.83Z" fill="#FAFAFA"/>
<path d="M159.115 3.1337C159.948 3.1337 160.628 3.33013 161.152 3.71894C161.677 4.11045 161.99 4.78041 162.095 5.73437H160.886C160.812 5.29308 160.642 4.9311 160.38 4.64186C160.117 4.34991 159.695 4.20597 159.115 4.20597C158.319 4.20597 157.753 4.57605 157.412 5.32261C157.19 5.80306 157.078 6.40162 157.078 7.10921C157.078 7.82641 157.237 8.42498 157.549 8.91471C157.862 9.40308 158.358 9.64525 159.03 9.64525C159.546 9.64525 159.956 9.49202 160.259 9.19062C160.561 8.88518 160.769 8.47089 160.886 7.94201H162.095C161.958 8.88788 161.612 9.57673 161.058 10.0126C160.505 10.4512 159.797 10.6692 158.934 10.6692C157.964 10.6692 157.193 10.3275 156.615 9.65081C156.038 8.97006 155.75 8.11836 155.75 7.09858C155.75 5.84727 156.067 4.87339 156.698 4.17914C157.33 3.48353 158.135 3.1337 159.115 3.1337Z" fill="#FAFAFA"/>
<path d="M163.32 4.24294C162.673 4.95727 162.35 5.88559 162.35 7.03059C162.35 8.19161 162.672 9.0958 163.311 9.7428C163.954 10.3859 164.735 10.7074 165.657 10.7074C166.036 10.7074 166.375 10.6725 166.675 10.6038C167.233 10.4787 167.7 10.2366 168.08 9.88134C168.306 9.68221 168.51 9.41711 168.69 9.09563C168.873 8.7728 168.982 8.48086 169.014 8.22115H167.79C167.697 8.53587 167.54 8.81178 167.319 9.05395C166.931 9.46689 166.412 9.66872 165.76 9.66872C165.065 9.66872 164.551 9.45086 164.219 9.01497C163.885 8.58026 163.708 8.00041 163.685 7.27545H169.117C169.117 6.55824 169.082 6.03494 169.007 5.70671C168.924 5.22762 168.757 4.81062 168.508 4.45C168.252 4.07469 167.874 3.76655 167.381 3.53113C166.886 3.29167 166.376 3.17337 165.852 3.17337C164.809 3.17337 163.966 3.53113 163.32 4.24294ZM164.336 4.81063C164.724 4.41659 165.202 4.21611 165.774 4.21611C166.573 4.21611 167.144 4.50535 167.484 5.08384C167.669 5.39333 167.786 5.80627 167.839 6.32418H163.72C163.743 5.71211 163.948 5.20754 164.336 4.81063Z" fill="#FAFAFA"/>
<path d="M170.27 8.21118H171.468C171.504 8.61079 171.606 8.91758 171.778 9.13004C172.093 9.5148 172.637 9.70853 173.411 9.70853C173.873 9.70853 174.279 9.60897 174.63 9.41929C174.981 9.22556 175.155 8.92551 175.155 8.52067C175.155 8.21928 175.016 7.98522 174.733 7.82507C174.554 7.7282 174.198 7.61514 173.669 7.48604L172.679 7.24388C172.047 7.09723 171.578 6.92898 171.282 6.7393C170.746 6.41918 170.477 5.96979 170.477 5.39923C170.477 4.72118 170.73 4.17762 171.234 3.76197C171.742 3.34498 172.421 3.1337 173.272 3.1337C174.389 3.1337 175.195 3.45248 175.688 4.08092C175.997 4.47901 176.148 4.91102 176.138 5.37104H174.961C174.94 5.10205 174.84 4.85584 174.665 4.63241C174.379 4.31633 173.882 4.16159 173.176 4.16159C172.705 4.16159 172.351 4.249 172.107 4.41995C171.866 4.59208 171.745 4.82074 171.745 5.10205C171.745 5.41543 171.903 5.66164 172.221 5.85132C172.405 5.95899 172.679 6.05855 173.037 6.14327L173.862 6.33429C174.756 6.54287 175.357 6.7447 175.66 6.94248C176.145 7.24388 176.389 7.7282 176.389 8.38196C176.389 9.01698 176.136 9.56459 175.637 10.0261C175.135 10.4888 174.373 10.7202 173.35 10.7202C172.247 10.7202 171.466 10.478 171.006 9.99507C170.549 9.5148 170.302 8.92011 170.27 8.21118Z" fill="#FAFAFA"/>
<path d="M182.791 7.04534C182.361 7.40731 182.148 7.91982 182.148 8.58184C182.148 9.18176 182.366 9.68634 182.802 10.0873C183.237 10.4867 183.801 10.6899 184.485 10.6899C185.058 10.6899 185.583 10.5716 186.058 10.3349C186.534 10.1008 186.898 9.82488 187.151 9.50475C187.193 9.7886 187.263 10.0092 187.365 10.1612C187.558 10.4559 187.87 10.6025 188.299 10.6025C188.474 10.6025 188.613 10.5971 188.715 10.5824C188.817 10.5689 188.964 10.5367 189.159 10.4815V9.59639C189.226 9.59099 189.078 9.61242 189.159 9.59639C189.091 9.60381 188.806 9.63824 188.752 9.63824C188.58 9.63824 188.467 9.60196 188.415 9.52399C188.36 9.44991 188.336 9.35035 188.336 9.22665V5.12187C188.336 4.44922 188.063 3.95275 187.524 3.63245C186.98 3.31098 186.273 3.15353 185.4 3.15353C184.647 3.15353 183.988 3.32448 183.416 3.66874C182.849 4.01316 182.552 4.6227 182.528 5.50242H183.69C183.737 5.13521 183.836 4.85406 183.988 4.66978C184.262 4.33328 184.722 4.16521 185.372 4.16521C185.936 4.16521 186.369 4.25667 186.669 4.43825C186.971 4.62523 187.124 4.92257 187.124 5.32893C187.124 5.52671 187.096 5.68146 187.04 5.78643C186.943 5.98151 186.752 6.09981 186.466 6.13086L184.48 6.37302C183.783 6.45638 183.221 6.67931 182.791 7.04534ZM184.024 7.55531C184.25 7.43144 184.589 7.34133 185.04 7.28344L185.795 7.18928C186.025 7.1638 186.26 7.11807 186.501 7.05613C186.741 6.99555 186.936 6.91623 187.089 6.82207V7.78802C187.089 8.52396 186.743 9.05266 186.051 9.37819C185.639 9.57327 185.216 9.67283 184.779 9.67283C184.417 9.67283 184.106 9.57327 183.845 9.37009C183.581 9.17366 183.451 8.90061 183.451 8.55349C183.451 8.09869 183.641 7.76237 184.024 7.55531Z" fill="#FAFAFA"/>
<path d="M190.068 10.4546V3.33352H191.251V4.3452C191.602 3.92686 191.973 3.62817 192.366 3.44659C192.758 3.26231 193.193 3.17337 193.674 3.17337C194.726 3.17337 195.435 3.5259 195.806 4.2323C196.009 4.61571 196.109 5.1672 196.109 5.88576V10.4546H194.844V5.96372C194.844 5.53306 194.775 5.1834 194.642 4.91559C194.42 4.4743 194.02 4.24833 193.439 4.24833C193.144 4.24833 192.9 4.27669 192.712 4.3371C192.37 4.43396 192.071 4.62905 191.811 4.92099C191.604 5.15775 191.471 5.39856 191.408 5.65152C191.344 5.90044 191.315 6.26106 191.315 6.72649V10.4546H190.068Z" fill="#FAFAFA"/>
<path d="M197.493 4.35175C196.941 5.11064 196.668 6.00925 196.668 7.04524C196.668 8.15378 196.968 9.04446 197.572 9.71172C198.176 10.379 198.892 10.7112 199.719 10.7112C200.23 10.7112 200.685 10.6157 201.08 10.4193C201.478 10.2242 201.821 9.9095 202.112 9.4709V10.4584H203.234V0.654694H202.037V4.25219C201.756 3.92379 201.503 3.68703 201.282 3.55523C200.899 3.32657 200.423 3.21081 199.856 3.21081C198.832 3.21081 198.044 3.59016 197.493 4.35175ZM198.566 4.94509C198.955 4.48355 199.464 4.25219 200.093 4.25219C200.653 4.25219 201.127 4.47022 201.51 4.90341C201.893 5.3339 202.086 6.0025 202.086 6.90264C202.086 7.7945 201.9 8.47407 201.527 8.953C201.155 9.43057 200.681 9.66734 200.105 9.66734C199.363 9.66734 198.822 9.41032 198.485 8.89512C198.148 8.38244 197.981 7.74337 197.981 6.98195C197.981 6.08587 198.176 5.40781 198.566 4.94509Z" fill="#FAFAFA"/>
<path d="M209.867 10.4447V0.67453H211.257V4.71332H216.544V0.67453H217.934V10.4447H216.544V5.87586H211.257V10.4447H209.867Z" fill="#FAFAFA"/>
<path d="M220.426 3.33203H221.699V8.05967C221.699 8.42435 221.759 8.72153 221.88 8.95036C222.101 9.37545 222.514 9.59078 223.118 9.59078C223.985 9.59078 224.575 9.218 224.889 8.47143C225.061 8.07452 225.145 7.52556 225.145 6.82726V3.33203H226.392V10.4531H225.214L225.228 9.40515C225.068 9.67549 224.868 9.90432 224.626 10.0886C224.15 10.4612 223.574 10.6482 222.896 10.6482C221.841 10.6482 221.12 10.3092 220.737 9.62841C220.531 9.26525 220.426 8.78211 220.426 8.17274V3.33203Z" fill="#FAFAFA"/>
<path d="M228.346 10.4546V3.33352H229.578V4.3452C229.873 3.99284 230.14 3.73853 230.38 3.58108C230.791 3.30804 231.257 3.17337 231.778 3.17337C232.368 3.17337 232.844 3.31192 233.202 3.59323C233.406 3.75186 233.59 3.98474 233.757 4.29812C234.032 3.91741 234.359 3.63357 234.733 3.44659C235.107 3.26231 235.526 3.17337 235.992 3.17337C236.989 3.17337 237.667 3.5205 238.027 4.2107C238.22 4.58466 238.318 5.08384 238.318 5.71211V10.4546H237.024V5.50893C237.024 5.03405 236.899 4.70853 236.652 4.52948C236.406 4.3506 236.106 4.26319 235.749 4.26319C235.26 4.26319 234.838 4.42198 234.487 4.73671C234.134 5.05161 233.957 5.57761 233.957 6.31355V10.4546H232.691V5.80628C232.691 5.326 232.63 4.97077 232.51 4.74751C232.322 4.41641 231.969 4.24833 231.451 4.24833C230.983 4.24833 230.553 4.42721 230.168 4.77569C229.784 5.12552 229.59 5.76189 229.59 6.67536V10.4546H228.346Z" fill="#FAFAFA"/>
<path d="M239.547 7.04534C239.12 7.40731 238.904 7.91982 238.904 8.58184C238.904 9.18176 239.122 9.68634 239.557 10.0873C239.994 10.4867 240.556 10.6899 241.243 10.6899C241.815 10.6899 242.338 10.5716 242.814 10.3349C243.29 10.1008 243.653 9.82488 243.908 9.50475C243.948 9.7886 244.02 10.0092 244.122 10.1612C244.315 10.4559 244.626 10.6025 245.056 10.6025C245.232 10.6025 245.37 10.5971 245.472 10.5824C245.572 10.5689 245.72 10.5367 245.914 10.4815V9.59639C245.985 9.59099 245.834 9.61242 245.914 9.59639C245.846 9.60381 245.562 9.63824 245.507 9.63824C245.335 9.63824 245.223 9.60196 245.17 9.52399C245.117 9.44991 245.091 9.35035 245.091 9.22665V5.12187C245.091 4.44922 244.821 3.95275 244.282 3.63245C243.736 3.31098 243.03 3.15353 242.157 3.15353C241.404 3.15353 240.746 3.32448 240.175 3.66874C239.604 4.01316 239.308 4.6227 239.285 5.50242H240.447C240.493 5.13521 240.593 4.85406 240.746 4.66978C241.018 4.33328 241.478 4.16521 242.129 4.16521C242.691 4.16521 243.125 4.25667 243.427 4.43825C243.729 4.62523 243.88 4.92257 243.88 5.32893C243.88 5.52671 243.852 5.68146 243.797 5.78643C243.699 5.98151 243.507 6.09981 243.223 6.13086L241.235 6.37302C240.538 6.45638 239.977 6.67931 239.547 7.04534ZM240.779 7.55531C241.006 7.43144 241.344 7.34133 241.797 7.28344L242.552 7.18928C242.781 7.1638 243.016 7.11807 243.258 7.05613C243.499 6.99555 243.692 6.91623 243.844 6.82207V7.78802C243.844 8.52396 243.499 9.05266 242.807 9.37819C242.394 9.57327 241.973 9.67283 241.534 9.67283C241.172 9.67283 240.862 9.57327 240.598 9.37009C240.337 9.17366 240.205 8.90061 240.205 8.55349C240.205 8.09869 240.398 7.76237 240.779 7.55531Z" fill="#FAFAFA"/>
<path d="M246.824 10.4546V3.33352H248.01V4.3452C248.359 3.92686 248.731 3.62817 249.124 3.44659C249.514 3.26231 249.951 3.17337 250.431 3.17337C251.482 3.17337 252.193 3.5259 252.564 4.2323C252.764 4.61571 252.868 5.1672 252.868 5.88576V10.4546H251.6V5.96372C251.6 5.53306 251.533 5.1834 251.4 4.91559C251.179 4.4743 250.778 4.24833 250.195 4.24833C249.9 4.24833 249.658 4.27669 249.469 4.3371C249.126 4.43396 248.829 4.62905 248.568 4.92099C248.361 5.15775 248.227 5.39856 248.164 5.65152C248.101 5.90044 248.071 6.26106 248.071 6.72649V10.4546H246.824Z" fill="#FAFAFA"/>
<path d="M254.744 2.03064V0.67453H256.01V2.03064H254.744ZM254.744 10.4447V3.35721H256.01V10.4447H254.744Z" fill="#FAFAFA"/>
<path d="M258.389 3.33712V1.34869H259.648V3.33712H260.829V4.31522H259.648V8.96085C259.648 9.21246 259.736 9.37514 259.911 9.46002C260.008 9.51234 260.168 9.5341 260.396 9.5341C260.464 9.5287 260.74 9.5233 260.829 9.5152V10.4584C260.689 10.4973 260.54 10.5296 260.385 10.5471C260.229 10.5633 260.062 10.574 259.883 10.574C259.302 10.574 258.907 10.43 258.7 10.1462C258.493 9.85963 258.389 9.48567 258.389 9.02953V4.31539H257.385V3.33729L258.389 3.33712Z" fill="#FAFAFA"/>
<path d="M262.662 2.03064V0.67453H263.928V2.03064H262.662ZM262.662 10.4447V3.35721H263.928V10.4447H262.662Z" fill="#FAFAFA"/>
<path d="M266.272 4.24294C265.626 4.95727 265.303 5.88559 265.303 7.03059C265.303 8.19161 265.625 9.0958 266.264 9.7428C266.906 10.3859 267.689 10.7074 268.611 10.7074C268.99 10.7074 269.329 10.6725 269.629 10.6038C270.188 10.4787 270.655 10.2366 271.032 9.88134C271.26 9.68221 271.464 9.41711 271.645 9.09563C271.827 8.7728 271.935 8.48086 271.968 8.22115H270.742C270.649 8.53587 270.493 8.81178 270.272 9.05395C269.884 9.46689 269.364 9.66872 268.713 9.66872C268.018 9.66872 267.505 9.45086 267.173 9.01497C266.841 8.58026 266.662 8.00041 266.639 7.27545H272.072C272.072 6.55824 272.035 6.03494 271.961 5.70671C271.877 5.22762 271.71 4.81062 271.461 4.45C271.206 4.07469 270.827 3.76655 270.335 3.53113C269.84 3.29167 269.331 3.17337 268.804 3.17337C267.763 3.17337 266.918 3.53113 266.272 4.24294ZM267.291 4.81063C267.677 4.41659 268.156 4.21611 268.729 4.21611C269.527 4.21611 270.098 4.50535 270.439 5.08384C270.623 5.39333 270.741 5.80627 270.792 6.32418H266.674C266.697 5.71211 266.903 5.20754 267.291 4.81063Z" fill="#FAFAFA"/>
<path d="M273.223 8.21118H274.42C274.455 8.61079 274.561 8.91758 274.731 9.13004C275.043 9.5148 275.589 9.70853 276.364 9.70853C276.825 9.70853 277.231 9.60897 277.582 9.41929C277.933 9.22556 278.107 8.92551 278.107 8.52067C278.107 8.21928 277.968 7.98522 277.686 7.82507C277.507 7.7282 277.15 7.61514 276.62 7.48604L275.63 7.24388C275 7.09723 274.531 6.92898 274.234 6.7393C273.697 6.41918 273.43 5.96979 273.43 5.39923C273.43 4.72118 273.683 4.17762 274.187 3.76197C274.692 3.34498 275.374 3.1337 276.227 3.1337C277.342 3.1337 278.147 3.45248 278.641 4.08092C278.95 4.47901 279.101 4.91102 279.09 5.37104H277.914C277.893 5.10205 277.791 4.85584 277.617 4.63241C277.331 4.31633 276.836 4.16159 276.128 4.16159C275.658 4.16159 275.303 4.249 275.059 4.41995C274.817 4.59208 274.696 4.82074 274.696 5.10205C274.696 5.41543 274.856 5.66164 275.173 5.85132C275.358 5.95899 275.63 6.05855 275.99 6.14327L276.815 6.33429C277.709 6.54287 278.307 6.7447 278.613 6.94248C279.097 7.24388 279.341 7.7282 279.341 8.38196C279.341 9.01698 279.089 9.56459 278.59 10.0261C278.088 10.4888 277.326 10.7202 276.302 10.7202C275.2 10.7202 274.418 10.478 273.96 9.99507C273.502 9.5148 273.254 8.92011 273.223 8.21118Z" fill="#FAFAFA"/>
<path d="M79.2523 26.5956V22.4075H82.3863C82.949 22.4075 83.3619 22.4652 83.6251 22.5863C84.087 22.8017 84.332 23.2322 84.3655 23.8712L84.4482 25.4979C84.4663 25.8813 84.4901 26.1356 84.5181 26.2701C84.5446 26.4032 84.5825 26.5122 84.6287 26.5956H86.3168V26.3777C86.1054 26.2902 85.957 26.0912 85.8743 25.779C85.8227 25.5974 85.7904 25.3215 85.778 24.9476L85.7288 23.6372C85.7049 23.0693 85.5931 22.6591 85.3929 22.4075C85.1928 22.1545 84.8932 21.95 84.497 21.7927C84.9491 21.5666 85.3006 21.2692 85.5525 20.8993C85.8031 20.5254 85.9289 20.0476 85.9289 19.4583C85.9289 18.339 85.4517 17.5695 84.497 17.1523C83.9931 16.9358 83.3549 16.8254 82.5808 16.8254H77.875V26.5956H79.2523ZM79.2523 17.9637H82.6145C83.0849 17.9637 83.4613 18.0295 83.7427 18.1628C84.2689 18.4158 84.5321 18.8906 84.5321 19.5876C84.5321 20.2346 84.3432 20.6813 83.968 20.9275C83.5916 21.1805 83.0807 21.3028 82.4354 21.3028H79.2525L79.2523 17.9637Z" fill="#FAFAFA"/>
<path d="M89.4022 20.3742C88.757 21.0885 88.4336 22.0168 88.4336 23.1618C88.4336 24.3229 88.7542 25.227 89.3952 25.874C90.0378 26.5172 90.8187 26.8386 91.7412 26.8386C92.1192 26.8386 92.4593 26.8037 92.7588 26.735C93.3173 26.61 93.7849 26.3678 94.1629 26.0126C94.3895 25.8135 94.5939 25.5483 94.7758 25.2269C94.9578 24.904 95.0656 24.6121 95.0978 24.3524H93.873C93.7806 24.6671 93.6238 24.943 93.4028 25.1852C93.015 25.5981 92.4956 25.8 91.8462 25.8C91.1492 25.8 90.634 25.5821 90.3024 25.1462C89.9706 24.7115 89.7929 24.1316 89.769 23.4067H95.2013C95.2013 22.6895 95.165 22.1662 95.0909 21.838C95.0084 21.3589 94.8416 20.9419 94.5925 20.5812C94.3335 20.2059 93.9585 19.8978 93.4644 19.6624C92.9716 19.4229 92.4621 19.3046 91.9359 19.3046C90.893 19.3046 90.0475 19.6624 89.4022 20.3742ZM90.4198 20.9419C90.8075 20.5478 91.2877 20.3473 91.8588 20.3473C92.6566 20.3473 93.2263 20.6366 93.5692 21.2151C93.7525 21.5244 93.8702 21.9375 93.922 22.4554H89.8039C89.8264 21.8434 90.032 21.3388 90.4198 20.9419Z" fill="#FAFAFA"/>
<path d="M96.3535 24.3623H97.5502C97.588 24.7619 97.6917 25.0687 97.8624 25.2811C98.1759 25.6659 98.7204 25.8596 99.4945 25.8596C99.9564 25.8596 100.363 25.76 100.713 25.5704C101.064 25.3766 101.239 25.0766 101.239 24.6717C101.239 24.3703 101.099 24.1363 100.818 23.9761C100.637 23.8793 100.282 23.7662 99.7506 23.6371L98.761 23.395C98.1298 23.2483 97.6636 23.0801 97.3641 22.8904C96.8295 22.5702 96.5607 22.1209 96.5607 21.5503C96.5607 20.8722 96.814 20.3289 97.3193 19.913C97.8246 19.4961 98.5036 19.2848 99.3574 19.2848C100.473 19.2848 101.278 19.6036 101.772 20.232C102.082 20.6301 102.231 21.0621 102.223 21.5221H101.046C101.022 21.2531 100.923 21.0069 100.748 20.7835C100.462 20.4674 99.9661 20.3127 99.2592 20.3127C98.789 20.3127 98.4335 20.4001 98.1912 20.571C97.9477 20.7431 97.8274 20.9718 97.8274 21.2531C97.8274 21.5665 97.9869 21.8127 98.3046 22.0024C98.4895 22.1101 98.7609 22.2096 99.1221 22.2943L99.9452 22.4854C100.84 22.6939 101.441 22.8958 101.744 23.0936C102.229 23.395 102.471 23.8793 102.471 24.533C102.471 25.168 102.222 25.7157 101.72 26.1772C101.219 26.6399 100.458 26.8713 99.4329 26.8713C98.3299 26.8713 97.5488 26.6291 97.0911 26.1461C96.6308 25.6659 96.3856 25.0712 96.3535 24.3623Z" fill="#FAFAFA"/>
<path d="M103.922 20.3742C103.277 21.0885 102.953 22.0168 102.953 23.1618C102.953 24.3229 103.274 25.227 103.917 25.874C104.558 26.5172 105.339 26.8386 106.261 26.8386C106.64 26.8386 106.979 26.8037 107.279 26.735C107.837 26.61 108.305 26.3678 108.684 26.0126C108.909 25.8135 109.114 25.5483 109.296 25.2269C109.478 24.904 109.586 24.6121 109.618 24.3524H108.393C108.301 24.6671 108.144 24.943 107.923 25.1852C107.535 25.5981 107.016 25.8 106.366 25.8C105.668 25.8 105.154 25.5821 104.822 25.1462C104.49 24.7115 104.313 24.1316 104.29 23.4067H109.721C109.721 22.6895 109.685 22.1662 109.611 21.838C109.528 21.3589 109.361 20.9419 109.112 20.5812C108.855 20.2059 108.478 19.8978 107.984 19.6624C107.491 19.4229 106.981 19.3046 106.456 19.3046C105.413 19.3046 104.569 19.6624 103.922 20.3742ZM104.94 20.9419C105.327 20.5478 105.808 20.3473 106.379 20.3473C107.178 20.3473 107.748 20.6366 108.088 21.2151C108.273 21.5244 108.39 21.9375 108.442 22.4554H104.324C104.348 21.8434 104.552 21.3388 104.94 20.9419Z" fill="#FAFAFA"/>
<path d="M111.517 23.1964C111.088 23.5584 110.873 24.0709 110.873 24.7329C110.873 25.3328 111.091 25.8374 111.528 26.2384C111.963 26.638 112.525 26.841 113.212 26.841C113.784 26.841 114.308 26.7227 114.784 26.4859C115.258 26.2517 115.622 25.976 115.876 25.6558C115.917 25.9397 115.99 26.1602 116.091 26.3123C116.284 26.6069 116.596 26.7536 117.025 26.7536C117.2 26.7536 117.338 26.7482 117.44 26.7335C117.541 26.72 117.69 26.6878 117.884 26.6326V25.7473C117.954 25.7419 117.804 25.7635 117.884 25.7473C117.816 25.7547 117.53 25.7893 117.476 25.7893C117.303 25.7893 117.193 25.753 117.139 25.6749C117.086 25.601 117.06 25.5014 117.06 25.3777V21.273C117.06 20.6001 116.79 20.1038 116.251 19.7835C115.705 19.4621 114.998 19.3046 114.126 19.3046C113.373 19.3046 112.712 19.4754 112.143 19.8198C111.573 20.1642 111.276 20.7738 111.254 21.6535H112.417C112.462 21.2863 112.561 21.0051 112.714 20.8207C112.987 20.4844 113.447 20.3163 114.098 20.3163C114.661 20.3163 115.093 20.4078 115.396 20.5893C115.698 20.7763 115.849 21.0737 115.849 21.48C115.849 21.6778 115.821 21.8325 115.765 21.9373C115.67 22.1324 115.477 22.2509 115.191 22.2818L113.205 22.5239C112.509 22.6075 111.945 22.8304 111.517 23.1964ZM112.749 23.7064C112.974 23.5825 113.314 23.4924 113.766 23.4345L114.521 23.3404C114.75 23.3149 114.985 23.2691 115.226 23.2072C115.465 23.1466 115.663 23.0673 115.814 22.9732V23.9391C115.814 24.675 115.468 25.2037 114.775 25.5293C114.365 25.7243 113.941 25.8239 113.503 25.8239C113.143 25.8239 112.831 25.7244 112.569 25.5212C112.306 25.3247 112.175 25.0517 112.175 24.7046C112.175 24.2498 112.365 23.9135 112.749 23.7064Z" fill="#FAFAFA"/>
<path d="M118.793 26.5858V19.4648H119.975V20.6945C120.072 20.4523 120.31 20.1617 120.688 19.82C121.067 19.4783 121.502 19.3046 121.996 19.3046C121.94 19.2992 122.019 19.3046 121.996 19.3046C122.051 19.31 122.264 19.3262 122.397 19.3384V20.603C122.458 20.6057 122.324 20.5868 122.397 20.603C122.334 20.5976 122.064 20.5654 121.989 20.5654C121.362 20.5654 120.88 20.7632 120.543 21.1493C120.206 21.5354 120.038 21.9848 120.038 22.4919V26.5858H118.793Z" fill="#FAFAFA"/>
<path d="M126.114 19.2649C126.95 19.2649 127.629 19.4614 128.152 19.8502C128.676 20.2417 128.991 20.9117 129.096 21.8656H127.885C127.812 21.4243 127.644 21.0623 127.381 20.7731C127.118 20.4812 126.695 20.3372 126.114 20.3372C125.321 20.3372 124.754 20.7073 124.412 21.4539C124.191 21.9343 124.08 22.5329 124.08 23.2405C124.08 23.9577 124.237 24.5562 124.551 25.0459C124.864 25.5343 125.357 25.7765 126.032 25.7765C126.548 25.7765 126.957 25.6233 127.259 25.3219C127.561 25.0164 127.77 24.602 127.885 24.0733H129.096C128.96 25.0191 128.613 25.708 128.059 26.1439C127.506 26.5825 126.797 26.8005 125.934 26.8005C124.965 26.8005 124.192 26.4588 123.616 25.7821C123.039 25.1013 122.752 24.2496 122.752 23.2298C122.752 21.9785 123.067 21.0046 123.7 20.3104C124.331 19.6148 125.136 19.2649 126.114 19.2649Z" fill="#FAFAFA"/>
<path d="M130.672 26.5895V16.7858H131.918V20.433C132.212 20.0697 132.478 19.8183 132.713 19.673C133.114 19.4214 133.614 19.2948 134.214 19.2948C135.289 19.2948 136.019 19.6554 136.402 20.3778C136.609 20.7748 136.713 21.321 136.713 22.0207V26.5895H135.432V22.0986C135.432 21.5779 135.362 21.1945 135.225 20.9509C135 20.5621 134.574 20.3671 133.953 20.3671C133.435 20.3671 132.967 20.5353 132.547 20.877C132.126 21.2188 131.918 21.8644 131.918 22.8103V26.5895H130.672Z" fill="#FAFAFA"/>
<path d="M147.29 16.5479C148.578 16.5479 149.578 16.8735 150.289 17.526C150.997 18.1772 151.393 18.9186 151.47 19.7485H150.128C149.976 19.1148 149.673 18.6184 149.218 18.2485C148.763 17.8824 148.126 17.6995 147.306 17.6995C146.304 17.6995 145.496 18.0372 144.879 18.7125C144.263 19.3879 143.955 20.4266 143.955 21.8217C143.955 22.968 144.232 23.8923 144.789 24.6039C145.345 25.3171 146.174 25.6735 147.276 25.6735C148.293 25.6735 149.065 25.2982 149.594 24.5487C149.877 24.1545 150.086 23.6353 150.226 22.9935H151.568C151.448 24.0214 151.05 24.885 150.377 25.5793C149.569 26.4202 148.482 26.8358 147.111 26.8358C145.93 26.8358 144.938 26.4941 144.134 25.808C143.079 24.8959 142.551 23.4952 142.551 21.5955C142.551 20.1534 142.947 18.9707 143.741 18.0505C144.599 17.0469 145.783 16.5479 147.29 16.5479Z" fill="#FAFAFA"/>
<path d="M152.737 20.3294C152.104 21.0386 151.789 21.9923 151.789 23.191C151.789 24.3076 152.088 25.1983 152.689 25.8602C153.288 26.522 154.097 26.8558 155.116 26.8558C156.34 26.8558 157.241 26.4804 157.824 25.7311C158.405 24.983 158.696 24.0319 158.696 22.8829C158.696 21.6948 158.365 20.7962 157.706 20.184C157.045 19.569 156.238 19.2649 155.285 19.2649C154.218 19.2649 153.368 19.619 152.737 20.3294ZM153.589 25.0665C153.242 24.5593 153.07 23.9296 153.07 23.1696C153.07 22.3785 153.242 21.7058 153.589 21.1487C153.935 20.5892 154.488 20.3105 155.248 20.3105C156.106 20.3105 156.711 20.6389 157.062 21.294C157.283 21.7112 157.394 22.2519 157.394 22.918C157.394 23.6512 157.241 24.3238 156.935 24.9226C156.628 25.5239 156.06 25.8239 155.234 25.8239C154.482 25.8239 153.935 25.5709 153.589 25.0665Z" fill="#FAFAFA"/>
<path d="M161.029 19.4633H162.303V24.1909C162.303 24.5556 162.363 24.8528 162.483 25.0816C162.704 25.5067 163.117 25.722 163.722 25.722C164.588 25.722 165.179 25.3493 165.494 24.6027C165.664 24.2058 165.748 23.6568 165.748 22.9585V19.4633H166.995V26.5844H165.818L165.832 25.5364C165.673 25.8067 165.471 26.0356 165.23 26.2199C164.754 26.5925 164.179 26.7794 163.501 26.7794C162.443 26.7794 161.723 26.4404 161.341 25.7597C161.133 25.3965 161.029 24.9135 161.029 24.304V19.4633Z" fill="#FAFAFA"/>
<path d="M168.949 26.5858V19.4648H170.133V20.4764C170.482 20.0581 170.854 19.7594 171.246 19.5778C171.639 19.3935 172.075 19.3046 172.556 19.3046C173.607 19.3046 174.317 19.6571 174.685 20.3635C174.891 20.747 174.991 21.2984 174.991 22.017V26.5858H173.725V22.095C173.725 21.6645 173.656 21.3146 173.523 21.0468C173.302 20.6055 172.901 20.3796 172.32 20.3796C172.025 20.3796 171.781 20.4079 171.592 20.4683C171.251 20.5652 170.951 20.7603 170.693 21.0522C170.486 21.289 170.352 21.5298 170.289 21.7828C170.226 22.0317 170.196 22.3923 170.196 22.8577V26.5858H168.949Z" fill="#FAFAFA"/>
<path d="M178.913 19.2649C179.749 19.2649 180.428 19.4614 180.953 19.8502C181.474 20.2417 181.789 20.9117 181.894 21.8656H180.684C180.609 21.4243 180.442 21.0623 180.179 20.7731C179.917 20.4812 179.496 20.3372 178.913 20.3372C178.119 20.3372 177.552 20.7073 177.212 21.4539C176.99 21.9343 176.878 22.5329 176.878 23.2405C176.878 23.9577 177.036 24.5562 177.349 25.0459C177.663 25.5343 178.158 25.7765 178.83 25.7765C179.347 25.7765 179.757 25.6233 180.058 25.3219C180.361 25.0164 180.568 24.602 180.684 24.0733H181.894C181.759 25.0191 181.411 25.708 180.858 26.1439C180.303 26.5825 179.596 26.8005 178.734 26.8005C177.763 26.8005 176.992 26.4588 176.414 25.7821C175.839 25.1013 175.549 24.2496 175.549 23.2298C175.549 21.9785 175.867 21.0046 176.499 20.3104C177.129 19.6148 177.935 19.2649 178.913 19.2649Z" fill="#FAFAFA"/>
<path d="M183.469 18.1815V16.8254H184.735V18.1815H183.469ZM183.469 26.5956V19.5081H184.735V26.5956H183.469Z" fill="#FAFAFA"/>
<path d="M188.674 16.8254H187.428V26.5958H188.674V16.8254Z" fill="#FAFAFA"/>
<path d="M193.655 20.3294C193.023 21.0386 192.707 21.9923 192.707 23.191C192.707 24.3076 193.007 25.1983 193.608 25.8602C194.208 26.522 195.017 26.8558 196.036 26.8558C197.258 26.8558 198.16 26.4804 198.743 25.7311C199.322 24.983 199.614 24.0319 199.614 22.8829C199.614 21.6948 199.285 20.7962 198.624 20.184C197.963 19.569 197.158 19.2649 196.202 19.2649C195.137 19.2649 194.287 19.619 193.655 20.3294ZM194.508 25.0665C194.161 24.5593 193.989 23.9296 193.989 23.1696C193.989 22.3785 194.161 21.7058 194.508 21.1487C194.852 20.5892 195.405 20.3105 196.167 20.3105C197.026 20.3105 197.63 20.6389 197.979 21.294C198.2 21.7112 198.313 22.2519 198.313 22.918C198.313 23.6512 198.158 24.3238 197.851 24.9226C197.544 25.5239 196.978 25.8239 196.153 25.8239C195.402 25.8239 194.852 25.5709 194.508 25.0665Z" fill="#FAFAFA"/>
<path d="M201.658 18.3912C201.675 17.892 201.765 17.5329 201.928 17.2987C202.22 16.8938 202.78 16.6866 203.61 16.6866C203.686 16.6866 203.768 16.692 203.851 16.6974C203.935 16.7028 204.028 16.707 204.135 16.7149V17.8059C204.007 17.7985 203.912 17.7926 203.856 17.7899C203.909 17.7899 203.798 17.7865 203.856 17.7899C203.48 17.7899 203.089 17.8825 203.013 18.0683C202.94 18.258 202.905 18.7383 202.905 19.5105H204.135V20.455H202.89V26.598H201.658V20.455H200.627V19.5105H201.658V18.3912Z" fill="#FAFAFA"/>
<path d="M214.605 16.5479C215.892 16.5479 216.891 16.8735 217.602 17.526C218.313 18.1772 218.707 18.9186 218.786 19.7485H217.444C217.29 19.1148 216.986 18.6184 216.533 18.2485C216.08 17.8824 215.441 17.6995 214.619 17.6995C213.619 17.6995 212.809 18.0372 212.195 18.7125C211.579 19.3879 211.27 20.4266 211.27 21.8217C211.27 22.968 211.55 23.8923 212.104 24.6039C212.66 25.3171 213.491 25.6735 214.593 25.6735C215.606 25.6735 216.38 25.2982 216.911 24.5487C217.192 24.1545 217.402 23.6353 217.541 22.9935H218.882C218.763 24.0214 218.364 24.885 217.692 25.5793C216.886 26.4202 215.796 26.8358 214.425 26.8358C213.245 26.8358 212.255 26.4941 211.45 25.808C210.395 24.8959 209.867 23.4952 209.867 21.5955C209.867 20.1534 210.262 18.9707 211.055 18.0505C211.914 17.0469 213.097 16.5479 214.605 16.5479Z" fill="#FAFAFA"/>
<path d="M219.75 23.1964C219.319 23.5584 219.105 24.0709 219.105 24.7329C219.105 25.3328 219.323 25.8374 219.76 26.2384C220.195 26.638 220.757 26.841 221.446 26.841C222.016 26.841 222.541 26.7227 223.015 26.4859C223.491 26.2517 223.856 25.976 224.109 25.6558C224.151 25.9397 224.221 26.1602 224.323 26.3123C224.516 26.6069 224.829 26.7536 225.259 26.7536C225.434 26.7536 225.571 26.7482 225.673 26.7335C225.775 26.72 225.923 26.6878 226.116 26.6326V25.7473C226.186 25.7419 226.037 25.7635 226.116 25.7473C226.045 25.7547 225.763 25.7893 225.707 25.7893C225.538 25.7893 225.426 25.753 225.373 25.6749C225.319 25.601 225.292 25.5014 225.292 25.3777V21.273C225.292 20.6001 225.024 20.1038 224.481 19.7835C223.937 19.4621 223.229 19.3046 222.357 19.3046C221.605 19.3046 220.945 19.4754 220.375 19.8198C219.806 20.1642 219.509 20.7738 219.488 21.6535H220.65C220.696 21.2863 220.794 21.0051 220.949 20.8207C221.217 20.4844 221.679 20.3163 222.33 20.3163C222.894 20.3163 223.326 20.4078 223.628 20.5893C223.93 20.7763 224.083 21.0737 224.083 21.48C224.083 21.6778 224.053 21.8325 223.998 21.9373C223.902 22.1324 223.709 22.2509 223.424 22.2818L221.438 22.5239C220.741 22.6075 220.18 22.8304 219.75 23.1964ZM220.982 23.7064C221.207 23.5825 221.546 23.4924 221.999 23.4345L222.754 23.3404C222.984 23.3149 223.219 23.2691 223.458 23.2072C223.696 23.1466 223.895 23.0673 224.046 22.9732V23.9391C224.046 24.675 223.7 25.2037 223.008 25.5293C222.597 25.7243 222.174 25.8239 221.735 25.8239C221.375 25.8239 221.065 25.7244 220.801 25.5212C220.54 25.3247 220.406 25.0517 220.406 24.7046C220.406 24.2498 220.598 23.9135 220.982 23.7064Z" fill="#FAFAFA"/>
<path d="M228.346 26.5858V19.4648H229.529V20.4764C229.88 20.0581 230.251 19.7594 230.642 19.5778C231.034 19.3935 231.469 19.3046 231.95 19.3046C233.002 19.3046 233.713 19.6571 234.081 20.3635C234.285 20.747 234.387 21.2984 234.387 22.017V26.5858H233.119V22.095C233.119 21.6645 233.053 21.3146 232.919 21.0468C232.698 20.6055 232.296 20.3796 231.715 20.3796C231.42 20.3796 231.179 20.4079 230.99 20.4683C230.649 20.5652 230.347 20.7603 230.089 21.0522C229.882 21.289 229.747 21.5298 229.685 21.7828C229.622 22.0317 229.592 22.3923 229.592 22.8577V26.5858H228.346Z" fill="#FAFAFA"/>
<path d="M235.59 23.1964C235.159 23.5584 234.945 24.0709 234.945 24.7329C234.945 25.3328 235.165 25.8374 235.6 26.2384C236.035 26.638 236.597 26.841 237.286 26.841C237.856 26.841 238.379 26.7227 238.855 26.4859C239.331 26.2517 239.694 25.976 239.949 25.6558C239.991 25.9397 240.061 26.1602 240.163 26.3123C240.356 26.6069 240.669 26.7536 241.095 26.7536C241.273 26.7536 241.411 26.7482 241.512 26.7335C241.613 26.72 241.761 26.6878 241.956 26.6326V25.7473C242.024 25.7419 241.877 25.7635 241.956 25.7473C241.887 25.7547 241.603 25.7893 241.548 25.7893C241.378 25.7893 241.266 25.753 241.211 25.6749C241.159 25.601 241.132 25.5014 241.132 25.3777V21.273C241.132 20.6001 240.86 20.1038 240.323 19.7835C239.779 19.4621 239.071 19.3046 238.199 19.3046C237.447 19.3046 236.785 19.4754 236.215 19.8198C235.646 20.1642 235.351 20.7738 235.324 21.6535H236.488C236.536 21.2863 236.634 21.0051 236.787 20.8207C237.059 20.4844 237.521 20.3163 238.172 20.3163C238.734 20.3163 239.168 20.4078 239.466 20.5893C239.77 20.7763 239.921 21.0737 239.921 21.48C239.921 21.6778 239.895 21.8325 239.838 21.9373C239.742 22.1324 239.549 22.2509 239.264 22.2818L237.279 22.5239C236.58 22.6075 236.02 22.8304 235.59 23.1964ZM236.822 23.7064C237.049 23.5825 237.387 23.4924 237.837 23.4345L238.592 23.3404C238.822 23.3149 239.059 23.2691 239.298 23.2072C239.538 23.1466 239.735 23.0673 239.887 22.9732V23.9391C239.887 24.675 239.542 25.2037 238.85 25.5293C238.437 25.7243 238.012 25.8239 237.575 25.8239C237.215 25.8239 236.905 25.7244 236.641 25.5212C236.378 25.3247 236.248 25.0517 236.248 24.7046C236.248 24.2498 236.438 23.9135 236.822 23.7064Z" fill="#FAFAFA"/>
<path d="M243.692 20.4828C243.14 21.2415 242.865 22.1403 242.865 23.1763C242.865 24.2849 243.168 25.1755 243.772 25.8428C244.376 26.51 245.089 26.8425 245.918 26.8425C246.429 26.8425 246.883 26.7468 247.279 26.5505C247.675 26.3555 248.021 26.0406 248.311 25.602V26.5895H249.431V16.7858H248.234V20.3833C247.953 20.0549 247.702 19.8181 247.48 19.6863C247.096 19.4576 246.624 19.3419 246.055 19.3419C245.031 19.3419 244.241 19.7212 243.692 20.4828ZM244.764 21.0762C245.154 20.6146 245.662 20.3833 246.29 20.3833C246.854 20.3833 247.326 20.6013 247.709 21.0345C248.091 21.465 248.283 22.1336 248.283 23.0337C248.283 23.9256 248.097 24.605 247.726 25.0841C247.354 25.5616 246.88 25.7984 246.304 25.7984C245.561 25.7984 245.021 25.5414 244.685 25.0262C244.348 24.5135 244.178 23.8746 244.178 23.113C244.178 22.2169 244.373 21.5389 244.764 21.0762Z" fill="#FAFAFA"/>
<path d="M251.426 23.1964C250.996 23.5584 250.783 24.0709 250.783 24.7329C250.783 25.3328 251.001 25.8374 251.436 26.2384C251.872 26.638 252.434 26.841 253.122 26.841C253.694 26.841 254.217 26.7227 254.693 26.4859C255.169 26.2517 255.531 25.976 255.785 25.6558C255.827 25.9397 255.898 26.1602 255.999 26.3123C256.192 26.6069 256.505 26.7536 256.933 26.7536C257.109 26.7536 257.249 26.7482 257.349 26.7335C257.45 26.72 257.599 26.6878 257.794 26.6326V25.7473C257.713 25.7635 257.639 25.7743 257.571 25.7797C257.627 25.7797 257.502 25.7871 257.571 25.7797C257.399 25.7797 257.1 25.753 257.049 25.6749C256.993 25.601 256.97 25.5014 256.97 25.3777V21.273C256.97 20.6001 256.698 20.1038 256.159 19.7835C255.613 19.4621 254.906 19.3046 254.035 19.3046C253.282 19.3046 252.621 19.4754 252.051 19.8198C251.484 20.1642 251.185 20.7738 251.162 21.6535H252.325C252.372 21.2863 252.47 21.0051 252.623 20.8207C252.895 20.4844 253.357 20.3163 254.005 20.3163C254.57 20.3163 255 20.4078 255.304 20.5893C255.606 20.7763 255.759 21.0737 255.759 21.48C255.759 21.6778 255.729 21.8325 255.675 21.9373C255.578 22.1324 255.387 22.2509 255.1 22.2818L253.115 22.5239C252.418 22.6075 251.854 22.8304 251.426 23.1964ZM252.658 23.7064C252.885 23.5825 253.224 23.4924 253.675 23.4345L254.43 23.3404C254.66 23.3149 254.895 23.2691 255.136 23.2072C255.376 23.1466 255.571 23.0673 255.722 22.9732V23.9391C255.722 24.675 255.378 25.2037 254.684 25.5293C254.274 25.7243 253.85 25.8239 253.411 25.8239C253.052 25.8239 252.741 25.7244 252.477 25.5212C252.216 25.3247 252.084 25.0517 252.084 24.7046C252.084 24.2498 252.274 23.9135 252.658 23.7064Z" fill="#FAFAFA"/>
<path d="M313.601 0.416779C314.888 0.416779 315.887 0.742304 316.596 1.39487C317.307 2.04609 317.702 2.78743 317.781 3.61736H316.438C316.285 2.98369 315.982 2.48722 315.529 2.11731C315.074 1.75128 314.435 1.56835 313.615 1.56835C312.612 1.56835 311.805 1.90603 311.189 2.58138C310.574 3.25674 310.265 4.29542 310.265 5.69051C310.265 6.83685 310.544 7.76112 311.099 8.47276C311.656 9.18591 312.484 9.54232 313.587 9.54232C314.602 9.54232 315.374 9.16701 315.904 8.41757C316.187 8.02336 316.396 7.50411 316.535 6.86234H317.878C317.757 7.89022 317.36 8.7539 316.687 9.44815C315.88 10.2891 314.791 10.7047 313.42 10.7047C312.24 10.7047 311.248 10.363 310.444 9.67682C309.387 8.7647 308.861 7.36404 308.861 5.46438C308.861 4.02221 309.257 2.83957 310.051 1.91936C310.908 0.915784 312.091 0.416779 313.601 0.416779Z" fill="#FAFAFA"/>
<path d="M320.368 4.19821C319.736 4.90731 319.42 5.86111 319.42 7.05977C319.42 8.17642 319.72 9.0671 320.319 9.72895C320.919 10.3908 321.729 10.7246 322.749 10.7246C323.971 10.7246 324.873 10.3491 325.452 9.59986C326.035 8.85177 326.325 7.90067 326.325 6.75163C326.325 5.5636 325.997 4.66498 325.335 4.05274C324.676 3.4378 323.869 3.1337 322.914 3.1337C321.85 3.1337 321 3.48775 320.368 4.19821ZM321.219 8.9353C320.874 8.42802 320.7 7.7984 320.7 7.03834C320.7 6.24722 320.874 5.57457 321.219 5.01751C321.565 4.45792 322.118 4.17931 322.879 4.17931C323.737 4.17931 324.341 4.5077 324.694 5.16281C324.913 5.57997 325.024 6.12065 325.024 6.78672C325.024 7.51996 324.871 8.19261 324.564 8.79135C324.259 9.39262 323.691 9.69267 322.866 9.69267C322.113 9.69267 321.565 9.43971 321.219 8.9353Z" fill="#FAFAFA"/>
<path d="M327.34 10.4546V3.33352H328.524V4.3452C328.875 3.92686 329.245 3.62817 329.637 3.44659C330.03 3.26231 330.465 3.17337 330.947 3.17337C331.996 3.17337 332.708 3.5259 333.078 4.2323C333.28 4.61571 333.382 5.1672 333.382 5.88576V10.4546H332.114V5.96372C332.114 5.53306 332.047 5.1834 331.914 4.91559C331.693 4.4743 331.292 4.24833 330.711 4.24833C330.415 4.24833 330.172 4.27669 329.984 4.3371C329.642 4.43396 329.342 4.62905 329.084 4.92099C328.877 5.15775 328.741 5.39856 328.68 5.65152C328.617 5.90044 328.585 6.26106 328.585 6.72649V10.4546H327.34Z" fill="#FAFAFA"/>
<path d="M335.26 8.21118H336.457C336.494 8.61079 336.598 8.91758 336.768 9.13004C337.084 9.5148 337.627 9.70853 338.403 9.70853C338.863 9.70853 339.268 9.60897 339.619 9.41929C339.97 9.22556 340.144 8.92551 340.144 8.52067C340.144 8.21928 340.006 7.98522 339.723 7.82507C339.544 7.7282 339.187 7.61514 338.659 7.48604L337.667 7.24388C337.037 7.09723 336.57 6.92898 336.271 6.7393C335.736 6.41918 335.469 5.96979 335.469 5.39923C335.469 4.72118 335.72 4.17762 336.225 3.76197C336.731 3.34498 337.411 3.1337 338.262 3.1337C339.379 3.1337 340.185 3.45248 340.678 4.08092C340.987 4.47901 341.138 4.91102 341.129 5.37104H339.951C339.93 5.10205 339.83 4.85584 339.653 4.63241C339.368 4.31633 338.873 4.16159 338.166 4.16159C337.695 4.16159 337.34 4.249 337.096 4.41995C336.856 4.59208 336.735 4.82074 336.735 5.10205C336.735 5.41543 336.893 5.66164 337.21 5.85132C337.397 5.95899 337.667 6.05855 338.029 6.14327L338.852 6.33429C339.746 6.54287 340.348 6.7447 340.65 6.94248C341.136 7.24388 341.378 7.7282 341.378 8.38196C341.378 9.01698 341.126 9.56459 340.625 10.0261C340.125 10.4888 339.363 10.7202 338.339 10.7202C337.237 10.7202 336.455 10.478 335.997 9.99507C335.537 9.5148 335.291 8.92011 335.26 8.21118Z" fill="#FAFAFA"/>
<path d="M342.827 4.24294C342.18 4.95727 341.857 5.88559 341.857 7.03059C341.857 8.19161 342.177 9.0958 342.818 9.7428C343.459 10.3859 344.243 10.7074 345.163 10.7074C345.543 10.7074 345.883 10.6725 346.182 10.6038C346.74 10.4787 347.209 10.2366 347.588 9.88134C347.813 9.68221 348.018 9.41711 348.201 9.09563C348.382 8.7728 348.489 8.48086 348.52 8.22115H347.297C347.204 8.53587 347.047 8.81178 346.826 9.05395C346.438 9.46689 345.92 9.66872 345.267 9.66872C344.572 9.66872 344.059 9.45086 343.727 9.01497C343.394 8.58026 343.215 8.00041 343.193 7.27545H348.626C348.626 6.55824 348.587 6.03494 348.513 5.70671C348.431 5.22762 348.266 4.81062 348.015 4.45C347.757 4.07469 347.383 3.76655 346.887 3.53113C346.394 3.29167 345.885 3.17337 345.36 3.17337C344.314 3.17337 343.473 3.53113 342.827 4.24294ZM343.843 4.81063C344.231 4.41659 344.71 4.21611 345.283 4.21611C346.08 4.21611 346.651 4.50535 346.993 5.08384C347.175 5.39333 347.293 5.80627 347.344 6.32418H343.227C343.251 5.71211 343.455 5.20754 343.843 4.81063Z" fill="#FAFAFA"/>
<path d="M349.777 2.03064V0.67453H351.045V2.03064H349.777ZM349.777 10.4447V3.35721H351.045V10.4447H349.777Z" fill="#FAFAFA"/>
<path d="M354.982 0.67453H353.738V10.4449H354.982V0.67453Z" fill="#FAFAFA"/>
<path d="M361.165 4.35175C360.612 5.11064 360.338 6.00925 360.338 7.04524C360.338 8.15378 360.64 9.04446 361.244 9.71172C361.848 10.379 362.565 10.7112 363.39 10.7112C363.902 10.7112 364.357 10.6157 364.752 10.4193C365.149 10.2242 365.495 9.9095 365.784 9.4709V10.4584H366.905V0.654694H365.709V4.25219C365.426 3.92379 365.173 3.68703 364.952 3.55523C364.571 3.32657 364.097 3.21081 363.528 3.21081C362.503 3.21081 361.715 3.59016 361.165 4.35175ZM362.238 4.94509C362.626 4.48355 363.135 4.25219 363.764 4.25219C364.325 4.25219 364.8 4.47022 365.181 4.90341C365.565 5.3339 365.756 6.0025 365.756 6.90264C365.756 7.7945 365.57 8.47407 365.2 8.953C364.828 9.43057 364.352 9.66734 363.778 9.66734C363.033 9.66734 362.494 9.41032 362.157 8.89512C361.822 8.38244 361.652 7.74337 361.652 6.98195C361.652 6.08587 361.848 5.40781 362.238 4.94509Z" fill="#FAFAFA"/>
<path d="M369.227 4.24294C368.581 4.95727 368.258 5.88559 368.258 7.03059C368.258 8.19161 368.579 9.0958 369.22 9.7428C369.861 10.3859 370.642 10.7074 371.566 10.7074C371.945 10.7074 372.282 10.6725 372.582 10.6038C373.14 10.4787 373.607 10.2366 373.987 9.88134C374.215 9.68221 374.417 9.41711 374.599 9.09563C374.782 8.7728 374.889 8.48086 374.921 8.22115H373.697C373.604 8.53587 373.448 8.81178 373.226 9.05395C372.838 9.46689 372.319 9.66872 371.671 9.66872C370.97 9.66872 370.459 9.45086 370.128 9.01497C369.794 8.58026 369.617 8.00041 369.592 7.27545H375.026C375.026 6.55824 374.989 6.03494 374.915 5.70671C374.831 5.22762 374.664 4.81062 374.415 4.45C374.159 4.07469 373.781 3.76655 373.29 3.53113C372.795 3.29167 372.285 3.17337 371.759 3.17337C370.716 3.17337 369.871 3.53113 369.227 4.24294ZM370.243 4.81063C370.632 4.41659 371.111 4.21611 371.683 4.21611C372.482 4.21611 373.051 4.50535 373.393 5.08384C373.578 5.39333 373.695 5.80627 373.744 6.32418H369.629C369.65 5.71211 369.857 5.20754 370.243 4.81063Z" fill="#FAFAFA"/>
<path d="M380.137 10.4546V3.33351H381.319V4.56322C381.417 4.32106 381.654 4.03047 382.033 3.68874C382.411 3.34701 382.846 3.17336 383.341 3.17336C383.287 3.16796 383.364 3.17336 383.341 3.17336C383.397 3.17876 383.608 3.19496 383.743 3.20711V4.47176C383.805 4.47446 383.668 4.45555 383.743 4.47176C383.68 4.46635 383.408 4.43412 383.334 4.43412C382.706 4.43412 382.225 4.6319 381.887 5.01801C381.549 5.40412 381.382 5.85351 381.382 6.36062V10.4546H380.137Z" fill="#FAFAFA"/>
<path d="M385.063 4.24294C384.417 4.95727 384.096 5.88559 384.096 7.03059C384.096 8.19161 384.415 9.0958 385.056 9.7428C385.697 10.3859 386.48 10.7074 387.402 10.7074C387.781 10.7074 388.12 10.6725 388.42 10.6038C388.978 10.4787 389.447 10.2366 389.825 9.88134C390.051 9.68221 390.255 9.41711 390.437 9.09563C390.62 8.7728 390.727 8.48086 390.759 8.22115H389.533C389.444 8.53587 389.286 8.81178 389.064 9.05395C388.676 9.46689 388.158 9.66872 387.505 9.66872C386.81 9.66872 386.296 9.45086 385.964 9.01497C385.632 8.58026 385.453 8.00041 385.432 7.27545H390.864C390.864 6.55824 390.825 6.03494 390.752 5.70671C390.669 5.22762 390.504 4.81062 390.253 4.45C389.995 4.07469 389.621 3.76655 389.126 3.53113C388.632 3.29167 388.123 3.17337 387.598 3.17337C386.554 3.17337 385.709 3.53113 385.063 4.24294ZM386.081 4.81063C386.468 4.41659 386.949 4.21611 387.521 4.21611C388.318 4.21611 388.887 4.50535 389.229 5.08384C389.414 5.39333 389.531 5.80627 389.581 6.32418H385.465C385.488 5.71211 385.693 5.20754 386.081 4.81063Z" fill="#FAFAFA"/>
<path d="M395.378 3.1337C396.214 3.1337 396.894 3.33013 397.417 3.71894C397.94 4.11045 398.254 4.78041 398.361 5.73437H397.15C397.076 5.29308 396.908 4.9311 396.644 4.64186C396.383 4.34991 395.961 4.20597 395.378 4.20597C394.585 4.20597 394.02 4.57605 393.677 5.32261C393.454 5.80306 393.345 6.40162 393.345 7.10921C393.345 7.82641 393.502 8.42498 393.814 8.91471C394.13 9.40308 394.622 9.64525 395.296 9.64525C395.814 9.64525 396.223 9.49202 396.525 9.19062C396.827 8.88518 397.034 8.47089 397.15 7.94201H398.361C398.224 8.88788 397.879 9.57673 397.322 10.0126C396.769 10.4512 396.061 10.6692 395.198 10.6692C394.23 10.6692 393.456 10.3275 392.882 9.65081C392.302 8.97006 392.016 8.11836 392.016 7.09858C392.016 5.84727 392.332 4.87339 392.964 4.17914C393.596 3.48353 394.401 3.1337 395.378 3.1337Z" fill="#FAFAFA"/>
<path d="M399.936 10.4584V0.654694H401.182V4.30197C401.476 3.93864 401.742 3.6872 401.976 3.5419C402.378 3.29029 402.88 3.16373 403.479 3.16373C404.553 3.16373 405.282 3.52435 405.666 4.24679C405.874 4.6437 405.977 5.18995 405.977 5.88961V10.4584H404.695V5.96757C404.695 5.4468 404.627 5.06339 404.49 4.81988C404.264 4.43107 403.839 4.23599 403.217 4.23599C402.699 4.23599 402.23 4.40424 401.811 4.74597C401.391 5.08769 401.182 5.73351 401.182 6.67921V10.4584H399.936Z" fill="#FAFAFA"/>
<path d="M408.823 4.24294C408.177 4.95727 407.854 5.88559 407.854 7.03059C407.854 8.19161 408.176 9.0958 408.816 9.7428C409.457 10.3859 410.239 10.7074 411.161 10.7074C411.54 10.7074 411.88 10.6725 412.18 10.6038C412.737 10.4787 413.206 10.2366 413.585 9.88134C413.811 9.68221 414.013 9.41711 414.198 9.09563C414.379 8.7728 414.487 8.48086 414.519 8.22115H413.293C413.2 8.53587 413.046 8.81178 412.823 9.05395C412.435 9.46689 411.917 9.66872 411.266 9.66872C410.569 9.66872 410.056 9.45086 409.724 9.01497C409.392 8.58026 409.213 8.00041 409.19 7.27545H414.622C414.622 6.55824 414.586 6.03494 414.514 5.70671C414.428 5.22762 414.263 4.81062 414.013 4.45C413.755 4.07469 413.377 3.76655 412.885 3.53113C412.392 3.29167 411.884 3.17337 411.357 3.17337C410.314 3.17337 409.469 3.53113 408.823 4.24294ZM409.842 4.81063C410.228 4.41659 410.707 4.21611 411.28 4.21611C412.078 4.21611 412.649 4.50535 412.99 5.08384C413.176 5.39333 413.291 5.80627 413.342 6.32418H409.225C409.248 5.71211 409.454 5.20754 409.842 4.81063Z" fill="#FAFAFA"/>
<path d="M415.773 10.4546V3.33351H416.956V4.56322C417.053 4.32106 417.29 4.03047 417.669 3.68874C418.048 3.34701 418.484 3.17336 418.977 3.17336C418.922 3.16796 419 3.17336 418.977 3.17336C419.033 3.17876 419.244 3.19496 419.377 3.20711V4.47176C419.44 4.47446 419.305 4.45555 419.377 4.47176C419.314 4.46635 419.042 4.43412 418.97 4.43412C418.343 4.43412 417.86 4.6319 417.523 5.01801C417.186 5.40412 417.018 5.85351 417.018 6.36062V10.4546H415.773Z" fill="#FAFAFA"/>
<path d="M423.096 3.1337C423.93 3.1337 424.61 3.33013 425.133 3.71894C425.658 4.11045 425.972 4.78041 426.078 5.73437H424.868C424.794 5.29308 424.626 4.9311 424.362 4.64186C424.101 4.34991 423.676 4.20597 423.096 4.20597C422.301 4.20597 421.734 4.57605 421.393 5.32261C421.172 5.80306 421.062 6.40162 421.062 7.10921C421.062 7.82641 421.218 8.42498 421.532 8.91471C421.845 9.40308 422.34 9.64525 423.01 9.64525C423.528 9.64525 423.937 9.49202 424.239 9.19062C424.543 8.88518 424.75 8.47089 424.868 7.94201H426.078C425.939 8.88788 425.593 9.57673 425.04 10.0126C424.487 10.4512 423.778 10.6692 422.916 10.6692C421.948 10.6692 421.174 10.3275 420.598 9.65081C420.02 8.97006 419.732 8.11836 419.732 7.09858C419.732 5.84727 420.049 4.87339 420.679 4.17914C421.313 3.48353 422.119 3.1337 423.096 3.1337Z" fill="#FAFAFA"/>
<path d="M427.652 10.4584V0.654694H428.899V4.30197C429.195 3.93864 429.459 3.6872 429.694 3.5419C430.096 3.29029 430.596 3.16373 431.197 3.16373C432.271 3.16373 433 3.52435 433.383 4.24679C433.592 4.6437 433.695 5.18995 433.695 5.88961V10.4584H432.415V5.96757C432.415 5.4468 432.345 5.06339 432.206 4.81988C431.98 4.43107 431.557 4.23599 430.933 4.23599C430.417 4.23599 429.947 4.40424 429.527 4.74597C429.107 5.08769 428.899 5.73351 428.899 6.67921V10.4584H427.652Z" fill="#FAFAFA"/>
<path d="M436.542 4.24294C435.896 4.95727 435.572 5.88559 435.572 7.03059C435.572 8.19161 435.893 9.0958 436.534 9.7428C437.174 10.3859 437.956 10.7074 438.879 10.7074C439.258 10.7074 439.597 10.6725 439.898 10.6038C440.456 10.4787 440.925 10.2366 441.302 9.88134C441.529 9.68221 441.732 9.41711 441.917 9.09563C442.096 8.7728 442.205 8.48086 442.236 8.22115H441.012C440.919 8.53587 440.761 8.81178 440.54 9.05395C440.154 9.46689 439.634 9.66872 438.983 9.66872C438.288 9.66872 437.773 9.45086 437.441 9.01497C437.108 8.58026 436.93 8.00041 436.906 7.27545H442.34C442.34 6.55824 442.303 6.03494 442.227 5.70671C442.147 5.22762 441.98 4.81062 441.731 4.45C441.472 4.07469 441.097 3.76655 440.603 3.53113C440.11 3.29167 439.599 3.17337 439.072 3.17337C438.031 3.17337 437.187 3.53113 436.542 4.24294ZM437.559 4.81063C437.947 4.41659 438.425 4.21611 438.997 4.21611C439.796 4.21611 440.365 4.50535 440.707 5.08384C440.891 5.39333 441.009 5.80627 441.06 6.32418H436.943C436.964 5.71211 437.171 5.20754 437.559 4.81063Z" fill="#FAFAFA"/>
<path d="M442.236 8.22115L443.367 8.21118C443.404 8.61079 443.507 8.91758 443.679 9.13004C443.994 9.5148 444.536 9.70853 445.312 9.70853C445.774 9.70853 446.179 9.60897 446.531 9.41929C446.882 9.22556 447.055 8.92551 447.055 8.52067C447.055 8.21928 446.917 7.98522 446.634 7.82507C446.455 7.7282 446.1 7.61514 445.57 7.48604L444.58 7.24388C443.948 7.09723 443.481 6.92898 443.182 6.7393C442.647 6.41918 442.378 5.96979 442.378 5.39923C442.378 4.72118 442.631 4.17762 443.135 3.76197C443.641 3.34498 444.32 3.1337 445.173 3.1337C446.288 3.1337 447.096 3.45248 447.589 4.08092C447.898 4.47901 448.049 4.91102 448.039 5.37104H446.862C446.841 5.10205 446.739 4.85584 446.566 4.63241C446.279 4.31633 445.783 4.16159 445.077 4.16159C444.606 4.16159 444.25 4.249 444.008 4.41995C443.767 4.59208 443.644 4.82074 443.644 5.10205C443.644 5.41543 443.804 5.66164 444.123 5.85132C444.306 5.95899 444.58 6.05855 444.94 6.14327L445.763 6.33429C446.657 6.54287 447.257 6.7447 447.561 6.94248C448.046 7.24388 448.288 7.7282 448.288 8.38196C448.288 9.01698 448.037 9.56459 447.538 10.0261C447.036 10.4888 446.276 10.7202 445.251 10.7202C444.148 10.7202 443.367 10.478 442.907 9.99507C442.448 9.5148 442.268 8.93008 442.236 8.22115Z" fill="#FAFAFA"/>
<path d="M455.02 4.24294C454.376 4.95727 454.051 5.88559 454.051 7.03059C454.051 8.19161 454.373 9.0958 455.013 9.7428C455.654 10.3859 456.436 10.7074 457.359 10.7074C457.738 10.7074 458.077 10.6725 458.377 10.6038C458.936 10.4787 459.403 10.2366 459.782 9.88134C460.008 9.68221 460.212 9.41711 460.395 9.09563C460.576 8.7728 460.684 8.48086 460.716 8.22115H459.491C459.399 8.53587 459.241 8.81178 459.02 9.05395C458.634 9.46689 458.116 9.66872 457.463 9.66872C456.767 9.66872 456.253 9.45086 455.921 9.01497C455.588 8.58026 455.41 8.00041 455.387 7.27545H460.82C460.82 6.55824 460.783 6.03494 460.709 5.70671C460.626 5.22762 460.46 4.81062 460.21 4.45C459.954 4.07469 459.577 3.76655 459.083 3.53113C458.588 3.29167 458.079 3.17337 457.552 3.17337C456.511 3.17337 455.667 3.53113 455.02 4.24294ZM456.039 4.81063C456.425 4.41659 456.904 4.21611 457.477 4.21611C458.276 4.21611 458.844 4.50535 459.187 5.08384C459.371 5.39333 459.489 5.80627 459.54 6.32418H455.422C455.445 5.71211 455.651 5.20754 456.039 4.81063Z" fill="#FAFAFA"/>
<path d="M461.971 10.4546V3.33352H463.156V4.3452C463.505 3.92686 463.876 3.62817 464.269 3.44659C464.661 3.26231 465.096 3.17337 465.577 3.17337C466.627 3.17337 467.338 3.5259 467.708 4.2323C467.912 4.61571 468.012 5.1672 468.012 5.88576V10.4546H466.745V5.96372C466.745 5.53306 466.678 5.1834 466.544 4.91559C466.323 4.4743 465.923 4.24833 465.34 4.24833C465.047 4.24833 464.805 4.27669 464.615 4.3371C464.273 4.43396 463.974 4.62905 463.714 4.92099C463.507 5.15775 463.374 5.39856 463.31 5.65152C463.247 5.90044 463.217 6.26106 463.217 6.72649V10.4546H461.971Z" fill="#FAFAFA"/>
<path d="M308.861 24.3623H310.058C310.095 24.7619 310.198 25.0687 310.369 25.2811C310.685 25.6659 311.227 25.8596 312.003 25.8596C312.465 25.8596 312.871 25.76 313.22 25.5704C313.573 25.3766 313.747 25.0766 313.747 24.6717C313.747 24.3703 313.608 24.1363 313.324 23.9761C313.144 23.8793 312.79 23.7662 312.26 23.6371L311.269 23.395C310.637 23.2483 310.17 23.0801 309.872 22.8904C309.336 22.5702 309.069 22.1209 309.069 21.5503C309.069 20.8722 309.32 20.3289 309.826 19.913C310.332 19.4961 311.011 19.2848 311.865 19.2848C312.981 19.2848 313.787 19.6036 314.279 20.232C314.588 20.6301 314.739 21.0621 314.73 21.5221H313.552C313.531 21.2531 313.431 21.0069 313.255 20.7835C312.969 20.4674 312.474 20.3127 311.768 20.3127C311.297 20.3127 310.941 20.4001 310.699 20.571C310.456 20.7431 310.335 20.9718 310.335 21.2531C310.335 21.5665 310.493 21.8127 310.813 22.0024C310.997 22.1101 311.269 22.2096 311.629 22.2943L312.453 22.4854C313.348 22.6939 313.947 22.8958 314.252 23.0936C314.737 23.395 314.979 23.8793 314.979 24.533C314.979 25.168 314.728 25.7157 314.228 26.1772C313.727 26.6399 312.965 26.8713 311.942 26.8713C310.839 26.8713 310.058 26.6291 309.598 26.1461C309.14 25.6659 308.894 25.0712 308.861 24.3623Z" fill="#FAFAFA"/>
<path d="M318.823 19.2649C319.659 19.2649 320.338 19.4614 320.862 19.8502C321.385 20.2417 321.699 20.9117 321.806 21.8656H320.595C320.521 21.4243 320.352 21.0623 320.091 20.7731C319.828 20.4812 319.406 20.3372 318.823 20.3372C318.03 20.3372 317.463 20.7073 317.122 21.4539C316.901 21.9343 316.79 22.5329 316.79 23.2405C316.79 23.9577 316.946 24.5562 317.259 25.0459C317.573 25.5343 318.068 25.7765 318.741 25.7765C319.257 25.7765 319.668 25.6233 319.968 25.3219C320.27 25.0164 320.479 24.602 320.595 24.0733H321.806C321.668 25.0191 321.322 25.708 320.767 26.1439C320.216 26.5825 319.506 26.8005 318.644 26.8005C317.675 26.8005 316.901 26.4588 316.325 25.7821C315.749 25.1013 315.461 24.2496 315.461 23.2298C315.461 21.9785 315.775 21.0046 316.409 20.3104C317.039 19.6148 317.845 19.2649 318.823 19.2649Z" fill="#FAFAFA"/>
<path d="M323.381 18.1815V16.8254H324.648V18.1815H323.381ZM323.381 26.5956V19.5081H324.648V26.5956H323.381Z" fill="#FAFAFA"/>
<path d="M326.99 20.5355C326.343 21.2472 326.02 22.1782 326.02 23.3205C326.02 24.4829 326.342 25.3871 326.983 26.0327C327.623 26.6772 328.406 27 329.328 27C329.707 27 330.045 26.9651 330.346 26.8923C330.903 26.7686 331.372 26.5292 331.749 26.1753C331.978 25.9721 332.181 25.7099 332.364 25.3869C332.545 25.0654 332.652 24.7748 332.685 24.5138H331.46C331.367 24.8273 331.212 25.1057 330.989 25.3439C330.603 25.7543 330.083 25.9615 329.432 25.9615C328.735 25.9615 328.222 25.7435 327.89 25.3049C327.557 24.869 327.379 24.2905 327.356 23.5681H332.789C332.789 22.851 332.752 22.3275 332.678 21.9993C332.594 21.519 332.429 21.1007 332.179 20.7401C331.921 20.3621 331.544 20.058 331.052 19.8185C330.557 19.5817 330.048 19.4633 329.521 19.4633C328.478 19.4633 327.636 19.8185 326.99 20.5355ZM328.008 21.1032C328.394 20.7065 328.873 20.5074 329.446 20.5074C330.245 20.5074 330.813 20.7953 331.156 21.371C331.34 21.6846 331.458 22.0989 331.509 22.6141H327.392C327.414 22.0047 327.62 21.5001 328.008 21.1032Z" fill="#FAFAFA"/>
<path d="M335.26 26.5858V19.4648H336.443V20.4764C336.793 20.0581 337.163 19.7594 337.556 19.5778C337.95 19.3935 338.385 19.3046 338.866 19.3046C339.916 19.3046 340.627 19.6571 340.996 20.3635C341.199 20.747 341.299 21.2984 341.299 22.017V26.5858H340.034V22.095C340.034 21.6645 339.967 21.3146 339.833 21.0468C339.612 20.6055 339.21 20.3796 338.631 20.3796C338.334 20.3796 338.092 20.4079 337.902 20.4683C337.562 20.5652 337.26 20.7603 337.003 21.0522C336.796 21.289 336.659 21.5298 336.598 21.7828C336.536 22.0317 336.505 22.3923 336.505 22.8577V26.5858H335.26Z" fill="#FAFAFA"/>
<path d="M345.221 19.2649C346.055 19.2649 346.735 19.4614 347.258 19.8502C347.783 20.2417 348.097 20.9117 348.203 21.8656H346.993C346.919 21.4243 346.751 21.0623 346.489 20.7731C346.226 20.4812 345.801 20.3372 345.221 20.3372C344.428 20.3372 343.859 20.7073 343.52 21.4539C343.297 21.9343 343.186 22.5329 343.186 23.2405C343.186 23.9577 343.345 24.5562 343.657 25.0459C343.97 25.5343 344.465 25.7765 345.137 25.7765C345.653 25.7765 346.064 25.6233 346.366 25.3219C346.67 25.0164 346.877 24.602 346.993 24.0733H348.203C348.066 25.0191 347.72 25.708 347.165 26.1439C346.614 26.5825 345.904 26.8005 345.042 26.8005C344.073 26.8005 343.299 26.4588 342.723 25.7821C342.147 25.1013 341.857 24.2496 341.857 23.2298C341.857 21.9785 342.173 21.0046 342.805 20.3104C343.438 19.6148 344.243 19.2649 345.221 19.2649Z" fill="#FAFAFA"/>
<path d="M350.746 20.3742C350.1 21.0885 349.777 22.0168 349.777 23.1618C349.777 24.3229 350.098 25.227 350.739 25.874C351.38 26.5172 352.163 26.8386 353.083 26.8386C353.464 26.8386 353.803 26.8037 354.103 26.735C354.66 26.61 355.128 26.3678 355.508 26.0126C355.734 25.8135 355.938 25.5483 356.12 25.2269C356.301 24.904 356.408 24.6121 356.442 24.3524H355.216C355.123 24.6671 354.969 24.943 354.747 25.1852C354.359 25.5981 353.84 25.8 353.188 25.8C352.493 25.8 351.979 25.5821 351.647 25.1462C351.315 24.7115 351.136 24.1316 351.113 23.4067H356.545C356.545 22.6895 356.508 22.1662 356.435 21.838C356.35 21.3589 356.185 20.9419 355.934 20.5812C355.678 20.2059 355.302 19.8978 354.809 19.6624C354.314 19.4229 353.805 19.3046 353.28 19.3046C352.235 19.3046 351.392 19.6624 350.746 20.3742ZM351.764 20.9419C352.151 20.5478 352.63 20.3473 353.202 20.3473C354.001 20.3473 354.572 20.6366 354.912 21.2151C355.097 21.5244 355.214 21.9375 355.265 22.4554H351.148C351.171 21.8434 351.376 21.3388 351.764 20.9419Z" fill="#FAFAFA"/>
<path d="M356.443 24.3524L357.575 24.3623C357.612 24.7619 357.715 25.0687 357.886 25.2811C358.198 25.6659 358.742 25.8596 359.52 25.8596C359.98 25.8596 360.386 25.76 360.737 25.5704C361.088 25.3766 361.262 25.0766 361.262 24.6717C361.262 24.3703 361.123 24.1363 360.841 23.9761C360.661 23.8793 360.305 23.7662 359.775 23.6371L358.785 23.395C358.154 23.2483 357.687 23.0801 357.387 22.8904C356.853 22.5702 356.585 22.1209 356.585 21.5503C356.585 20.8722 356.837 20.3289 357.343 19.913C357.847 19.4961 358.528 19.2848 359.38 19.2848C360.496 19.2848 361.302 19.6036 361.796 20.232C362.105 20.6301 362.256 21.0621 362.245 21.5221H361.069C361.048 21.2531 360.946 21.0069 360.77 20.7835C360.486 20.4674 359.991 20.3127 359.283 20.3127C358.813 20.3127 358.458 20.4001 358.214 20.571C357.972 20.7431 357.852 20.9718 357.852 21.2531C357.852 21.5665 358.01 21.8127 358.328 22.0024C358.512 22.1101 358.785 22.2096 359.145 22.2943L359.968 22.4854C360.863 22.6939 361.462 22.8958 361.768 23.0936C362.252 23.395 362.494 23.8793 362.494 24.533C362.494 25.168 362.243 25.7157 361.745 26.1772C361.243 26.6399 360.481 26.8713 359.457 26.8713C358.354 26.8713 357.573 26.6291 357.115 26.1461C356.657 25.6659 356.474 25.0613 356.443 24.3524Z" fill="#FAFAFA"/>
<path d="M368.258 26.5895V16.7858H369.503V20.433C369.798 20.0697 370.063 19.8183 370.3 19.673C370.7 19.4214 371.2 19.2948 371.801 19.2948C372.875 19.2948 373.604 19.6554 373.988 20.3778C374.196 20.7748 374.297 21.321 374.297 22.0207V26.5895H373.017V22.0986C373.017 21.5779 372.949 21.1945 372.81 20.9509C372.584 20.5621 372.161 20.3671 371.539 20.3671C371.019 20.3671 370.552 20.5353 370.133 20.877C369.713 21.2188 369.503 21.8644 369.503 22.8103V26.5895H368.258Z" fill="#FAFAFA"/>
<path d="M376.176 19.4633H377.449V24.1909C377.449 24.5556 377.509 24.8528 377.63 25.0816C377.851 25.5067 378.264 25.722 378.868 25.722C379.735 25.722 380.327 25.3493 380.641 24.6027C380.811 24.2058 380.896 23.6568 380.896 22.9585V19.4633H382.142V26.5844H380.964L380.98 25.5364C380.818 25.8067 380.618 26.0356 380.378 26.2199C379.9 26.5925 379.324 26.7794 378.647 26.7794C377.591 26.7794 376.872 26.4404 376.489 25.7597C376.28 25.3965 376.176 24.9135 376.176 24.304V19.4633Z" fill="#FAFAFA"/>
<path d="M384.096 26.5858V19.4648H385.328V20.4764C385.621 20.1241 385.89 19.8698 386.131 19.7123C386.541 19.4393 387.007 19.3046 387.528 19.3046C388.118 19.3046 388.594 19.4433 388.952 19.7245C389.157 19.8833 389.34 20.116 389.507 20.4294C389.783 20.0487 390.109 19.7648 390.483 19.5778C390.857 19.3935 391.277 19.3046 391.742 19.3046C392.737 19.3046 393.417 19.6517 393.777 20.3419C393.97 20.7159 394.068 21.2151 394.068 21.8433V26.5858H392.774V21.6402C392.774 21.1653 392.65 20.8398 392.402 20.6607C392.154 20.4818 391.856 20.3944 391.5 20.3944C391.01 20.3944 390.59 20.5532 390.237 20.868C389.884 21.1828 389.707 21.7089 389.707 22.4448V26.5858H388.441V21.9375C388.441 21.4572 388.381 21.102 388.262 20.8788C388.072 20.5477 387.72 20.3796 387.202 20.3796C386.731 20.3796 386.304 20.5585 385.918 20.9069C385.534 21.2568 385.341 21.8931 385.341 22.8066V26.5858H384.096Z" fill="#FAFAFA"/>
<path d="M396.619 23.1964C396.191 23.5584 395.975 24.0709 395.975 24.7329C395.975 25.3328 396.194 25.8374 396.63 26.2384C397.065 26.638 397.627 26.841 398.315 26.841C398.888 26.841 399.409 26.7227 399.887 26.4859C400.361 26.2517 400.726 25.976 400.979 25.6558C401.019 25.9397 401.093 26.1602 401.193 26.3123C401.386 26.6069 401.699 26.7536 402.127 26.7536C402.304 26.7536 402.441 26.7482 402.543 26.7335C402.645 26.72 402.791 26.6878 402.986 26.6326V25.7473C403.056 25.7419 402.907 25.7635 402.986 25.7473C402.917 25.7547 402.633 25.7893 402.576 25.7893C402.408 25.7893 402.296 25.753 402.241 25.6749C402.188 25.601 402.162 25.5014 402.162 25.3777V21.273C402.162 20.6001 401.893 20.1038 401.353 19.7835C400.807 19.4621 400.101 19.3046 399.227 19.3046C398.475 19.3046 397.817 19.4754 397.244 19.8198C396.676 20.1642 396.381 20.7738 396.356 21.6535H397.52C397.566 21.2863 397.666 21.0051 397.817 20.8207C398.089 20.4844 398.551 20.3163 399.2 20.3163C399.764 20.3163 400.196 20.4078 400.499 20.5893C400.801 20.7763 400.952 21.0737 400.952 21.48C400.952 21.6778 400.924 21.8325 400.868 21.9373C400.772 22.1324 400.578 22.2509 400.294 22.2818L398.307 22.5239C397.611 22.6075 397.049 22.8304 396.619 23.1964ZM397.852 23.7064C398.078 23.5825 398.417 23.4924 398.868 23.4345L399.623 23.3404C399.853 23.3149 400.089 23.2691 400.331 23.2072C400.568 23.1466 400.765 23.0673 400.917 22.9732V23.9391C400.917 24.675 400.57 25.2037 399.88 25.5293C399.467 25.7243 399.044 25.8239 398.605 25.8239C398.245 25.8239 397.934 25.7244 397.671 25.5212C397.409 25.3247 397.278 25.0517 397.278 24.7046C397.278 24.2498 397.469 23.9135 397.852 23.7064Z" fill="#FAFAFA"/>
<path d="M403.895 18.1815V16.8254H405.162V18.1815H403.895ZM403.895 26.5956V19.5081H405.162V26.5956H403.895Z" fill="#FAFAFA"/>
<path d="M406.533 26.5858V19.4648H407.718V20.4764C408.068 20.0581 408.44 19.7594 408.832 19.5778C409.223 19.3935 409.66 19.3046 410.138 19.3046C411.189 19.3046 411.901 19.6571 412.269 20.3635C412.473 20.747 412.576 21.2984 412.576 22.017V26.5858H411.307V22.095C411.307 21.6645 411.242 21.3146 411.107 21.0468C410.886 20.6055 410.485 20.3796 409.904 20.3796C409.609 20.3796 409.367 20.4079 409.176 20.4683C408.835 20.5652 408.535 20.7603 408.277 21.0522C408.07 21.289 407.934 21.5298 407.873 21.7828C407.81 22.0317 407.778 22.3923 407.778 22.8577V26.5858H406.533Z" fill="#FAFAFA"/>
<path d="M415.422 20.3742C414.776 21.0885 414.453 22.0168 414.453 23.1618C414.453 24.3229 414.774 25.227 415.417 25.874C416.056 26.5172 416.837 26.8386 417.762 26.8386C418.14 26.8386 418.479 26.8037 418.779 26.735C419.337 26.61 419.804 26.3678 420.183 26.0126C420.408 25.8135 420.614 25.5483 420.796 25.2269C420.975 24.904 421.086 24.6121 421.117 24.3524H419.892C419.801 24.6671 419.643 24.943 419.422 25.1852C419.035 25.5981 418.516 25.8 417.866 25.8C417.169 25.8 416.654 25.5821 416.323 25.1462C415.991 24.7115 415.813 24.1316 415.787 23.4067H421.221C421.221 22.6895 421.184 22.1662 421.11 21.838C421.028 21.3589 420.859 20.9419 420.614 20.5812C420.354 20.2059 419.978 19.8978 419.485 19.6624C418.991 19.4229 418.48 19.3046 417.955 19.3046C416.911 19.3046 416.068 19.6624 415.422 20.3742ZM416.44 20.9419C416.827 20.5478 417.306 20.3473 417.88 20.3473C418.677 20.3473 419.246 20.6366 419.588 21.2151C419.773 21.5244 419.89 21.9375 419.939 22.4554H415.824C415.847 21.8434 416.052 21.3388 416.44 20.9419Z" fill="#FAFAFA"/>
<path d="M422.373 24.3623H423.571C423.608 24.7619 423.711 25.0687 423.882 25.2811C424.196 25.6659 424.738 25.8596 425.516 25.8596C425.976 25.8596 426.382 25.76 426.733 25.5704C427.084 25.3766 427.258 25.0766 427.258 24.6717C427.258 24.3703 427.119 24.1363 426.836 23.9761C426.657 23.8793 426.303 23.7662 425.772 23.6371L424.782 23.395C424.15 23.2483 423.683 23.0801 423.385 22.8904C422.849 22.5702 422.581 22.1209 422.581 21.5503C422.581 20.8722 422.832 20.3289 423.337 19.913C423.845 19.4961 424.524 19.2848 425.376 19.2848C426.492 19.2848 427.298 19.6036 427.791 20.232C428.1 20.6301 428.251 21.0621 428.241 21.5221H427.065C427.044 21.2531 426.943 21.0069 426.768 20.7835C426.482 20.4674 425.987 20.3127 425.279 20.3127C424.809 20.3127 424.452 20.4001 424.21 20.571C423.969 20.7431 423.848 20.9718 423.848 21.2531C423.848 21.5665 424.006 21.8127 424.324 22.0024C424.51 22.1101 424.782 22.2096 425.14 22.2943L425.964 22.4854C426.859 22.6939 427.46 22.8958 427.763 23.0936C428.248 23.395 428.49 23.8793 428.49 24.533C428.49 25.168 428.239 25.7157 427.741 26.1772C427.238 26.6399 426.478 26.8713 425.453 26.8713C424.35 26.8713 423.569 26.6291 423.109 26.1461C422.651 25.6659 422.405 25.0712 422.373 24.3623Z" fill="#FAFAFA"/>
<path d="M433.761 20.4828C433.209 21.2415 432.934 22.1403 432.934 23.1763C432.934 24.2849 433.236 25.1755 433.84 25.8428C434.444 26.51 435.16 26.8425 435.987 26.8425C436.498 26.8425 436.951 26.7468 437.348 26.5505C437.746 26.3555 438.088 26.0406 438.38 25.602V26.5895H439.502V16.7858H438.303V20.3833C438.023 20.0549 437.771 19.8181 437.549 19.6863C437.167 19.4576 436.693 19.3419 436.122 19.3419C435.1 19.3419 434.31 19.7212 433.761 20.4828ZM434.833 21.0762C435.223 20.6146 435.732 20.3833 436.359 20.3833C436.921 20.3833 437.395 20.6013 437.776 21.0345C438.16 21.465 438.352 22.1336 438.352 23.0337C438.352 23.9256 438.166 24.605 437.795 25.0841C437.423 25.5616 436.949 25.7984 436.373 25.7984C435.63 25.7984 435.09 25.5414 434.753 25.0262C434.417 24.5135 434.249 23.8746 434.249 23.113C434.249 22.2169 434.444 21.5389 434.833 21.0762Z" fill="#FAFAFA"/>
<path d="M442.172 19.4633H443.447V24.1909C443.447 24.5556 443.506 24.8528 443.626 25.0816C443.847 25.5067 444.26 25.722 444.864 25.722C445.731 25.722 446.323 25.3493 446.635 24.6027C446.807 24.2058 446.893 23.6568 446.893 22.9585V19.4633H448.138V26.5844H446.962L446.974 25.5364C446.814 25.8067 446.612 26.0356 446.374 26.2199C445.898 26.5925 445.322 26.7794 444.642 26.7794C443.585 26.7794 442.867 26.4404 442.485 25.7597C442.277 25.3965 442.172 24.9135 442.172 24.304V19.4633Z" fill="#FAFAFA"/>
<path d="M457.469 16.5479C458.758 16.5479 459.757 16.8735 460.468 17.526C461.177 18.1772 461.572 18.9186 461.649 19.7485H460.308C460.155 19.1148 459.852 18.6184 459.399 18.2485C458.944 17.8824 458.306 17.6995 457.485 17.6995C456.482 17.6995 455.675 18.0372 455.058 18.7125C454.442 19.3879 454.133 20.4266 454.133 21.8217C454.133 22.968 454.414 23.8923 454.967 24.6039C455.524 25.3171 456.354 25.6735 457.455 25.6735C458.472 25.6735 459.244 25.2982 459.774 24.5487C460.057 24.1545 460.266 23.6353 460.405 22.9935H461.748C461.627 24.0214 461.23 24.885 460.556 25.5793C459.75 26.4202 458.661 26.8358 457.29 26.8358C456.108 26.8358 455.116 26.4941 454.314 25.808C453.257 24.8959 452.73 23.4952 452.73 21.5955C452.73 20.1534 453.127 18.9707 453.921 18.0505C454.779 17.0469 455.961 16.5479 457.469 16.5479Z" fill="#FAFAFA"/>
<path d="M463.933 23.1964C463.503 23.5584 463.291 24.0709 463.291 24.7329C463.291 25.3328 463.508 25.8374 463.944 26.2384C464.378 26.638 464.943 26.841 465.629 26.841C466.2 26.841 466.725 26.7227 467.201 26.4859C467.675 26.2517 468.038 25.976 468.293 25.6558C468.335 25.9397 468.405 26.1602 468.507 26.3123C468.7 26.6069 469.013 26.7536 469.441 26.7536C469.617 26.7536 469.755 26.7482 469.857 26.7335C469.959 26.72 470.106 26.6878 470.301 26.6326V25.7473C470.368 25.7419 470.221 25.7635 470.301 25.7473C470.231 25.7547 469.948 25.7893 469.892 25.7893C469.722 25.7893 469.61 25.753 469.557 25.6749C469.502 25.601 469.476 25.5014 469.476 25.3777V21.273C469.476 20.6001 469.206 20.1038 468.667 19.7835C468.121 19.4621 467.413 19.3046 466.541 19.3046C465.789 19.3046 465.129 19.4754 464.558 19.8198C463.991 20.1642 463.693 20.7738 463.67 21.6535H464.832C464.88 21.2863 464.98 21.0051 465.131 20.8207C465.403 20.4844 465.865 20.3163 466.514 20.3163C467.078 20.3163 467.51 20.4078 467.812 20.5893C468.114 20.7763 468.266 21.0737 468.266 21.48C468.266 21.6778 468.238 21.8325 468.182 21.9373C468.087 22.1324 467.894 22.2509 467.61 22.2818L465.622 22.5239C464.925 22.6075 464.363 22.8304 463.933 23.1964ZM465.166 23.7064C465.392 23.5825 465.731 23.4924 466.182 23.4345L466.936 23.3404C467.167 23.3149 467.403 23.2691 467.643 23.2072C467.882 23.1466 468.079 23.0673 468.23 22.9732V23.9391C468.23 24.675 467.885 25.2037 467.192 25.5293C466.781 25.7243 466.358 25.8239 465.919 25.8239C465.559 25.8239 465.248 25.7244 464.985 25.5212C464.722 25.3247 464.592 25.0517 464.592 24.7046C464.592 24.2498 464.781 23.9135 465.166 23.7064Z" fill="#FAFAFA"/>
<path d="M471.211 26.5858V19.4648H472.396V20.4764C472.746 20.0581 473.116 19.7594 473.51 19.5778C473.901 19.3935 474.335 19.3046 474.817 19.3046C475.867 19.3046 476.578 19.6571 476.949 20.3635C477.151 20.747 477.253 21.2984 477.253 22.017V26.5858H475.985V22.095C475.985 21.6645 475.918 21.3146 475.785 21.0468C475.564 20.6055 475.163 20.3796 474.582 20.3796C474.287 20.3796 474.043 20.4079 473.855 20.4683C473.513 20.5652 473.214 20.7603 472.955 21.0522C472.747 21.289 472.612 21.5298 472.549 21.7828C472.488 22.0317 472.458 22.3923 472.458 22.8577V26.5858H471.211Z" fill="#FAFAFA"/>
<path d="M479.775 23.1964C479.345 23.5584 479.131 24.0709 479.131 24.7329C479.131 25.3328 479.348 25.8374 479.786 26.2384C480.221 26.638 480.781 26.841 481.471 26.841C482.042 26.841 482.565 26.7227 483.041 26.4859C483.515 26.2517 483.88 25.976 484.135 25.6558C484.175 25.9397 484.247 26.1602 484.349 26.3123C484.542 26.6069 484.854 26.7536 485.281 26.7536C485.457 26.7536 485.597 26.7482 485.697 26.7335C485.799 26.72 485.946 26.6878 486.141 26.6326V25.7473C486.062 25.7635 485.987 25.7743 485.918 25.7797C485.973 25.7797 485.85 25.7871 485.918 25.7797C485.746 25.7797 485.45 25.753 485.395 25.6749C485.342 25.601 485.318 25.5014 485.318 25.3777V21.273C485.318 20.6001 485.046 20.1038 484.508 19.7835C483.962 19.4621 483.255 19.3046 482.382 19.3046C481.631 19.3046 480.969 19.4754 480.4 19.8198C479.831 20.1642 479.535 20.7738 479.51 21.6535H480.674C480.72 21.2863 480.82 21.0051 480.971 20.8207C481.243 20.4844 481.705 20.3163 482.354 20.3163C482.92 20.3163 483.35 20.4078 483.652 20.5893C483.955 20.7763 484.105 21.0737 484.105 21.48C484.105 21.6778 484.078 21.8325 484.024 21.9373C483.927 22.1324 483.734 22.2509 483.45 22.2818L481.464 22.5239C480.767 22.6075 480.202 22.8304 479.775 23.1964ZM481.008 23.7064C481.232 23.5825 481.571 23.4924 482.022 23.4345L482.776 23.3404C483.007 23.3149 483.244 23.2691 483.483 23.2072C483.722 23.1466 483.92 23.0673 484.073 22.9732V23.9391C484.073 24.675 483.725 25.2037 483.034 25.5293C482.623 25.7243 482.198 25.8239 481.761 25.8239C481.401 25.8239 481.088 25.7244 480.827 25.5212C480.563 25.3247 480.43 25.0517 480.43 24.7046C480.43 24.2498 480.621 23.9135 481.008 23.7064Z" fill="#FAFAFA"/>
<path d="M487.878 20.4828C487.325 21.2415 487.049 22.1403 487.049 23.1763C487.049 24.2849 487.353 25.1755 487.957 25.8428C488.561 26.51 489.276 26.8425 490.101 26.8425C490.615 26.8425 491.068 26.7468 491.465 26.5505C491.86 26.3555 492.204 26.0406 492.495 25.602V26.5895H493.617V16.7858H492.42V20.3833C492.139 20.0549 491.888 19.8181 491.667 19.6863C491.282 19.4576 490.808 19.3419 490.239 19.3419C489.216 19.3419 488.427 19.7212 487.878 20.4828ZM488.951 21.0762C489.339 20.6146 489.85 20.3833 490.475 20.3833C491.036 20.3833 491.511 20.6013 491.895 21.0345C492.276 21.465 492.467 22.1336 492.467 23.0337C492.467 23.9256 492.281 24.605 491.911 25.0841C491.54 25.5616 491.066 25.7984 490.49 25.7984C489.748 25.7984 489.207 25.5414 488.87 25.0262C488.533 24.5135 488.364 23.8746 488.364 23.113C488.364 22.2169 488.559 21.5389 488.951 21.0762Z" fill="#FAFAFA"/>
<path d="M495.613 23.1964C495.183 23.5584 494.969 24.0709 494.969 24.7329C494.969 25.3328 495.186 25.8374 495.622 26.2384C496.059 26.638 496.619 26.841 497.307 26.841C497.88 26.841 498.405 26.7227 498.879 26.4859C499.353 26.2517 499.718 25.976 499.973 25.6558C500.015 25.9397 500.083 26.1602 500.187 26.3123C500.38 26.6069 500.691 26.7536 501.121 26.7536C501.296 26.7536 501.435 26.7482 501.535 26.7335C501.635 26.72 501.784 26.6878 501.978 26.6326V25.7473C502.048 25.7419 501.9 25.7635 501.978 25.7473C501.909 25.7547 501.625 25.7893 501.57 25.7893C501.398 25.7893 501.288 25.753 501.235 25.6749C501.18 25.601 501.156 25.5014 501.156 25.3777V21.273C501.156 20.6001 500.884 20.1038 500.345 19.7835C499.8 19.4621 499.093 19.3046 498.222 19.3046C497.469 19.3046 496.807 19.4754 496.238 19.8198C495.669 20.1642 495.373 20.7738 495.348 21.6535H496.512C496.556 21.2863 496.658 21.0051 496.809 20.8207C497.081 20.4844 497.543 20.3163 498.192 20.3163C498.756 20.3163 499.188 20.4078 499.49 20.5893C499.793 20.7763 499.944 21.0737 499.944 21.48C499.944 21.6778 499.916 21.8325 499.862 21.9373C499.764 22.1324 499.572 22.2509 499.288 22.2818L497.302 22.5239C496.603 22.6075 496.041 22.8304 495.613 23.1964ZM496.844 23.7064C497.07 23.5825 497.411 23.4924 497.86 23.4345L498.615 23.3404C498.847 23.3149 499.081 23.2691 499.321 23.2072C499.56 23.1466 499.757 23.0673 499.909 22.9732V23.9391C499.909 24.675 499.565 25.2037 498.872 25.5293C498.461 25.7243 498.036 25.8239 497.597 25.8239C497.239 25.8239 496.926 25.7244 496.665 25.5212C496.401 25.3247 496.27 25.0517 496.27 24.7046C496.27 24.2498 496.461 23.9135 496.844 23.7064Z" fill="#FAFAFA"/>
<path d="M614.964 14.8949C614.992 15.9537 614.964 23.5821 614.964 23.5821C614.964 23.5821 614.545 25.6419 613.027 26.0737C612.512 26.2177 612.491 26.5272 613.027 26.5272H620.474C621.009 26.5272 620.988 26.2177 620.474 26.0737C618.953 25.6419 618.537 23.5821 618.537 23.5821V14.4564C618.537 12.1907 616.722 10.0394 612.552 10.0394C608.382 10.0394 607.277 11.7884 607.131 11.9888C606.98 12.1907 606.862 12.0172 606.862 12.0172C606.862 12.0172 606.475 10.5561 606.388 10.2723C606.296 9.98707 606.149 10.0396 606.149 10.0396L601.027 10.7566C601.027 10.7566 599.982 10.9301 601.027 11.245C601.027 11.245 603.32 12.3334 603.289 13.9936C603.269 15.0524 603.289 23.5822 603.289 23.5822C603.289 23.5822 602.873 25.642 601.354 26.0739C600.839 26.2178 600.817 26.5273 601.354 26.5273H608.8C609.334 26.5273 609.314 26.2178 608.8 26.0739C607.278 25.642 606.862 23.5822 606.862 23.5822V14.9086C606.862 14.9086 607.339 11.1321 611.302 11.1321C611.302 11.1321 614.854 11.0458 614.964 14.8949Z" fill="#FAFAFA"/>
<path d="M660.286 0.436462H656V8.67959H660.286V0.436462Z" fill="#F10909"/>
<path d="M673.486 0.436462H669.197V8.67959H673.486V0.436462Z" fill="#F10909"/>
<path d="M664.611 1.38834C664.994 3.19924 665.774 2.24662 665.774 2.24662L665.505 3.79257C665.415 4.28095 665.863 3.90817 665.863 3.90817L666.52 3.2799C666.371 4.30778 667.652 3.67951 667.652 3.67951C666.936 4.88087 667.828 4.79346 667.828 4.79346L666.371 5.9425C666.371 5.96798 666.132 6.22635 666.132 6.22635L666.52 6.82779L664.701 6.39847L664.792 8.02779H664.315L664.404 6.39847L662.708 6.7699L662.975 6.22635C662.975 6.22635 662.736 5.96798 662.736 5.9425L661.277 4.79346C661.277 4.79346 662.171 4.71009 661.397 3.62163C661.397 3.62163 662.675 4.2526 662.587 3.2799L663.242 3.90817C663.242 3.90817 663.69 4.28095 663.6 3.79257L663.331 2.24662C663.331 2.24662 664.26 3.10642 664.611 1.38834Z" fill="#F10909"/>
<path d="M581.016 0.181814L581.671 9.57129C581.671 9.57129 581.496 10.8292 580.899 9.45552C580.302 8.08068 578.16 0.35259 572.201 1.09933C566.244 1.84336 563.566 6.53608 563.566 14.0931C563.566 21.65 566.96 25.6001 572.796 25.6001C578.634 25.6001 580.6 22.2231 581.671 19.0171C581.671 19.0171 582.089 17.6987 582.033 18.9592C582.033 18.9592 581.966 27.092 571.427 26.9737C561.059 26.8581 558.324 17.5279 558.324 14.0352C558.324 10.5426 559.753 0.983564 572.38 0.0108658C572.38 0.0108658 575.923 0.0660481 578.574 1.44376C578.574 1.44376 579.41 1.90108 579.826 1.2701C580.242 0.639133 580.36 0.410472 580.36 0.410472C580.36 0.410472 580.66 -0.333561 581.016 0.181814Z" fill="#FAFAFA"/>
<path d="M651.226 18.4518C651.233 15.1341 651.551 10.2961 645.996 10.8167C642.29 11.1624 640.833 16.4107 641.623 20.0473C642.276 23.0582 643.672 26.4325 647.538 25.8513C651.815 25.2082 651.221 20.7483 651.226 18.4518ZM650.873 25.3899C647.016 27.6811 641.932 27.1524 639.277 23.4418C636.471 19.5159 636.972 14.183 641.164 11.4208C644.195 9.42156 648.475 9.1848 650.852 11.3494C650.852 11.3494 651.211 11.7222 651.211 11.2082V3.42252C651.211 3.42252 650.705 1.13 648.412 1.13C648.412 1.13 647.815 0.930867 648.352 0.673855L653.951 0.100767C653.951 0.100767 654.783 0.0455831 654.783 0.58644V22.8873C654.783 22.8873 655.289 25.6333 657.345 25.6333C657.345 25.6333 658.119 25.6911 657.317 26.0935L651.806 26.7796C651.806 26.7796 651.388 26.9531 651.388 26.4352L651.272 25.5754C651.272 25.5754 651.437 25.0563 650.873 25.3899Z" fill="#FAFAFA"/>
<path d="M591.845 17.6555C589.28 18.853 585.739 19.9965 585.782 23.15C585.811 25.2434 588.446 26.5026 590.489 25.2233C591.711 24.4551 592.108 23.1756 592.203 21.9204V17.9704C592.203 17.9704 592.263 17.5102 591.845 17.6555ZM599.052 25.1803C599.052 25.1803 600.304 24.1537 599.498 25.3283L598.992 25.9014C597.138 27.1311 593.887 26.792 592.589 25.3537C592.289 24.926 591.959 25.265 591.959 25.265C590.233 26.7207 587.772 27.0045 585.408 26.3683C583.426 25.8355 581.902 24.1875 582.101 22.2353C582.538 18.0096 587.51 18.5302 590.646 17.4054C591.49 17.1013 592.084 15.9471 592.115 14.7644C592.159 13.1984 591.662 10.7135 589.136 10.6867C586.934 10.661 586.91 12.8312 585.717 14.042C585.18 14.5855 583.431 14.5437 582.996 13.4714C582.729 12.8231 582.792 11.7844 583.79 11.0417C586.446 9.05732 595.785 9.50942 595.785 13.1673C595.785 18.2462 595.744 19.944 595.786 24.2977C595.797 25.3834 596.643 25.7198 597.591 25.7333C598.093 25.7409 598.797 25.3593 599.263 25.066" fill="#FAFAFA"/>
<path d="M630.121 17.6555C627.556 18.853 624.015 19.9965 624.057 23.15C624.087 25.2434 626.722 26.5026 628.769 25.2233C629.99 24.4551 630.385 23.1756 630.479 21.9204L630.478 17.9704C630.478 17.9704 630.537 17.5102 630.121 17.6555ZM637.327 25.1803C637.327 25.1803 638.578 24.1537 637.773 25.3283L637.269 25.9014C635.415 27.1311 632.163 26.792 630.866 25.3537C630.567 24.926 630.237 25.265 630.237 25.265C628.51 26.7207 626.046 27.0045 623.685 26.3683C621.703 25.8355 620.177 24.1875 620.379 22.2353C620.812 18.0096 625.785 18.5302 628.92 17.4054C629.768 17.1013 630.358 15.9471 630.392 14.7644C630.432 13.1984 629.94 10.7135 627.41 10.6867C625.209 10.661 625.188 12.8312 623.994 14.042C623.458 14.5855 621.708 14.5437 621.271 13.4714C621.006 12.8231 621.067 11.7844 622.068 11.0417C624.719 9.05732 634.061 9.50942 634.061 13.1673C634.061 18.2462 634.022 19.944 634.063 24.2977C634.073 25.3834 634.92 25.7198 635.868 25.7333C636.368 25.7409 637.072 25.3593 637.541 25.066" fill="#FAFAFA"/>
<path d="M667.079 17.6555C664.512 18.853 660.973 19.9965 661.015 23.15C661.044 25.2434 663.68 26.5026 665.723 25.2233C666.945 24.4551 667.342 23.1756 667.435 21.9204L667.434 17.9704C667.434 17.9704 667.495 17.5102 667.079 17.6555ZM674.284 25.1803C674.284 25.1803 675.534 24.1537 674.73 25.3283L674.226 25.9014C672.371 27.1311 669.119 26.792 667.822 25.3537C667.525 24.926 667.193 25.265 667.193 25.265C665.467 26.7207 663.004 27.0045 660.642 26.3683C658.66 25.8355 657.135 24.1875 657.336 22.2353C657.77 18.0096 662.742 18.5302 665.88 17.4054C666.724 17.1013 667.316 15.9471 667.349 14.7644C667.393 13.1984 666.896 10.7135 664.368 10.6867C662.165 10.661 662.144 12.8312 660.948 14.042C660.412 14.5855 658.664 14.5437 658.228 13.4714C657.963 12.8231 658.025 11.7844 659.024 11.0417C661.678 9.05732 671.019 9.50942 671.019 13.1673C671.019 18.2462 670.98 19.944 671.022 24.2977C671.031 25.3834 671.875 25.7198 672.825 25.7333C673.326 25.7409 674.032 25.3593 674.499 25.066" fill="#FAFAFA"/>
</svg>
