<svg width="675" height="27" viewBox="0 0 675 27" fill="none" xmlns="http://www.w3.org/2000/svg">
<path d="M28.021 24.3856C28.021 24.3856 27.8377 20.0495 27.8377 19.6136C27.8377 19.1817 28.2169 19.0351 28.6676 19.1292C29.1169 19.2248 33.3343 20.0495 33.3343 20.0495C33.3343 20.0495 33.011 19.1696 32.787 18.5197C32.5616 17.8741 32.8571 17.7529 33.011 17.6157C33.1664 17.4825 37.7239 13.6952 37.7239 13.6952L36.9791 13.3467C36.5284 13.1435 36.5999 12.779 36.6698 12.5315C36.7398 12.292 37.49 9.76137 37.49 9.76137C37.49 9.76137 35.5249 10.1851 35.0643 10.2511C34.699 10.3061 34.5717 10.1461 34.4597 9.90127C34.3477 9.65641 33.869 8.55056 33.869 8.55056C33.869 8.55056 31.46 11.1123 31.4083 11.1607C30.9449 11.5615 30.4942 11.2548 30.5796 10.7812C30.6565 10.348 31.817 5.22611 31.817 5.22611C31.817 5.22611 30.5362 5.95664 30.1148 6.19881C29.6934 6.44367 29.4682 6.40064 29.2428 6.00643C29.0189 5.61492 27.44 2.57836 27.44 2.57836C27.44 2.57836 25.8639 5.61492 25.64 6.00643C25.4148 6.40064 25.1894 6.44367 24.768 6.19881C24.3468 5.95664 23.0674 5.22611 23.0674 5.22611C23.0674 5.22611 24.2278 10.348 24.3047 10.7812C24.3887 11.2548 23.9381 11.5615 23.4747 11.1607C23.4229 11.1123 21.0153 8.55056 21.0153 8.55056C21.0153 8.55056 20.5366 9.65641 20.4233 9.90127C20.3113 10.1461 20.1852 10.3063 19.8185 10.2511C19.3593 10.1851 17.3129 9.76137 17.3129 9.76137C17.3129 9.76137 18.143 12.292 18.2144 12.5315C18.2829 12.779 18.3544 13.1435 17.9037 13.3467L17.1589 13.6952C17.1589 13.6952 21.7164 17.4824 21.8718 17.6157C22.0257 17.7529 22.3226 17.8741 22.0958 18.5197C21.8718 19.1696 21.5485 20.0495 21.5485 20.0495C21.5485 20.0495 25.7659 19.2248 26.2166 19.1292C26.6659 19.0351 27.0465 19.1817 27.0465 19.6136C27.0465 20.0495 26.8632 24.3856 26.8632 24.3856H28.021Z" fill="#2E161C"/>
<path d="M54.3089 0.357098H40.9174V26.7688H54.3089V0.357098Z" fill="#2E161C"/>
<path d="M13.3915 0.337259H0V26.7473H13.3915V0.337259Z" fill="#2E161C"/>
<path d="M77.8755 7.28823H79.1703C79.2024 7.84258 79.3382 8.29181 79.5776 8.63893C80.0354 9.2861 80.8402 9.60893 81.9935 9.60893C82.5099 9.60893 82.9802 9.53772 83.4058 9.39647C84.2261 9.12326 84.6362 8.6283 84.6362 7.91919C84.6362 7.38779 84.464 7.00708 84.1169 6.78365C83.7669 6.56039 83.2181 6.36936 82.4707 6.20381L81.0934 5.90394C80.1934 5.70886 79.5566 5.49353 79.1828 5.25946C78.5376 4.8504 78.2156 4.24374 78.2156 3.43102C78.2156 2.55113 78.5305 1.83393 79.1633 1.26894C79.7945 0.70648 80.6902 0.422638 81.848 0.422638C82.9131 0.422638 83.8187 0.671551 84.5635 1.16532C85.3081 1.66045 85.6819 2.4514 85.6819 3.53581H84.3871C84.3184 3.01116 84.1701 2.61424 83.9448 2.33293C83.5248 1.82312 82.8124 1.56476 81.806 1.56476C80.9942 1.56476 80.4104 1.73301 80.0548 2.05989C79.7007 2.38812 79.523 2.76899 79.523 3.20218C79.523 3.68381 79.7302 4.03228 80.1458 4.25555C80.4174 4.39544 81.0333 4.57449 81.9935 4.78695L83.4184 5.09645C84.1058 5.25254 84.6362 5.45691 85.01 5.71932C85.6552 6.17681 85.9786 6.83866 85.9786 7.7064C85.9786 8.78811 85.5699 9.56438 84.751 10.0285C83.9322 10.494 82.9804 10.7254 81.8955 10.7254C80.6316 10.7254 79.6433 10.4173 78.928 9.79574C78.2128 9.1781 77.8614 8.34159 77.8755 7.28823Z" fill="#2E161C"/>
<path d="M88.0635 4.1982C87.4321 4.9073 87.1145 5.8611 87.1145 7.05976C87.1145 8.17641 87.4154 9.06709 88.0159 9.72894C88.6149 10.3908 89.424 10.7246 90.4444 10.7246C91.6664 10.7246 92.5677 10.3491 93.1501 9.59985C93.7309 8.85176 94.0222 7.90066 94.0222 6.75162C94.0222 5.56359 93.6917 4.66497 93.0325 4.05273C92.3718 3.43779 91.5656 3.13369 90.6096 3.13369C89.5444 3.13369 88.6948 3.48774 88.0635 4.1982ZM88.9145 8.93529C88.5688 8.42801 88.3965 7.79839 88.3965 7.03833C88.3965 6.24721 88.5688 5.57456 88.9145 5.0175C89.2602 4.45791 89.8146 4.1793 90.5761 4.1793C91.4327 4.1793 92.0373 4.50769 92.3886 5.1628C92.6097 5.57996 92.7203 6.12064 92.7203 6.78671C92.7203 7.51995 92.5677 8.1926 92.2598 8.79134C91.9532 9.39261 91.3877 9.69266 90.562 9.69266C89.8088 9.69266 89.2602 9.4397 88.9145 8.93529Z" fill="#2E161C"/>
<path d="M98.3974 3.13369C99.2317 3.13369 99.9119 3.33012 100.435 3.71893C100.959 4.11044 101.274 4.7804 101.38 5.73436H100.168C100.095 5.29307 99.9273 4.93109 99.6642 4.64185C99.401 4.3499 98.9784 4.20596 98.3974 4.20596C97.6038 4.20596 97.0369 4.57604 96.6954 5.3226C96.4742 5.80305 96.3636 6.40161 96.3636 7.1092C96.3636 7.8264 96.519 8.42497 96.834 8.9147C97.1475 9.40307 97.6402 9.64524 98.3149 9.64524C98.8313 9.64524 99.24 9.49201 99.5423 9.19061C99.8446 8.88517 100.053 8.47088 100.168 7.942H101.38C101.242 8.88787 100.896 9.57672 100.342 10.0126C99.7888 10.4512 99.0804 10.6692 98.2169 10.6692C97.2483 10.6692 96.4756 10.3275 95.899 9.6508C95.3223 8.97005 95.034 8.11835 95.034 7.09857C95.034 5.84726 95.3502 4.87338 95.983 4.17913C96.6143 3.48352 97.4191 3.13369 98.3974 3.13369Z" fill="#2E161C"/>
<path d="M102.953 2.03063V0.674519H104.22V2.03063H102.953ZM102.953 10.4447V3.3572H104.22V10.4447H102.953Z" fill="#2E161C"/>
<path d="M106.237 7.04534C105.809 7.40731 105.593 7.91982 105.593 8.58184C105.593 9.18176 105.812 9.68634 106.248 10.0873C106.684 10.4867 107.245 10.6899 107.934 10.6899C108.505 10.6899 109.028 10.5716 109.504 10.3349C109.979 10.1008 110.343 9.82488 110.597 9.50475C110.639 9.7886 110.711 10.0092 110.811 10.1612C111.005 10.4559 111.317 10.6025 111.745 10.6025C111.921 10.6025 112.059 10.5971 112.161 10.5824C112.262 10.5689 112.41 10.5367 112.605 10.4815V9.59639C112.675 9.59099 112.525 9.61242 112.605 9.59639C112.536 9.60381 112.252 9.63824 112.196 9.63824C112.025 9.63824 111.913 9.60196 111.86 9.52399C111.807 9.44991 111.78 9.35035 111.78 9.22665V5.12187C111.78 4.44922 111.51 3.95275 110.971 3.63245C110.427 3.31098 109.718 3.15353 108.846 3.15353C108.095 3.15353 107.434 3.32448 106.863 3.66874C106.293 4.01316 105.998 4.6227 105.974 5.50242H107.137C107.183 5.13521 107.283 4.85406 107.435 4.66978C107.707 4.33328 108.169 4.16521 108.818 4.16521C109.381 4.16521 109.814 4.25667 110.116 4.43825C110.418 4.62523 110.569 4.92257 110.569 5.32893C110.569 5.52671 110.541 5.68146 110.487 5.78643C110.39 5.98151 110.199 6.09981 109.912 6.13086L107.925 6.37302C107.23 6.45638 106.667 6.67931 106.237 7.04534ZM107.469 7.55531C107.696 7.43144 108.034 7.34133 108.487 7.28344L109.241 7.18928C109.47 7.1638 109.707 7.11807 109.946 7.05613C110.187 6.99555 110.383 6.91623 110.536 6.82207V7.78802C110.536 8.52396 110.189 9.05266 109.497 9.37819C109.086 9.57327 108.661 9.67283 108.223 9.67283C107.864 9.67283 107.553 9.57327 107.29 9.37009C107.027 9.17366 106.895 8.90061 106.895 8.55349C106.895 8.09869 107.087 7.76237 107.469 7.55531Z" fill="#2E161C"/>
<path d="M114.758 0.674519H113.513V10.4449H114.758V0.674519Z" fill="#2E161C"/>
<path d="M120.113 7.30204H121.408C121.439 7.8564 121.576 8.30562 121.817 8.65275C122.273 9.29992 123.076 9.62274 124.231 9.62274C124.747 9.62274 125.218 9.55153 125.642 9.41029C126.463 9.13707 126.874 8.64211 126.874 7.93301C126.874 7.4016 126.701 7.0209 126.354 6.79747C126.004 6.57421 125.456 6.38318 124.708 6.21763L123.331 5.91775C122.431 5.72267 121.794 5.50734 121.42 5.27328C120.775 4.86422 120.452 4.25755 120.452 3.44483C120.452 2.56495 120.768 1.84774 121.401 1.28275C122.032 0.720295 122.927 0.436453 124.085 0.436453C125.151 0.436453 126.056 0.685366 126.802 1.17914C127.545 1.67426 127.919 2.46521 127.919 3.54963H126.624C126.556 3.02497 126.407 2.62806 126.182 2.34675C125.762 1.83694 125.05 1.57858 124.043 1.57858C123.231 1.57858 122.648 1.74683 122.292 2.0737C121.937 2.40193 121.759 2.78281 121.759 3.216C121.759 3.69762 121.968 4.0461 122.383 4.26936C122.655 4.40926 123.271 4.58831 124.231 4.80077L125.656 5.11026C126.343 5.26636 126.874 5.47072 127.247 5.73314C127.893 6.19063 128.216 6.85248 128.216 7.72021C128.216 8.80193 127.807 9.5782 126.988 10.0423C126.169 10.5079 125.218 10.7392 124.133 10.7392C122.869 10.7392 121.879 10.4311 121.165 9.80956C120.449 9.19192 120.099 8.3554 120.113 7.30204Z" fill="#2E161C"/>
<path d="M132.715 3.13369C133.551 3.13369 134.23 3.33012 134.753 3.71893C135.277 4.11044 135.593 4.7804 135.698 5.73436H134.487C134.413 5.29307 134.245 4.93109 133.982 4.64185C133.719 4.3499 133.296 4.20596 132.715 4.20596C131.922 4.20596 131.356 4.57604 131.013 5.3226C130.792 5.80305 130.68 6.40161 130.68 7.1092C130.68 7.8264 130.838 8.42497 131.152 8.9147C131.465 9.40307 131.959 9.64524 132.633 9.64524C133.149 9.64524 133.559 9.49201 133.862 9.19061C134.163 8.88517 134.371 8.47088 134.487 7.942H135.698C135.56 8.88787 135.212 9.57672 134.661 10.0126C134.105 10.4512 133.398 10.6692 132.536 10.6692C131.568 10.6692 130.795 10.3275 130.218 9.6508C129.642 8.97005 129.352 8.11835 129.352 7.09857C129.352 5.84726 129.668 4.87338 130.301 4.17913C130.932 3.48352 131.738 3.13369 132.715 3.13369Z" fill="#2E161C"/>
<path d="M138.537 10.4447V3.3572H137.271V10.4447H138.537ZM138.537 2.03063V0.674519H137.271V2.03063H138.537Z" fill="#2E161C"/>
<path d="M140.878 4.24293C140.233 4.95726 139.911 5.88558 139.911 7.03058C139.911 8.1916 140.23 9.09579 140.871 9.74279C141.513 10.3859 142.295 10.7074 143.219 10.7074C143.597 10.7074 143.935 10.6725 144.236 10.6038C144.793 10.4787 145.261 10.2366 145.64 9.88133C145.866 9.6822 146.07 9.4171 146.252 9.09562C146.434 8.77279 146.542 8.48085 146.574 8.22114H145.349C145.257 8.53586 145.1 8.81177 144.879 9.05394C144.491 9.46688 143.972 9.66871 143.322 9.66871C142.625 9.66871 142.112 9.45085 141.779 9.01496C141.448 8.58025 141.27 8.0004 141.245 7.27544H146.677C146.677 6.55823 146.641 6.03493 146.568 5.7067C146.484 5.22761 146.319 4.81061 146.069 4.44999C145.811 4.07468 145.435 3.76654 144.942 3.53112C144.446 3.29166 143.938 3.17336 143.412 3.17336C142.369 3.17336 141.524 3.53112 140.878 4.24293ZM141.896 4.81062C142.284 4.41658 142.764 4.2161 143.336 4.2161C144.133 4.2161 144.704 4.50534 145.045 5.08383C145.23 5.39332 145.348 5.80626 145.398 6.32417H141.28C141.303 5.7121 141.508 5.20753 141.896 4.81062Z" fill="#2E161C"/>
<path d="M147.831 10.4546V3.33351H149.012V4.34519C149.363 3.92685 149.734 3.62816 150.128 3.44658C150.52 3.2623 150.956 3.17336 151.435 3.17336C152.488 3.17336 153.199 3.52589 153.567 4.23229C153.77 4.6157 153.87 5.16719 153.87 5.88575V10.4546H152.605V5.96371C152.605 5.53305 152.538 5.18339 152.404 4.91558C152.182 4.47429 151.782 4.24832 151.2 4.24832C150.904 4.24832 150.662 4.27668 150.472 4.33709C150.132 4.43395 149.832 4.62904 149.573 4.92098C149.365 5.15774 149.232 5.39855 149.169 5.65151C149.107 5.90043 149.075 6.26105 149.075 6.72648V10.4546H147.831Z" fill="#2E161C"/>
<path d="M159.115 3.13369C159.948 3.13369 160.628 3.33012 161.152 3.71893C161.677 4.11044 161.99 4.7804 162.095 5.73436H160.886C160.812 5.29307 160.642 4.93109 160.38 4.64185C160.117 4.3499 159.695 4.20596 159.115 4.20596C158.319 4.20596 157.753 4.57604 157.412 5.3226C157.19 5.80305 157.078 6.40161 157.078 7.1092C157.078 7.8264 157.237 8.42497 157.549 8.9147C157.862 9.40307 158.358 9.64524 159.03 9.64524C159.546 9.64524 159.956 9.49201 160.259 9.19061C160.561 8.88517 160.769 8.47088 160.886 7.942H162.095C161.958 8.88787 161.612 9.57672 161.058 10.0126C160.505 10.4512 159.797 10.6692 158.934 10.6692C157.964 10.6692 157.193 10.3275 156.615 9.6508C156.038 8.97005 155.75 8.11835 155.75 7.09857C155.75 5.84726 156.067 4.87338 156.698 4.17913C157.33 3.48352 158.135 3.13369 159.115 3.13369Z" fill="#2E161C"/>
<path d="M163.32 4.24293C162.673 4.95726 162.35 5.88558 162.35 7.03058C162.35 8.1916 162.672 9.09579 163.311 9.74279C163.954 10.3859 164.735 10.7074 165.657 10.7074C166.036 10.7074 166.375 10.6725 166.675 10.6038C167.233 10.4787 167.7 10.2366 168.08 9.88133C168.306 9.6822 168.51 9.4171 168.69 9.09562C168.873 8.77279 168.982 8.48085 169.014 8.22114H167.79C167.697 8.53586 167.54 8.81177 167.319 9.05394C166.931 9.46688 166.412 9.66871 165.76 9.66871C165.065 9.66871 164.551 9.45085 164.219 9.01496C163.885 8.58025 163.708 8.0004 163.685 7.27544H169.117C169.117 6.55823 169.082 6.03493 169.007 5.7067C168.924 5.22761 168.757 4.81061 168.508 4.44999C168.252 4.07468 167.874 3.76654 167.381 3.53112C166.886 3.29166 166.376 3.17336 165.852 3.17336C164.809 3.17336 163.966 3.53112 163.32 4.24293ZM164.336 4.81062C164.724 4.41658 165.202 4.2161 165.774 4.2161C166.573 4.2161 167.144 4.50534 167.484 5.08383C167.669 5.39332 167.786 5.80626 167.839 6.32417H163.72C163.743 5.7121 163.948 5.20753 164.336 4.81062Z" fill="#2E161C"/>
<path d="M170.269 8.21117H171.467C171.503 8.61078 171.605 8.91757 171.777 9.13003C172.092 9.51479 172.636 9.70852 173.41 9.70852C173.872 9.70852 174.278 9.60896 174.629 9.41928C174.98 9.22555 175.154 8.9255 175.154 8.52066C175.154 8.21927 175.015 7.98521 174.732 7.82506C174.553 7.72819 174.197 7.61513 173.668 7.48603L172.678 7.24387C172.046 7.09722 171.577 6.92897 171.281 6.73929C170.745 6.41917 170.476 5.96978 170.476 5.39922C170.476 4.72117 170.729 4.17761 171.233 3.76196C171.741 3.34497 172.42 3.13369 173.271 3.13369C174.388 3.13369 175.194 3.45247 175.687 4.08091C175.996 4.479 176.147 4.91101 176.137 5.37103H174.96C174.939 5.10204 174.839 4.85583 174.664 4.6324C174.378 4.31632 173.881 4.16158 173.175 4.16158C172.704 4.16158 172.35 4.24899 172.106 4.41994C171.865 4.59207 171.744 4.82073 171.744 5.10204C171.744 5.41542 171.902 5.66163 172.22 5.85131C172.404 5.95898 172.678 6.05854 173.036 6.14326L173.861 6.33428C174.755 6.54286 175.356 6.74469 175.659 6.94247C176.144 7.24387 176.388 7.72819 176.388 8.38195C176.388 9.01697 176.135 9.56458 175.636 10.0261C175.134 10.4888 174.372 10.7202 173.349 10.7202C172.246 10.7202 171.465 10.478 171.005 9.99506C170.548 9.51479 170.301 8.9201 170.269 8.21117Z" fill="#2E161C"/>
<path d="M182.791 7.04534C182.361 7.40731 182.148 7.91982 182.148 8.58184C182.148 9.18176 182.366 9.68634 182.802 10.0873C183.237 10.4867 183.801 10.6899 184.485 10.6899C185.058 10.6899 185.583 10.5716 186.058 10.3349C186.534 10.1008 186.898 9.82488 187.151 9.50475C187.193 9.7886 187.263 10.0092 187.365 10.1612C187.558 10.4559 187.87 10.6025 188.299 10.6025C188.474 10.6025 188.613 10.5971 188.715 10.5824C188.817 10.5689 188.964 10.5367 189.159 10.4815V9.59639C189.226 9.59099 189.078 9.61242 189.159 9.59639C189.091 9.60381 188.806 9.63824 188.752 9.63824C188.58 9.63824 188.467 9.60196 188.415 9.52399C188.36 9.44991 188.336 9.35035 188.336 9.22665V5.12187C188.336 4.44922 188.063 3.95275 187.524 3.63245C186.98 3.31098 186.273 3.15353 185.4 3.15353C184.647 3.15353 183.988 3.32448 183.416 3.66874C182.849 4.01316 182.552 4.6227 182.528 5.50242H183.69C183.737 5.13521 183.836 4.85406 183.988 4.66978C184.262 4.33328 184.722 4.16521 185.372 4.16521C185.936 4.16521 186.369 4.25667 186.669 4.43825C186.971 4.62523 187.124 4.92257 187.124 5.32893C187.124 5.52671 187.096 5.68146 187.04 5.78643C186.943 5.98151 186.752 6.09981 186.466 6.13086L184.48 6.37302C183.783 6.45638 183.221 6.67931 182.791 7.04534ZM184.024 7.55531C184.25 7.43144 184.589 7.34133 185.04 7.28344L185.795 7.18928C186.025 7.1638 186.26 7.11807 186.501 7.05613C186.741 6.99555 186.936 6.91623 187.089 6.82207V7.78802C187.089 8.52396 186.743 9.05266 186.051 9.37819C185.639 9.57327 185.216 9.67283 184.779 9.67283C184.417 9.67283 184.106 9.57327 183.845 9.37009C183.581 9.17366 183.451 8.90061 183.451 8.55349C183.451 8.09869 183.641 7.76237 184.024 7.55531Z" fill="#2E161C"/>
<path d="M190.068 10.4546V3.33351H191.251V4.34519C191.602 3.92685 191.973 3.62816 192.366 3.44658C192.758 3.2623 193.193 3.17336 193.674 3.17336C194.726 3.17336 195.435 3.52589 195.806 4.23229C196.009 4.6157 196.109 5.16719 196.109 5.88575V10.4546H194.844V5.96371C194.844 5.53305 194.775 5.18339 194.642 4.91558C194.42 4.47429 194.02 4.24832 193.439 4.24832C193.144 4.24832 192.9 4.27668 192.712 4.33709C192.37 4.43395 192.071 4.62904 191.811 4.92098C191.604 5.15774 191.471 5.39855 191.408 5.65151C191.344 5.90043 191.315 6.26105 191.315 6.72648V10.4546H190.068Z" fill="#2E161C"/>
<path d="M197.493 4.35174C196.941 5.11063 196.668 6.00924 196.668 7.04523C196.668 8.15377 196.968 9.04445 197.572 9.71171C198.176 10.379 198.892 10.7112 199.719 10.7112C200.23 10.7112 200.685 10.6157 201.08 10.4193C201.478 10.2242 201.821 9.90949 202.112 9.47089V10.4584H203.234V0.65468H202.037V4.25218C201.756 3.92378 201.503 3.68702 201.282 3.55522C200.899 3.32656 200.423 3.2108 199.856 3.2108C198.832 3.2108 198.044 3.59015 197.493 4.35174ZM198.566 4.94508C198.955 4.48354 199.464 4.25218 200.093 4.25218C200.653 4.25218 201.127 4.47021 201.51 4.9034C201.893 5.33389 202.086 6.00249 202.086 6.90263C202.086 7.79449 201.9 8.47406 201.527 8.95299C201.155 9.43056 200.681 9.66733 200.105 9.66733C199.363 9.66733 198.822 9.41031 198.485 8.89511C198.148 8.38243 197.981 7.74336 197.981 6.98194C197.981 6.08586 198.176 5.4078 198.566 4.94508Z" fill="#2E161C"/>
<path d="M209.867 10.4447V0.674519H211.257V4.71331H216.544V0.674519H217.934V10.4447H216.544V5.87585H211.257V10.4447H209.867Z" fill="#2E161C"/>
<path d="M220.426 3.33203H221.699V8.05967C221.699 8.42435 221.759 8.72153 221.88 8.95036C222.101 9.37545 222.514 9.59078 223.118 9.59078C223.985 9.59078 224.575 9.218 224.889 8.47143C225.061 8.07452 225.145 7.52556 225.145 6.82726V3.33203H226.392V10.4531H225.214L225.228 9.40515C225.068 9.67549 224.868 9.90432 224.626 10.0886C224.15 10.4612 223.574 10.6482 222.896 10.6482C221.841 10.6482 221.12 10.3092 220.737 9.62841C220.531 9.26525 220.426 8.78211 220.426 8.17274V3.33203Z" fill="#2E161C"/>
<path d="M228.346 10.4546V3.33351H229.578V4.34519C229.873 3.99283 230.14 3.73852 230.38 3.58107C230.791 3.30803 231.257 3.17336 231.778 3.17336C232.368 3.17336 232.844 3.31191 233.202 3.59322C233.406 3.75185 233.59 3.98473 233.757 4.29811C234.032 3.9174 234.359 3.63356 234.733 3.44658C235.107 3.2623 235.526 3.17336 235.992 3.17336C236.989 3.17336 237.667 3.52049 238.027 4.21069C238.22 4.58465 238.318 5.08383 238.318 5.7121V10.4546H237.024V5.50892C237.024 5.03404 236.899 4.70852 236.652 4.52947C236.406 4.35059 236.106 4.26318 235.749 4.26318C235.26 4.26318 234.838 4.42197 234.487 4.7367C234.134 5.0516 233.957 5.5776 233.957 6.31354V10.4546H232.691V5.80627C232.691 5.32599 232.63 4.97076 232.51 4.7475C232.322 4.4164 231.969 4.24832 231.451 4.24832C230.983 4.24832 230.553 4.4272 230.168 4.77568C229.784 5.12551 229.59 5.76188 229.59 6.67535V10.4546H228.346Z" fill="#2E161C"/>
<path d="M239.548 7.04534C239.121 7.40731 238.905 7.91982 238.905 8.58184C238.905 9.18176 239.123 9.68634 239.558 10.0873C239.995 10.4867 240.557 10.6899 241.244 10.6899C241.816 10.6899 242.339 10.5716 242.815 10.3349C243.291 10.1008 243.654 9.82488 243.909 9.50475C243.949 9.7886 244.021 10.0092 244.123 10.1612C244.316 10.4559 244.627 10.6025 245.057 10.6025C245.233 10.6025 245.371 10.5971 245.473 10.5824C245.573 10.5689 245.721 10.5367 245.915 10.4815V9.59639C245.986 9.59099 245.835 9.61242 245.915 9.59639C245.847 9.60381 245.563 9.63824 245.508 9.63824C245.336 9.63824 245.224 9.60196 245.171 9.52399C245.118 9.44991 245.092 9.35035 245.092 9.22665V5.12187C245.092 4.44922 244.822 3.95275 244.283 3.63245C243.737 3.31098 243.031 3.15353 242.158 3.15353C241.405 3.15353 240.747 3.32448 240.176 3.66874C239.605 4.01316 239.309 4.6227 239.286 5.50242H240.448C240.494 5.13521 240.594 4.85406 240.747 4.66978C241.019 4.33328 241.479 4.16521 242.13 4.16521C242.692 4.16521 243.126 4.25667 243.428 4.43825C243.73 4.62523 243.881 4.92257 243.881 5.32893C243.881 5.52671 243.853 5.68146 243.798 5.78643C243.7 5.98151 243.508 6.09981 243.224 6.13086L241.236 6.37302C240.539 6.45638 239.978 6.67931 239.548 7.04534ZM240.78 7.55531C241.007 7.43144 241.345 7.34133 241.798 7.28344L242.553 7.18928C242.782 7.1638 243.017 7.11807 243.259 7.05613C243.5 6.99555 243.693 6.91623 243.845 6.82207V7.78802C243.845 8.52396 243.5 9.05266 242.808 9.37819C242.395 9.57327 241.974 9.67283 241.535 9.67283C241.173 9.67283 240.863 9.57327 240.599 9.37009C240.338 9.17366 240.206 8.90061 240.206 8.55349C240.206 8.09869 240.399 7.76237 240.78 7.55531Z" fill="#2E161C"/>
<path d="M246.824 10.4546V3.33351H248.01V4.34519C248.359 3.92685 248.731 3.62816 249.124 3.44658C249.514 3.2623 249.951 3.17336 250.431 3.17336C251.482 3.17336 252.193 3.52589 252.564 4.23229C252.764 4.6157 252.868 5.16719 252.868 5.88575V10.4546H251.6V5.96371C251.6 5.53305 251.533 5.18339 251.4 4.91558C251.179 4.47429 250.778 4.24832 250.195 4.24832C249.9 4.24832 249.658 4.27668 249.469 4.33709C249.126 4.43395 248.829 4.62904 248.568 4.92098C248.361 5.15774 248.227 5.39855 248.164 5.65151C248.101 5.90043 248.071 6.26105 248.071 6.72648V10.4546H246.824Z" fill="#2E161C"/>
<path d="M254.744 2.03063V0.674519H256.01V2.03063H254.744ZM254.744 10.4447V3.3572H256.01V10.4447H254.744Z" fill="#2E161C"/>
<path d="M258.388 3.33711V1.34868H259.647V3.33711H260.828V4.31521H259.647V8.96084C259.647 9.21245 259.735 9.37513 259.91 9.46001C260.007 9.51233 260.167 9.53409 260.395 9.53409C260.463 9.52869 260.739 9.52329 260.828 9.51519V10.4584C260.688 10.4973 260.539 10.5296 260.384 10.5471C260.228 10.5633 260.061 10.574 259.882 10.574C259.301 10.574 258.906 10.43 258.699 10.1462C258.492 9.85962 258.388 9.48566 258.388 9.02952V4.31538H257.384V3.33728L258.388 3.33711Z" fill="#2E161C"/>
<path d="M262.663 2.03063V0.674519H263.929V2.03063H262.663ZM262.663 10.4447V3.3572H263.929V10.4447H262.663Z" fill="#2E161C"/>
<path d="M266.272 4.24293C265.626 4.95726 265.303 5.88558 265.303 7.03058C265.303 8.1916 265.625 9.09579 266.264 9.74279C266.906 10.3859 267.689 10.7074 268.611 10.7074C268.99 10.7074 269.329 10.6725 269.629 10.6038C270.188 10.4787 270.655 10.2366 271.032 9.88133C271.26 9.6822 271.464 9.4171 271.645 9.09562C271.827 8.77279 271.935 8.48085 271.968 8.22114H270.742C270.649 8.53586 270.493 8.81177 270.272 9.05394C269.884 9.46688 269.364 9.66871 268.713 9.66871C268.018 9.66871 267.505 9.45085 267.173 9.01496C266.841 8.58025 266.662 8.0004 266.639 7.27544H272.072C272.072 6.55823 272.035 6.03493 271.961 5.7067C271.877 5.22761 271.71 4.81061 271.461 4.44999C271.206 4.07468 270.827 3.76654 270.335 3.53112C269.84 3.29166 269.331 3.17336 268.804 3.17336C267.763 3.17336 266.918 3.53112 266.272 4.24293ZM267.291 4.81062C267.677 4.41658 268.156 4.2161 268.729 4.2161C269.527 4.2161 270.098 4.50534 270.439 5.08383C270.623 5.39332 270.741 5.80626 270.792 6.32417H266.674C266.697 5.7121 266.903 5.20753 267.291 4.81062Z" fill="#2E161C"/>
<path d="M273.223 8.21117H274.42C274.455 8.61078 274.561 8.91757 274.731 9.13003C275.043 9.51479 275.589 9.70852 276.364 9.70852C276.825 9.70852 277.231 9.60896 277.582 9.41928C277.933 9.22555 278.107 8.9255 278.107 8.52066C278.107 8.21927 277.968 7.98521 277.686 7.82506C277.507 7.72819 277.15 7.61513 276.62 7.48603L275.63 7.24387C275 7.09722 274.531 6.92897 274.234 6.73929C273.697 6.41917 273.43 5.96978 273.43 5.39922C273.43 4.72117 273.683 4.17761 274.187 3.76196C274.692 3.34497 275.374 3.13369 276.227 3.13369C277.342 3.13369 278.147 3.45247 278.641 4.08091C278.95 4.479 279.101 4.91101 279.09 5.37103H277.914C277.893 5.10204 277.791 4.85583 277.617 4.6324C277.331 4.31632 276.836 4.16158 276.128 4.16158C275.658 4.16158 275.303 4.24899 275.059 4.41994C274.817 4.59207 274.696 4.82073 274.696 5.10204C274.696 5.41542 274.856 5.66163 275.173 5.85131C275.358 5.95898 275.63 6.05854 275.99 6.14326L276.815 6.33428C277.709 6.54286 278.307 6.74469 278.613 6.94247C279.097 7.24387 279.341 7.72819 279.341 8.38195C279.341 9.01697 279.089 9.56458 278.59 10.0261C278.088 10.4888 277.326 10.7202 276.302 10.7202C275.2 10.7202 274.418 10.478 273.96 9.99506C273.502 9.51479 273.254 8.9201 273.223 8.21117Z" fill="#2E161C"/>
<path d="M79.2524 26.5956V22.4075H82.3864C82.9491 22.4075 83.362 22.4652 83.6252 22.5863C84.0871 22.8017 84.3321 23.2322 84.3656 23.8712L84.4483 25.4979C84.4664 25.8813 84.4902 26.1356 84.5182 26.2701C84.5447 26.4032 84.5826 26.5122 84.6288 26.5956H86.3169V26.3777C86.1055 26.2902 85.9571 26.0912 85.8744 25.779C85.8228 25.5974 85.7905 25.3215 85.7781 24.9476L85.7289 23.6372C85.705 23.0693 85.5932 22.6591 85.393 22.4075C85.1929 22.1545 84.8933 21.95 84.4971 21.7927C84.9492 21.5666 85.3007 21.2692 85.5526 20.8993C85.8032 20.5254 85.929 20.0476 85.929 19.4583C85.929 18.339 85.4518 17.5695 84.4971 17.1523C83.9932 16.9358 83.355 16.8254 82.5809 16.8254H77.8751V26.5956H79.2524ZM79.2524 17.9637H82.6146C83.085 17.9637 83.4614 18.0295 83.7428 18.1628C84.269 18.4158 84.5322 18.8906 84.5322 19.5876C84.5322 20.2346 84.3433 20.6813 83.9681 20.9275C83.5917 21.1805 83.0808 21.3028 82.4355 21.3028H79.2526L79.2524 17.9637Z" fill="#2E161C"/>
<path d="M89.403 20.3742C88.7578 21.0885 88.4344 22.0168 88.4344 23.1618C88.4344 24.3229 88.755 25.227 89.396 25.874C90.0386 26.5172 90.8195 26.8386 91.742 26.8386C92.12 26.8386 92.4601 26.8037 92.7596 26.735C93.3181 26.61 93.7857 26.3678 94.1637 26.0126C94.3903 25.8135 94.5947 25.5483 94.7766 25.2269C94.9586 24.904 95.0664 24.6121 95.0986 24.3524H93.8738C93.7814 24.6671 93.6246 24.943 93.4036 25.1852C93.0158 25.5981 92.4964 25.8 91.847 25.8C91.15 25.8 90.6348 25.5821 90.3032 25.1462C89.9714 24.7115 89.7937 24.1316 89.7698 23.4067H95.2021C95.2021 22.6895 95.1658 22.1662 95.0917 21.838C95.0092 21.3589 94.8424 20.9419 94.5933 20.5812C94.3343 20.2059 93.9593 19.8978 93.4652 19.6624C92.9724 19.4229 92.4629 19.3046 91.9367 19.3046C90.8938 19.3046 90.0483 19.6624 89.403 20.3742ZM90.4206 20.9419C90.8083 20.5478 91.2885 20.3473 91.8596 20.3473C92.6574 20.3473 93.2271 20.6366 93.57 21.2151C93.7533 21.5244 93.871 21.9375 93.9228 22.4554H89.8047C89.8272 21.8434 90.0328 21.3388 90.4206 20.9419Z" fill="#2E161C"/>
<path d="M96.3539 24.3623H97.5506C97.5884 24.7619 97.6921 25.0687 97.8628 25.2811C98.1763 25.6659 98.7208 25.8596 99.4949 25.8596C99.9568 25.8596 100.363 25.76 100.713 25.5704C101.064 25.3766 101.239 25.0766 101.239 24.6717C101.239 24.3703 101.099 24.1363 100.818 23.9761C100.637 23.8793 100.282 23.7662 99.751 23.6371L98.7614 23.395C98.1302 23.2483 97.664 23.0801 97.3645 22.8904C96.8299 22.5702 96.5611 22.1209 96.5611 21.5503C96.5611 20.8722 96.8144 20.3289 97.3197 19.913C97.825 19.4961 98.504 19.2848 99.3578 19.2848C100.473 19.2848 101.278 19.6036 101.772 20.232C102.082 20.6301 102.231 21.0621 102.223 21.5221H101.046C101.022 21.2531 100.923 21.0069 100.748 20.7835C100.462 20.4674 99.9665 20.3127 99.2596 20.3127C98.7894 20.3127 98.4339 20.4001 98.1916 20.571C97.9481 20.7431 97.8278 20.9718 97.8278 21.2531C97.8278 21.5665 97.9873 21.8127 98.305 22.0024C98.4899 22.1101 98.7613 22.2096 99.1225 22.2943L99.9456 22.4854C100.84 22.6939 101.441 22.8958 101.744 23.0936C102.229 23.395 102.471 23.8793 102.471 24.533C102.471 25.168 102.222 25.7157 101.72 26.1772C101.219 26.6399 100.458 26.8713 99.4333 26.8713C98.3303 26.8713 97.5492 26.6291 97.0915 26.1461C96.6312 25.6659 96.386 25.0712 96.3539 24.3623Z" fill="#2E161C"/>
<path d="M103.922 20.3742C103.277 21.0885 102.953 22.0168 102.953 23.1618C102.953 24.3229 103.274 25.227 103.917 25.874C104.558 26.5172 105.339 26.8386 106.261 26.8386C106.64 26.8386 106.979 26.8037 107.279 26.735C107.837 26.61 108.305 26.3678 108.684 26.0126C108.909 25.8135 109.114 25.5483 109.296 25.2269C109.478 24.904 109.586 24.6121 109.618 24.3524H108.393C108.301 24.6671 108.144 24.943 107.923 25.1852C107.535 25.5981 107.016 25.8 106.366 25.8C105.668 25.8 105.154 25.5821 104.822 25.1462C104.49 24.7115 104.313 24.1316 104.29 23.4067H109.721C109.721 22.6895 109.685 22.1662 109.611 21.838C109.528 21.3589 109.361 20.9419 109.112 20.5812C108.855 20.2059 108.478 19.8978 107.984 19.6624C107.491 19.4229 106.981 19.3046 106.456 19.3046C105.413 19.3046 104.569 19.6624 103.922 20.3742ZM104.94 20.9419C105.327 20.5478 105.808 20.3473 106.379 20.3473C107.178 20.3473 107.748 20.6366 108.088 21.2151C108.273 21.5244 108.39 21.9375 108.442 22.4554H104.324C104.348 21.8434 104.552 21.3388 104.94 20.9419Z" fill="#2E161C"/>
<path d="M111.517 23.1964C111.088 23.5584 110.873 24.0709 110.873 24.7329C110.873 25.3328 111.091 25.8374 111.528 26.2384C111.963 26.638 112.525 26.841 113.212 26.841C113.784 26.841 114.308 26.7227 114.784 26.4859C115.258 26.2517 115.622 25.976 115.876 25.6558C115.917 25.9397 115.99 26.1602 116.091 26.3123C116.284 26.6069 116.596 26.7536 117.025 26.7536C117.2 26.7536 117.338 26.7482 117.44 26.7335C117.541 26.72 117.69 26.6878 117.884 26.6326V25.7473C117.954 25.7419 117.804 25.7635 117.884 25.7473C117.816 25.7547 117.53 25.7893 117.476 25.7893C117.303 25.7893 117.193 25.753 117.139 25.6749C117.086 25.601 117.06 25.5014 117.06 25.3777V21.273C117.06 20.6001 116.79 20.1038 116.251 19.7835C115.705 19.4621 114.998 19.3046 114.126 19.3046C113.373 19.3046 112.712 19.4754 112.143 19.8198C111.573 20.1642 111.276 20.7738 111.254 21.6535H112.417C112.462 21.2863 112.561 21.0051 112.714 20.8207C112.987 20.4844 113.447 20.3163 114.098 20.3163C114.661 20.3163 115.093 20.4078 115.396 20.5893C115.698 20.7763 115.849 21.0737 115.849 21.48C115.849 21.6778 115.821 21.8325 115.765 21.9373C115.67 22.1324 115.477 22.2509 115.191 22.2818L113.205 22.5239C112.509 22.6075 111.945 22.8304 111.517 23.1964ZM112.749 23.7064C112.974 23.5825 113.314 23.4924 113.766 23.4345L114.521 23.3404C114.75 23.3149 114.985 23.2691 115.226 23.2072C115.465 23.1466 115.663 23.0673 115.814 22.9732V23.9391C115.814 24.675 115.468 25.2037 114.775 25.5293C114.365 25.7243 113.941 25.8239 113.503 25.8239C113.143 25.8239 112.831 25.7244 112.569 25.5212C112.306 25.3247 112.175 25.0517 112.175 24.7046C112.175 24.2498 112.365 23.9135 112.749 23.7064Z" fill="#2E161C"/>
<path d="M118.793 26.5858V19.4648H119.975V20.6945C120.072 20.4523 120.31 20.1617 120.688 19.82C121.067 19.4783 121.502 19.3046 121.996 19.3046C121.94 19.2992 122.019 19.3046 121.996 19.3046C122.051 19.31 122.264 19.3262 122.397 19.3384V20.603C122.458 20.6057 122.324 20.5868 122.397 20.603C122.334 20.5976 122.064 20.5654 121.989 20.5654C121.362 20.5654 120.88 20.7632 120.543 21.1493C120.206 21.5354 120.038 21.9848 120.038 22.4919V26.5858H118.793Z" fill="#2E161C"/>
<path d="M126.114 19.2649C126.95 19.2649 127.629 19.4614 128.152 19.8502C128.676 20.2417 128.991 20.9117 129.096 21.8656H127.885C127.812 21.4243 127.644 21.0623 127.381 20.7731C127.118 20.4812 126.695 20.3372 126.114 20.3372C125.321 20.3372 124.754 20.7073 124.412 21.4539C124.191 21.9343 124.08 22.5329 124.08 23.2405C124.08 23.9577 124.237 24.5562 124.551 25.0459C124.864 25.5343 125.357 25.7765 126.032 25.7765C126.548 25.7765 126.957 25.6233 127.259 25.3219C127.561 25.0164 127.77 24.602 127.885 24.0733H129.096C128.96 25.0191 128.613 25.708 128.059 26.1439C127.506 26.5825 126.797 26.8005 125.934 26.8005C124.965 26.8005 124.192 26.4588 123.616 25.7821C123.039 25.1013 122.752 24.2496 122.752 23.2298C122.752 21.9785 123.067 21.0046 123.7 20.3104C124.331 19.6148 125.136 19.2649 126.114 19.2649Z" fill="#2E161C"/>
<path d="M130.672 26.5895V16.7858H131.918V20.433C132.212 20.0697 132.478 19.8183 132.713 19.673C133.114 19.4214 133.614 19.2948 134.214 19.2948C135.289 19.2948 136.019 19.6554 136.402 20.3778C136.609 20.7748 136.713 21.321 136.713 22.0207V26.5895H135.432V22.0986C135.432 21.5779 135.362 21.1945 135.225 20.9509C135 20.5621 134.574 20.3671 133.953 20.3671C133.435 20.3671 132.967 20.5353 132.547 20.877C132.126 21.2188 131.918 21.8644 131.918 22.8103V26.5895H130.672Z" fill="#2E161C"/>
<path d="M147.29 16.5479C148.578 16.5479 149.578 16.8735 150.289 17.526C150.997 18.1772 151.393 18.9186 151.47 19.7485H150.128C149.976 19.1148 149.673 18.6184 149.218 18.2485C148.763 17.8824 148.126 17.6995 147.306 17.6995C146.304 17.6995 145.496 18.0372 144.879 18.7125C144.263 19.3879 143.955 20.4266 143.955 21.8217C143.955 22.968 144.232 23.8923 144.789 24.6039C145.345 25.3171 146.174 25.6735 147.276 25.6735C148.293 25.6735 149.065 25.2982 149.594 24.5487C149.877 24.1545 150.086 23.6353 150.226 22.9935H151.568C151.448 24.0214 151.05 24.885 150.377 25.5793C149.569 26.4202 148.482 26.8358 147.111 26.8358C145.93 26.8358 144.938 26.4941 144.134 25.808C143.079 24.8959 142.551 23.4952 142.551 21.5955C142.551 20.1534 142.947 18.9707 143.741 18.0505C144.599 17.0469 145.783 16.5479 147.29 16.5479Z" fill="#2E161C"/>
<path d="M152.738 20.3294C152.105 21.0386 151.79 21.9923 151.79 23.191C151.79 24.3076 152.089 25.1983 152.69 25.8602C153.289 26.522 154.098 26.8558 155.117 26.8558C156.341 26.8558 157.242 26.4804 157.825 25.7311C158.406 24.983 158.697 24.0319 158.697 22.8829C158.697 21.6948 158.366 20.7962 157.707 20.184C157.046 19.569 156.239 19.2649 155.286 19.2649C154.219 19.2649 153.369 19.619 152.738 20.3294ZM153.59 25.0665C153.243 24.5593 153.071 23.9296 153.071 23.1696C153.071 22.3785 153.243 21.7058 153.59 21.1487C153.936 20.5892 154.489 20.3105 155.249 20.3105C156.107 20.3105 156.712 20.6389 157.063 21.294C157.284 21.7112 157.395 22.2519 157.395 22.918C157.395 23.6512 157.242 24.3238 156.936 24.9226C156.629 25.5239 156.061 25.8239 155.235 25.8239C154.483 25.8239 153.936 25.5709 153.59 25.0665Z" fill="#2E161C"/>
<path d="M161.03 19.4633H162.304V24.1909C162.304 24.5556 162.364 24.8528 162.484 25.0816C162.705 25.5067 163.118 25.722 163.723 25.722C164.589 25.722 165.18 25.3493 165.495 24.6027C165.665 24.2058 165.749 23.6568 165.749 22.9585V19.4633H166.996V26.5844H165.819L165.833 25.5364C165.674 25.8067 165.472 26.0356 165.231 26.2199C164.755 26.5925 164.18 26.7794 163.502 26.7794C162.444 26.7794 161.724 26.4404 161.342 25.7597C161.134 25.3965 161.03 24.9135 161.03 24.304L161.03 19.4633Z" fill="#2E161C"/>
<path d="M168.949 26.5858V19.4648H170.133V20.4764C170.482 20.0581 170.854 19.7594 171.246 19.5778C171.639 19.3935 172.075 19.3046 172.556 19.3046C173.607 19.3046 174.317 19.6571 174.685 20.3635C174.891 20.747 174.991 21.2984 174.991 22.017V26.5858H173.725V22.095C173.725 21.6645 173.656 21.3146 173.523 21.0468C173.302 20.6055 172.901 20.3796 172.32 20.3796C172.025 20.3796 171.781 20.4079 171.592 20.4683C171.251 20.5652 170.951 20.7603 170.693 21.0522C170.486 21.289 170.352 21.5298 170.289 21.7828C170.226 22.0317 170.196 22.3923 170.196 22.8577V26.5858H168.949Z" fill="#2E161C"/>
<path d="M178.913 19.2649C179.749 19.2649 180.428 19.4614 180.953 19.8502C181.474 20.2417 181.789 20.9117 181.894 21.8656H180.684C180.609 21.4243 180.442 21.0623 180.179 20.7731C179.917 20.4812 179.496 20.3372 178.913 20.3372C178.119 20.3372 177.552 20.7073 177.212 21.4539C176.99 21.9343 176.878 22.5329 176.878 23.2405C176.878 23.9577 177.036 24.5562 177.349 25.0459C177.663 25.5343 178.158 25.7765 178.83 25.7765C179.347 25.7765 179.757 25.6233 180.058 25.3219C180.361 25.0164 180.568 24.602 180.684 24.0733H181.894C181.759 25.0191 181.411 25.708 180.858 26.1439C180.303 26.5825 179.596 26.8005 178.734 26.8005C177.763 26.8005 176.992 26.4588 176.414 25.7821C175.839 25.1013 175.549 24.2496 175.549 23.2298C175.549 21.9785 175.867 21.0046 176.499 20.3104C177.129 19.6148 177.935 19.2649 178.913 19.2649Z" fill="#2E161C"/>
<path d="M183.468 18.1815V16.8254H184.734V18.1815H183.468ZM183.468 26.5956V19.5081H184.734V26.5956H183.468Z" fill="#2E161C"/>
<path d="M188.674 16.8254H187.428V26.5958H188.674V16.8254Z" fill="#2E161C"/>
<path d="M193.656 20.3294C193.024 21.0386 192.708 21.9923 192.708 23.191C192.708 24.3076 193.008 25.1983 193.609 25.8602C194.209 26.522 195.018 26.8558 196.037 26.8558C197.259 26.8558 198.161 26.4804 198.744 25.7311C199.323 24.983 199.615 24.0319 199.615 22.8829C199.615 21.6948 199.286 20.7962 198.625 20.184C197.964 19.569 197.159 19.2649 196.203 19.2649C195.138 19.2649 194.288 19.619 193.656 20.3294ZM194.509 25.0665C194.162 24.5593 193.99 23.9296 193.99 23.1696C193.99 22.3785 194.162 21.7058 194.509 21.1487C194.853 20.5892 195.406 20.3105 196.168 20.3105C197.027 20.3105 197.631 20.6389 197.98 21.294C198.201 21.7112 198.314 22.2519 198.314 22.918C198.314 23.6512 198.159 24.3238 197.852 24.9226C197.545 25.5239 196.979 25.8239 196.154 25.8239C195.403 25.8239 194.853 25.5709 194.509 25.0665Z" fill="#2E161C"/>
<path d="M201.658 18.3912C201.675 17.892 201.765 17.5329 201.928 17.2987C202.22 16.8938 202.78 16.6866 203.61 16.6866C203.686 16.6866 203.768 16.692 203.851 16.6974C203.935 16.7028 204.028 16.707 204.135 16.7149V17.8059C204.007 17.7985 203.912 17.7926 203.856 17.7899C203.909 17.7899 203.798 17.7865 203.856 17.7899C203.48 17.7899 203.089 17.8825 203.013 18.0683C202.94 18.258 202.905 18.7383 202.905 19.5105H204.135V20.455H202.89V26.598H201.658V20.455H200.627V19.5105H201.658V18.3912Z" fill="#2E161C"/>
<path d="M214.605 16.5479C215.892 16.5479 216.891 16.8735 217.602 17.526C218.313 18.1772 218.707 18.9186 218.786 19.7485H217.444C217.29 19.1148 216.986 18.6184 216.533 18.2485C216.08 17.8824 215.441 17.6995 214.619 17.6995C213.619 17.6995 212.809 18.0372 212.195 18.7125C211.579 19.3879 211.27 20.4266 211.27 21.8217C211.27 22.968 211.55 23.8923 212.104 24.6039C212.66 25.3171 213.491 25.6735 214.593 25.6735C215.606 25.6735 216.38 25.2982 216.911 24.5487C217.192 24.1545 217.402 23.6353 217.541 22.9935H218.882C218.763 24.0214 218.364 24.885 217.692 25.5793C216.886 26.4202 215.796 26.8358 214.425 26.8358C213.245 26.8358 212.255 26.4941 211.45 25.808C210.395 24.8959 209.867 23.4952 209.867 21.5955C209.867 20.1534 210.262 18.9707 211.055 18.0505C211.914 17.0469 213.097 16.5479 214.605 16.5479Z" fill="#2E161C"/>
<path d="M219.751 23.1964C219.32 23.5584 219.106 24.0709 219.106 24.7329C219.106 25.3328 219.324 25.8374 219.761 26.2384C220.196 26.638 220.758 26.841 221.447 26.841C222.017 26.841 222.542 26.7227 223.016 26.4859C223.492 26.2517 223.857 25.976 224.11 25.6558C224.152 25.9397 224.222 26.1602 224.324 26.3123C224.517 26.6069 224.83 26.7536 225.26 26.7536C225.435 26.7536 225.572 26.7482 225.674 26.7335C225.776 26.72 225.924 26.6878 226.117 26.6326V25.7473C226.187 25.7419 226.038 25.7635 226.117 25.7473C226.046 25.7547 225.764 25.7893 225.708 25.7893C225.539 25.7893 225.427 25.753 225.374 25.6749C225.32 25.601 225.293 25.5014 225.293 25.3777V21.273C225.293 20.6001 225.025 20.1038 224.482 19.7835C223.938 19.4621 223.23 19.3046 222.358 19.3046C221.606 19.3046 220.946 19.4754 220.376 19.8198C219.807 20.1642 219.51 20.7738 219.489 21.6535H220.651C220.697 21.2863 220.795 21.0051 220.95 20.8207C221.218 20.4844 221.68 20.3163 222.331 20.3163C222.895 20.3163 223.327 20.4078 223.629 20.5893C223.931 20.7763 224.084 21.0737 224.084 21.48C224.084 21.6778 224.054 21.8325 223.999 21.9373C223.903 22.1324 223.71 22.2509 223.425 22.2818L221.439 22.5239C220.742 22.6075 220.181 22.8304 219.751 23.1964ZM220.983 23.7064C221.208 23.5825 221.547 23.4924 222 23.4345L222.755 23.3404C222.985 23.3149 223.22 23.2691 223.459 23.2072C223.697 23.1466 223.896 23.0673 224.047 22.9732V23.9391C224.047 24.675 223.701 25.2037 223.009 25.5293C222.598 25.7243 222.175 25.8239 221.736 25.8239C221.376 25.8239 221.066 25.7244 220.802 25.5212C220.541 25.3247 220.407 25.0517 220.407 24.7046C220.407 24.2498 220.599 23.9135 220.983 23.7064Z" fill="#2E161C"/>
<path d="M228.346 26.5858V19.4648H229.529V20.4764C229.88 20.0581 230.251 19.7594 230.642 19.5778C231.034 19.3935 231.469 19.3046 231.95 19.3046C233.002 19.3046 233.713 19.6571 234.081 20.3635C234.285 20.747 234.387 21.2984 234.387 22.017V26.5858H233.119V22.095C233.119 21.6645 233.053 21.3146 232.919 21.0468C232.698 20.6055 232.296 20.3796 231.715 20.3796C231.42 20.3796 231.179 20.4079 230.99 20.4683C230.649 20.5652 230.347 20.7603 230.089 21.0522C229.882 21.289 229.747 21.5298 229.685 21.7828C229.622 22.0317 229.592 22.3923 229.592 22.8577V26.5858H228.346Z" fill="#2E161C"/>
<path d="M235.59 23.1964C235.159 23.5584 234.945 24.0709 234.945 24.7329C234.945 25.3328 235.165 25.8374 235.6 26.2384C236.035 26.638 236.597 26.841 237.286 26.841C237.856 26.841 238.379 26.7227 238.855 26.4859C239.331 26.2517 239.694 25.976 239.949 25.6558C239.991 25.9397 240.061 26.1602 240.163 26.3123C240.356 26.6069 240.669 26.7536 241.095 26.7536C241.273 26.7536 241.411 26.7482 241.512 26.7335C241.613 26.72 241.761 26.6878 241.956 26.6326V25.7473C242.024 25.7419 241.877 25.7635 241.956 25.7473C241.887 25.7547 241.603 25.7893 241.548 25.7893C241.378 25.7893 241.266 25.753 241.211 25.6749C241.159 25.601 241.132 25.5014 241.132 25.3777V21.273C241.132 20.6001 240.86 20.1038 240.323 19.7835C239.779 19.4621 239.071 19.3046 238.199 19.3046C237.447 19.3046 236.785 19.4754 236.215 19.8198C235.646 20.1642 235.351 20.7738 235.324 21.6535H236.488C236.536 21.2863 236.634 21.0051 236.787 20.8207C237.059 20.4844 237.521 20.3163 238.172 20.3163C238.734 20.3163 239.168 20.4078 239.466 20.5893C239.77 20.7763 239.921 21.0737 239.921 21.48C239.921 21.6778 239.895 21.8325 239.838 21.9373C239.742 22.1324 239.549 22.2509 239.264 22.2818L237.279 22.5239C236.58 22.6075 236.02 22.8304 235.59 23.1964ZM236.822 23.7064C237.049 23.5825 237.387 23.4924 237.837 23.4345L238.592 23.3404C238.822 23.3149 239.059 23.2691 239.298 23.2072C239.538 23.1466 239.735 23.0673 239.887 22.9732V23.9391C239.887 24.675 239.542 25.2037 238.85 25.5293C238.437 25.7243 238.012 25.8239 237.575 25.8239C237.215 25.8239 236.905 25.7244 236.641 25.5212C236.378 25.3247 236.248 25.0517 236.248 24.7046C236.248 24.2498 236.438 23.9135 236.822 23.7064Z" fill="#2E161C"/>
<path d="M243.692 20.4828C243.14 21.2415 242.865 22.1403 242.865 23.1763C242.865 24.2849 243.168 25.1755 243.772 25.8428C244.376 26.51 245.089 26.8425 245.918 26.8425C246.429 26.8425 246.883 26.7468 247.279 26.5505C247.675 26.3555 248.021 26.0406 248.311 25.602V26.5895H249.431V16.7858H248.234V20.3833C247.953 20.0549 247.702 19.8181 247.48 19.6863C247.096 19.4576 246.624 19.3419 246.055 19.3419C245.031 19.3419 244.241 19.7212 243.692 20.4828ZM244.764 21.0762C245.154 20.6146 245.662 20.3833 246.29 20.3833C246.854 20.3833 247.326 20.6013 247.709 21.0345C248.091 21.465 248.283 22.1336 248.283 23.0337C248.283 23.9256 248.097 24.605 247.726 25.0841C247.354 25.5616 246.88 25.7984 246.304 25.7984C245.561 25.7984 245.021 25.5414 244.685 25.0262C244.348 24.5135 244.178 23.8746 244.178 23.113C244.178 22.2169 244.373 21.5389 244.764 21.0762Z" fill="#2E161C"/>
<path d="M251.427 23.1964C250.997 23.5584 250.784 24.0709 250.784 24.7329C250.784 25.3328 251.002 25.8374 251.437 26.2384C251.873 26.638 252.435 26.841 253.123 26.841C253.695 26.841 254.218 26.7227 254.694 26.4859C255.17 26.2517 255.532 25.976 255.786 25.6558C255.828 25.9397 255.899 26.1602 256 26.3123C256.193 26.6069 256.506 26.7536 256.934 26.7536C257.11 26.7536 257.25 26.7482 257.35 26.7335C257.451 26.72 257.6 26.6878 257.795 26.6326V25.7473C257.714 25.7635 257.64 25.7743 257.572 25.7797C257.628 25.7797 257.503 25.7871 257.572 25.7797C257.4 25.7797 257.101 25.753 257.05 25.6749C256.994 25.601 256.971 25.5014 256.971 25.3777V21.273C256.971 20.6001 256.699 20.1038 256.16 19.7835C255.614 19.4621 254.907 19.3046 254.036 19.3046C253.283 19.3046 252.622 19.4754 252.052 19.8198C251.485 20.1642 251.186 20.7738 251.163 21.6535H252.326C252.373 21.2863 252.471 21.0051 252.624 20.8207C252.896 20.4844 253.358 20.3163 254.006 20.3163C254.571 20.3163 255.001 20.4078 255.305 20.5893C255.607 20.7763 255.76 21.0737 255.76 21.48C255.76 21.6778 255.73 21.8325 255.676 21.9373C255.579 22.1324 255.388 22.2509 255.101 22.2818L253.116 22.5239C252.419 22.6075 251.855 22.8304 251.427 23.1964ZM252.659 23.7064C252.886 23.5825 253.225 23.4924 253.676 23.4345L254.431 23.3404C254.661 23.3149 254.896 23.2691 255.137 23.2072C255.377 23.1466 255.572 23.0673 255.723 22.9732V23.9391C255.723 24.675 255.379 25.2037 254.685 25.5293C254.275 25.7243 253.851 25.8239 253.412 25.8239C253.053 25.8239 252.742 25.7244 252.478 25.5212C252.217 25.3247 252.085 25.0517 252.085 24.7046C252.085 24.2498 252.275 23.9135 252.659 23.7064Z" fill="#2E161C"/>
<path d="M313.601 0.416784C314.888 0.416784 315.887 0.742309 316.596 1.39488C317.307 2.0461 317.702 2.78744 317.781 3.61737H316.438C316.285 2.9837 315.982 2.48723 315.529 2.11732C315.074 1.75129 314.435 1.56836 313.615 1.56836C312.612 1.56836 311.805 1.90604 311.189 2.58139C310.574 3.25675 310.265 4.29543 310.265 5.69052C310.265 6.83686 310.544 7.76113 311.099 8.47277C311.656 9.18592 312.484 9.54233 313.587 9.54233C314.602 9.54233 315.374 9.16702 315.904 8.41758C316.187 8.02337 316.396 7.50412 316.535 6.86235H317.878C317.757 7.89023 317.36 8.75391 316.687 9.44816C315.88 10.2891 314.791 10.7047 313.42 10.7047C312.24 10.7047 311.248 10.363 310.444 9.67683C309.387 8.76471 308.861 7.36405 308.861 5.46439C308.861 4.02222 309.257 2.83958 310.051 1.91937C310.908 0.915789 312.091 0.416784 313.601 0.416784Z" fill="#2E161C"/>
<path d="M320.368 4.1982C319.736 4.9073 319.42 5.8611 319.42 7.05976C319.42 8.17641 319.72 9.06709 320.319 9.72894C320.919 10.3908 321.729 10.7246 322.749 10.7246C323.971 10.7246 324.873 10.3491 325.452 9.59985C326.035 8.85176 326.325 7.90066 326.325 6.75162C326.325 5.56359 325.997 4.66497 325.335 4.05273C324.676 3.43779 323.869 3.13369 322.914 3.13369C321.85 3.13369 321 3.48774 320.368 4.1982ZM321.219 8.93529C320.874 8.42801 320.7 7.79839 320.7 7.03833C320.7 6.24721 320.874 5.57456 321.219 5.0175C321.565 4.45791 322.118 4.1793 322.879 4.1793C323.737 4.1793 324.341 4.50769 324.694 5.1628C324.913 5.57996 325.024 6.12064 325.024 6.78671C325.024 7.51995 324.871 8.1926 324.564 8.79134C324.259 9.39261 323.691 9.69266 322.866 9.69266C322.113 9.69266 321.565 9.4397 321.219 8.93529Z" fill="#2E161C"/>
<path d="M327.339 10.4546V3.33351H328.523V4.34519C328.874 3.92685 329.244 3.62816 329.636 3.44658C330.029 3.2623 330.464 3.17336 330.946 3.17336C331.995 3.17336 332.707 3.52589 333.077 4.23229C333.279 4.6157 333.381 5.16719 333.381 5.88575V10.4546H332.113V5.96371C332.113 5.53305 332.046 5.18339 331.913 4.91558C331.692 4.47429 331.291 4.24832 330.71 4.24832C330.414 4.24832 330.171 4.27668 329.983 4.33709C329.641 4.43395 329.341 4.62904 329.083 4.92098C328.876 5.15774 328.74 5.39855 328.679 5.65151C328.616 5.90043 328.584 6.26105 328.584 6.72648V10.4546H327.339Z" fill="#2E161C"/>
<path d="M335.259 8.21117H336.456C336.493 8.61078 336.597 8.91757 336.767 9.13003C337.083 9.51479 337.626 9.70852 338.402 9.70852C338.862 9.70852 339.267 9.60896 339.618 9.41928C339.969 9.22555 340.143 8.9255 340.143 8.52066C340.143 8.21927 340.005 7.98521 339.722 7.82506C339.543 7.72819 339.186 7.61513 338.658 7.48603L337.666 7.24387C337.036 7.09722 336.569 6.92897 336.27 6.73929C335.735 6.41917 335.468 5.96978 335.468 5.39922C335.468 4.72117 335.719 4.17761 336.224 3.76196C336.73 3.34497 337.41 3.13369 338.261 3.13369C339.378 3.13369 340.184 3.45247 340.677 4.08091C340.986 4.479 341.137 4.91101 341.128 5.37103H339.95C339.929 5.10204 339.829 4.85583 339.652 4.6324C339.367 4.31632 338.872 4.16158 338.165 4.16158C337.694 4.16158 337.339 4.24899 337.095 4.41994C336.855 4.59207 336.734 4.82073 336.734 5.10204C336.734 5.41542 336.892 5.66163 337.209 5.85131C337.396 5.95898 337.666 6.05854 338.028 6.14326L338.851 6.33428C339.745 6.54286 340.347 6.74469 340.649 6.94247C341.135 7.24387 341.377 7.72819 341.377 8.38195C341.377 9.01697 341.125 9.56458 340.624 10.0261C340.124 10.4888 339.362 10.7202 338.338 10.7202C337.236 10.7202 336.454 10.478 335.996 9.99506C335.536 9.51479 335.29 8.9201 335.259 8.21117Z" fill="#2E161C"/>
<path d="M342.828 4.24293C342.181 4.95726 341.858 5.88558 341.858 7.03058C341.858 8.1916 342.178 9.09579 342.819 9.74279C343.46 10.3859 344.244 10.7074 345.164 10.7074C345.544 10.7074 345.884 10.6725 346.183 10.6038C346.741 10.4787 347.21 10.2366 347.589 9.88133C347.814 9.6822 348.019 9.4171 348.202 9.09562C348.383 8.77279 348.49 8.48085 348.521 8.22114H347.298C347.205 8.53586 347.048 8.81177 346.827 9.05394C346.439 9.46688 345.921 9.66871 345.268 9.66871C344.573 9.66871 344.06 9.45085 343.728 9.01496C343.395 8.58025 343.216 8.0004 343.194 7.27544H348.627C348.627 6.55823 348.588 6.03493 348.514 5.7067C348.432 5.22761 348.267 4.81061 348.016 4.44999C347.758 4.07468 347.384 3.76654 346.888 3.53112C346.395 3.29166 345.886 3.17336 345.361 3.17336C344.315 3.17336 343.474 3.53112 342.828 4.24293ZM343.844 4.81062C344.232 4.41658 344.711 4.2161 345.284 4.2161C346.081 4.2161 346.652 4.50534 346.994 5.08383C347.176 5.39332 347.294 5.80626 347.345 6.32417H343.228C343.252 5.7121 343.456 5.20753 343.844 4.81062Z" fill="#2E161C"/>
<path d="M349.778 2.03063V0.674519H351.046V2.03063H349.778ZM349.778 10.4447V3.3572H351.046V10.4447H349.778Z" fill="#2E161C"/>
<path d="M354.982 0.674519H353.738V10.4449H354.982V0.674519Z" fill="#2E161C"/>
<path d="M361.164 4.35174C360.611 5.11063 360.337 6.00924 360.337 7.04523C360.337 8.15377 360.639 9.04445 361.243 9.71171C361.847 10.379 362.564 10.7112 363.389 10.7112C363.901 10.7112 364.356 10.6157 364.751 10.4193C365.148 10.2242 365.494 9.90949 365.783 9.47089V10.4584H366.904V0.65468H365.708V4.25218C365.425 3.92378 365.172 3.68702 364.951 3.55522C364.57 3.32656 364.096 3.2108 363.527 3.2108C362.502 3.2108 361.714 3.59015 361.164 4.35174ZM362.237 4.94508C362.625 4.48354 363.134 4.25218 363.763 4.25218C364.324 4.25218 364.799 4.47021 365.18 4.9034C365.564 5.33389 365.755 6.00249 365.755 6.90263C365.755 7.79449 365.569 8.47406 365.199 8.95299C364.827 9.43056 364.351 9.66733 363.777 9.66733C363.032 9.66733 362.493 9.41031 362.156 8.89511C361.821 8.38243 361.651 7.74336 361.651 6.98194C361.651 6.08586 361.847 5.4078 362.237 4.94508Z" fill="#2E161C"/>
<path d="M369.226 4.24293C368.58 4.95726 368.257 5.88558 368.257 7.03058C368.257 8.1916 368.578 9.09579 369.219 9.74279C369.86 10.3859 370.641 10.7074 371.565 10.7074C371.944 10.7074 372.281 10.6725 372.581 10.6038C373.139 10.4787 373.606 10.2366 373.986 9.88133C374.214 9.6822 374.416 9.4171 374.598 9.09562C374.781 8.77279 374.888 8.48085 374.92 8.22114H373.696C373.603 8.53586 373.447 8.81177 373.225 9.05394C372.837 9.46688 372.318 9.66871 371.67 9.66871C370.969 9.66871 370.458 9.45085 370.127 9.01496C369.793 8.58025 369.616 8.0004 369.591 7.27544H375.025C375.025 6.55823 374.988 6.03493 374.914 5.7067C374.83 5.22761 374.663 4.81061 374.414 4.44999C374.158 4.07468 373.78 3.76654 373.289 3.53112C372.794 3.29166 372.284 3.17336 371.758 3.17336C370.715 3.17336 369.87 3.53112 369.226 4.24293ZM370.242 4.81062C370.631 4.41658 371.11 4.2161 371.682 4.2161C372.481 4.2161 373.05 4.50534 373.392 5.08383C373.577 5.39332 373.694 5.80626 373.743 6.32417H369.628C369.649 5.7121 369.856 5.20753 370.242 4.81062Z" fill="#2E161C"/>
<path d="M380.136 10.4546V3.33351H381.318V4.56322C381.416 4.32106 381.653 4.03047 382.032 3.68874C382.41 3.34701 382.845 3.17336 383.34 3.17336C383.286 3.16796 383.363 3.17336 383.34 3.17336C383.396 3.17876 383.607 3.19496 383.742 3.20711V4.47176C383.804 4.47446 383.667 4.45555 383.742 4.47176C383.679 4.46635 383.407 4.43412 383.333 4.43412C382.705 4.43412 382.224 4.6319 381.886 5.01801C381.548 5.40412 381.381 5.85351 381.381 6.36062V10.4546H380.136Z" fill="#2E161C"/>
<path d="M385.063 4.24293C384.417 4.95726 384.096 5.88558 384.096 7.03058C384.096 8.1916 384.415 9.09579 385.056 9.74279C385.697 10.3859 386.48 10.7074 387.402 10.7074C387.781 10.7074 388.12 10.6725 388.42 10.6038C388.978 10.4787 389.447 10.2366 389.825 9.88133C390.051 9.6822 390.255 9.4171 390.437 9.09562C390.62 8.77279 390.727 8.48085 390.759 8.22114H389.533C389.444 8.53586 389.286 8.81177 389.064 9.05394C388.676 9.46688 388.158 9.66871 387.505 9.66871C386.81 9.66871 386.296 9.45085 385.964 9.01496C385.632 8.58025 385.453 8.0004 385.432 7.27544H390.864C390.864 6.55823 390.825 6.03493 390.752 5.7067C390.669 5.22761 390.504 4.81061 390.253 4.44999C389.995 4.07468 389.621 3.76654 389.126 3.53112C388.632 3.29166 388.123 3.17336 387.598 3.17336C386.554 3.17336 385.709 3.53112 385.063 4.24293ZM386.081 4.81062C386.468 4.41658 386.949 4.2161 387.521 4.2161C388.318 4.2161 388.887 4.50534 389.229 5.08383C389.414 5.39332 389.531 5.80626 389.581 6.32417H385.465C385.488 5.7121 385.693 5.20753 386.081 4.81062Z" fill="#2E161C"/>
<path d="M395.377 3.13369C396.213 3.13369 396.893 3.33012 397.416 3.71893C397.939 4.11044 398.253 4.7804 398.36 5.73436H397.149C397.075 5.29307 396.907 4.93109 396.643 4.64185C396.382 4.3499 395.96 4.20596 395.377 4.20596C394.584 4.20596 394.019 4.57604 393.676 5.3226C393.453 5.80305 393.344 6.40161 393.344 7.1092C393.344 7.8264 393.501 8.42497 393.813 8.9147C394.129 9.40307 394.621 9.64524 395.295 9.64524C395.813 9.64524 396.222 9.49201 396.524 9.19061C396.826 8.88517 397.033 8.47088 397.149 7.942H398.36C398.223 8.88787 397.878 9.57672 397.321 10.0126C396.768 10.4512 396.06 10.6692 395.197 10.6692C394.229 10.6692 393.455 10.3275 392.881 9.6508C392.301 8.97005 392.015 8.11835 392.015 7.09857C392.015 5.84726 392.331 4.87338 392.963 4.17913C393.595 3.48352 394.4 3.13369 395.377 3.13369Z" fill="#2E161C"/>
<path d="M399.935 10.4584V0.65468H401.181V4.30196C401.475 3.93863 401.741 3.68719 401.975 3.54189C402.377 3.29028 402.879 3.16372 403.478 3.16372C404.552 3.16372 405.281 3.52434 405.665 4.24678C405.873 4.64369 405.976 5.18994 405.976 5.8896V10.4584H404.694V5.96756C404.694 5.44679 404.626 5.06338 404.489 4.81987C404.263 4.43106 403.838 4.23598 403.216 4.23598C402.698 4.23598 402.229 4.40423 401.81 4.74596C401.39 5.08768 401.181 5.7335 401.181 6.6792V10.4584H399.935Z" fill="#2E161C"/>
<path d="M408.823 4.24293C408.177 4.95726 407.854 5.88558 407.854 7.03058C407.854 8.1916 408.176 9.09579 408.816 9.74279C409.457 10.3859 410.24 10.7074 411.162 10.7074C411.541 10.7074 411.88 10.6725 412.18 10.6038C412.737 10.4787 413.206 10.2366 413.585 9.88133C413.811 9.6822 414.013 9.4171 414.198 9.09562C414.379 8.77279 414.487 8.48085 414.519 8.22114H413.293C413.2 8.53586 413.046 8.81177 412.823 9.05394C412.435 9.46688 411.917 9.66871 411.266 9.66871C410.569 9.66871 410.056 9.45085 409.724 9.01496C409.392 8.58025 409.213 8.0004 409.19 7.27544H414.623C414.623 6.55823 414.586 6.03493 414.514 5.7067C414.428 5.22761 414.263 4.81061 414.013 4.44999C413.755 4.07468 413.378 3.76654 412.886 3.53112C412.393 3.29166 411.884 3.17336 411.357 3.17336C410.314 3.17336 409.469 3.53112 408.823 4.24293ZM409.842 4.81062C410.228 4.41658 410.707 4.2161 411.28 4.2161C412.078 4.2161 412.649 4.50534 412.99 5.08383C413.176 5.39332 413.292 5.80626 413.343 6.32417H409.225C409.248 5.7121 409.454 5.20753 409.842 4.81062Z" fill="#2E161C"/>
<path d="M415.774 10.4546V3.33351H416.957V4.56322C417.054 4.32106 417.291 4.03047 417.67 3.68874C418.049 3.34701 418.485 3.17336 418.978 3.17336C418.923 3.16796 419.001 3.17336 418.978 3.17336C419.034 3.17876 419.245 3.19496 419.378 3.20711V4.47176C419.441 4.47446 419.306 4.45555 419.378 4.47176C419.315 4.46635 419.043 4.43412 418.971 4.43412C418.344 4.43412 417.861 4.6319 417.524 5.01801C417.187 5.40412 417.019 5.85351 417.019 6.36062V10.4546H415.774Z" fill="#2E161C"/>
<path d="M423.097 3.13369C423.931 3.13369 424.611 3.33012 425.134 3.71893C425.659 4.11044 425.973 4.7804 426.079 5.73436H424.869C424.795 5.29307 424.627 4.93109 424.363 4.64185C424.102 4.3499 423.677 4.20596 423.097 4.20596C422.302 4.20596 421.735 4.57604 421.394 5.3226C421.173 5.80305 421.063 6.40161 421.063 7.1092C421.063 7.8264 421.219 8.42497 421.533 8.9147C421.846 9.40307 422.341 9.64524 423.011 9.64524C423.529 9.64524 423.938 9.49201 424.24 9.19061C424.544 8.88517 424.751 8.47088 424.869 7.942H426.079C425.94 8.88787 425.594 9.57672 425.041 10.0126C424.488 10.4512 423.779 10.6692 422.917 10.6692C421.949 10.6692 421.175 10.3275 420.599 9.6508C420.021 8.97005 419.733 8.11835 419.733 7.09857C419.733 5.84726 420.05 4.87338 420.68 4.17913C421.314 3.48352 422.12 3.13369 423.097 3.13369Z" fill="#2E161C"/>
<path d="M427.653 10.4584V0.65468H428.9V4.30196C429.196 3.93863 429.46 3.68719 429.695 3.54189C430.097 3.29028 430.597 3.16372 431.198 3.16372C432.272 3.16372 433.001 3.52434 433.384 4.24678C433.593 4.64369 433.696 5.18994 433.696 5.8896V10.4584H432.416V5.96756C432.416 5.44679 432.346 5.06338 432.207 4.81987C431.981 4.43106 431.558 4.23598 430.934 4.23598C430.418 4.23598 429.948 4.40423 429.528 4.74596C429.108 5.08768 428.9 5.7335 428.9 6.6792V10.4584H427.653Z" fill="#2E161C"/>
<path d="M436.543 4.24293C435.897 4.95726 435.573 5.88558 435.573 7.03058C435.573 8.1916 435.894 9.09579 436.535 9.74279C437.175 10.3859 437.957 10.7074 438.88 10.7074C439.259 10.7074 439.598 10.6725 439.899 10.6038C440.457 10.4787 440.926 10.2366 441.303 9.88133C441.53 9.6822 441.733 9.4171 441.918 9.09562C442.097 8.77279 442.206 8.48085 442.237 8.22114H441.013C440.92 8.53586 440.762 8.81177 440.541 9.05394C440.155 9.46688 439.635 9.66871 438.984 9.66871C438.289 9.66871 437.774 9.45085 437.442 9.01496C437.109 8.58025 436.931 8.0004 436.907 7.27544H442.341C442.341 6.55823 442.304 6.03493 442.228 5.7067C442.148 5.22761 441.981 4.81061 441.732 4.44999C441.473 4.07468 441.098 3.76654 440.604 3.53112C440.111 3.29166 439.6 3.17336 439.073 3.17336C438.032 3.17336 437.188 3.53112 436.543 4.24293ZM437.56 4.81062C437.948 4.41658 438.426 4.2161 438.998 4.2161C439.797 4.2161 440.366 4.50534 440.708 5.08383C440.892 5.39332 441.01 5.80626 441.061 6.32417H436.944C436.965 5.7121 437.172 5.20753 437.56 4.81062Z" fill="#2E161C"/>
<path d="M442.237 8.22114L443.368 8.21117C443.405 8.61078 443.508 8.91757 443.68 9.13003C443.995 9.51479 444.537 9.70852 445.313 9.70852C445.775 9.70852 446.18 9.60896 446.532 9.41928C446.883 9.22555 447.056 8.9255 447.056 8.52066C447.056 8.21927 446.918 7.98521 446.635 7.82506C446.456 7.72819 446.101 7.61513 445.571 7.48603L444.581 7.24387C443.949 7.09722 443.482 6.92897 443.183 6.73929C442.648 6.41917 442.379 5.96978 442.379 5.39922C442.379 4.72117 442.632 4.17761 443.136 3.76196C443.642 3.34497 444.321 3.13369 445.174 3.13369C446.289 3.13369 447.097 3.45247 447.59 4.08091C447.899 4.479 448.05 4.91101 448.04 5.37103H446.863C446.842 5.10204 446.74 4.85583 446.567 4.6324C446.28 4.31632 445.784 4.16158 445.078 4.16158C444.607 4.16158 444.251 4.24899 444.009 4.41994C443.768 4.59207 443.645 4.82073 443.645 5.10204C443.645 5.41542 443.805 5.66163 444.124 5.85131C444.307 5.95898 444.581 6.05854 444.941 6.14326L445.764 6.33428C446.658 6.54286 447.258 6.74469 447.562 6.94247C448.047 7.24387 448.289 7.72819 448.289 8.38195C448.289 9.01697 448.038 9.56458 447.539 10.0261C447.037 10.4888 446.277 10.7202 445.252 10.7202C444.149 10.7202 443.368 10.478 442.908 9.99506C442.449 9.51479 442.269 8.93007 442.237 8.22114Z" fill="#2E161C"/>
<path d="M455.02 4.24293C454.376 4.95726 454.051 5.88558 454.051 7.03058C454.051 8.1916 454.373 9.09579 455.013 9.74279C455.654 10.3859 456.436 10.7074 457.359 10.7074C457.738 10.7074 458.077 10.6725 458.377 10.6038C458.936 10.4787 459.403 10.2366 459.782 9.88133C460.008 9.6822 460.212 9.4171 460.395 9.09562C460.576 8.77279 460.684 8.48085 460.716 8.22114H459.491C459.399 8.53586 459.241 8.81177 459.02 9.05394C458.634 9.46688 458.116 9.66871 457.463 9.66871C456.767 9.66871 456.253 9.45085 455.921 9.01496C455.588 8.58025 455.41 8.0004 455.387 7.27544H460.82C460.82 6.55823 460.783 6.03493 460.709 5.7067C460.626 5.22761 460.46 4.81061 460.21 4.44999C459.954 4.07468 459.577 3.76654 459.083 3.53112C458.588 3.29166 458.079 3.17336 457.552 3.17336C456.511 3.17336 455.667 3.53112 455.02 4.24293ZM456.039 4.81062C456.425 4.41658 456.904 4.2161 457.477 4.2161C458.276 4.2161 458.844 4.50534 459.187 5.08383C459.371 5.39332 459.489 5.80626 459.54 6.32417H455.422C455.445 5.7121 455.651 5.20753 456.039 4.81062Z" fill="#2E161C"/>
<path d="M461.971 10.4546V3.33351H463.156V4.34519C463.505 3.92685 463.876 3.62816 464.269 3.44658C464.661 3.2623 465.096 3.17336 465.577 3.17336C466.627 3.17336 467.338 3.52589 467.708 4.23229C467.912 4.6157 468.012 5.16719 468.012 5.88575V10.4546H466.745V5.96371C466.745 5.53305 466.678 5.18339 466.544 4.91558C466.323 4.47429 465.923 4.24832 465.34 4.24832C465.047 4.24832 464.805 4.27668 464.615 4.33709C464.273 4.43395 463.974 4.62904 463.714 4.92098C463.507 5.15774 463.374 5.39855 463.31 5.65151C463.247 5.90043 463.217 6.26105 463.217 6.72648V10.4546H461.971Z" fill="#2E161C"/>
<path d="M308.861 24.3623H310.058C310.095 24.7619 310.198 25.0687 310.369 25.2811C310.685 25.6659 311.227 25.8596 312.003 25.8596C312.465 25.8596 312.871 25.76 313.22 25.5704C313.573 25.3766 313.747 25.0766 313.747 24.6717C313.747 24.3703 313.608 24.1363 313.324 23.9761C313.144 23.8793 312.79 23.7662 312.26 23.6371L311.269 23.395C310.637 23.2483 310.17 23.0801 309.872 22.8904C309.336 22.5702 309.069 22.1209 309.069 21.5503C309.069 20.8722 309.32 20.3289 309.826 19.913C310.332 19.4961 311.011 19.2848 311.865 19.2848C312.981 19.2848 313.787 19.6036 314.279 20.232C314.588 20.6301 314.739 21.0621 314.73 21.5221H313.552C313.531 21.2531 313.431 21.0069 313.255 20.7835C312.969 20.4674 312.474 20.3127 311.768 20.3127C311.297 20.3127 310.941 20.4001 310.699 20.571C310.456 20.7431 310.335 20.9718 310.335 21.2531C310.335 21.5665 310.493 21.8127 310.813 22.0024C310.997 22.1101 311.269 22.2096 311.629 22.2943L312.453 22.4854C313.348 22.6939 313.947 22.8958 314.252 23.0936C314.737 23.395 314.979 23.8793 314.979 24.533C314.979 25.168 314.728 25.7157 314.228 26.1772C313.727 26.6399 312.965 26.8713 311.942 26.8713C310.839 26.8713 310.058 26.6291 309.598 26.1461C309.14 25.6659 308.894 25.0712 308.861 24.3623Z" fill="#2E161C"/>
<path d="M318.822 19.2649C319.658 19.2649 320.337 19.4614 320.861 19.8502C321.384 20.2417 321.698 20.9117 321.805 21.8656H320.594C320.52 21.4243 320.351 21.0623 320.09 20.7731C319.827 20.4812 319.405 20.3372 318.822 20.3372C318.029 20.3372 317.462 20.7073 317.121 21.4539C316.9 21.9343 316.789 22.5329 316.789 23.2405C316.789 23.9577 316.945 24.5562 317.258 25.0459C317.572 25.5343 318.067 25.7765 318.74 25.7765C319.256 25.7765 319.667 25.6233 319.967 25.3219C320.269 25.0164 320.478 24.602 320.594 24.0733H321.805C321.667 25.0191 321.321 25.708 320.766 26.1439C320.215 26.5825 319.505 26.8005 318.643 26.8005C317.674 26.8005 316.9 26.4588 316.324 25.7821C315.748 25.1013 315.46 24.2496 315.46 23.2298C315.46 21.9785 315.774 21.0046 316.408 20.3104C317.038 19.6148 317.844 19.2649 318.822 19.2649Z" fill="#2E161C"/>
<path d="M323.38 18.1815V16.8254H324.647V18.1815H323.38ZM323.38 26.5956V19.5081H324.647V26.5956H323.38Z" fill="#2E161C"/>
<path d="M326.989 20.5355C326.342 21.2472 326.019 22.1782 326.019 23.3205C326.019 24.4829 326.341 25.3871 326.982 26.0327C327.622 26.6772 328.405 27 329.327 27C329.706 27 330.044 26.9651 330.345 26.8923C330.902 26.7686 331.371 26.5292 331.748 26.1753C331.977 25.9721 332.18 25.7099 332.363 25.3869C332.544 25.0654 332.651 24.7748 332.684 24.5138H331.459C331.366 24.8273 331.211 25.1057 330.988 25.3439C330.602 25.7543 330.082 25.9615 329.431 25.9615C328.734 25.9615 328.221 25.7435 327.889 25.3049C327.556 24.869 327.378 24.2905 327.355 23.5681H332.788C332.788 22.851 332.751 22.3275 332.677 21.9993C332.593 21.519 332.428 21.1007 332.178 20.7401C331.92 20.3621 331.543 20.058 331.051 19.8185C330.556 19.5817 330.047 19.4633 329.52 19.4633C328.477 19.4633 327.635 19.8185 326.989 20.5355ZM328.007 21.1032C328.393 20.7065 328.872 20.5074 329.445 20.5074C330.244 20.5074 330.812 20.7953 331.155 21.371C331.339 21.6846 331.457 22.0989 331.508 22.6141H327.391C327.413 22.0047 327.619 21.5001 328.007 21.1032Z" fill="#2E161C"/>
<path d="M335.259 26.5858V19.4648H336.442V20.4764C336.792 20.0581 337.162 19.7594 337.555 19.5778C337.949 19.3935 338.384 19.3046 338.865 19.3046C339.915 19.3046 340.626 19.6571 340.995 20.3635C341.198 20.747 341.298 21.2984 341.298 22.017V26.5858H340.033V22.095C340.033 21.6645 339.966 21.3146 339.832 21.0468C339.611 20.6055 339.209 20.3796 338.63 20.3796C338.333 20.3796 338.091 20.4079 337.901 20.4683C337.561 20.5652 337.259 20.7603 337.002 21.0522C336.795 21.289 336.658 21.5298 336.597 21.7828C336.535 22.0317 336.504 22.3923 336.504 22.8577V26.5858H335.259Z" fill="#2E161C"/>
<path d="M345.222 19.2649C346.056 19.2649 346.736 19.4614 347.259 19.8502C347.784 20.2417 348.098 20.9117 348.204 21.8656H346.994C346.92 21.4243 346.752 21.0623 346.49 20.7731C346.227 20.4812 345.802 20.3372 345.222 20.3372C344.429 20.3372 343.86 20.7073 343.521 21.4539C343.298 21.9343 343.187 22.5329 343.187 23.2405C343.187 23.9577 343.346 24.5562 343.658 25.0459C343.971 25.5343 344.466 25.7765 345.138 25.7765C345.654 25.7765 346.065 25.6233 346.367 25.3219C346.671 25.0164 346.878 24.602 346.994 24.0733H348.204C348.067 25.0191 347.721 25.708 347.166 26.1439C346.615 26.5825 345.905 26.8005 345.043 26.8005C344.074 26.8005 343.3 26.4588 342.724 25.7821C342.148 25.1013 341.858 24.2496 341.858 23.2298C341.858 21.9785 342.174 21.0046 342.806 20.3104C343.439 19.6148 344.244 19.2649 345.222 19.2649Z" fill="#2E161C"/>
<path d="M350.747 20.3742C350.101 21.0885 349.778 22.0168 349.778 23.1618C349.778 24.3229 350.099 25.227 350.74 25.874C351.381 26.5172 352.164 26.8386 353.084 26.8386C353.465 26.8386 353.804 26.8037 354.104 26.735C354.661 26.61 355.129 26.3678 355.509 26.0126C355.735 25.8135 355.939 25.5483 356.121 25.2269C356.302 24.904 356.409 24.6121 356.443 24.3524H355.217C355.124 24.6671 354.97 24.943 354.748 25.1852C354.36 25.5981 353.841 25.8 353.189 25.8C352.494 25.8 351.98 25.5821 351.648 25.1462C351.316 24.7115 351.137 24.1316 351.114 23.4067H356.546C356.546 22.6895 356.509 22.1662 356.436 21.838C356.351 21.3589 356.186 20.9419 355.935 20.5812C355.679 20.2059 355.303 19.8978 354.81 19.6624C354.315 19.4229 353.806 19.3046 353.281 19.3046C352.236 19.3046 351.393 19.6624 350.747 20.3742ZM351.765 20.9419C352.152 20.5478 352.631 20.3473 353.203 20.3473C354.002 20.3473 354.573 20.6366 354.913 21.2151C355.098 21.5244 355.215 21.9375 355.266 22.4554H351.149C351.172 21.8434 351.377 21.3388 351.765 20.9419Z" fill="#2E161C"/>
<path d="M356.443 24.3524L357.575 24.3623C357.612 24.7619 357.715 25.0687 357.886 25.2811C358.198 25.6659 358.742 25.8596 359.52 25.8596C359.98 25.8596 360.386 25.76 360.737 25.5704C361.088 25.3766 361.262 25.0766 361.262 24.6717C361.262 24.3703 361.123 24.1363 360.841 23.9761C360.661 23.8793 360.305 23.7662 359.775 23.6371L358.785 23.395C358.154 23.2483 357.687 23.0801 357.387 22.8904C356.853 22.5702 356.585 22.1209 356.585 21.5503C356.585 20.8722 356.837 20.3289 357.343 19.913C357.847 19.4961 358.528 19.2848 359.38 19.2848C360.496 19.2848 361.302 19.6036 361.796 20.232C362.105 20.6301 362.256 21.0621 362.245 21.5221H361.069C361.048 21.2531 360.946 21.0069 360.77 20.7835C360.486 20.4674 359.991 20.3127 359.283 20.3127C358.813 20.3127 358.458 20.4001 358.214 20.571C357.972 20.7431 357.852 20.9718 357.852 21.2531C357.852 21.5665 358.01 21.8127 358.328 22.0024C358.512 22.1101 358.785 22.2096 359.145 22.2943L359.968 22.4854C360.863 22.6939 361.462 22.8958 361.768 23.0936C362.252 23.395 362.494 23.8793 362.494 24.533C362.494 25.168 362.243 25.7157 361.745 26.1772C361.243 26.6399 360.481 26.8713 359.457 26.8713C358.354 26.8713 357.573 26.6291 357.115 26.1461C356.657 25.6659 356.474 25.0613 356.443 24.3524Z" fill="#2E161C"/>
<path d="M368.257 26.5895V16.7858H369.502V20.433C369.797 20.0697 370.062 19.8183 370.299 19.673C370.699 19.4214 371.199 19.2948 371.8 19.2948C372.874 19.2948 373.603 19.6554 373.987 20.3778C374.195 20.7748 374.296 21.321 374.296 22.0207V26.5895H373.016V22.0986C373.016 21.5779 372.948 21.1945 372.809 20.9509C372.583 20.5621 372.16 20.3671 371.538 20.3671C371.018 20.3671 370.551 20.5353 370.132 20.877C369.712 21.2188 369.502 21.8644 369.502 22.8103V26.5895H368.257Z" fill="#2E161C"/>
<path d="M376.176 19.4633H377.449V24.1909C377.449 24.5556 377.509 24.8528 377.63 25.0816C377.851 25.5067 378.264 25.722 378.868 25.722C379.735 25.722 380.327 25.3493 380.641 24.6027C380.811 24.2058 380.896 23.6568 380.896 22.9585V19.4633H382.142V26.5844H380.964L380.98 25.5364C380.818 25.8067 380.618 26.0356 380.378 26.2199C379.9 26.5925 379.324 26.7794 378.647 26.7794C377.591 26.7794 376.872 26.4404 376.489 25.7597C376.28 25.3965 376.176 24.9135 376.176 24.304V19.4633Z" fill="#2E161C"/>
<path d="M384.096 26.5858V19.4648H385.328V20.4764C385.621 20.1241 385.89 19.8698 386.131 19.7123C386.541 19.4393 387.007 19.3046 387.528 19.3046C388.118 19.3046 388.594 19.4433 388.952 19.7245C389.157 19.8833 389.34 20.116 389.507 20.4294C389.783 20.0487 390.109 19.7648 390.483 19.5778C390.857 19.3935 391.277 19.3046 391.742 19.3046C392.737 19.3046 393.417 19.6517 393.777 20.3419C393.97 20.7159 394.068 21.2151 394.068 21.8433V26.5858H392.774V21.6402C392.774 21.1653 392.65 20.8398 392.402 20.6607C392.154 20.4818 391.856 20.3944 391.5 20.3944C391.01 20.3944 390.59 20.5532 390.237 20.868C389.884 21.1828 389.707 21.7089 389.707 22.4448V26.5858H388.441V21.9375C388.441 21.4572 388.381 21.102 388.262 20.8788C388.072 20.5477 387.72 20.3796 387.202 20.3796C386.731 20.3796 386.304 20.5585 385.918 20.9069C385.534 21.2568 385.341 21.8931 385.341 22.8066V26.5858H384.096Z" fill="#2E161C"/>
<path d="M396.619 23.1964C396.191 23.5584 395.975 24.0709 395.975 24.7329C395.975 25.3328 396.194 25.8374 396.63 26.2384C397.065 26.638 397.627 26.841 398.315 26.841C398.888 26.841 399.409 26.7227 399.887 26.4859C400.361 26.2517 400.726 25.976 400.979 25.6558C401.019 25.9397 401.093 26.1602 401.193 26.3123C401.386 26.6069 401.699 26.7536 402.127 26.7536C402.304 26.7536 402.441 26.7482 402.543 26.7335C402.645 26.72 402.791 26.6878 402.986 26.6326V25.7473C403.056 25.7419 402.907 25.7635 402.986 25.7473C402.917 25.7547 402.633 25.7893 402.576 25.7893C402.408 25.7893 402.296 25.753 402.241 25.6749C402.188 25.601 402.162 25.5014 402.162 25.3777V21.273C402.162 20.6001 401.893 20.1038 401.353 19.7835C400.807 19.4621 400.101 19.3046 399.227 19.3046C398.475 19.3046 397.817 19.4754 397.244 19.8198C396.676 20.1642 396.381 20.7738 396.356 21.6535H397.52C397.566 21.2863 397.666 21.0051 397.817 20.8207C398.089 20.4844 398.551 20.3163 399.2 20.3163C399.764 20.3163 400.196 20.4078 400.499 20.5893C400.801 20.7763 400.952 21.0737 400.952 21.48C400.952 21.6778 400.924 21.8325 400.868 21.9373C400.772 22.1324 400.578 22.2509 400.294 22.2818L398.307 22.5239C397.611 22.6075 397.049 22.8304 396.619 23.1964ZM397.852 23.7064C398.078 23.5825 398.417 23.4924 398.868 23.4345L399.623 23.3404C399.853 23.3149 400.089 23.2691 400.331 23.2072C400.568 23.1466 400.765 23.0673 400.917 22.9732V23.9391C400.917 24.675 400.57 25.2037 399.88 25.5293C399.467 25.7243 399.044 25.8239 398.605 25.8239C398.245 25.8239 397.934 25.7244 397.671 25.5212C397.409 25.3247 397.278 25.0517 397.278 24.7046C397.278 24.2498 397.469 23.9135 397.852 23.7064Z" fill="#2E161C"/>
<path d="M403.895 18.1815V16.8254H405.162V18.1815H403.895ZM403.895 26.5956V19.5081H405.162V26.5956H403.895Z" fill="#2E161C"/>
<path d="M406.534 26.5858V19.4648H407.719V20.4764C408.069 20.0581 408.441 19.7594 408.833 19.5778C409.224 19.3935 409.661 19.3046 410.139 19.3046C411.19 19.3046 411.902 19.6571 412.27 20.3635C412.474 20.747 412.577 21.2984 412.577 22.017V26.5858H411.308V22.095C411.308 21.6645 411.243 21.3146 411.108 21.0468C410.887 20.6055 410.486 20.3796 409.905 20.3796C409.61 20.3796 409.368 20.4079 409.177 20.4683C408.836 20.5652 408.536 20.7603 408.278 21.0522C408.071 21.289 407.935 21.5298 407.874 21.7828C407.811 22.0317 407.779 22.3923 407.779 22.8577V26.5858H406.534Z" fill="#2E161C"/>
<path d="M415.423 20.3742C414.777 21.0885 414.454 22.0168 414.454 23.1618C414.454 24.3229 414.775 25.227 415.418 25.874C416.057 26.5172 416.838 26.8386 417.763 26.8386C418.141 26.8386 418.48 26.8037 418.78 26.735C419.338 26.61 419.805 26.3678 420.184 26.0126C420.409 25.8135 420.615 25.5483 420.797 25.2269C420.976 24.904 421.087 24.6121 421.118 24.3524H419.893C419.802 24.6671 419.644 24.943 419.423 25.1852C419.036 25.5981 418.517 25.8 417.867 25.8C417.17 25.8 416.655 25.5821 416.324 25.1462C415.992 24.7115 415.814 24.1316 415.788 23.4067H421.222C421.222 22.6895 421.185 22.1662 421.111 21.838C421.029 21.3589 420.86 20.9419 420.615 20.5812C420.355 20.2059 419.979 19.8978 419.486 19.6624C418.992 19.4229 418.481 19.3046 417.956 19.3046C416.912 19.3046 416.069 19.6624 415.423 20.3742ZM416.441 20.9419C416.828 20.5478 417.307 20.3473 417.881 20.3473C418.678 20.3473 419.247 20.6366 419.589 21.2151C419.774 21.5244 419.891 21.9375 419.94 22.4554H415.825C415.848 21.8434 416.053 21.3388 416.441 20.9419Z" fill="#2E161C"/>
<path d="M422.373 24.3623H423.571C423.608 24.7619 423.711 25.0687 423.882 25.2811C424.196 25.6659 424.738 25.8596 425.516 25.8596C425.976 25.8596 426.382 25.76 426.733 25.5704C427.084 25.3766 427.258 25.0766 427.258 24.6717C427.258 24.3703 427.119 24.1363 426.836 23.9761C426.657 23.8793 426.303 23.7662 425.772 23.6371L424.782 23.395C424.15 23.2483 423.683 23.0801 423.385 22.8904C422.849 22.5702 422.581 22.1209 422.581 21.5503C422.581 20.8722 422.832 20.3289 423.337 19.913C423.845 19.4961 424.524 19.2848 425.376 19.2848C426.492 19.2848 427.298 19.6036 427.791 20.232C428.1 20.6301 428.251 21.0621 428.241 21.5221H427.065C427.044 21.2531 426.943 21.0069 426.768 20.7835C426.482 20.4674 425.987 20.3127 425.279 20.3127C424.809 20.3127 424.452 20.4001 424.21 20.571C423.969 20.7431 423.848 20.9718 423.848 21.2531C423.848 21.5665 424.006 21.8127 424.324 22.0024C424.51 22.1101 424.782 22.2096 425.14 22.2943L425.964 22.4854C426.859 22.6939 427.46 22.8958 427.763 23.0936C428.248 23.395 428.49 23.8793 428.49 24.533C428.49 25.168 428.239 25.7157 427.741 26.1772C427.238 26.6399 426.478 26.8713 425.453 26.8713C424.35 26.8713 423.569 26.6291 423.109 26.1461C422.651 25.6659 422.405 25.0712 422.373 24.3623Z" fill="#2E161C"/>
<path d="M433.76 20.4828C433.208 21.2415 432.933 22.1403 432.933 23.1763C432.933 24.2849 433.235 25.1755 433.839 25.8428C434.443 26.51 435.159 26.8425 435.986 26.8425C436.497 26.8425 436.95 26.7468 437.347 26.5505C437.745 26.3555 438.087 26.0406 438.379 25.602V26.5895H439.501V16.7858H438.302V20.3833C438.022 20.0549 437.77 19.8181 437.548 19.6863C437.166 19.4576 436.692 19.3419 436.121 19.3419C435.099 19.3419 434.309 19.7212 433.76 20.4828ZM434.832 21.0762C435.222 20.6146 435.731 20.3833 436.358 20.3833C436.92 20.3833 437.394 20.6013 437.775 21.0345C438.159 21.465 438.351 22.1336 438.351 23.0337C438.351 23.9256 438.165 24.605 437.794 25.0841C437.422 25.5616 436.948 25.7984 436.372 25.7984C435.629 25.7984 435.089 25.5414 434.752 25.0262C434.416 24.5135 434.248 23.8746 434.248 23.113C434.248 22.2169 434.443 21.5389 434.832 21.0762Z" fill="#2E161C"/>
<path d="M442.172 19.4633H443.447V24.1909C443.447 24.5556 443.506 24.8528 443.626 25.0816C443.847 25.5067 444.26 25.722 444.864 25.722C445.731 25.722 446.323 25.3493 446.635 24.6027C446.807 24.2058 446.893 23.6568 446.893 22.9585V19.4633H448.138V26.5844H446.962L446.974 25.5364C446.814 25.8067 446.612 26.0356 446.374 26.2199C445.898 26.5925 445.322 26.7794 444.642 26.7794C443.585 26.7794 442.867 26.4404 442.485 25.7597C442.277 25.3965 442.172 24.9135 442.172 24.304V19.4633Z" fill="#2E161C"/>
<path d="M457.47 16.5479C458.759 16.5479 459.758 16.8735 460.469 17.526C461.178 18.1772 461.573 18.9186 461.65 19.7485H460.309C460.156 19.1148 459.853 18.6184 459.4 18.2485C458.945 17.8824 458.307 17.6995 457.486 17.6995C456.483 17.6995 455.676 18.0372 455.059 18.7125C454.443 19.3879 454.134 20.4266 454.134 21.8217C454.134 22.968 454.415 23.8923 454.968 24.6039C455.525 25.3171 456.355 25.6735 457.456 25.6735C458.473 25.6735 459.245 25.2982 459.775 24.5487C460.058 24.1545 460.267 23.6353 460.406 22.9935H461.749C461.628 24.0214 461.231 24.885 460.557 25.5793C459.751 26.4202 458.662 26.8358 457.291 26.8358C456.109 26.8358 455.117 26.4941 454.315 25.808C453.258 24.8959 452.731 23.4952 452.731 21.5955C452.731 20.1534 453.128 18.9707 453.922 18.0505C454.78 17.0469 455.962 16.5479 457.47 16.5479Z" fill="#2E161C"/>
<path d="M463.933 23.1964C463.503 23.5584 463.291 24.0709 463.291 24.7329C463.291 25.3328 463.508 25.8374 463.944 26.2384C464.378 26.638 464.943 26.841 465.629 26.841C466.2 26.841 466.725 26.7227 467.201 26.4859C467.675 26.2517 468.038 25.976 468.293 25.6558C468.335 25.9397 468.405 26.1602 468.507 26.3123C468.7 26.6069 469.013 26.7536 469.441 26.7536C469.617 26.7536 469.755 26.7482 469.857 26.7335C469.959 26.72 470.106 26.6878 470.301 26.6326V25.7473C470.368 25.7419 470.221 25.7635 470.301 25.7473C470.231 25.7547 469.948 25.7893 469.892 25.7893C469.722 25.7893 469.61 25.753 469.557 25.6749C469.502 25.601 469.476 25.5014 469.476 25.3777V21.273C469.476 20.6001 469.206 20.1038 468.667 19.7835C468.121 19.4621 467.413 19.3046 466.541 19.3046C465.789 19.3046 465.129 19.4754 464.558 19.8198C463.991 20.1642 463.693 20.7738 463.67 21.6535H464.832C464.88 21.2863 464.98 21.0051 465.131 20.8207C465.403 20.4844 465.865 20.3163 466.514 20.3163C467.078 20.3163 467.51 20.4078 467.812 20.5893C468.114 20.7763 468.266 21.0737 468.266 21.48C468.266 21.6778 468.238 21.8325 468.182 21.9373C468.087 22.1324 467.894 22.2509 467.61 22.2818L465.622 22.5239C464.925 22.6075 464.363 22.8304 463.933 23.1964ZM465.166 23.7064C465.392 23.5825 465.731 23.4924 466.182 23.4345L466.936 23.3404C467.167 23.3149 467.403 23.2691 467.643 23.2072C467.882 23.1466 468.079 23.0673 468.23 22.9732V23.9391C468.23 24.675 467.885 25.2037 467.192 25.5293C466.781 25.7243 466.358 25.8239 465.919 25.8239C465.559 25.8239 465.248 25.7244 464.985 25.5212C464.722 25.3247 464.592 25.0517 464.592 24.7046C464.592 24.2498 464.781 23.9135 465.166 23.7064Z" fill="#2E161C"/>
<path d="M471.21 26.5858V19.4648H472.395V20.4764C472.745 20.0581 473.115 19.7594 473.509 19.5778C473.9 19.3935 474.334 19.3046 474.816 19.3046C475.866 19.3046 476.577 19.6571 476.948 20.3635C477.15 20.747 477.252 21.2984 477.252 22.017V26.5858H475.984V22.095C475.984 21.6645 475.917 21.3146 475.784 21.0468C475.563 20.6055 475.162 20.3796 474.581 20.3796C474.286 20.3796 474.042 20.4079 473.854 20.4683C473.512 20.5652 473.213 20.7603 472.954 21.0522C472.746 21.289 472.611 21.5298 472.548 21.7828C472.487 22.0317 472.457 22.3923 472.457 22.8577V26.5858H471.21Z" fill="#2E161C"/>
<path d="M479.774 23.1964C479.344 23.5584 479.13 24.0709 479.13 24.7329C479.13 25.3328 479.347 25.8374 479.785 26.2384C480.22 26.638 480.78 26.841 481.47 26.841C482.041 26.841 482.564 26.7227 483.04 26.4859C483.514 26.2517 483.879 25.976 484.134 25.6558C484.174 25.9397 484.246 26.1602 484.348 26.3123C484.541 26.6069 484.853 26.7536 485.28 26.7536C485.456 26.7536 485.596 26.7482 485.696 26.7335C485.798 26.72 485.945 26.6878 486.14 26.6326V25.7473C486.061 25.7635 485.986 25.7743 485.917 25.7797C485.972 25.7797 485.849 25.7871 485.917 25.7797C485.745 25.7797 485.449 25.753 485.394 25.6749C485.341 25.601 485.317 25.5014 485.317 25.3777V21.273C485.317 20.6001 485.045 20.1038 484.507 19.7835C483.961 19.4621 483.254 19.3046 482.381 19.3046C481.63 19.3046 480.968 19.4754 480.399 19.8198C479.83 20.1642 479.534 20.7738 479.509 21.6535H480.673C480.719 21.2863 480.819 21.0051 480.97 20.8207C481.242 20.4844 481.704 20.3163 482.353 20.3163C482.919 20.3163 483.349 20.4078 483.651 20.5893C483.954 20.7763 484.104 21.0737 484.104 21.48C484.104 21.6778 484.077 21.8325 484.023 21.9373C483.926 22.1324 483.733 22.2509 483.449 22.2818L481.463 22.5239C480.766 22.6075 480.201 22.8304 479.774 23.1964ZM481.007 23.7064C481.231 23.5825 481.57 23.4924 482.021 23.4345L482.775 23.3404C483.006 23.3149 483.243 23.2691 483.482 23.2072C483.721 23.1466 483.919 23.0673 484.072 22.9732V23.9391C484.072 24.675 483.724 25.2037 483.033 25.5293C482.622 25.7243 482.197 25.8239 481.76 25.8239C481.4 25.8239 481.087 25.7244 480.826 25.5212C480.562 25.3247 480.429 25.0517 480.429 24.7046C480.429 24.2498 480.62 23.9135 481.007 23.7064Z" fill="#2E161C"/>
<path d="M487.878 20.4828C487.325 21.2415 487.049 22.1403 487.049 23.1763C487.049 24.2849 487.353 25.1755 487.957 25.8428C488.561 26.51 489.276 26.8425 490.101 26.8425C490.615 26.8425 491.068 26.7468 491.465 26.5505C491.86 26.3555 492.204 26.0406 492.495 25.602V26.5895H493.617V16.7858H492.42V20.3833C492.139 20.0549 491.888 19.8181 491.667 19.6863C491.282 19.4576 490.808 19.3419 490.239 19.3419C489.216 19.3419 488.427 19.7212 487.878 20.4828ZM488.951 21.0762C489.339 20.6146 489.85 20.3833 490.475 20.3833C491.036 20.3833 491.511 20.6013 491.895 21.0345C492.276 21.465 492.467 22.1336 492.467 23.0337C492.467 23.9256 492.281 24.605 491.911 25.0841C491.54 25.5616 491.066 25.7984 490.49 25.7984C489.748 25.7984 489.207 25.5414 488.87 25.0262C488.533 24.5135 488.364 23.8746 488.364 23.113C488.364 22.2169 488.559 21.5389 488.951 21.0762Z" fill="#2E161C"/>
<path d="M495.613 23.1964C495.183 23.5584 494.969 24.0709 494.969 24.7329C494.969 25.3328 495.186 25.8374 495.622 26.2384C496.059 26.638 496.619 26.841 497.307 26.841C497.88 26.841 498.405 26.7227 498.879 26.4859C499.353 26.2517 499.718 25.976 499.973 25.6558C500.015 25.9397 500.083 26.1602 500.187 26.3123C500.38 26.6069 500.691 26.7536 501.121 26.7536C501.296 26.7536 501.435 26.7482 501.535 26.7335C501.635 26.72 501.784 26.6878 501.978 26.6326V25.7473C502.048 25.7419 501.9 25.7635 501.978 25.7473C501.909 25.7547 501.625 25.7893 501.57 25.7893C501.398 25.7893 501.288 25.753 501.235 25.6749C501.18 25.601 501.156 25.5014 501.156 25.3777V21.273C501.156 20.6001 500.884 20.1038 500.345 19.7835C499.8 19.4621 499.093 19.3046 498.222 19.3046C497.469 19.3046 496.807 19.4754 496.238 19.8198C495.669 20.1642 495.373 20.7738 495.348 21.6535H496.512C496.556 21.2863 496.658 21.0051 496.809 20.8207C497.081 20.4844 497.543 20.3163 498.192 20.3163C498.756 20.3163 499.188 20.4078 499.49 20.5893C499.793 20.7763 499.944 21.0737 499.944 21.48C499.944 21.6778 499.916 21.8325 499.862 21.9373C499.764 22.1324 499.572 22.2509 499.288 22.2818L497.302 22.5239C496.603 22.6075 496.041 22.8304 495.613 23.1964ZM496.844 23.7064C497.07 23.5825 497.411 23.4924 497.86 23.4345L498.615 23.3404C498.847 23.3149 499.081 23.2691 499.321 23.2072C499.56 23.1466 499.757 23.0673 499.909 22.9732V23.9391C499.909 24.675 499.565 25.2037 498.872 25.5293C498.461 25.7243 498.036 25.8239 497.597 25.8239C497.239 25.8239 496.926 25.7244 496.665 25.5212C496.401 25.3247 496.27 25.0517 496.27 24.7046C496.27 24.2498 496.461 23.9135 496.844 23.7064Z" fill="#2E161C"/>
<path d="M614.963 14.8949C614.991 15.9537 614.963 23.5821 614.963 23.5821C614.963 23.5821 614.545 25.6419 613.027 26.0737C612.512 26.2177 612.491 26.5272 613.027 26.5272H620.473C621.008 26.5272 620.987 26.2177 620.473 26.0737C618.952 25.6419 618.536 23.5821 618.536 23.5821V14.4564C618.536 12.1907 616.721 10.0394 612.551 10.0394C608.381 10.0394 607.277 11.7884 607.131 11.9888C606.98 12.1907 606.862 12.0172 606.862 12.0172C606.862 12.0172 606.474 10.5561 606.387 10.2723C606.295 9.98707 606.148 10.0396 606.148 10.0396L601.026 10.7566C601.026 10.7566 599.982 10.9301 601.026 11.245C601.026 11.245 603.319 12.3334 603.288 13.9936C603.268 15.0524 603.288 23.5822 603.288 23.5822C603.288 23.5822 602.872 25.642 601.353 26.0739C600.838 26.2178 600.816 26.5273 601.353 26.5273H608.799C609.333 26.5273 609.313 26.2178 608.799 26.0739C607.277 25.642 606.862 23.5822 606.862 23.5822V14.9086C606.862 14.9086 607.338 11.1321 611.301 11.1321C611.301 11.1321 614.853 11.0458 614.963 14.8949Z" fill="#2E161C"/>
<path d="M660.285 0.436453H655.999V8.67958H660.285V0.436453Z" fill="#2E161C"/>
<path d="M673.487 0.436453H669.198V8.67958H673.487V0.436453Z" fill="#2E161C"/>
<path d="M664.612 1.38835C664.995 3.19925 665.775 2.24663 665.775 2.24663L665.506 3.79258C665.416 4.28096 665.864 3.90818 665.864 3.90818L666.521 3.27991C666.372 4.30779 667.653 3.67952 667.653 3.67952C666.937 4.88088 667.829 4.79347 667.829 4.79347L666.372 5.94251C666.372 5.96799 666.133 6.22636 666.133 6.22636L666.521 6.8278L664.702 6.39848L664.793 8.0278H664.316L664.405 6.39848L662.709 6.76991L662.976 6.22636C662.976 6.22636 662.737 5.96799 662.737 5.94251L661.278 4.79347C661.278 4.79347 662.172 4.7101 661.398 3.62164C661.398 3.62164 662.676 4.25261 662.588 3.27991L663.243 3.90818C663.243 3.90818 663.691 4.28096 663.601 3.79258L663.332 2.24663C663.332 2.24663 664.261 3.10643 664.612 1.38835Z" fill="#2E161C"/>
<path d="M581.017 0.181814L581.672 9.57129C581.672 9.57129 581.497 10.8292 580.9 9.45552C580.303 8.08068 578.161 0.35259 572.202 1.09933C566.245 1.84336 563.567 6.53608 563.567 14.0931C563.567 21.65 566.961 25.6001 572.797 25.6001C578.635 25.6001 580.601 22.2231 581.672 19.0171C581.672 19.0171 582.09 17.6987 582.034 18.9592C582.034 18.9592 581.967 27.092 571.428 26.9737C561.06 26.8581 558.325 17.5279 558.325 14.0352C558.325 10.5426 559.754 0.983564 572.381 0.0108659C572.381 0.0108659 575.924 0.0660481 578.575 1.44376C578.575 1.44376 579.411 1.90108 579.827 1.2701C580.243 0.639133 580.361 0.410472 580.361 0.410472C580.361 0.410472 580.661 -0.333561 581.017 0.181814Z" fill="#2E161C"/>
<path d="M651.226 18.4518C651.233 15.1341 651.551 10.2961 645.996 10.8167C642.29 11.1624 640.833 16.4107 641.623 20.0473C642.276 23.0582 643.672 26.4325 647.538 25.8513C651.815 25.2082 651.221 20.7483 651.226 18.4518ZM650.873 25.3899C647.016 27.6811 641.932 27.1524 639.277 23.4418C636.471 19.5159 636.972 14.183 641.164 11.4208C644.195 9.42157 648.475 9.18481 650.852 11.3494C650.852 11.3494 651.211 11.7222 651.211 11.2082V3.42253C651.211 3.42253 650.705 1.13001 648.412 1.13001C648.412 1.13001 647.815 0.930879 648.352 0.673867L653.951 0.100779C653.951 0.100779 654.783 0.0455949 654.783 0.586452V22.8873C654.783 22.8873 655.289 25.6333 657.345 25.6333C657.345 25.6333 658.119 25.6911 657.317 26.0935L651.806 26.7796C651.806 26.7796 651.388 26.9531 651.388 26.4352L651.272 25.5754C651.272 25.5754 651.437 25.0563 650.873 25.3899Z" fill="#2E161C"/>
<path d="M591.845 17.6555C589.28 18.853 585.739 19.9965 585.782 23.15C585.811 25.2434 588.446 26.5026 590.489 25.2233C591.711 24.4551 592.108 23.1756 592.203 21.9204V17.9704C592.203 17.9704 592.263 17.5102 591.845 17.6555ZM599.052 25.1803C599.052 25.1803 600.304 24.1537 599.498 25.3283L598.992 25.9014C597.138 27.1311 593.887 26.792 592.589 25.3537C592.289 24.926 591.959 25.265 591.959 25.265C590.233 26.7207 587.772 27.0045 585.408 26.3683C583.426 25.8355 581.902 24.1875 582.101 22.2353C582.538 18.0096 587.51 18.5302 590.646 17.4054C591.49 17.1013 592.084 15.9471 592.115 14.7644C592.159 13.1984 591.662 10.7135 589.136 10.6867C586.934 10.661 586.91 12.8312 585.717 14.042C585.18 14.5855 583.431 14.5437 582.996 13.4714C582.729 12.8231 582.792 11.7844 583.79 11.0417C586.446 9.05733 595.785 9.50943 595.785 13.1673C595.785 18.2462 595.744 19.944 595.786 24.2977C595.797 25.3834 596.643 25.7198 597.591 25.7333C598.093 25.7409 598.797 25.3593 599.263 25.066" fill="#2E161C"/>
<path d="M630.121 17.6555C627.556 18.853 624.015 19.9965 624.057 23.15C624.087 25.2434 626.722 26.5026 628.769 25.2233C629.99 24.4551 630.385 23.1756 630.479 21.9204L630.478 17.9704C630.478 17.9704 630.537 17.5102 630.121 17.6555ZM637.327 25.1803C637.327 25.1803 638.578 24.1537 637.773 25.3283L637.269 25.9014C635.415 27.1311 632.163 26.792 630.866 25.3537C630.567 24.926 630.237 25.265 630.237 25.265C628.51 26.7207 626.046 27.0045 623.685 26.3683C621.703 25.8355 620.177 24.1875 620.379 22.2353C620.812 18.0096 625.785 18.5302 628.92 17.4054C629.768 17.1013 630.358 15.9471 630.392 14.7644C630.432 13.1984 629.94 10.7135 627.41 10.6867C625.209 10.661 625.188 12.8312 623.994 14.042C623.458 14.5855 621.708 14.5437 621.271 13.4714C621.006 12.8231 621.067 11.7844 622.068 11.0417C624.719 9.05733 634.061 9.50943 634.061 13.1673C634.061 18.2462 634.022 19.944 634.063 24.2977C634.073 25.3834 634.92 25.7198 635.868 25.7333C636.368 25.7409 637.072 25.3593 637.541 25.066" fill="#2E161C"/>
<path d="M667.079 17.6555C664.512 18.853 660.973 19.9965 661.015 23.15C661.044 25.2434 663.68 26.5026 665.723 25.2233C666.945 24.4551 667.342 23.1756 667.435 21.9204L667.434 17.9704C667.434 17.9704 667.495 17.5102 667.079 17.6555ZM674.284 25.1803C674.284 25.1803 675.534 24.1537 674.73 25.3283L674.226 25.9014C672.371 27.1311 669.119 26.792 667.822 25.3537C667.525 24.926 667.193 25.265 667.193 25.265C665.467 26.7207 663.004 27.0045 660.642 26.3683C658.66 25.8355 657.135 24.1875 657.336 22.2353C657.77 18.0096 662.742 18.5302 665.88 17.4054C666.724 17.1013 667.316 15.9471 667.349 14.7644C667.393 13.1984 666.896 10.7135 664.368 10.6867C662.165 10.661 662.144 12.8312 660.948 14.042C660.412 14.5855 658.664 14.5437 658.228 13.4714C657.963 12.8231 658.025 11.7844 659.024 11.0417C661.678 9.05733 671.019 9.50943 671.019 13.1673C671.019 18.2462 670.98 19.944 671.022 24.2977C671.031 25.3834 671.875 25.7198 672.825 25.7333C673.326 25.7409 674.032 25.3593 674.499 25.066" fill="#2E161C"/>
</svg>
