<?xml version="1.0" encoding="UTF-8" standalone="no"?>
<svg width="397px" height="97px" viewBox="0 0 397 97" version="1.1" xmlns="http://www.w3.org/2000/svg" xmlns:xlink="http://www.w3.org/1999/xlink">
    <!-- Generator: Sketch 50.2 (55047) - http://www.bohemiancoding.com/sketch -->
    <title>The Women’s Print Hi</title>
    <desc>Created with Sketch.</desc>
    <defs></defs>
    <g id="Page-1" stroke="none" stroke-width="1" fill="none" fill-rule="evenodd">
        <path d="M48.632,34.712 C48.632,34.904001 48.5680006,35 48.44,35 C47.6079958,35 46.9520024,34.9840002 46.472,34.952 L43.64,34.904 L40.76,34.952 C40.2799976,34.9840002 39.6240042,35 38.792,35 C38.7279997,35 38.696,34.904001 38.696,34.712 C38.696,34.519999 38.7279997,34.424 38.792,34.424 C39.784005,34.424 40.4639982,34.1920023 40.832,33.728 C41.2000018,33.2639977 41.384,32.3920064 41.384,31.112 L41.384,24.2 C41.384,22.4719914 41.0640032,21.1920042 40.424,20.36 C39.7839968,19.5279958 38.7920067,19.112 37.448,19.112 C36.6799962,19.112 35.896004,19.2639985 35.096,19.568 C34.295996,19.8720015 33.592003,20.2959973 32.984,20.84 L32.984,31.112 C32.984,32.3920064 33.1599982,33.2639977 33.512,33.728 C33.8640018,34.1920023 34.535995,34.424 35.528,34.424 C35.6560006,34.424 35.72,34.519999 35.72,34.712 C35.72,34.904001 35.6560006,35 35.528,35 C34.6959958,35 34.0400024,34.9840002 33.56,34.952 L30.728,34.904 L27.848,34.952 C27.3679976,34.9840002 26.7120042,35 25.88,35 C25.8159997,35 25.784,34.904001 25.784,34.712 C25.784,34.519999 25.8159997,34.424 25.88,34.424 C26.872005,34.424 27.5519982,34.1920023 27.92,33.728 C28.2880018,33.2639977 28.472,32.3920064 28.472,31.112 L28.472,6.92 C28.472,6.5999984 28.4000007,6.38400056 28.256,6.272 C28.1119993,6.15999944 27.8480019,6.104 27.464,6.104 L19.544,6.104 C18.6159954,6.104 18.0000015,6.303998 17.696,6.704 C17.3919985,7.104002 17.24,7.8639944 17.24,8.984 L17.24,31.112 C17.24,32.104005 17.335999,32.8239978 17.528,33.272 C17.720001,33.7200022 18.0879973,34.0239992 18.632,34.184 C19.1760027,34.3440008 20.0399941,34.424 21.224,34.424 C21.3200005,34.424 21.368,34.519999 21.368,34.712 C21.368,34.904001 21.3200005,35 21.224,35 C20.0719942,35 19.1600034,34.9840002 18.488,34.952 L14.504,34.904 L10.616,34.952 C9.94399664,34.9840002 9.01600592,35 7.832,35 C7.73599952,35 7.688,34.904001 7.688,34.712 C7.688,34.519999 7.73599952,34.424 7.832,34.424 C8.98400576,34.424 9.8399972,34.3440008 10.4,34.184 C10.9600028,34.0239992 11.343999,33.7120023 11.552,33.248 C11.760001,32.7839977 11.864,32.0720048 11.864,31.112 L11.864,8.888 C11.864,7.79999456 11.7200014,7.06400192 11.432,6.68 C11.1439986,6.29599808 10.5520045,6.104 9.656,6.104 C5.84798096,6.104 3.11200832,8.5839752 1.448,13.544 C1.41599984,13.6400005 1.3200008,13.6800001 1.16,13.664 C0.9999992,13.6479999 0.92,13.5920005 0.92,13.496 C1.04800064,12.2159936 1.1919992,10.5600102 1.352,8.528 C1.5120008,6.49598984 1.592,4.96800512 1.592,3.944 C1.592,3.7839992 1.67999912,3.704 1.856,3.704 C2.03200088,3.704 2.12,3.7839992 2.12,3.944 C2.12,4.64800352 3.03199088,5 4.856,5 C7.60801376,5.09600048 10.8239816,5.144 14.504,5.144 C19.4000245,5.144 22.5039934,5.09600048 23.816,5 C25.7680098,4.90399952 27.4559929,4.40800448 28.88,3.512 C30.3040071,2.61599552 31.3679965,1.51200656 32.072,0.2 C32.1360003,0.10399952 32.263999,0.056 32.456,0.056 C32.8080018,0.056 32.984,0.1359992 32.984,0.296 L32.984,19.784 C34.0080051,18.5359938 35.1359938,17.5760034 36.368,16.904 C37.6000062,16.2319966 38.9039931,15.896 40.28,15.896 C42.0080086,15.896 43.375995,16.4479945 44.384,17.552 C45.392005,18.6560055 45.896,20.103991 45.896,21.896 L45.896,31.112 C45.896,32.3920064 46.0719982,33.2639977 46.424,33.728 C46.7760018,34.1920023 47.447995,34.424 48.44,34.424 C48.5680006,34.424 48.632,34.519999 48.632,34.712 Z M67.7946666,31.832 C67.8586669,31.832 67.9306662,31.8959994 68.0106666,32.024 C68.090667,32.1520006 68.0986669,32.2479997 68.0346666,32.312 C66.8506607,33.4640058 65.6506727,34.2959974 64.4346666,34.808 C63.2186605,35.3200026 61.8906738,35.576 60.4506666,35.576 C58.4346565,35.576 56.690674,35.1520042 55.2186666,34.304 C53.7466592,33.4559958 52.6266704,32.3200071 51.8586666,30.896 C51.0906628,29.4719929 50.7066666,27.9280083 50.7066666,26.264 C50.7066666,24.4079907 51.170662,22.6960078 52.0986666,21.128 C53.0266712,19.5599922 54.3146584,18.3200046 55.9626666,17.408 C57.6106748,16.4959954 59.4746562,16.04 61.5546666,16.04 C63.5386765,16.04 65.0746612,16.4879955 66.1626666,17.384 C67.250672,18.2800045 67.7946666,19.6719906 67.7946666,21.56 C67.7946666,22.552005 67.6186684,23.048 67.2666666,23.048 L55.6026666,23.096 C55.5706664,23.3200011 55.5546666,23.6879974 55.5546666,24.2 C55.5546666,27.0160141 56.2026601,29.223992 57.4986666,30.824 C58.7946731,32.424008 60.6586544,33.224 63.0906666,33.224 C63.9546709,33.224 64.6906636,33.128001 65.2986666,32.936 C65.9066696,32.743999 66.7066616,32.3920026 67.6986666,31.88 L67.7946666,31.832 Z M57.0906666,18.368 C56.3866631,19.2800046 55.9226677,20.535992 55.6986666,22.136 L62.6586666,22.04 C62.6266664,20.4079918 62.3866688,19.1600043 61.9386666,18.296 C61.4906644,17.4319957 60.7546717,17 59.7306666,17 C58.6746613,17 57.7946701,17.4559954 57.0906666,18.368 Z M124.312,5.288 C124.312,5.48000096 124.28,5.576 124.216,5.576 C123.031994,5.576 121.920005,6.07999496 120.88,7.088 C119.839995,8.09600504 118.984003,9.4799912 118.312,11.24 L109.432,34.952 C109.4,35.0800006 109.224001,35.144 108.904,35.144 C108.583998,35.144 108.408,35.0800006 108.376,34.952 L102.232,21.944 L97.3839998,34.952 C97.3519996,35.0800006 97.1760014,35.144 96.8559998,35.144 C96.5359982,35.144 96.36,35.0800006 96.3279998,34.952 L84.0879998,8.984 C83.6079974,7.95999488 83.2160013,7.22400224 82.9119998,6.776 C82.6079983,6.32799776 82.2720016,6.01600088 81.9039998,5.84 C81.535998,5.66399912 81.0480028,5.576 80.4399998,5.576 C80.3439993,5.576 80.2959998,5.48000096 80.2959998,5.288 C80.2959998,5.09599904 80.3439993,5 80.4399998,5 C80.9200022,5 81.2559988,5.01599984 81.4479998,5.048 C82.088003,5.11200032 82.9199947,5.144 83.9439998,5.144 C86.0880105,5.144 87.8959924,5.11200032 89.3679998,5.048 C89.7840019,5.01599984 90.2959968,5 90.9039998,5 C91.0000003,5 91.0479998,5.09599904 91.0479998,5.288 C91.0479998,5.48000096 91.0000003,5.576 90.9039998,5.576 C90.1039958,5.576 89.5360015,5.6559992 89.1999998,5.816 C88.8639981,5.9760008 88.6959998,6.26399792 88.6959998,6.68 C88.6959998,7.22400272 89.0639961,8.27999216 89.7999998,9.848 L98.4399998,28.184 L101.464,20.264 L96.1359998,8.984 C95.5919971,7.83199424 95.0800022,6.9760028 94.5999998,6.416 C94.1199974,5.8559972 93.6080025,5.576 93.0639998,5.576 C92.9679993,5.576 92.9199998,5.48000096 92.9199998,5.288 C92.9199998,5.09599904 92.9679993,5 93.0639998,5 C93.3840014,5 93.7599976,5.02399976 94.1919998,5.072 C94.624002,5.12000024 95.2399958,5.144 96.0399998,5.144 C97.8640089,5.144 99.3839937,5.11200032 100.6,5.048 C100.920001,5.01599984 101.335997,5 101.848,5 C101.944,5 101.992,5.09599904 101.992,5.288 C101.992,5.48000096 101.944,5.576 101.848,5.576 C101.399998,5.576 101.072001,5.63199944 100.864,5.744 C100.655999,5.85600056 100.552,6.05599856 100.552,6.344 C100.552,6.88800272 100.983995,8.05599104 101.848,9.848 L103.96,14.312 L105.16,11.096 C105.864003,9.27199088 106.216,7.89600464 106.216,6.968 C106.216,6.03999536 105.816004,5.576 105.016,5.576 C104.919999,5.576 104.872,5.48000096 104.872,5.288 C104.872,5.09599904 104.919999,5 105.016,5 C105.272001,5 105.551998,5.02399976 105.856,5.072 C106.160001,5.12000024 106.919994,5.144 108.136,5.144 C108.680003,5.144 109.335996,5.11200032 110.104,5.048 L111.88,5 C111.944,5 111.976,5.09599904 111.976,5.288 C111.976,5.48000096 111.944,5.576 111.88,5.576 C109.735989,5.576 107.960007,7.46398112 106.552,11.24 L104.776,15.992 L110.536,28.136 L116.728,11.576 C117.112002,10.5519949 117.304,9.62400416 117.304,8.792 C117.304,7.79999504 117.056002,7.01600288 116.56,6.44 C116.063997,5.86399712 115.400004,5.576 114.568,5.576 C114.471999,5.576 114.424,5.48000096 114.424,5.288 C114.424,5.09599904 114.471999,5 114.568,5 L116.776,5.048 C117.928006,5.11200032 118.983995,5.144 119.944,5.144 C120.584003,5.144 121.319996,5.11200032 122.152,5.048 L124.216,5 C124.28,5 124.312,5.09599904 124.312,5.288 Z M126.314666,34.256 C124.826659,33.3439954 123.68267,32.1120078 122.882666,30.56 C122.082662,29.0079922 121.682666,27.3200091 121.682666,25.496 C121.682666,23.4159896 122.210661,21.6480073 123.266666,20.192 C124.322672,18.7359927 125.666658,17.6480036 127.298666,16.928 C128.930675,16.2079964 130.610658,15.848 132.338666,15.848 C134.322676,15.848 136.050659,16.3119954 137.522666,17.24 C138.994674,18.1680046 140.122662,19.3919924 140.906666,20.912 C141.69067,22.4320076 142.082666,24.0559914 142.082666,25.784 C142.082666,27.7040096 141.602671,29.4079926 140.642666,30.896 C139.682662,32.3840074 138.394674,33.5439958 136.778666,34.376 C135.162658,35.2080042 133.410676,35.624 131.522666,35.624 C129.538656,35.624 127.802674,35.1680046 126.314666,34.256 Z M135.818666,32.768 C136.47467,31.5359938 136.802666,29.7680115 136.802666,27.464 C136.802666,25.2239888 136.514669,23.304008 135.938666,21.704 C135.362664,20.103992 134.610671,18.8960041 133.682666,18.08 C132.754662,17.2639959 131.762672,16.856 130.706666,16.856 C128.146654,16.856 126.866666,19.1439771 126.866666,23.72 C126.866666,25.8640107 127.138664,27.7599918 127.682666,29.408 C128.226669,31.0560082 128.962662,32.3359954 129.890666,33.248 C130.818671,34.1600046 131.842661,34.616 132.962666,34.616 C134.210673,34.616 135.162663,34.0000062 135.818666,32.768 Z M180.109333,34.712 C180.109333,34.904001 180.045334,35 179.917333,35 C179.085329,35 178.429335,34.9840002 177.949333,34.952 L175.069333,34.904 L172.285333,34.952 C171.77333,34.9840002 171.101337,35 170.269333,35 C170.173333,35 170.125333,34.904001 170.125333,34.712 C170.125333,34.519999 170.173333,34.424 170.269333,34.424 C171.261338,34.424 171.941331,34.1920023 172.309333,33.728 C172.677335,33.2639977 172.861333,32.3920064 172.861333,31.112 L172.861333,24.2 C172.861333,22.4719914 172.565336,21.1920042 171.973333,20.36 C171.38133,19.5279958 170.477339,19.112 169.261333,19.112 C168.429329,19.112 167.613337,19.2879982 166.813333,19.64 C166.013329,19.9920018 165.325336,20.471997 164.749333,21.08 L164.749333,31.112 C164.749333,32.3920064 164.933331,33.2639977 165.301333,33.728 C165.669335,34.1920023 166.349328,34.424 167.341333,34.424 C167.469334,34.424 167.533333,34.519999 167.533333,34.712 C167.533333,34.904001 167.469334,35 167.341333,35 C166.509329,35 165.853335,34.9840002 165.373333,34.952 L162.493333,34.904 L159.709333,34.952 C159.19733,34.9840002 158.525337,35 157.693333,35 C157.597333,35 157.549333,34.904001 157.549333,34.712 C157.549333,34.519999 157.597333,34.424 157.693333,34.424 C158.685338,34.424 159.365331,34.1920023 159.733333,33.728 C160.101335,33.2639977 160.285333,32.3920064 160.285333,31.112 L160.285333,24.2 C160.285333,22.4719914 159.989336,21.1920042 159.397333,20.36 C158.80533,19.5279958 157.901339,19.112 156.685333,19.112 C155.917329,19.112 155.157337,19.2639985 154.405333,19.568 C153.653329,19.8720015 152.989336,20.2959973 152.413333,20.84 L152.413333,31.112 C152.413333,32.3920064 152.597331,33.2639977 152.965333,33.728 C153.333335,34.1920023 154.013328,34.424 155.005333,34.424 C155.101333,34.424 155.149333,34.519999 155.149333,34.712 C155.149333,34.904001 155.101333,35 155.005333,35 C154.173329,35 153.517335,34.9840002 153.037333,34.952 L150.157333,34.904 L147.325333,34.952 C146.845331,34.9840002 146.189337,35 145.357333,35 C145.261333,35 145.213333,34.904001 145.213333,34.712 C145.213333,34.519999 145.261333,34.424 145.357333,34.424 C146.349338,34.424 147.021331,34.1920023 147.373333,33.728 C147.725335,33.2639977 147.901333,32.3920064 147.901333,31.112 L147.901333,22.088 C147.901333,21.095995 147.781334,20.3680023 147.541333,19.904 C147.301332,19.4399977 146.925336,19.208 146.413333,19.208 C145.86933,19.208 145.101338,19.4319978 144.109333,19.88 L144.013333,19.88 C143.917333,19.88 143.845333,19.8000008 143.797333,19.64 C143.749333,19.4799992 143.757333,19.3840002 143.821333,19.352 L150.493333,16.088 C150.685334,16.0239997 150.797333,15.992 150.829333,15.992 C151.181335,15.992 151.517331,16.3359966 151.837333,17.024 C152.157335,17.7120034 152.349333,18.6319942 152.413333,19.784 C154.589344,17.191987 156.925321,15.896 159.421333,15.896 C160.925341,15.896 162.125329,16.2639963 163.021333,17 C163.917337,17.7360037 164.461332,18.7919931 164.653333,20.168 C166.861344,17.3199858 169.30932,15.896 171.997333,15.896 C173.725342,15.896 175.045328,16.391995 175.957333,17.384 C176.869338,18.376005 177.325333,19.8799899 177.325333,21.896 L177.325333,31.112 C177.325333,32.3920064 177.509331,33.2639977 177.877333,33.728 C178.245335,34.1920023 178.925328,34.424 179.917333,34.424 C180.045334,34.424 180.109333,34.519999 180.109333,34.712 Z M199.272,31.832 C199.336,31.832 199.407999,31.8959994 199.488,32.024 C199.568,32.1520006 199.576,32.2479997 199.512,32.312 C198.327994,33.4640058 197.128006,34.2959974 195.912,34.808 C194.695994,35.3200026 193.368007,35.576 191.928,35.576 C189.91199,35.576 188.168007,35.1520042 186.696,34.304 C185.223992,33.4559958 184.104003,32.3200071 183.336,30.896 C182.567996,29.4719929 182.184,27.9280083 182.184,26.264 C182.184,24.4079907 182.647995,22.6960078 183.576,21.128 C184.504004,19.5599922 185.791991,18.3200046 187.44,17.408 C189.088008,16.4959954 190.951989,16.04 193.032,16.04 C195.01601,16.04 196.551994,16.4879955 197.64,17.384 C198.728005,18.2800045 199.272,19.6719906 199.272,21.56 C199.272,22.552005 199.096001,23.048 198.744,23.048 L187.08,23.096 C187.047999,23.3200011 187.032,23.6879974 187.032,24.2 C187.032,27.0160141 187.679993,29.223992 188.976,30.824 C190.272006,32.424008 192.135987,33.224 194.568,33.224 C195.432004,33.224 196.167997,33.128001 196.776,32.936 C197.384003,32.743999 198.183995,32.3920026 199.176,31.88 L199.272,31.832 Z M188.568,18.368 C187.863996,19.2800046 187.400001,20.535992 187.176,22.136 L194.136,22.04 C194.103999,20.4079918 193.864002,19.1600043 193.416,18.296 C192.967997,17.4319957 192.232005,17 191.208,17 C190.151994,17 189.272003,17.4559954 188.568,18.368 Z M225.154666,34.712 C225.154666,34.904001 225.106667,35 225.010666,35 C224.178662,35 223.522669,34.9840002 223.042666,34.952 L220.162666,34.904 L217.378666,34.952 C216.866664,34.9840002 216.19467,35 215.362666,35 C215.266666,35 215.218666,34.904001 215.218666,34.712 C215.218666,34.519999 215.266666,34.424 215.362666,34.424 C216.354671,34.424 217.026664,34.1920023 217.378666,33.728 C217.730668,33.2639977 217.906666,32.3920064 217.906666,31.112 L217.906666,24.2 C217.906666,22.4719914 217.594669,21.1920042 216.970666,20.36 C216.346663,19.5279958 215.362673,19.112 214.018666,19.112 C213.250662,19.112 212.45867,19.2719984 211.642666,19.592 C210.826662,19.9120016 210.114669,20.3439973 209.506666,20.888 L209.506666,31.112 C209.506666,32.3920064 209.690664,33.2639977 210.058666,33.728 C210.426668,34.1920023 211.106661,34.424 212.098666,34.424 C212.194667,34.424 212.242666,34.519999 212.242666,34.712 C212.242666,34.904001 212.194667,35 212.098666,35 C211.266662,35 210.610669,34.9840002 210.130666,34.952 L207.250666,34.904 L204.418666,34.952 C203.938664,34.9840002 203.28267,35 202.450666,35 C202.354666,35 202.306666,34.904001 202.306666,34.712 C202.306666,34.519999 202.354666,34.424 202.450666,34.424 C203.442671,34.424 204.114664,34.1920023 204.466666,33.728 C204.818668,33.2639977 204.994666,32.3920064 204.994666,31.112 L204.994666,22.088 C204.994666,21.095995 204.874667,20.3680023 204.634666,19.904 C204.394665,19.4399977 204.018669,19.208 203.506666,19.208 C202.962663,19.208 202.194671,19.4319978 201.202666,19.88 L201.106666,19.88 C201.010666,19.88 200.938666,19.8000008 200.890666,19.64 C200.842666,19.4799992 200.850666,19.3840002 200.914666,19.352 L207.586666,16.088 C207.778667,16.0239997 207.890666,15.992 207.922666,15.992 C208.274668,15.992 208.610665,16.3359966 208.930666,17.024 C209.250668,17.7120034 209.442666,18.6479941 209.506666,19.832 C211.714677,17.2079869 214.146653,15.896 216.802666,15.896 C218.530675,15.896 219.898661,16.4479945 220.906666,17.552 C221.914671,18.6560055 222.418666,20.103991 222.418666,21.896 L222.418666,31.112 C222.418666,32.3920064 222.602664,33.2639977 222.970666,33.728 C223.338668,34.1920023 224.018661,34.424 225.010666,34.424 C225.106667,34.424 225.154666,34.519999 225.154666,34.712 Z M230.661333,6.296 C231.285336,7.16000432 231.597333,8.391992 231.597333,9.992 C231.597333,11.4320072 231.277336,12.7679938 230.637333,14 C229.99733,15.2320062 229.037339,16.4719938 227.757333,17.72 C227.725333,17.7520002 227.677333,17.768 227.613333,17.768 C227.517332,17.768 227.437333,17.7200005 227.373333,17.624 C227.309332,17.5279995 227.309332,17.4480003 227.373333,17.384 C228.941341,15.783992 229.725333,13.8960109 229.725333,11.72 C229.725333,10.8239955 229.565334,10.1680021 229.245333,9.752 C228.957331,10.2320024 228.365337,10.472 227.469333,10.472 C226.701329,10.472 226.085335,10.2240025 225.621333,9.728 C225.15733,9.23199752 224.925333,8.584004 224.925333,7.784 C224.925333,6.91999568 225.20533,6.24000248 225.765333,5.744 C226.325336,5.24799752 227.085328,5 228.045333,5 C229.165338,5 230.03733,5.43199568 230.661333,6.296 Z M237.679999,21.176 C238.336003,21.8480034 239.287993,22.5519963 240.535999,23.288 C241.752005,23.9920035 242.655996,24.543998 243.247999,24.944 C243.840002,25.344002 244.375997,25.9039964 244.855999,26.624 C245.336002,27.3440036 245.575999,28.2159949 245.575999,29.24 C245.575999,30.3280054 245.304002,31.3519952 244.759999,32.312 C244.215997,33.2720048 243.400005,34.047997 242.311999,34.64 C241.223994,35.232003 239.928007,35.528 238.423999,35.528 C236.663991,35.528 235.000007,35.0960043 233.431999,34.232 C233.239998,34.039999 233.143999,33.848001 233.143999,33.656 L233.047999,28.904 C233.047999,28.8079995 233.135999,28.7520001 233.311999,28.736 C233.488,28.7199999 233.591999,28.7439997 233.623999,28.808 C234.136002,30.408008 234.983993,31.7679944 236.167999,32.888 C237.352005,34.0080056 238.551993,34.568 239.767999,34.568 C240.440003,34.568 240.975997,34.3600021 241.375999,33.944 C241.776001,33.5279979 241.975999,32.920004 241.975999,32.12 C241.975999,30.9359941 241.640003,30.0000034 240.967999,29.312 C240.295996,28.6239966 239.304006,27.9120037 237.991999,27.176 C236.871994,26.567997 236.024002,26.0720019 235.447999,25.688 C234.871997,25.3039981 234.360002,24.7600035 233.911999,24.056 C233.463997,23.3519965 233.239999,22.4880051 233.239999,21.464 C233.239999,19.5759906 233.911993,18.1920044 235.255999,17.312 C236.600006,16.4319956 238.24799,15.992 240.199999,15.992 C240.936003,15.992 241.599996,16.0399995 242.191999,16.136 C242.784002,16.2320005 243.447996,16.4239986 244.183999,16.712 C244.472001,16.8080005 244.615999,16.9839987 244.615999,17.24 C244.615999,18.040004 244.6,18.6639978 244.567999,19.112 L244.519999,21.512 C244.519999,21.6080005 244.424,21.656 244.231999,21.656 C244.039998,21.656 243.943999,21.6080005 243.943999,21.512 C243.943999,20.903997 243.688002,20.2400036 243.175999,19.52 C242.663997,18.7999964 242.000003,18.1840026 241.183999,17.672 C240.367995,17.1599974 239.528004,16.904 238.663999,16.904 C237.351993,16.904 236.695999,17.5279938 236.695999,18.776 C236.695999,19.7040046 237.023996,20.5039966 237.679999,21.176 Z M9.704,81.152 C9.92800112,81.6160023 10.3519969,81.943999 10.976,82.136 C11.6000031,82.328001 12.5999931,82.424 13.976,82.424 C14.0720005,82.424 14.12,82.519999 14.12,82.712 C14.12,82.904001 14.0720005,83 13.976,83 C12.6639934,83 11.6400037,82.9840002 10.904,82.952 L6.728,82.904 L3.224,82.952 C2.5839968,82.9840002 1.72000544,83 0.632,83 C0.53599952,83 0.488,82.904001 0.488,82.712 C0.488,82.519999 0.53599952,82.424 0.632,82.424 C1.65600512,82.424 2.39999768,82.3440008 2.864,82.184 C3.32800232,82.0239992 3.6399992,81.7120023 3.8,81.248 C3.9600008,80.7839977 4.04,80.0720048 4.04,79.112 L4.04,56.888 C4.04,55.9279952 3.9600008,55.2240022 3.8,54.776 C3.6399992,54.3279978 3.3200024,54.0160009 2.84,53.84 C2.3599976,53.6639991 1.62400496,53.576 0.632,53.576 C0.53599952,53.576 0.488,53.480001 0.488,53.288 C0.488,53.095999 0.53599952,53 0.632,53 L3.176,53.048 C4.64800736,53.1120003 5.81599568,53.144 6.68,53.144 C7.44800384,53.144 8.35999472,53.0960005 9.416,53 C9.83200208,52.9679998 10.3599968,52.9360002 11,52.904 C11.6400032,52.8719998 12.3759958,52.856 13.208,52.856 C16.4720163,52.856 19.0479906,53.5359932 20.936,54.896 C22.8240094,56.2560068 23.768,58.3599858 23.768,61.208 C23.768,63.1920099 23.2560051,64.8719931 22.232,66.248 C21.2079949,67.6240069 19.8880081,68.6639965 18.272,69.368 C16.6559919,70.0720035 15.0000085,70.424 13.304,70.424 C12.4399957,70.424 11.6880032,70.3440008 11.048,70.184 C10.9839997,70.184 10.952,70.1040008 10.952,69.944 C10.952,69.8479995 10.9759998,69.7520005 11.024,69.656 C11.0720002,69.5599995 11.1279997,69.5279998 11.192,69.56 C11.6720024,69.6880006 12.215997,69.752 12.824,69.752 C14.2960074,69.752 15.5199951,69.0640069 16.496,67.688 C17.4720049,66.3119931 17.96,64.3600126 17.96,61.832 C17.96,59.3039874 17.4240054,57.3520069 16.352,55.976 C15.2799946,54.5999931 13.7200102,53.912 11.672,53.912 C10.7759955,53.912 10.1680016,54.1199979 9.848,54.536 C9.5279984,54.9520021 9.368,55.7679939 9.368,56.984 L9.368,78.92 C9.368,79.9440051 9.47999888,80.6879977 9.704,81.152 Z M41.3226666,64.784 C42.01067,65.3120026 42.3546666,65.9439963 42.3546666,66.68 C42.3546666,67.3520034 42.1466687,67.9039978 41.7306666,68.336 C41.3146645,68.7680022 40.77067,68.984 40.0986666,68.984 C39.6186642,68.984 39.2266681,68.888001 38.9226666,68.696 C38.6186651,68.503999 38.3066682,68.2160019 37.9866666,67.832 C37.6986652,67.5119984 37.4506676,67.2800007 37.2426666,67.136 C37.0346656,66.9919993 36.786668,66.92 36.4986666,66.92 C36.178665,66.92 35.8346684,67.0399988 35.4666666,67.28 C35.0986648,67.5200012 34.5306704,68.0239962 33.7626666,68.792 L33.7626666,79.112 C33.7626666,80.3920064 34.0666636,81.2639977 34.6746666,81.728 C35.2826696,82.1920023 36.4026584,82.424 38.0346666,82.424 C38.1626672,82.424 38.2266666,82.519999 38.2266666,82.712 C38.2266666,82.904001 38.1626672,83 38.0346666,83 C36.914661,83 36.0346698,82.9840002 35.3946666,82.952 L31.5066666,82.904 L28.6746666,82.952 C28.1946642,82.9840002 27.5386708,83 26.7066666,83 C26.6106661,83 26.5626666,82.904001 26.5626666,82.712 C26.5626666,82.519999 26.6106661,82.424 26.7066666,82.424 C27.6986716,82.424 28.3706648,82.1920023 28.7226666,81.728 C29.0746684,81.2639977 29.2506666,80.3920064 29.2506666,79.112 L29.2506666,70.088 C29.2506666,69.095995 29.1306678,68.3680023 28.8906666,67.904 C28.6506654,67.4399977 28.2746692,67.208 27.7626666,67.208 C27.2186639,67.208 26.4506716,67.4319978 25.4586666,67.88 L25.3626666,67.88 C25.2666661,67.88 25.1946668,67.8000008 25.1466666,67.64 C25.0986664,67.4799992 25.1066663,67.3840002 25.1706666,67.352 L31.8426666,64.088 C32.0346676,64.0239997 32.1466664,63.992 32.1786666,63.992 C32.5306684,63.992 32.8586651,64.3199967 33.1626666,64.976 C33.4666681,65.6320033 33.6506663,66.5199944 33.7146666,67.64 C35.0266732,66.2959933 36.1066624,65.3520027 36.9546666,64.808 C37.8026708,64.2639973 38.5466634,63.992 39.1866666,63.992 C39.9226703,63.992 40.6346632,64.2559974 41.3226666,64.784 Z M47.2133332,58.472 C46.7013306,57.9599974 46.4453332,57.2400046 46.4453332,56.312 C46.4453332,55.4799958 46.7093306,54.8160025 47.2373332,54.32 C47.7653358,53.8239975 48.4773287,53.576 49.3733332,53.576 C50.2693377,53.576 50.9573308,53.8159976 51.4373332,54.296 C51.9173356,54.7760024 52.1573332,55.4479957 52.1573332,56.312 C52.1573332,57.2400046 51.9173356,57.9599974 51.4373332,58.472 C50.9573308,58.9840026 50.2693377,59.24 49.3733332,59.24 C48.4453286,59.24 47.7253358,58.9840026 47.2133332,58.472 Z M44.6213332,82.712 C44.6213332,82.519999 44.6693327,82.424 44.7653332,82.424 C45.7573382,82.424 46.4293314,82.1920023 46.7813332,81.728 C47.133335,81.2639977 47.3093332,80.3920064 47.3093332,79.112 L47.3093332,70.52 C47.3093332,69.4319946 47.1973343,68.6480024 46.9733332,68.168 C46.7493321,67.6879976 46.3813358,67.448 45.8693332,67.448 C45.4533311,67.448 44.861337,67.6239982 44.0933332,67.976 L44.0453332,67.976 C43.9173326,67.976 43.8213335,67.8880009 43.7573332,67.712 C43.6933329,67.5359991 43.7093327,67.4320002 43.8053332,67.4 L51.0533332,64.04 L51.1973332,63.992 C51.357334,63.992 51.5173324,64.0719992 51.6773332,64.232 C51.837334,64.3920008 51.9173332,64.5359994 51.9173332,64.664 L51.9173332,65.72 C51.8533329,67.0000064 51.8213332,68.5679907 51.8213332,70.424 L51.8213332,79.112 C51.8213332,80.3920064 52.0053314,81.2639977 52.3733332,81.728 C52.741335,82.1920023 53.4213282,82.424 54.4133332,82.424 C54.5093337,82.424 54.5573332,82.519999 54.5573332,82.712 C54.5573332,82.904001 54.5093337,83 54.4133332,83 C53.581329,83 52.9253356,82.9840002 52.4453332,82.952 L49.5653332,82.904 L46.7333332,82.952 C46.2533308,82.9840002 45.5973374,83 44.7653332,83 C44.6693327,83 44.6213332,82.904001 44.6213332,82.712 Z M79.9599998,82.712 C79.9599998,82.904001 79.9120003,83 79.8159998,83 C78.9839956,83 78.3280022,82.9840002 77.8479998,82.952 L74.9679998,82.904 L72.1839998,82.952 C71.6719972,82.9840002 71.000004,83 70.1679998,83 C70.0719993,83 70.0239998,82.904001 70.0239998,82.712 C70.0239998,82.519999 70.0719993,82.424 70.1679998,82.424 C71.1600048,82.424 71.831998,82.1920023 72.1839998,81.728 C72.5360016,81.2639977 72.7119998,80.3920064 72.7119998,79.112 L72.7119998,72.2 C72.7119998,70.4719914 72.4000029,69.1920042 71.7759998,68.36 C71.1519967,67.5279958 70.1680065,67.112 68.8239998,67.112 C68.055996,67.112 67.2640039,67.2719984 66.4479998,67.592 C65.6319957,67.9120016 64.9200028,68.3439973 64.3119998,68.888 L64.3119998,79.112 C64.3119998,80.3920064 64.495998,81.2639977 64.8639998,81.728 C65.2320016,82.1920023 65.9119948,82.424 66.9039998,82.424 C67.0000003,82.424 67.0479998,82.519999 67.0479998,82.712 C67.0479998,82.904001 67.0000003,83 66.9039998,83 C66.0719956,83 65.4160022,82.9840002 64.9359998,82.952 L62.0559998,82.904 L59.2239998,82.952 C58.7439974,82.9840002 58.088004,83 57.2559998,83 C57.1599993,83 57.1119998,82.904001 57.1119998,82.712 C57.1119998,82.519999 57.1599993,82.424 57.2559998,82.424 C58.2480048,82.424 58.919998,82.1920023 59.2719998,81.728 C59.6240016,81.2639977 59.7999998,80.3920064 59.7999998,79.112 L59.7999998,70.088 C59.7999998,69.095995 59.680001,68.3680023 59.4399998,67.904 C59.1999986,67.4399977 58.8240024,67.208 58.3119998,67.208 C57.7679971,67.208 57.0000048,67.4319978 56.0079998,67.88 L55.9119998,67.88 C55.8159993,67.88 55.744,67.8000008 55.6959998,67.64 C55.6479996,67.4799992 55.6559995,67.3840002 55.7199998,67.352 L62.3919998,64.088 C62.5840008,64.0239997 62.6959996,63.992 62.7279998,63.992 C63.0800016,63.992 63.4159982,64.3359966 63.7359998,65.024 C64.0560014,65.7120034 64.2479995,66.6479941 64.3119998,67.832 C66.5200108,65.2079869 68.9519865,63.896 71.6079998,63.896 C73.3360084,63.896 74.7039948,64.4479945 75.7119998,65.552 C76.7200048,66.6560055 77.2239998,68.103991 77.2239998,69.896 L77.2239998,79.112 C77.2239998,80.3920064 77.407998,81.2639977 77.7759998,81.728 C78.1440016,82.1920023 78.8239948,82.424 79.8159998,82.424 C79.9120003,82.424 79.9599998,82.519999 79.9599998,82.712 Z M96.0506664,79.64 C96.178667,79.64 96.282666,79.7039994 96.3626664,79.832 C96.4426668,79.9600006 96.4346669,80.0559997 96.3386664,80.12 C95.1546605,81.3040059 94.002672,82.1759972 92.8826664,82.736 C91.7626608,83.2960028 90.5786726,83.576 89.3306664,83.576 C87.9226594,83.576 86.7226714,83.2400034 85.7306664,82.568 C84.7386614,81.8959966 84.2426664,80.760008 84.2426664,79.16 L84.2426664,68.504 C84.2426664,67.511995 84.0666682,66.8240019 83.7146664,66.44 C83.3626646,66.0559981 82.722671,65.864 81.7946664,65.864 C81.7626662,65.864 81.7226666,65.8160005 81.6746664,65.72 C81.6266662,65.6239995 81.6026664,65.5280005 81.6026664,65.432 C81.6026664,65.3039994 81.6186662,65.2000004 81.6506664,65.12 C81.6826666,65.0399996 81.7306661,65 81.7946664,65 C83.4266746,64.9359997 84.7466614,64.5840032 85.7546664,63.944 C86.7626714,63.3039968 87.5386637,62.3280066 88.0826664,61.016 C88.1466667,60.8879994 88.2826654,60.824 88.4906664,60.824 C88.6986674,60.824 88.8026664,60.8879994 88.8026664,61.016 L88.8026664,64.856 C90.6586757,64.8239998 92.7386549,64.6800013 95.0426664,64.424 C95.1066667,64.424 95.178666,64.5439988 95.2586664,64.784 C95.3386668,65.0240012 95.3786664,65.2879986 95.3786664,65.576 C95.3786664,65.8960016 95.322667,66.2079985 95.2106664,66.512 C95.0986658,66.8160015 94.978667,66.9520002 94.8506664,66.92 C92.770656,66.4719978 90.7546762,66.2320002 88.8026664,66.2 L88.8026664,77.576 C88.8026664,78.7920061 89.1146633,79.6879971 89.7386664,80.264 C90.3626695,80.8400029 91.1866613,81.128 92.2106664,81.128 C93.4906728,81.128 94.7386603,80.6480048 95.9546664,79.688 L96.0506664,79.64 Z M142.872,82.712 C142.872,82.904001 142.824,83 142.728,83 C141.607994,83 140.712003,82.9840002 140.04,82.952 L136.344,82.904 L132.024,82.952 C131.447997,82.9840002 130.664005,83 129.672,83 C129.575999,83 129.528,82.904001 129.528,82.712 C129.528,82.519999 129.575999,82.424 129.672,82.424 C130.856006,82.424 131.719997,82.3440008 132.264,82.184 C132.808002,82.0239992 133.175999,81.7200022 133.368,81.272 C133.560001,80.8239978 133.656,80.104005 133.656,79.112 L133.656,68.072 L118.152,68.072 L118.152,79.112 C118.152,80.0720048 118.247999,80.7839977 118.44,81.248 C118.632001,81.7120023 118.999997,82.0239992 119.544,82.184 C120.088002,82.3440008 120.951994,82.424 122.136,82.424 C122.2,82.424 122.232,82.519999 122.232,82.712 C122.232,82.904001 122.2,83 122.136,83 C121.015994,83 120.120003,82.9840002 119.448,82.952 L115.272,82.904 L111.672,82.952 C111.031996,82.9840002 110.152005,83 109.032,83 C108.967999,83 108.936,82.904001 108.936,82.712 C108.936,82.519999 108.967999,82.424 109.032,82.424 C110.152005,82.424 110.967997,82.3440008 111.48,82.184 C111.992002,82.0239992 112.343999,81.7120023 112.536,81.248 C112.728001,80.7839977 112.824,80.0720048 112.824,79.112 L112.824,56.888 C112.824,55.9279952 112.728001,55.2240022 112.536,54.776 C112.343999,54.3279978 112.000002,54.0160009 111.504,53.84 C111.007997,53.6639991 110.216005,53.576 109.128,53.576 C109.031999,53.576 108.984,53.480001 108.984,53.288 C108.984,53.095999 109.031999,53 109.128,53 L111.72,53.048 C113.192007,53.1120003 114.375995,53.144 115.272,53.144 C116.488006,53.144 117.895992,53.1120003 119.496,53.048 L122.136,53 C122.2,53 122.232,53.095999 122.232,53.288 C122.232,53.480001 122.2,53.576 122.136,53.576 C120.983994,53.576 120.136002,53.671999 119.592,53.864 C119.047997,54.056001 118.672001,54.3839977 118.464,54.848 C118.255999,55.3120023 118.152,56.0239952 118.152,56.984 L118.152,66.728 L133.656,66.728 L133.656,56.984 C133.656,56.0239952 133.560001,55.3120023 133.368,54.848 C133.175999,54.3839977 132.808002,54.056001 132.264,53.864 C131.719997,53.671999 130.856006,53.576 129.672,53.576 C129.575999,53.576 129.528,53.480001 129.528,53.288 C129.528,53.095999 129.575999,53 129.672,53 L132.024,53.048 C133.624008,53.1120003 135.063993,53.144 136.344,53.144 C137.208004,53.144 138.439992,53.1120003 140.04,53.048 L142.728,53 C142.824,53 142.872,53.095999 142.872,53.288 C142.872,53.480001 142.824,53.576 142.728,53.576 C141.639994,53.576 140.832002,53.6639991 140.304,53.84 C139.775997,54.0160009 139.424,54.3279978 139.248,54.776 C139.071999,55.2240022 138.984,55.9279952 138.984,56.888 L138.984,79.112 C138.984,80.0720048 139.071999,80.7839977 139.248,81.248 C139.424,81.7120023 139.767997,82.0239992 140.28,82.184 C140.792002,82.3440008 141.607994,82.424 142.728,82.424 C142.824,82.424 142.872,82.519999 142.872,82.712 Z M148.450666,58.472 C147.938664,57.9599974 147.682666,57.2400046 147.682666,56.312 C147.682666,55.4799958 147.946664,54.8160025 148.474666,54.32 C149.002669,53.8239975 149.714662,53.576 150.610666,53.576 C151.506671,53.576 152.194664,53.8159976 152.674666,54.296 C153.154669,54.7760024 153.394666,55.4479957 153.394666,56.312 C153.394666,57.2400046 153.154669,57.9599974 152.674666,58.472 C152.194664,58.9840026 151.506671,59.24 150.610666,59.24 C149.682662,59.24 148.962669,58.9840026 148.450666,58.472 Z M145.858666,82.712 C145.858666,82.519999 145.906666,82.424 146.002666,82.424 C146.994671,82.424 147.666664,82.1920023 148.018666,81.728 C148.370668,81.2639977 148.546666,80.3920064 148.546666,79.112 L148.546666,70.52 C148.546666,69.4319946 148.434667,68.6480024 148.210666,68.168 C147.986665,67.6879976 147.618669,67.448 147.106666,67.448 C146.690664,67.448 146.09867,67.6239982 145.330666,67.976 L145.282666,67.976 C145.154666,67.976 145.058667,67.8880009 144.994666,67.712 C144.930666,67.5359991 144.946666,67.4320002 145.042666,67.4 L152.290666,64.04 L152.434666,63.992 C152.594667,63.992 152.754665,64.0719992 152.914666,64.232 C153.074667,64.3920008 153.154666,64.5359994 153.154666,64.664 L153.154666,65.72 C153.090666,67.0000064 153.058666,68.5679907 153.058666,70.424 L153.058666,79.112 C153.058666,80.3920064 153.242664,81.2639977 153.610666,81.728 C153.978668,82.1920023 154.658661,82.424 155.650666,82.424 C155.746667,82.424 155.794666,82.519999 155.794666,82.712 C155.794666,82.904001 155.746667,83 155.650666,83 C154.818662,83 154.162669,82.9840002 153.682666,82.952 L150.802666,82.904 L147.970666,82.952 C147.490664,82.9840002 146.83467,83 146.002666,83 C145.906666,83 145.858666,82.904001 145.858666,82.712 Z M163.269333,69.176 C163.925336,69.8480034 164.877327,70.5519963 166.125333,71.288 C167.341339,71.9920035 168.24533,72.543998 168.837333,72.944 C169.429336,73.344002 169.96533,73.9039964 170.445333,74.624 C170.925335,75.3440036 171.165333,76.2159949 171.165333,77.24 C171.165333,78.3280054 170.893336,79.3519952 170.349333,80.312 C169.80533,81.2720048 168.989338,82.047997 167.901333,82.64 C166.813327,83.232003 165.51734,83.528 164.013333,83.528 C162.253324,83.528 160.589341,83.0960043 159.021333,82.232 C158.829332,82.039999 158.733333,81.848001 158.733333,81.656 L158.637333,76.904 C158.637333,76.8079995 158.725332,76.7520001 158.901333,76.736 C159.077334,76.7199999 159.181333,76.7439997 159.213333,76.808 C159.725335,78.408008 160.573327,79.7679944 161.757333,80.888 C162.941339,82.0080056 164.141327,82.568 165.357333,82.568 C166.029336,82.568 166.565331,82.3600021 166.965333,81.944 C167.365335,81.5279979 167.565333,80.920004 167.565333,80.12 C167.565333,78.9359941 167.229336,78.0000034 166.557333,77.312 C165.885329,76.6239966 164.893339,75.9120037 163.581333,75.176 C162.461327,74.567997 161.613336,74.0720019 161.037333,73.688 C160.46133,73.3039981 159.949335,72.7600035 159.501333,72.056 C159.053331,71.3519965 158.829333,70.4880051 158.829333,69.464 C158.829333,67.5759906 159.501326,66.1920044 160.845333,65.312 C162.18934,64.4319956 163.837323,63.992 165.789333,63.992 C166.525336,63.992 167.18933,64.0399995 167.781333,64.136 C168.373336,64.2320005 169.037329,64.4239986 169.773333,64.712 C170.061334,64.8080005 170.205333,64.9839987 170.205333,65.24 C170.205333,66.040004 170.189333,66.6639978 170.157333,67.112 L170.109333,69.512 C170.109333,69.6080005 170.013334,69.656 169.821333,69.656 C169.629332,69.656 169.533333,69.6080005 169.533333,69.512 C169.533333,68.903997 169.277335,68.2400036 168.765333,67.52 C168.25333,66.7999964 167.589337,66.1840026 166.773333,65.672 C165.957329,65.1599974 165.117337,64.904 164.253333,64.904 C162.941326,64.904 162.285333,65.5279938 162.285333,66.776 C162.285333,67.7040046 162.61333,68.5039966 163.269333,69.176 Z M188.215999,79.64 C188.344,79.64 188.447999,79.7039994 188.527999,79.832 C188.608,79.9600006 188.6,80.0559997 188.503999,80.12 C187.319993,81.3040059 186.168005,82.1759972 185.047999,82.736 C183.927994,83.2960028 182.744006,83.576 181.495999,83.576 C180.087992,83.576 178.888004,83.2400034 177.895999,82.568 C176.903994,81.8959966 176.407999,80.760008 176.407999,79.16 L176.407999,68.504 C176.407999,67.511995 176.232001,66.8240019 175.879999,66.44 C175.527998,66.0559981 174.888004,65.864 173.959999,65.864 C173.927999,65.864 173.888,65.8160005 173.839999,65.72 C173.791999,65.6239995 173.767999,65.5280005 173.767999,65.432 C173.767999,65.3039994 173.783999,65.2000004 173.815999,65.12 C173.848,65.0399996 173.895999,65 173.959999,65 C175.592008,64.9359997 176.911994,64.5840032 177.919999,63.944 C178.928004,63.3039968 179.703997,62.3280066 180.247999,61.016 C180.312,60.8879994 180.447998,60.824 180.655999,60.824 C180.864,60.824 180.967999,60.8879994 180.967999,61.016 L180.967999,64.856 C182.824009,64.8239998 184.903988,64.6800013 187.207999,64.424 C187.272,64.424 187.343999,64.5439988 187.423999,64.784 C187.504,65.0240012 187.543999,65.2879986 187.543999,65.576 C187.543999,65.8960016 187.488,66.2079985 187.375999,66.512 C187.263999,66.8160015 187.144,66.9520002 187.015999,66.92 C184.935989,66.4719978 182.920009,66.2320002 180.967999,66.2 L180.967999,77.576 C180.967999,78.7920061 181.279996,79.6879971 181.903999,80.264 C182.528003,80.8400029 183.351994,81.128 184.375999,81.128 C185.656006,81.128 186.903993,80.6480048 188.119999,79.688 L188.215999,79.64 Z M194.826666,82.256 C193.338659,81.3439954 192.19467,80.1120078 191.394666,78.56 C190.594662,77.0079922 190.194666,75.3200091 190.194666,73.496 C190.194666,71.4159896 190.722661,69.6480073 191.778666,68.192 C192.834671,66.7359927 194.178658,65.6480036 195.810666,64.928 C197.442674,64.2079964 199.122657,63.848 200.850666,63.848 C202.834676,63.848 204.562659,64.3119954 206.034666,65.24 C207.506673,66.1680046 208.634662,67.3919924 209.418666,68.912 C210.20267,70.4320076 210.594666,72.0559914 210.594666,73.784 C210.594666,75.7040096 210.114671,77.4079926 209.154666,78.896 C208.194661,80.3840074 206.906674,81.5439958 205.290666,82.376 C203.674658,83.2080042 201.922675,83.624 200.034666,83.624 C198.050656,83.624 196.314673,83.1680046 194.826666,82.256 Z M204.330666,80.768 C204.986669,79.5359938 205.314666,77.7680115 205.314666,75.464 C205.314666,73.2239888 205.026669,71.304008 204.450666,69.704 C203.874663,68.103992 203.122671,66.8960041 202.194666,66.08 C201.266661,65.2639959 200.274671,64.856 199.218666,64.856 C196.658653,64.856 195.378666,67.1439771 195.378666,71.72 C195.378666,73.8640107 195.650663,75.7599918 196.194666,77.408 C196.738669,79.0560082 197.474661,80.3359954 198.402666,81.248 C199.330671,82.1600046 200.35466,82.616 201.474666,82.616 C202.722672,82.616 203.674663,82.0000062 204.330666,80.768 Z M228.485333,64.784 C229.173336,65.3120026 229.517333,65.9439963 229.517333,66.68 C229.517333,67.3520034 229.309335,67.9039978 228.893333,68.336 C228.477331,68.7680022 227.933336,68.984 227.261333,68.984 C226.78133,68.984 226.389334,68.888001 226.085333,68.696 C225.781331,68.503999 225.469334,68.2160019 225.149333,67.832 C224.861331,67.5119984 224.613334,67.2800007 224.405333,67.136 C224.197332,66.9919993 223.949334,66.92 223.661333,66.92 C223.341331,66.92 222.997334,67.0399988 222.629333,67.28 C222.261331,67.5200012 221.693336,68.0239962 220.925333,68.792 L220.925333,79.112 C220.925333,80.3920064 221.22933,81.2639977 221.837333,81.728 C222.445336,82.1920023 223.565324,82.424 225.197333,82.424 C225.325333,82.424 225.389333,82.519999 225.389333,82.712 C225.389333,82.904001 225.325333,83 225.197333,83 C224.077327,83 223.197336,82.9840002 222.557333,82.952 L218.669333,82.904 L215.837333,82.952 C215.35733,82.9840002 214.701337,83 213.869333,83 C213.773332,83 213.725333,82.904001 213.725333,82.712 C213.725333,82.519999 213.773332,82.424 213.869333,82.424 C214.861338,82.424 215.533331,82.1920023 215.885333,81.728 C216.237334,81.2639977 216.413333,80.3920064 216.413333,79.112 L216.413333,70.088 C216.413333,69.095995 216.293334,68.3680023 216.053333,67.904 C215.813331,67.4399977 215.437335,67.208 214.925333,67.208 C214.38133,67.208 213.613338,67.4319978 212.621333,67.88 L212.525333,67.88 C212.429332,67.88 212.357333,67.8000008 212.309333,67.64 C212.261332,67.4799992 212.269332,67.3840002 212.333333,67.352 L219.005333,64.088 C219.197334,64.0239997 219.309332,63.992 219.341333,63.992 C219.693334,63.992 220.021331,64.3199967 220.325333,64.976 C220.629334,65.6320033 220.813332,66.5199944 220.877333,67.64 C222.189339,66.2959933 223.269328,65.3520027 224.117333,64.808 C224.965337,64.2639973 225.709329,63.992 226.349333,63.992 C227.085336,63.992 227.797329,64.2559974 228.485333,64.784 Z M251.319999,64.76 C251.319999,64.952001 251.288,65.048 251.223999,65.048 C250.199994,65.048 249.312003,65.4879956 248.559999,66.368 C247.807995,67.2480044 247.128002,68.5199917 246.519999,70.184 L241.191999,84.344 C239.495991,88.8240224 237.872007,91.967991 236.319999,93.776 C234.767991,95.584009 233.048009,96.488 231.159999,96.488 C230.199994,96.488 229.464002,96.288002 228.951999,95.888 C228.439997,95.487998 228.183999,94.9040038 228.183999,94.136 C228.183999,93.3999963 228.407997,92.8400019 228.855999,92.456 C229.304001,92.0719981 229.847996,91.88 230.487999,91.88 C230.840001,91.88 231.135998,91.9279995 231.375999,92.024 C231.616,92.1200005 231.911997,92.2799989 232.263999,92.504 C232.872002,92.9200021 233.447996,93.128 233.991999,93.128 C234.728003,93.128 235.391996,92.8480028 235.983999,92.288 C236.576002,91.7279972 237.191996,90.8000065 237.831999,89.504 C238.472002,88.2079935 239.239995,86.360012 240.135999,83.96 L232.455999,68.456 C231.751996,67.0799931 231.200001,66.1680022 230.799999,65.72 C230.399997,65.2719978 229.912002,65.048 229.335999,65.048 C229.239999,65.048 229.191999,64.952001 229.191999,64.76 C229.191999,64.567999 229.239999,64.472 229.335999,64.472 C230.232004,64.472 230.919997,64.4879998 231.399999,64.52 L233.415999,64.568 L236.727999,64.52 C237.240002,64.4879998 237.927995,64.472 238.791999,64.472 C238.888,64.472 238.935999,64.567999 238.935999,64.76 C238.935999,64.952001 238.888,65.048 238.791999,65.048 C237.959995,65.048 237.352001,65.1199993 236.967999,65.264 C236.583997,65.4080007 236.391999,65.6399984 236.391999,65.96 C236.391999,66.2160013 236.487998,66.5359981 236.679999,66.92 L242.343999,78.488 L245.223999,70.136 C245.512001,69.3039958 245.655999,68.5520034 245.655999,67.88 C245.655999,66.9839955 245.400002,66.2880025 244.887999,65.792 C244.375997,65.2959975 243.640004,65.048 242.679999,65.048 C242.615999,65.048 242.583999,64.952001 242.583999,64.76 C242.583999,64.567999 242.615999,64.472 242.679999,64.472 C243.544004,64.472 244.199997,64.4879998 244.647999,64.52 L247.527999,64.568 L249.447999,64.52 C249.832001,64.4879998 250.423995,64.472 251.223999,64.472 C251.288,64.472 251.319999,64.567999 251.319999,64.76 Z M272.221332,81.152 C272.445334,81.6160023 272.869329,81.943999 273.493332,82.136 C274.117336,82.328001 275.117326,82.424 276.493332,82.424 C276.589333,82.424 276.637332,82.519999 276.637332,82.712 C276.637332,82.904001 276.589333,83 276.493332,83 C275.181326,83 274.157336,82.9840002 273.421332,82.952 L269.245332,82.904 L265.741332,82.952 C265.101329,82.9840002 264.237338,83 263.149332,83 C263.053332,83 263.005332,82.904001 263.005332,82.712 C263.005332,82.519999 263.053332,82.424 263.149332,82.424 C264.173338,82.424 264.91733,82.3440008 265.381332,82.184 C265.845335,82.0239992 266.157332,81.7120023 266.317332,81.248 C266.477333,80.7839977 266.557332,80.0720048 266.557332,79.112 L266.557332,56.888 C266.557332,55.9279952 266.477333,55.2240022 266.317332,54.776 C266.157332,54.3279978 265.837335,54.0160009 265.357332,53.84 C264.87733,53.6639991 264.141337,53.576 263.149332,53.576 C263.053332,53.576 263.005332,53.480001 263.005332,53.288 C263.005332,53.095999 263.053332,53 263.149332,53 L265.693332,53.048 C267.16534,53.1120003 268.333328,53.144 269.197332,53.144 C269.965336,53.144 270.877327,53.0960005 271.933332,53 C272.349334,52.9679998 272.877329,52.9360002 273.517332,52.904 C274.157336,52.8719998 274.893328,52.856 275.725332,52.856 C278.989349,52.856 281.565323,53.5359932 283.453332,54.896 C285.341342,56.2560068 286.285332,58.3599858 286.285332,61.208 C286.285332,63.1920099 285.773338,64.8719931 284.749332,66.248 C283.725327,67.6240069 282.40534,68.6639965 280.789332,69.368 C279.173324,70.0720035 277.517341,70.424 275.821332,70.424 C274.957328,70.424 274.205336,70.3440008 273.565332,70.184 C273.501332,70.184 273.469332,70.1040008 273.469332,69.944 C273.469332,69.8479995 273.493332,69.7520005 273.541332,69.656 C273.589333,69.5599995 273.645332,69.5279998 273.709332,69.56 C274.189335,69.6880006 274.733329,69.752 275.341332,69.752 C276.81334,69.752 278.037328,69.0640069 279.013332,67.688 C279.989337,66.3119931 280.477332,64.3600126 280.477332,61.832 C280.477332,59.3039874 279.941338,57.3520069 278.869332,55.976 C277.797327,54.5999931 276.237343,53.912 274.189332,53.912 C273.293328,53.912 272.685334,54.1199979 272.365332,54.536 C272.045331,54.9520021 271.885332,55.7679939 271.885332,56.984 L271.885332,78.92 C271.885332,79.9440051 271.997331,80.6879977 272.221332,81.152 Z M303.839999,64.784 C304.528002,65.3120026 304.871999,65.9439963 304.871999,66.68 C304.871999,67.3520034 304.664001,67.9039978 304.247999,68.336 C303.831997,68.7680022 303.288002,68.984 302.615999,68.984 C302.135997,68.984 301.744001,68.888001 301.439999,68.696 C301.135997,68.503999 300.824001,68.2160019 300.503999,67.832 C300.215998,67.5119984 299.968,67.2800007 299.759999,67.136 C299.551998,66.9919993 299.304,66.92 299.015999,66.92 C298.695997,66.92 298.352001,67.0399988 297.983999,67.28 C297.615997,67.5200012 297.048003,68.0239962 296.279999,68.792 L296.279999,79.112 C296.279999,80.3920064 296.583996,81.2639977 297.191999,81.728 C297.800002,82.1920023 298.919991,82.424 300.551999,82.424 C300.68,82.424 300.743999,82.519999 300.743999,82.712 C300.743999,82.904001 300.68,83 300.551999,83 C299.431993,83 298.552002,82.9840002 297.911999,82.952 L294.023999,82.904 L291.191999,82.952 C290.711997,82.9840002 290.056003,83 289.223999,83 C289.127999,83 289.079999,82.904001 289.079999,82.712 C289.079999,82.519999 289.127999,82.424 289.223999,82.424 C290.216004,82.424 290.887997,82.1920023 291.239999,81.728 C291.592001,81.2639977 291.767999,80.3920064 291.767999,79.112 L291.767999,70.088 C291.767999,69.095995 291.648,68.3680023 291.407999,67.904 C291.167998,67.4399977 290.792002,67.208 290.279999,67.208 C289.735996,67.208 288.968004,67.4319978 287.975999,67.88 L287.879999,67.88 C287.783999,67.88 287.711999,67.8000008 287.663999,67.64 C287.615999,67.4799992 287.623999,67.3840002 287.687999,67.352 L294.359999,64.088 C294.552,64.0239997 294.663999,63.992 294.695999,63.992 C295.048001,63.992 295.375997,64.3199967 295.679999,64.976 C295.984001,65.6320033 296.167999,66.5199944 296.231999,67.64 C297.544006,66.2959933 298.623995,65.3520027 299.471999,64.808 C300.320003,64.2639973 301.063996,63.992 301.703999,63.992 C302.440003,63.992 303.151996,64.2559974 303.839999,64.784 Z M311.002666,82.256 C309.514658,81.3439954 308.37067,80.1120078 307.570666,78.56 C306.770662,77.0079922 306.370666,75.3200091 306.370666,73.496 C306.370666,71.4159896 306.89866,69.6480073 307.954666,68.192 C309.010671,66.7359927 310.354657,65.6480036 311.986666,64.928 C313.618674,64.2079964 315.298657,63.848 317.026666,63.848 C319.010676,63.848 320.738658,64.3119954 322.210666,65.24 C323.682673,66.1680046 324.810662,67.3919924 325.594666,68.912 C326.37867,70.4320076 326.770666,72.0559914 326.770666,73.784 C326.770666,75.7040096 326.29067,77.4079926 325.330666,78.896 C324.370661,80.3840074 323.082674,81.5439958 321.466666,82.376 C319.850658,83.2080042 318.098675,83.624 316.210666,83.624 C314.226656,83.624 312.490673,83.1680046 311.002666,82.256 Z M320.506666,80.768 C321.162669,79.5359938 321.490666,77.7680115 321.490666,75.464 C321.490666,73.2239888 321.202668,71.304008 320.626666,69.704 C320.050663,68.103992 319.29867,66.8960041 318.370666,66.08 C317.442661,65.2639959 316.450671,64.856 315.394666,64.856 C312.834653,64.856 311.554666,67.1439771 311.554666,71.72 C311.554666,73.8640107 311.826663,75.7599918 312.370666,77.408 C312.914668,79.0560082 313.650661,80.3359954 314.578666,81.248 C315.50667,82.1600046 316.53066,82.616 317.650666,82.616 C318.898672,82.616 319.850662,82.0000062 320.506666,80.768 Z M332.397332,58.472 C331.88533,57.9599974 331.629332,57.2400046 331.629332,56.312 C331.629332,55.4799958 331.89333,54.8160025 332.421332,54.32 C332.949335,53.8239975 333.661328,53.576 334.557332,53.576 C335.453337,53.576 336.14133,53.8159976 336.621332,54.296 C337.101335,54.7760024 337.341332,55.4479957 337.341332,56.312 C337.341332,57.2400046 337.101335,57.9599974 336.621332,58.472 C336.14133,58.9840026 335.453337,59.24 334.557332,59.24 C333.629328,59.24 332.909335,58.9840026 332.397332,58.472 Z M337.197332,65.72 C337.133332,67.0000064 337.101332,68.5679907 337.101332,70.424 L337.101332,85.304 C337.101332,87.4800109 336.837335,89.263993 336.309332,90.656 C335.78133,92.048007 334.901338,93.2079954 333.669332,94.136 C332.437326,95.0640046 330.733343,95.8639966 328.557332,96.536 C328.493332,96.5680002 328.421333,96.4960009 328.341332,96.32 C328.261332,96.1439991 328.269332,96.0400002 328.365332,96.008 C329.90134,95.3359966 330.989329,94.2640074 331.629332,92.792 C332.269335,91.3199926 332.589332,89.1920139 332.589332,86.408 L332.589332,70.52 C332.589332,69.4319946 332.485333,68.6480024 332.277332,68.168 C332.069331,67.6879976 331.709335,67.448 331.197332,67.448 C330.78133,67.448 330.189336,67.6239982 329.421332,67.976 L329.373332,67.976 C329.245332,67.976 329.141333,67.8880009 329.061332,67.712 C328.981332,67.5359991 328.989332,67.4320002 329.085332,67.4 L336.333332,64.04 L336.477332,63.992 C336.637333,63.992 336.797331,64.0719992 336.957332,64.232 C337.117333,64.3920008 337.197332,64.5359994 337.197332,64.664 L337.197332,65.72 Z M359.287999,79.832 C359.351999,79.832 359.423998,79.8959994 359.503999,80.024 C359.583999,80.1520006 359.591999,80.2479997 359.527999,80.312 C358.343993,81.4640058 357.144005,82.2959974 355.927999,82.808 C354.711993,83.3200026 353.384006,83.576 351.943999,83.576 C349.927989,83.576 348.184006,83.1520042 346.711999,82.304 C345.239991,81.4559958 344.120003,80.3200071 343.351999,78.896 C342.583995,77.4719929 342.199999,75.9280083 342.199999,74.264 C342.199999,72.4079907 342.663994,70.6960078 343.591999,69.128 C344.520003,67.5599922 345.807991,66.3200046 347.455999,65.408 C349.104007,64.4959954 350.967988,64.04 353.047999,64.04 C355.032009,64.04 356.567993,64.4879955 357.655999,65.384 C358.744004,66.2800045 359.287999,67.6719906 359.287999,69.56 C359.287999,70.552005 359.112001,71.048 358.759999,71.048 L347.095999,71.096 C347.063999,71.3200011 347.047999,71.6879974 347.047999,72.2 C347.047999,75.0160141 347.695992,77.223992 348.991999,78.824 C350.288005,80.424008 352.151987,81.224 354.583999,81.224 C355.448003,81.224 356.183996,81.128001 356.791999,80.936 C357.400002,80.743999 358.199994,80.3920026 359.191999,79.88 L359.287999,79.832 Z M348.583999,66.368 C347.879995,67.2800046 347.416,68.535992 347.191999,70.136 L354.151999,70.04 C354.119999,68.4079918 353.880001,67.1600043 353.431999,66.296 C352.983997,65.4319957 352.248004,65 351.223999,65 C350.167994,65 349.288002,65.4559954 348.583999,66.368 Z M366.186665,82.208 C364.730658,81.2959954 363.642669,80.1120073 362.922665,78.656 C362.202662,77.1999927 361.842665,75.672008 361.842665,74.072 C361.842665,72.0559899 362.40266,70.2880076 363.522665,68.768 C364.642671,67.2479924 366.074657,66.0800041 367.818665,65.264 C369.562674,64.4479959 371.346656,64.04 373.170665,64.04 C374.706673,64.04 376.090659,64.3599968 377.322665,65 C378.554672,65.6400032 379.170665,66.5199944 379.170665,67.64 C379.170665,68.248003 378.938668,68.7679978 378.474665,69.2 C378.010663,69.6320022 377.36267,69.848 376.530665,69.848 C375.762662,69.848 375.154668,69.648002 374.706665,69.248 C374.258663,68.847998 373.890667,68.2320042 373.602665,67.4 C373.314664,66.5039955 373.034667,65.8880017 372.762665,65.552 C372.490664,65.2159983 372.002669,65.048 371.298665,65.048 C369.922659,65.048 368.826669,65.7279932 368.010665,67.088 C367.194661,68.4480068 366.786665,70.2479888 366.786665,72.488 C366.786665,75.1440133 367.378659,77.2639921 368.562665,78.848 C369.746671,80.4320079 371.634652,81.224 374.226665,81.224 C375.09067,81.224 375.834662,81.128001 376.458665,80.936 C377.082669,80.743999 377.874661,80.4240022 378.834665,79.976 L378.882665,79.976 C378.978666,79.976 379.066665,80.0239995 379.146665,80.12 C379.226666,80.2160005 379.234666,80.2959997 379.170665,80.36 C377.986659,81.4480054 376.802671,82.2559974 375.618665,82.784 C374.434659,83.3120026 373.074673,83.576 371.538665,83.576 C369.426655,83.576 367.642673,83.1200046 366.186665,82.208 Z M396.125332,79.64 C396.253333,79.64 396.357332,79.7039994 396.437332,79.832 C396.517332,79.9600006 396.509332,80.0559997 396.413332,80.12 C395.229326,81.3040059 394.077338,82.1759972 392.957332,82.736 C391.837326,83.2960028 390.653338,83.576 389.405332,83.576 C387.997325,83.576 386.797337,83.2400034 385.805332,82.568 C384.813327,81.8959966 384.317332,80.760008 384.317332,79.16 L384.317332,68.504 C384.317332,67.511995 384.141334,66.8240019 383.789332,66.44 C383.43733,66.0559981 382.797337,65.864 381.869332,65.864 C381.837332,65.864 381.797332,65.8160005 381.749332,65.72 C381.701332,65.6239995 381.677332,65.5280005 381.677332,65.432 C381.677332,65.3039994 381.693332,65.2000004 381.725332,65.12 C381.757332,65.0399996 381.805332,65 381.869332,65 C383.50134,64.9359997 384.821327,64.5840032 385.829332,63.944 C386.837337,63.3039968 387.613329,62.3280066 388.157332,61.016 C388.221332,60.8879994 388.357331,60.824 388.565332,60.824 C388.773333,60.824 388.877332,60.8879994 388.877332,61.016 L388.877332,64.856 C390.733341,64.8239998 392.81332,64.6800013 395.117332,64.424 C395.181332,64.424 395.253332,64.5439988 395.333332,64.784 C395.413332,65.0240012 395.453332,65.2879986 395.453332,65.576 C395.453332,65.8960016 395.397333,66.2079985 395.285332,66.512 C395.173331,66.8160015 395.053333,66.9520002 394.925332,66.92 C392.845322,66.4719978 390.829342,66.2320002 388.877332,66.2 L388.877332,77.576 C388.877332,78.7920061 389.189329,79.6879971 389.813332,80.264 C390.437335,80.8400029 391.261327,81.128 392.285332,81.128 C393.565338,81.128 394.813326,80.6480048 396.029332,79.688 L396.125332,79.64 Z" id="The-Women’s-Print-Hi" fill="#FFFFFF"></path>
    </g>
</svg>
